# https://github.com/mikedh/trimesh
v 0.00047874 -0.10495339 0.01357005
v -0.02212782 0.09765148 -0.00754457
v -0.03573594 0.03298516 0.02033121
v -0.06149566 0.07858410 0.01372802
v 0.06614294 -0.06760395 -0.00435282
v 0.02722443 -0.07399313 -0.00884132
v 0.06648344 0.07562067 0.00635263
v -0.07257806 0.03991473 -0.00212499
v -0.07874044 0.01128763 -0.00451706
v -0.02580555 0.09056148 -0.01455979
v -0.06237441 0.06020167 0.01512560
v -0.01035611 0.10303765 -0.01819321
v 0.00738506 -0.08881265 0.01790457
v 0.07170455 -0.00892169 0.00455684
v -0.04693542 0.02181254 0.01665591
v 0.04321131 0.03104007 0.01357632
v 0.07756317 0.05048268 -0.00483157
v 0.06459343 -0.06301597 -0.00590335
v -0.00848140 0.09643369 -0.02028658
v 0.00140309 -0.11005069 0.00440763
v -0.00812206 0.10123764 -0.01197315
v 0.04859109 -0.09772366 0.00164755
v -0.04991710 0.05084582 0.01870219
v -0.06960496 -0.06850731 -0.00129058
v 0.04759237 -0.04935755 -0.01275274
v 0.07052675 -0.03705548 -0.01042596
v -0.06708952 -0.06500173 -0.00961929
v 0.04855446 -0.01787170 -0.01605953
f 17 28 19
f 13 16 3
f 3 15 13
f 27 19 28
f 9 19 27
f 3 16 7
f 26 28 17
f 16 13 14
f 14 7 16
f 17 7 14
f 14 26 17
f 5 26 14
f 24 27 20
f 20 1 24
f 9 27 24
f 24 13 15
f 24 1 13
f 20 27 6
f 4 8 9
f 12 4 2
f 17 19 12
f 12 7 17
f 25 27 28
f 25 6 27
f 28 26 25
f 5 6 25
f 20 6 22
f 22 6 5
f 22 1 20
f 13 1 22
f 5 14 22
f 22 14 13
f 3 7 23
f 7 4 23
f 23 15 3
f 23 24 15
f 21 12 2
f 7 12 21
f 2 4 21
f 21 4 7
f 8 4 10
f 4 12 10
f 10 12 19
f 10 19 9
f 9 8 10
f 18 26 5
f 5 25 18
f 18 25 26
f 24 23 11
f 11 23 4
f 9 24 11
f 11 4 9

