# https://github.com/mikedh/trimesh
v -0.10452996 0.01442260 -0.00431570
v 0.09322535 -0.01286913 -0.01646432
v -0.02693112 0.05712613 0.00597953
v -0.06621731 0.02562885 0.01761862
v 0.01457691 -0.05377341 0.01375789
v -0.06505046 -0.06212397 -0.00865064
v 0.08949213 -0.01647594 -0.01843330
v 0.01939543 0.05451299 -0.01047665
v 0.02332543 -0.05557177 0.00705443
v -0.06753499 0.05340519 0.00961394
v 0.07850473 -0.04704398 0.00066781
v -0.09525114 -0.04023326 -0.00985456
v -0.09485476 0.00748949 0.00372024
v 0.11128765 0.03422912 0.01071193
v -0.06856961 0.05071815 -0.00156063
v -0.09663322 -0.03001789 -0.01497782
v 0.10284115 0.03985282 -0.00271692
v 0.04930631 -0.04791713 0.01153120
v -0.02885317 0.05804667 -0.01340617
v -0.01640486 0.06839395 -0.01044801
v 0.04244998 0.05433012 -0.00516074
v 0.06024485 0.02574121 0.01964496
v 0.02610053 -0.05411202 -0.00525239
v 0.09558284 -0.02150109 0.00537985
v 0.03923707 0.03123893 0.01761213
v -0.07237171 0.04716303 0.00907026
v -0.05839155 -0.05972895 0.01294204
f 27 4 13
f 14 18 24
f 18 5 9
f 9 27 6
f 9 5 27
f 2 17 14
f 7 17 2
f 14 24 2
f 21 20 14
f 14 17 21
f 21 17 20
f 8 17 7
f 20 17 8
f 7 19 8
f 8 19 20
f 16 7 6
f 16 19 7
f 1 19 16
f 26 10 1
f 4 10 26
f 1 13 26
f 26 13 4
f 15 19 1
f 1 10 15
f 20 19 15
f 15 10 20
f 14 20 3
f 20 10 3
f 25 3 10
f 22 4 27
f 27 5 22
f 22 10 4
f 22 25 10
f 22 5 18
f 22 18 14
f 14 3 22
f 3 25 22
f 6 7 23
f 23 9 6
f 6 27 12
f 12 16 6
f 27 13 12
f 12 13 1
f 1 16 12
f 18 9 11
f 9 23 11
f 11 23 7
f 11 24 18
f 7 2 11
f 11 2 24

