# https://github.com/mikedh/trimesh
v 0.07651197 -0.00371090 0.01195024
v -0.00991075 -0.06791735 0.00472761
v -0.06566890 -0.05271893 -0.00248135
v 0.00813090 0.05782144 -0.02107732
v -0.07604679 0.00855919 -0.00601937
v 0.01823940 -0.05120977 0.01642854
v -0.08931980 0.01125701 0.00848215
v -0.03075747 -0.02072591 -0.02102935
v -0.02999591 0.04517276 -0.01706890
v 0.06857678 0.05048660 0.00204942
v -0.07482540 -0.04067436 0.00127279
v -0.02840214 -0.05611111 0.01392990
v -0.01543574 0.06714450 -0.00126659
v 0.07158385 -0.00655307 -0.01434291
v -0.05754905 0.04780415 0.01870146
v 0.03926616 0.06261392 -0.00187889
v -0.08710427 -0.00037480 0.00756552
v -0.05678074 0.05243077 0.00594744
v 0.07541155 -0.04079616 -0.01038063
v 0.03027613 0.01453135 0.02125632
v 0.06754610 -0.00595797 -0.01659161
v 0.07005162 0.04853830 0.01269569
v 0.02629816 -0.06194802 0.00795882
v -0.01170270 -0.06639180 -0.00141169
v 0.04973367 -0.05796608 -0.01195965
v 0.04459251 -0.01443009 -0.02047745
v 0.08056722 -0.03086933 -0.00871296
v 0.06052840 -0.03175913 -0.01464097
v 0.06400115 0.02143789 0.02215903
v 0.00935364 0.04822401 -0.02336335
v -0.02047637 -0.05047545 0.01541491
v -0.03789076 0.01194987 0.01949011
v -0.05828169 -0.04041507 -0.01861932
v 0.07645576 -0.03703454 -0.00673256
f 7 15 18
f 18 15 13
f 18 5 7
f 27 10 22
f 22 15 29
f 13 15 22
f 33 24 3
f 27 22 1
f 1 22 29
f 13 22 16
f 16 22 10
f 16 4 13
f 10 4 16
f 21 26 30
f 21 4 10
f 30 4 21
f 33 30 8
f 8 26 33
f 30 26 8
f 5 18 9
f 9 4 30
f 9 18 13
f 13 4 9
f 33 5 9
f 9 30 33
f 33 3 11
f 25 24 33
f 33 26 25
f 26 28 25
f 14 10 27
f 27 21 14
f 14 21 10
f 33 11 17
f 7 5 17
f 17 5 33
f 29 20 6
f 6 1 29
f 6 23 1
f 19 23 25
f 19 25 28
f 19 21 27
f 26 21 19
f 19 28 26
f 1 23 34
f 23 19 34
f 27 1 34
f 34 19 27
f 12 11 3
f 12 17 11
f 7 17 12
f 2 3 24
f 2 12 3
f 24 25 2
f 25 23 2
f 23 6 2
f 6 12 2
f 29 15 32
f 32 20 29
f 32 15 7
f 7 12 32
f 32 6 20
f 31 12 6
f 6 32 31
f 31 32 12

