# https://github.com/mikedh/trimesh
v -0.05483477 0.03262421 -0.00031743
v 0.03745096 0.01513610 -0.02439557
v 0.03039762 0.04577503 0.02737463
v 0.01660399 -0.07546582 -0.01208061
v 0.03899461 0.05126179 -0.00444298
v -0.05003955 0.02197435 -0.01173047
v -0.05304444 0.03808572 -0.00364991
v -0.00696390 0.06804500 -0.00368015
v 0.01263763 0.05882152 0.00826258
v 0.01221351 -0.03977431 0.02540555
v -0.00681642 -0.05134024 0.02526648
v -0.02596312 -0.06207727 0.01321513
v -0.05414914 0.04853099 0.01883785
v -0.03198503 0.07177687 0.00302164
v 0.03119685 -0.02649934 -0.02109157
v -0.04283868 0.05922875 0.01796379
v 0.02610051 -0.08325644 0.01165472
v 0.00451521 0.06688025 -0.02778584
v 0.04388370 0.03882657 0.02630286
v -0.05579952 0.04530074 0.01780186
v 0.06886850 0.01435703 -0.01785293
v -0.01163151 -0.07929060 -0.00883224
v 0.06680820 0.03795275 -0.00521206
v -0.06473722 -0.02980954 0.00125758
v -0.04101624 -0.01752232 -0.02350384
v -0.04549426 -0.01765416 -0.02080727
v -0.05153533 0.03857857 -0.00449449
f 21 17 4
f 8 18 14
f 16 3 14
f 14 13 16
f 16 13 3
f 3 13 11
f 21 4 15
f 3 19 23
f 21 18 23
f 23 17 21
f 23 19 17
f 7 13 14
f 7 6 24
f 25 15 4
f 25 6 18
f 10 19 3
f 3 11 10
f 17 19 10
f 10 11 17
f 12 11 24
f 17 11 12
f 2 18 21
f 21 15 2
f 2 25 18
f 15 25 2
f 18 8 5
f 5 23 18
f 3 23 5
f 18 6 27
f 6 7 27
f 14 18 27
f 27 7 14
f 13 7 20
f 24 11 20
f 20 11 13
f 22 25 4
f 22 12 24
f 22 4 17
f 17 12 22
f 24 6 26
f 6 25 26
f 26 22 24
f 25 22 26
f 3 5 9
f 9 5 8
f 14 3 9
f 9 8 14
f 1 7 24
f 24 20 1
f 1 20 7

