# https://github.com/mikedh/trimesh
v 0.01238777 0.10013014 -0.03168175
v 0.09211207 0.00813557 -0.00579910
v 0.03777171 -0.09793565 -0.00774546
v -0.04255520 0.01945096 0.03484060
v 0.04157738 -0.09655561 0.01807648
v -0.07902986 -0.06698052 -0.00850555
v 0.07317784 0.07179725 0.01551090
v 0.07460167 -0.05115210 -0.02064951
v -0.02122909 -0.09512810 0.01044520
v -0.08895586 0.01643117 0.01229691
v 0.07089664 0.00884738 0.02342108
v -0.08574951 -0.05645462 -0.02879735
v -0.07357895 0.08254744 0.02706340
v 0.08537352 -0.05750482 -0.00340697
f 8 1 2
f 3 12 8
f 8 12 1
f 10 12 6
f 13 12 10
f 1 12 13
f 3 8 14
f 2 11 14
f 14 8 2
f 9 12 3
f 9 6 12
f 10 6 9
f 1 13 7
f 2 1 7
f 7 11 2
f 11 7 4
f 4 7 13
f 4 13 10
f 10 9 4
f 11 4 5
f 5 4 9
f 5 14 11
f 5 9 3
f 3 14 5

