# https://github.com/mikedh/trimesh
v 0.00868683 -0.10956804 0.01666114
v 0.04197402 -0.01146511 -0.01781211
v 0.00141143 0.10392404 -0.00824088
v -0.07121993 -0.01059949 -0.00077633
v 0.05631802 0.09179122 0.01234434
v 0.02271817 0.10419131 -0.00632069
v 0.04934568 -0.03665452 -0.01537262
v -0.07143219 0.04860787 -0.00040293
v -0.05923794 0.05205001 0.01095234
v -0.04346668 0.06261308 0.01405925
v -0.00528421 -0.11030240 -0.00036839
v -0.04086535 -0.09599706 0.00424754
v 0.01572300 0.10533820 -0.01059367
v 0.07238920 -0.00453486 -0.00819510
v -0.01852973 0.10233009 0.00223157
v -0.06101366 -0.02276669 -0.01519350
v -0.05779011 0.07329922 -0.00170039
v -0.03939713 -0.09318547 -0.01079016
v 0.05917071 -0.07099017 -0.00256159
v 0.06104032 -0.06101057 0.00369701
v -0.03400920 0.06287551 0.01467804
v -0.05075797 -0.03314729 -0.01539346
v -0.03119875 -0.10284608 0.01004165
v 0.00726168 0.07843574 -0.01315247
v 0.05532689 -0.07161681 -0.00696062
v -0.03228494 0.09899725 -0.00802305
f 6 5 14
f 8 16 4
f 20 5 1
f 1 19 20
f 14 5 20
f 20 19 14
f 1 5 21
f 21 10 1
f 5 10 21
f 5 6 15
f 15 10 5
f 15 17 10
f 1 10 9
f 8 4 9
f 9 17 8
f 10 17 9
f 18 4 16
f 18 12 4
f 25 1 11
f 25 19 1
f 11 18 25
f 25 18 7
f 14 19 25
f 25 7 14
f 17 15 26
f 26 24 16
f 26 16 8
f 8 17 26
f 11 1 23
f 23 18 11
f 12 18 23
f 1 9 23
f 23 9 4
f 4 12 23
f 22 18 16
f 24 26 13
f 13 6 14
f 13 15 6
f 24 13 2
f 7 18 2
f 18 22 2
f 16 24 2
f 2 22 16
f 14 7 2
f 2 13 14
f 3 26 15
f 15 13 3
f 3 13 26

