# https://github.com/mikedh/trimesh
v 0.03175596 -0.02328664 0.00395979
v 0.04729561 -0.01715683 0.00266154
v 0.04093983 0.03100738 0.00135235
v 0.00047831 -0.03296829 -0.00083949
v -0.00142637 -0.02366702 0.00427476
v -0.03529352 0.02368487 0.00392247
v 0.04984885 0.02442935 0.00234370
v -0.05242696 -0.02035808 0.00427347
v -0.05389889 0.02705678 0.00343744
v 0.00406457 0.03267051 -0.00405210
v -0.04233999 0.03066901 -0.00277894
v -0.05877365 -0.02067390 0.00409546
v 0.03933818 -0.03205820 -0.00399627
v 0.03190316 -0.01565138 0.00414780
v 0.04774533 -0.03199533 0.00200242
v 0.05952972 -0.00092270 -0.00378987
v -0.00314041 -0.02524980 -0.00390176
v -0.03158996 0.03308605 0.00049955
v -0.04649952 -0.01431470 -0.00381373
v -0.03964306 -0.01147651 -0.00438400
v 0.05793335 -0.02660080 0.00118599
v -0.00767706 -0.03205904 0.00311210
v 0.03530930 0.02768303 -0.00113966
v 0.03927637 0.03168075 0.00154774
v -0.06101352 -0.00894491 -0.00381873
f 13 10 16
f 11 10 25
f 18 10 11
f 16 10 23
f 24 10 18
f 25 10 20
f 10 13 20
f 16 7 21
f 21 13 16
f 17 20 13
f 18 11 9
f 9 24 18
f 25 12 9
f 9 11 25
f 3 23 10
f 10 24 3
f 16 23 3
f 3 7 16
f 3 24 7
f 25 20 19
f 20 17 19
f 19 12 25
f 13 21 15
f 4 17 13
f 13 15 4
f 4 15 22
f 4 22 12
f 12 19 4
f 4 19 17
f 7 24 6
f 24 9 6
f 6 14 7
f 5 14 6
f 2 21 7
f 7 14 2
f 2 15 21
f 8 9 12
f 8 6 9
f 5 6 8
f 8 22 5
f 12 22 8
f 1 2 14
f 15 2 1
f 1 14 5
f 5 22 1
f 22 15 1

