# https://github.com/mikedh/trimesh
v 0.07154081 -0.02232579 -0.00473864
v -0.04248274 0.04869065 0.00292247
v -0.05762205 -0.00328834 0.00502221
v -0.00207712 -0.01975424 -0.00568337
v -0.00440546 -0.04313066 -0.00374304
v -0.05047314 -0.02002147 -0.00561463
v -0.06844957 -0.03129980 0.00095844
v -0.05684471 -0.02331038 0.00330857
v 0.07057075 -0.00394589 0.00344621
v 0.05288082 -0.02650218 0.00157293
v -0.06265230 -0.03531025 -0.00000417
v 0.07228512 0.02278359 -0.00105671
v 0.06821619 0.03619879 0.00193437
v -0.02955625 -0.01681416 -0.00562347
v -0.05532601 -0.04345345 0.00035643
v -0.06903080 -0.01903875 -0.00174123
v 0.00918243 0.01689979 -0.00492046
v 0.03996718 0.01980112 0.00416677
v -0.01937374 -0.02869300 -0.00509391
v 0.06161158 0.02384434 -0.00320443
v -0.04008255 0.02787587 -0.00243355
v -0.03805824 -0.04518381 0.00022548
v 0.00665208 0.01401825 -0.00500092
v 0.05824855 0.02556585 0.00350511
v 0.01185184 0.03928746 0.00421541
v 0.04481498 0.04029085 0.00132683
v -0.02921404 -0.04430691 0.00257014
v -0.00972997 0.04305299 0.00098085
v 0.03127854 0.02264673 -0.00385785
v -0.06949047 0.02147417 -0.00322637
v 0.06343577 -0.03742593 -0.00237358
v -0.06244439 0.03360398 -0.00056891
v -0.06809039 0.00450541 0.00340103
v 0.00478542 -0.03170738 0.00494765
f 30 17 6
f 3 2 33
f 30 7 33
f 33 7 3
f 3 7 8
f 12 1 20
f 1 17 20
f 21 17 30
f 16 7 30
f 30 6 16
f 7 16 11
f 11 16 6
f 1 31 5
f 12 20 13
f 25 2 3
f 25 13 2
f 24 13 25
f 15 8 7
f 7 11 15
f 15 11 6
f 15 5 22
f 6 5 15
f 34 25 3
f 32 21 30
f 2 21 32
f 30 33 32
f 32 33 2
f 29 20 17
f 17 21 29
f 23 6 17
f 23 14 6
f 1 5 4
f 6 14 4
f 14 23 4
f 4 17 1
f 4 23 17
f 2 13 26
f 26 13 20
f 31 34 27
f 22 5 27
f 27 5 31
f 27 15 22
f 8 15 27
f 3 8 27
f 27 34 3
f 9 13 24
f 12 13 9
f 9 1 12
f 9 31 1
f 24 25 18
f 25 34 18
f 18 9 24
f 34 9 18
f 28 21 2
f 28 29 21
f 2 26 28
f 20 29 28
f 28 26 20
f 19 5 6
f 6 4 19
f 19 4 5
f 10 34 31
f 31 9 10
f 10 9 34

