# https://github.com/mikedh/trimesh
v -0.00157843 -0.05917342 0.01871158
v -0.05088423 -0.02608637 -0.02334282
v 0.00737739 -0.10925413 0.00885838
v 0.07662775 -0.01529029 -0.01404692
v -0.08549042 0.00140151 0.00657093
v -0.00311192 0.08681554 -0.01388578
v -0.08662299 0.01607824 0.01384335
v 0.04250700 0.10225013 -0.00383151
v 0.02411394 -0.10246145 0.00895757
v -0.06117926 0.02491652 0.01600891
v -0.06683573 0.01946173 0.01654064
v -0.07792727 -0.00935101 -0.00875981
v -0.02441176 0.08762563 0.00334287
v 0.03232887 0.03297344 0.02022210
v 0.06612270 -0.02603387 -0.01934606
v 0.03665033 0.02121620 0.02176390
v 0.08684173 -0.02353392 -0.00761510
v 0.09593538 0.00273905 0.00544005
v -0.09298943 0.02761388 -0.00616682
v -0.03550781 0.10115868 -0.01173799
v 0.05667717 0.08405432 0.00894531
v 0.06612724 -0.07312388 0.00226417
v -0.06729113 -0.06152929 -0.00462201
v 0.01254274 0.09131444 0.00484144
v -0.03753136 -0.10282056 0.00894571
v 0.07337513 -0.03942802 -0.01235002
v -0.06943221 -0.06709727 -0.00054784
v -0.04040590 -0.08351856 -0.00337675
v 0.01063243 0.09741996 -0.00083129
f 20 2 19
f 20 6 2
f 19 2 12
f 19 27 5
f 25 28 3
f 27 28 25
f 3 26 22
f 2 6 15
f 15 28 2
f 15 26 3
f 3 28 15
f 2 28 23
f 23 28 27
f 23 12 2
f 23 27 19
f 19 12 23
f 1 16 11
f 1 25 3
f 19 5 7
f 7 1 11
f 25 1 7
f 7 5 27
f 27 25 7
f 7 20 19
f 18 22 17
f 17 22 26
f 26 15 17
f 18 17 4
f 4 17 15
f 11 16 14
f 16 1 9
f 18 16 9
f 9 22 18
f 3 22 9
f 9 1 3
f 21 16 18
f 21 14 16
f 6 20 8
f 8 15 6
f 8 4 15
f 18 4 8
f 8 21 18
f 20 7 13
f 21 8 24
f 14 21 24
f 24 13 14
f 11 14 10
f 14 13 10
f 10 7 11
f 10 13 7
f 29 8 20
f 29 24 8
f 20 13 29
f 13 24 29

