# https://github.com/mikedh/trimesh
v 0.02803615 0.02455046 0.00229317
v -0.04123227 -0.02401183 -0.00617970
v 0.05683711 -0.01970012 0.00737090
v -0.07895177 -0.00723148 0.00076122
v -0.05311001 0.02563138 0.00251876
v -0.07006240 0.02212911 0.00623593
v -0.05948102 0.01765843 0.00789736
v 0.06524717 0.01684151 0.00627412
v 0.03978170 0.00763399 0.00756025
v 0.06706965 -0.02260678 -0.00607626
v 0.08333025 -0.00429095 -0.00393493
v -0.07423148 -0.01073321 0.00773827
v 0.07416673 0.01730721 0.00210108
v 0.08069882 -0.02507991 0.00065014
v 0.06591788 -0.01277996 -0.00744179
v 0.08349536 -0.00697284 0.00418051
v -0.06097260 -0.02659353 0.00489502
v -0.06265190 -0.02498742 0.00813896
v -0.01874654 0.01522177 0.00759367
v -0.07759409 0.00169472 0.00430645
v 0.06032562 0.02342047 -0.00733026
v 0.06714008 -0.02001193 -0.00743257
v 0.08237853 -0.00296904 -0.00571245
v -0.07052028 0.02752779 -0.00381629
v -0.07916597 0.00146205 -0.00444573
v 0.08067225 0.00338873 0.00120459
v -0.01693142 0.02108167 0.00591662
v -0.07728769 0.02703480 -0.00723012
v -0.04159288 -0.01265751 -0.00710207
f 17 2 14
f 3 14 16
f 28 2 25
f 25 20 28
f 28 20 6
f 10 14 2
f 4 20 25
f 25 2 4
f 4 2 17
f 8 3 16
f 17 14 18
f 14 3 18
f 18 4 17
f 2 28 29
f 22 10 2
f 2 29 22
f 14 10 22
f 22 28 15
f 22 29 28
f 23 22 15
f 14 22 23
f 6 20 12
f 20 4 12
f 4 18 12
f 3 8 9
f 9 18 3
f 6 1 5
f 27 1 6
f 8 1 27
f 13 8 16
f 13 1 8
f 7 12 18
f 18 9 7
f 6 12 7
f 7 27 6
f 8 27 7
f 24 5 1
f 24 28 6
f 6 5 24
f 26 13 16
f 23 13 26
f 19 9 8
f 8 7 19
f 19 7 9
f 11 26 16
f 23 26 11
f 16 14 11
f 14 23 11
f 21 13 23
f 21 23 15
f 1 13 21
f 15 28 21
f 21 24 1
f 28 24 21

