# https://github.com/mikedh/trimesh
v -0.07529564 0.02224873 -0.00215907
v 0.05361961 0.03391240 0.00462014
v 0.04047591 0.03034623 -0.00541982
v -0.01016398 0.02333495 0.00577546
v -0.05435434 -0.03020338 -0.00182066
v -0.06384502 0.03715730 0.00357267
v 0.04716129 -0.04697436 -0.00135271
v -0.02625125 -0.03929191 0.00015943
v 0.01733994 -0.04113224 0.00421483
v 0.06725093 -0.00247583 0.00527199
v -0.08635474 0.01202665 0.00132836
v -0.09590926 -0.01693446 0.00051968
v -0.05978398 0.03627484 -0.00447356
v -0.05043087 0.03915141 -0.00013456
v 0.08417016 -0.02184886 0.00528578
v 0.01707448 -0.02418228 -0.00570952
v -0.08722597 0.00391643 -0.00435488
v -0.01030575 -0.03093975 -0.00385831
v 0.08418578 -0.02722128 -0.00353758
v -0.03729620 0.03798367 0.00520228
v 0.07755196 0.03197053 -0.00527177
v -0.01726622 -0.03328892 0.00354582
v 0.00360186 0.04140888 -0.00333414
v -0.10052312 -0.00479787 -0.00022087
v -0.08005553 -0.02347516 -0.00162621
v -0.03533454 0.04066457 -0.00038677
v -0.08274303 0.00049777 0.00541745
f 23 2 21
f 24 27 11
f 11 27 6
f 4 27 15
f 15 27 9
f 19 21 15
f 15 21 2
f 4 2 20
f 20 27 4
f 6 27 20
f 20 2 23
f 16 21 19
f 23 21 13
f 13 16 17
f 6 14 13
f 10 2 4
f 4 15 10
f 10 15 2
f 26 14 6
f 6 20 26
f 26 20 23
f 23 13 26
f 26 13 14
f 21 16 3
f 3 13 21
f 16 13 3
f 1 11 6
f 6 13 1
f 24 11 1
f 1 17 24
f 1 13 17
f 24 17 12
f 17 25 12
f 12 27 24
f 7 16 19
f 19 15 7
f 7 15 9
f 8 7 9
f 5 7 8
f 8 25 5
f 8 12 25
f 18 7 5
f 16 7 18
f 5 25 18
f 17 16 18
f 18 25 17
f 22 8 9
f 12 8 22
f 9 27 22
f 27 12 22

