# https://github.com/mikedh/trimesh
v 0.01480174 -0.08326786 0.01913192
v 0.02037463 0.08456508 -0.02311610
v -0.00158906 0.11432972 -0.02617622
v 0.00156298 -0.04348183 0.02968463
v -0.04604633 0.04475604 0.02430441
v 0.00064437 -0.12952732 -0.00148164
v -0.02570304 0.09146763 -0.00683406
v 0.04900181 -0.02805069 -0.02021581
v 0.02269043 0.11078052 -0.00439298
v -0.04882720 0.02914960 0.01806245
v -0.04306678 0.05625053 -0.00460588
v -0.03955871 -0.06881432 0.00087590
v -0.03541172 -0.05192053 -0.01370175
v -0.03031241 0.08699509 0.00611797
v 0.02834329 -0.03997488 -0.02589512
v -0.00528932 -0.11817176 0.02890078
v 0.05644452 0.07385558 -0.00332109
v 0.06043039 0.02517477 0.01890328
v -0.06477405 0.01033742 -0.00520980
v -0.03071223 -0.11298917 -0.00840383
v -0.02908236 0.01420870 -0.01891867
f 7 3 19
f 12 16 19
f 18 16 1
f 1 16 6
f 11 7 19
f 18 9 5
f 19 3 21
f 3 15 21
f 3 9 17
f 17 9 18
f 4 16 18
f 18 5 4
f 4 5 16
f 14 5 9
f 3 7 14
f 14 9 3
f 7 11 14
f 14 11 19
f 19 5 14
f 19 16 10
f 10 5 19
f 16 5 10
f 8 17 18
f 6 15 8
f 18 1 8
f 8 1 6
f 20 15 6
f 20 12 19
f 6 16 20
f 16 12 20
f 3 17 2
f 17 8 2
f 2 15 3
f 2 8 15
f 13 21 15
f 15 20 13
f 19 21 13
f 13 20 19

