# https://github.com/mikedh/trimesh
v 0.10766331 -0.00470614 0.00405184
v 0.08881507 0.01759012 0.00192564
v 0.07454791 0.02103042 0.00759915
v 0.05147794 0.01906272 -0.00452825
v -0.03495866 -0.00437009 -0.00811866
v -0.00384910 -0.01986528 0.00581402
v -0.09384124 -0.01425296 0.00166625
v 0.08122337 -0.02146445 -0.00150873
v 0.11228142 0.01122397 0.00021381
v 0.03670406 -0.02408148 -0.00386121
v 0.02327820 -0.02404173 0.00541428
v 0.09296783 -0.01685011 -0.00692350
v 0.03660212 0.02080824 0.00733030
v 0.09846955 0.01364630 -0.00167280
v -0.10000592 -0.01770616 -0.00749456
v 0.04114243 0.01214754 -0.00550733
v 0.11053454 -0.01281335 -0.00492646
v 0.09223672 -0.01015302 0.00389516
v 0.02788284 -0.00271239 0.00907102
v -0.03424508 -0.00451299 0.00993963
v 0.05338742 0.02107242 -0.00093764
v -0.05620670 0.02159379 -0.00696189
v -0.10152514 0.02216632 -0.00429315
v 0.11107137 -0.00147661 0.00087914
v -0.09131163 0.00449247 0.00742993
v 0.08925360 0.00035138 0.00741004
v -0.03715025 -0.02706804 -0.00245027
v -0.06468022 0.02655651 0.00383459
v -0.04029821 -0.02594086 -0.00576294
v 0.01343075 -0.01820547 0.00820606
v -0.10192215 0.00699113 -0.00074336
v -0.02476148 -0.01109676 0.00891134
f 11 7 27
f 28 22 23
f 20 3 13
f 13 3 28
f 2 3 9
f 21 22 28
f 28 3 21
f 3 2 21
f 22 21 4
f 4 21 2
f 15 23 22
f 27 7 15
f 15 7 31
f 31 23 15
f 25 32 20
f 7 32 25
f 31 7 25
f 20 13 25
f 25 13 28
f 25 23 31
f 28 23 25
f 7 11 6
f 16 12 22
f 22 4 16
f 16 4 12
f 14 2 9
f 14 4 2
f 27 15 29
f 29 15 12
f 22 12 5
f 5 15 22
f 12 15 5
f 17 8 12
f 17 14 9
f 12 4 17
f 4 14 17
f 30 6 11
f 20 32 30
f 30 32 7
f 7 6 30
f 11 8 18
f 18 30 11
f 26 30 18
f 12 8 10
f 10 29 12
f 27 29 10
f 10 11 27
f 10 8 11
f 20 30 19
f 19 30 26
f 19 3 20
f 19 26 3
f 26 18 1
f 9 3 1
f 3 26 1
f 8 17 1
f 1 18 8
f 24 17 9
f 9 1 24
f 24 1 17

