# https://github.com/mikedh/trimesh
v 0.05157673 -0.02688993 -0.00580711
v 0.04178694 -0.02936385 -0.00642456
v -0.04129865 0.04074651 -0.00192641
v -0.03383868 0.03459087 0.00291372
v -0.04715065 -0.03841921 0.00448293
v 0.00162140 0.03952809 -0.00239563
v -0.01599368 -0.04182971 -0.00348076
v -0.02215601 0.02562042 -0.00519905
v -0.04493418 -0.04008598 0.00400849
v -0.03535919 -0.01385234 -0.00362447
v 0.05652264 -0.02292809 0.00480999
v -0.05462631 -0.02898118 0.00454305
v 0.05046428 0.02452856 0.00443021
v 0.05363251 -0.00774944 -0.00531033
v -0.01655226 0.03909404 -0.00285353
v -0.01049066 0.03289343 0.00425691
v -0.05582145 0.02874356 -0.00206552
v 0.04798825 -0.02934776 -0.00532327
v 0.03439034 0.04247991 0.00271094
v 0.05291713 0.02994014 -0.00339615
v -0.04882131 0.02814694 0.00121870
v -0.03239447 0.00576074 -0.00645846
v 0.04150200 -0.03544981 0.00357104
v 0.05742753 -0.00251844 -0.00184966
v 0.01889483 -0.03682772 -0.00173250
v -0.05585317 0.01461581 0.00460587
v 0.05291247 0.01236309 -0.00533828
v -0.01975923 -0.04169646 0.00371180
f 10 22 7
f 7 22 2
f 24 11 1
f 11 5 23
f 23 1 11
f 12 11 26
f 12 5 11
f 17 12 26
f 22 10 17
f 10 12 17
f 19 3 4
f 13 20 19
f 26 11 13
f 13 11 24
f 24 20 13
f 22 17 8
f 8 17 3
f 24 1 14
f 25 23 7
f 7 23 28
f 28 23 5
f 2 1 18
f 1 23 18
f 23 25 18
f 7 2 18
f 18 25 7
f 21 17 26
f 3 17 21
f 26 4 21
f 21 4 3
f 16 4 26
f 19 4 16
f 26 13 16
f 16 13 19
f 15 8 3
f 20 8 15
f 27 1 2
f 27 14 1
f 27 2 22
f 22 8 27
f 27 8 20
f 27 20 24
f 24 14 27
f 7 28 9
f 9 28 5
f 5 12 9
f 9 10 7
f 9 12 10
f 19 20 6
f 20 15 6
f 6 3 19
f 6 15 3

