# https://github.com/mikedh/trimesh
v -0.00582657 0.07252774 -0.02117958
v -0.00294471 0.09066060 0.00455828
v -0.04801119 0.01487514 0.01840101
v -0.02034203 0.07410904 0.00758721
v -0.06466898 0.03526350 0.01281750
v 0.05558283 0.04107332 -0.00519950
v 0.05951291 0.00500607 -0.00434770
v 0.03091027 -0.02083897 -0.02831097
v 0.02408870 0.09986413 0.01026246
v -0.02146532 -0.08191373 0.02403574
v 0.01457203 0.09885575 -0.01342384
v 0.02375349 -0.08240141 -0.01043789
v 0.03410944 0.04387934 0.02387102
v 0.03436585 -0.06861415 -0.02054321
v -0.03700508 -0.09362156 0.00698797
v -0.04428766 -0.03683293 -0.02208453
v 0.06087347 0.01122024 -0.00479618
v 0.04440113 -0.06646991 -0.01708600
v 0.03731380 0.08505574 0.02115041
v -0.05372496 0.02263344 -0.00590197
v -0.00021363 -0.09712800 0.01737910
f 18 8 17
f 17 19 13
f 13 10 21
f 7 18 17
f 21 18 7
f 17 13 7
f 7 13 21
f 21 10 15
f 5 16 15
f 15 10 5
f 14 16 8
f 8 18 14
f 14 15 16
f 5 10 3
f 10 13 3
f 3 19 5
f 3 13 19
f 6 19 17
f 17 8 6
f 8 11 6
f 8 16 1
f 1 11 8
f 5 11 1
f 2 11 5
f 21 15 12
f 15 14 12
f 12 18 21
f 12 14 18
f 20 16 5
f 5 1 20
f 20 1 16
f 4 2 5
f 11 2 9
f 19 6 9
f 9 6 11
f 2 4 9
f 5 19 9
f 9 4 5

