# https://github.com/mikedh/trimesh
v 0.02288125 -0.07420413 -0.00698357
v 0.03338226 0.06922570 -0.01262543
v -0.01227858 0.08526372 -0.02576348
v -0.02928951 -0.09363224 -0.01432735
v 0.01967080 0.07841867 0.00459272
v 0.06681573 -0.00317454 0.01453567
v 0.07319852 0.03692645 0.01386935
v 0.06402276 -0.05863937 0.00061763
v 0.05421979 0.06856679 0.01293428
v -0.07787472 -0.02164519 -0.00343438
v 0.05597857 0.05604205 0.01678337
v 0.02284113 -0.08736103 -0.00326309
v -0.02089425 -0.09481767 -0.01097972
v 0.01098407 -0.05145768 0.01994086
v -0.06047698 0.06149439 0.00827596
v -0.04092835 0.07398087 -0.00378421
v -0.04960797 -0.08121812 -0.01481392
v 0.07381713 0.01808484 -0.00405368
v 0.08263349 0.01915066 0.00300006
v -0.01041231 0.06365510 -0.02477429
v 0.02535066 0.04940569 -0.02066539
v -0.00494067 -0.06275115 0.01516440
v 0.07467400 0.00609214 -0.00708054
v -0.06424200 0.05127242 0.02352453
f 15 3 10
f 10 24 15
f 22 24 10
f 2 9 19
f 3 9 2
f 5 9 3
f 24 9 5
f 21 23 4
f 3 2 21
f 21 2 23
f 17 22 10
f 10 3 17
f 19 23 18
f 18 2 19
f 23 2 18
f 3 21 20
f 20 21 4
f 20 17 3
f 4 17 20
f 19 9 7
f 7 6 19
f 24 22 14
f 24 5 16
f 16 15 24
f 16 5 3
f 3 15 16
f 11 9 24
f 11 7 9
f 24 14 11
f 6 7 11
f 11 14 6
f 13 17 4
f 22 17 13
f 6 14 8
f 19 6 8
f 8 23 19
f 12 14 22
f 12 8 14
f 22 13 12
f 12 13 4
f 4 23 1
f 23 8 1
f 1 12 4
f 8 12 1

