# https://github.com/mikedh/trimesh
v -0.09005014 0.00318937 0.01157042
v -0.01952347 -0.08886439 0.02133110
v -0.02550490 0.07355302 -0.01414508
v -0.09150813 -0.02259935 -0.00284519
v 0.08435860 0.03627498 0.00431666
v 0.05086880 -0.05734754 0.00250934
v -0.06903027 0.02278522 0.01781265
v 0.05334813 0.02348614 0.01515619
v -0.01846960 0.03461646 -0.01866877
v -0.05441752 0.05036209 -0.01157543
v 0.03787989 -0.06597041 -0.00493319
v 0.05378365 -0.04114333 -0.02421528
v 0.00028682 0.08542403 -0.01295269
v 0.09431913 -0.02767767 -0.01115226
v -0.05734051 0.07167032 0.00373555
v 0.00135816 -0.07223835 0.00021183
v -0.06646988 0.04574957 -0.00616087
v 0.04285014 -0.06542768 -0.01285805
v 0.08190105 0.04216123 -0.00386429
v 0.03719975 0.04019839 0.01602498
v 0.03614105 0.06332666 -0.01199766
v -0.05754680 0.06096705 -0.00980885
f 4 2 1
f 2 7 1
f 7 15 1
f 20 7 2
f 13 15 20
f 20 15 7
f 9 12 4
f 13 12 9
f 16 2 4
f 14 12 19
f 2 11 6
f 18 12 14
f 2 16 18
f 18 11 2
f 4 12 18
f 18 16 4
f 14 6 18
f 18 6 11
f 8 20 2
f 2 6 8
f 13 20 5
f 5 19 13
f 20 8 5
f 14 19 5
f 5 6 14
f 5 8 6
f 21 12 13
f 13 19 21
f 21 19 12
f 10 9 4
f 4 22 10
f 17 1 15
f 15 22 17
f 4 1 17
f 17 22 4
f 13 9 3
f 3 15 13
f 3 22 15
f 9 10 3
f 3 10 22

