# https://github.com/mikedh/trimesh
v 0.04119565 0.05004903 0.01706986
v 0.03616368 0.07433460 0.00740066
v -0.06138968 -0.00849911 -0.01612754
v -0.02851543 -0.08114894 -0.00263415
v -0.06945521 0.01758245 0.01132422
v 0.07320892 -0.05281776 -0.02596221
v -0.07557584 -0.02172843 -0.01301698
v -0.05710474 0.08157684 0.00699468
v -0.00580219 -0.07972072 -0.00405848
v -0.05815747 -0.06345770 0.00242942
v 0.06597945 0.02785357 0.01461536
v -0.04022627 -0.06285818 -0.01441730
v -0.07590812 0.01750101 -0.00338235
v -0.01392090 0.09248369 -0.01452544
v -0.03751745 0.09065617 0.01051375
v -0.05268062 -0.06681735 -0.00793469
v 0.01054727 0.09439090 -0.01244402
v -0.07804456 -0.04179577 -0.01320561
v -0.06296912 0.05697950 0.02629447
v -0.01144696 -0.08449586 0.01896627
v 0.09037869 -0.01730033 -0.01529247
v 0.01194650 -0.05359717 0.01899708
v 0.03751314 0.03682952 0.02029125
v -0.00328335 -0.09749982 0.01189929
v 0.04653796 0.06169625 0.00019313
v 0.07527002 -0.06733609 0.00124541
v 0.03292019 0.07237993 -0.00921702
v -0.03401692 0.09446012 -0.01398022
v -0.07284172 0.06121847 0.01891408
v 0.05134137 0.00736303 0.01954272
f 10 20 19
f 19 29 10
f 3 6 18
f 28 6 3
f 14 6 28
f 20 10 24
f 18 29 13
f 28 13 8
f 8 13 29
f 20 24 26
f 26 6 21
f 26 24 6
f 19 20 30
f 5 29 18
f 18 10 5
f 5 10 29
f 18 6 12
f 18 13 7
f 7 13 28
f 7 3 18
f 28 3 7
f 17 14 28
f 6 14 17
f 21 6 17
f 17 27 21
f 15 29 19
f 15 8 29
f 2 17 15
f 28 8 15
f 15 17 28
f 1 15 19
f 2 15 1
f 20 26 22
f 22 30 20
f 26 30 22
f 21 27 25
f 25 17 2
f 27 17 25
f 4 12 6
f 19 30 23
f 23 1 19
f 11 26 21
f 11 30 26
f 21 25 11
f 11 23 30
f 1 23 11
f 2 1 11
f 11 25 2
f 6 24 9
f 9 4 6
f 24 4 9
f 16 24 10
f 16 4 24
f 16 10 18
f 18 12 16
f 12 4 16

