# https://github.com/mikedh/trimesh
v -0.02828746 -0.02534931 0.00372881
v 0.09397071 -0.02622648 -0.00095995
v -0.07672726 -0.02016458 0.00221305
v -0.06131892 0.03429204 -0.00003424
v 0.08563637 -0.00087820 0.00403718
v -0.01552457 -0.00375840 0.00422498
v 0.04458991 -0.00385707 -0.00355611
v 0.04745180 0.02568305 0.00346914
v -0.07720656 0.01365730 0.00200221
v -0.06292901 0.01698017 0.00339434
v 0.03041908 0.03345857 0.00087895
v -0.01694217 0.01122007 -0.00449693
v 0.07567691 -0.00241400 -0.00288125
v 0.03184521 0.00872290 -0.00389320
v 0.00342100 0.03828593 -0.00242276
v -0.07720079 -0.03050608 -0.00022002
v -0.02230611 0.03751996 -0.00097127
v 0.08491048 -0.02254995 0.00179256
v -0.05448835 -0.02882596 0.00149481
v 0.03430966 -0.03426011 0.00118814
v 0.03306745 0.03263004 -0.00299664
v -0.03470280 -0.02457792 -0.00300170
v -0.05752042 0.03588603 -0.00537261
f 9 23 16
f 4 23 9
f 10 4 9
f 8 4 10
f 15 23 17
f 23 4 17
f 2 13 5
f 22 16 23
f 3 1 10
f 9 16 3
f 3 10 9
f 16 19 3
f 3 19 1
f 8 5 21
f 21 5 13
f 13 14 21
f 21 23 15
f 21 14 23
f 2 5 18
f 18 5 1
f 10 1 6
f 1 5 6
f 8 10 6
f 6 5 8
f 12 22 23
f 7 14 13
f 7 13 2
f 2 22 7
f 22 12 7
f 23 14 7
f 7 12 23
f 11 21 15
f 8 21 11
f 15 17 11
f 11 4 8
f 11 17 4
f 2 18 20
f 20 18 1
f 1 19 20
f 20 19 16
f 20 22 2
f 16 22 20

