# https://github.com/mikedh/trimesh
v -0.00240472 -0.04126012 0.00602635
v 0.05474220 0.01606011 -0.00283360
v -0.01941693 -0.04215945 0.00620345
v -0.04180047 0.00539196 -0.00805075
v 0.05442835 0.00615268 0.00440139
v -0.04644456 0.00415594 -0.00775637
v -0.00977063 0.04424744 -0.00386969
v -0.03982147 0.03188710 -0.00727706
v -0.02708733 0.04264777 -0.00038605
v -0.00009779 0.03906999 0.00615303
v 0.05052887 0.00537504 -0.00564171
v -0.03716526 -0.04012241 -0.00217671
v 0.04481029 -0.03656995 -0.00481539
v 0.03935429 -0.02836293 -0.00681097
v -0.04800321 -0.01497977 -0.00564885
v -0.02008739 0.02857343 -0.00734179
v -0.05589790 -0.04089098 0.00128014
v 0.05369224 0.03768545 0.00547676
v -0.04802825 0.02735617 0.00647357
v -0.03494668 0.00780512 0.00659664
v -0.02185882 0.04034314 0.00595655
v 0.00412246 -0.03347256 -0.00680031
v 0.04041352 0.01768479 -0.00434611
v 0.05302154 -0.01812744 0.00263883
f 3 1 20
f 3 19 17
f 20 19 3
f 20 1 18
f 2 7 18
f 1 3 13
f 10 19 20
f 20 18 10
f 7 16 8
f 16 4 8
f 1 13 24
f 24 13 2
f 12 3 17
f 12 13 3
f 22 13 12
f 17 15 12
f 12 15 22
f 23 7 2
f 14 13 22
f 22 4 14
f 14 4 16
f 21 18 7
f 21 10 18
f 19 10 21
f 22 15 6
f 6 4 22
f 6 8 4
f 6 15 17
f 17 19 6
f 19 8 6
f 5 18 1
f 1 24 5
f 2 18 5
f 5 24 2
f 11 14 16
f 11 16 7
f 7 23 11
f 11 23 2
f 2 13 11
f 13 14 11
f 9 8 19
f 19 21 9
f 7 8 9
f 9 21 7

