# https://github.com/mikedh/trimesh
v 0.00466287 0.01590653 -0.00710679
v -0.07836466 0.02813264 -0.00706230
v -0.05352659 0.03014424 0.00521631
v 0.01831898 -0.01888622 0.00541395
v -0.01732886 0.03157478 -0.00704701
v -0.07373754 -0.00639977 -0.00544337
v 0.09732237 0.00722703 0.00071778
v -0.08372434 0.00321009 -0.00361168
v 0.09961672 -0.03268679 0.00339190
v -0.08060194 -0.02909412 0.00205301
v 0.10003580 0.01455889 -0.00142699
v -0.05397912 -0.02199794 -0.00350935
v 0.06343189 0.03238082 -0.00464859
v -0.08191671 -0.02446192 0.00560954
v 0.05459084 -0.03231925 0.00381471
v -0.01764733 0.03167384 -0.00556506
v 0.06491143 0.01267359 -0.00625185
v 0.04290474 0.03124701 0.00530263
v 0.00371680 -0.02698444 -0.00659540
v -0.08832676 -0.00746283 -0.00087028
v -0.09906174 0.02422223 0.00218421
v -0.09509969 -0.03075521 0.00478774
f 13 18 11
f 11 18 7
f 7 9 11
f 18 9 7
f 4 18 14
f 4 9 18
f 21 14 3
f 14 18 3
f 1 19 2
f 2 19 6
f 6 8 2
f 21 3 2
f 2 8 21
f 20 8 6
f 21 8 20
f 6 19 12
f 22 20 6
f 22 14 21
f 21 20 22
f 11 9 17
f 9 19 17
f 17 13 11
f 17 19 1
f 1 2 5
f 5 17 1
f 13 17 5
f 15 19 9
f 15 22 19
f 14 22 15
f 15 4 14
f 9 4 15
f 10 12 19
f 19 22 10
f 6 12 10
f 10 22 6
f 16 2 3
f 16 5 2
f 13 5 16
f 18 13 16
f 16 3 18

