# https://github.com/mikedh/trimesh
v 0.04350810 -0.07874752 -0.01603776
v 0.02991639 0.06177922 -0.00342592
v 0.01425126 0.07735986 -0.00011739
v 0.01529285 -0.10355585 0.01774880
v 0.03341243 0.06704503 0.00368675
v -0.03814229 -0.00406549 -0.01141063
v -0.04079375 -0.00262928 -0.01050791
v -0.06006213 0.03937647 -0.00174465
v -0.04567227 -0.03003354 -0.00065222
v 0.05803954 0.01464919 -0.00589651
v -0.01812368 0.07936782 -0.01607303
v -0.03040874 0.10220320 0.00493025
v 0.00824403 0.05179706 -0.02005536
v 0.05778117 0.03352804 -0.00585274
v 0.00363077 -0.11637016 0.02095319
v 0.05437863 -0.02862579 0.00021779
v -0.03279779 0.03535912 0.01298562
v -0.01018788 0.03719286 0.01099374
v -0.05592552 0.07583402 0.01181848
v -0.05508080 -0.00579530 0.00025276
v 0.04538296 -0.05604996 -0.00192787
v -0.02947638 0.09251392 -0.00498364
f 19 22 8
f 12 22 19
f 12 19 5
f 9 1 15
f 16 1 10
f 1 9 6
f 1 6 13
f 12 5 3
f 15 5 18
f 18 5 19
f 15 19 20
f 20 9 15
f 20 19 8
f 15 1 4
f 4 5 15
f 4 16 5
f 10 1 14
f 1 13 14
f 14 16 10
f 5 16 14
f 8 22 11
f 11 22 12
f 12 3 11
f 11 13 6
f 17 19 15
f 15 18 17
f 17 18 19
f 7 6 9
f 9 20 7
f 7 20 8
f 8 11 7
f 7 11 6
f 1 16 21
f 21 4 1
f 16 4 21
f 2 11 3
f 2 3 5
f 5 14 2
f 2 14 13
f 13 11 2

