# https://github.com/mikedh/trimesh
v 0.09845998 0.02819455 -0.00057031
v 0.06348815 0.04696852 0.00859866
v -0.07837203 -0.00855758 -0.00625845
v 0.08675893 -0.03898752 -0.00610930
v -0.05592034 0.01920107 0.00700440
v -0.09431169 -0.00668478 -0.00424782
v 0.07729262 -0.03596493 0.00211029
v 0.08191656 -0.03529694 -0.00035669
v -0.08396285 0.03010307 -0.00214591
v -0.08968327 -0.03714805 0.00488109
v -0.09901334 0.02967567 -0.00111990
v -0.09071628 0.02811629 0.00040308
v 0.09648933 0.01695966 0.00410263
v -0.01663253 -0.04047999 0.00409900
v -0.03013617 0.03414140 0.00526202
v 0.10610691 0.02768742 -0.00767507
v -0.11284201 0.00996664 0.00270762
v -0.03692926 -0.02054908 0.00574584
v 0.04798311 0.00320998 0.00675905
v -0.09440294 -0.03734683 -0.00053145
v -0.09392334 -0.03268668 -0.00569948
v -0.08190713 0.00683238 -0.00571839
v 0.01608091 -0.03190519 0.00504480
v 0.03079752 0.03929038 -0.00076264
v 0.02669926 0.01986070 0.00745427
f 5 12 17
f 10 5 17
f 24 2 16
f 15 5 2
f 12 5 15
f 2 7 13
f 14 7 23
f 23 10 14
f 4 7 14
f 4 21 16
f 16 13 4
f 14 10 20
f 20 4 14
f 21 4 20
f 17 21 20
f 20 10 17
f 2 5 18
f 5 10 18
f 10 23 18
f 16 21 3
f 3 22 16
f 21 22 3
f 16 22 9
f 9 24 16
f 6 22 21
f 16 2 1
f 1 13 16
f 2 13 1
f 19 7 2
f 19 23 7
f 19 18 23
f 8 13 7
f 7 4 8
f 8 4 13
f 17 12 11
f 11 9 22
f 22 6 11
f 11 15 2
f 12 15 11
f 2 24 11
f 24 9 11
f 11 21 17
f 11 6 21
f 2 18 25
f 25 19 2
f 18 19 25

