# https://github.com/mikedh/trimesh
v -0.03061025 0.01020041 0.00440963
v 0.08324056 0.02136381 0.00295186
v -0.02589732 0.02607215 -0.00538683
v -0.07159772 -0.02213808 0.00447089
v 0.02326193 0.00161790 -0.00674139
v -0.04182394 -0.02110343 -0.00338695
v -0.07619959 0.00482313 0.00172796
v 0.03775750 0.02750297 0.00513998
v -0.08108279 -0.00994085 0.00108814
v 0.07664415 0.02052611 -0.00452902
v 0.01451203 0.02945191 0.00095128
v -0.06608480 -0.02556020 -0.00169315
v 0.03638460 -0.03008983 0.00421726
v -0.06453267 0.02395677 -0.00162907
v 0.06180105 -0.02384842 -0.00037471
v -0.01314611 -0.03150192 0.00379411
v 0.04520672 0.02761053 -0.00336655
v 0.07738313 0.02265786 -0.00197099
v -0.07065750 0.01151085 -0.00450674
f 16 12 15
f 17 8 2
f 9 12 4
f 4 12 16
f 19 12 9
f 13 15 2
f 16 15 13
f 2 8 13
f 13 4 16
f 8 4 13
f 5 15 6
f 6 15 12
f 6 19 5
f 12 19 6
f 10 15 5
f 2 15 10
f 14 8 11
f 8 17 11
f 1 8 14
f 1 4 8
f 3 19 14
f 14 11 3
f 3 11 17
f 17 10 3
f 5 19 3
f 3 10 5
f 18 17 2
f 2 10 18
f 18 10 17
f 7 1 14
f 4 1 7
f 9 4 7
f 7 19 9
f 14 19 7

