# https://github.com/mikedh/trimesh
v 0.06025321 -0.03442043 -0.00075558
v 0.06808491 0.01325301 -0.00246973
v -0.07556650 -0.01176928 0.00308436
v 0.04445543 0.00189171 0.00437607
v -0.03379439 -0.02909674 -0.00560062
v -0.02186608 0.00923117 0.00493258
v 0.07022252 0.02828686 0.00511535
v -0.04897684 0.02473549 -0.00260108
v 0.01844454 -0.02783134 0.00325324
v 0.01862689 -0.03344814 -0.00147188
v -0.07358182 -0.02462640 0.00407973
v 0.06750543 0.03595215 -0.00569296
v 0.01753694 -0.01855450 -0.00496726
v -0.03774527 0.01179153 -0.00380710
v -0.05503400 0.02919987 0.00221391
v -0.08119141 -0.00498220 0.00122335
v -0.03432583 -0.03087185 0.00588874
v 0.03759103 0.03579180 -0.00223002
v 0.01921740 -0.03525430 0.00148954
v -0.07594889 0.00558286 -0.00295926
f 17 5 19
f 2 12 7
f 5 17 11
f 7 12 18
f 18 15 7
f 12 15 18
f 6 17 7
f 7 15 6
f 6 11 17
f 15 11 6
f 16 15 20
f 20 11 16
f 5 11 20
f 12 2 1
f 1 2 7
f 1 17 19
f 1 9 17
f 7 17 4
f 17 9 4
f 4 1 7
f 9 1 4
f 3 15 16
f 16 11 3
f 3 11 15
f 12 5 14
f 14 20 12
f 5 20 14
f 8 15 12
f 12 20 8
f 8 20 15
f 13 5 12
f 12 1 13
f 13 1 5
f 19 5 10
f 10 1 19
f 5 1 10

