# https://github.com/mikedh/trimesh
v -0.00474700 -0.06760818 0.00541316
v 0.02568447 0.06232625 0.00915072
v 0.04954211 0.01821014 0.01202887
v -0.05598361 0.03479100 0.00510652
v -0.06844025 0.00479513 -0.00619171
v -0.06579111 0.01140304 0.00937564
v -0.02656390 -0.01099421 -0.01797070
v -0.03964630 0.04654054 0.00657127
v -0.00808179 -0.03753636 0.01998341
v 0.06673094 0.01970644 -0.00114252
v 0.04794625 0.05487341 -0.00370767
v 0.06709415 0.03040590 -0.00326578
v -0.04240764 0.03895586 -0.00158686
v -0.05760698 -0.02979737 -0.01567336
v -0.00458817 0.04950873 -0.01089551
v 0.00656355 -0.06621412 -0.00484968
v 0.06758066 -0.00777559 -0.00145929
v 0.04390783 -0.02355251 -0.01379116
v -0.04461680 -0.03265949 -0.01470789
v -0.00484093 0.03439690 -0.01527949
v -0.03703778 0.03993044 -0.00442866
v 0.00248126 0.04876942 -0.01095493
v 0.03473759 -0.04904628 0.00771590
v -0.05917722 -0.03649384 -0.00998670
v -0.06493892 0.01807475 0.00841996
v -0.00747513 -0.06760741 -0.00300747
v 0.01267814 0.06274835 0.00602813
v 0.02467397 0.02306924 0.01614263
v -0.04622110 -0.03865373 -0.00130872
f 23 9 1
f 3 23 17
f 9 23 3
f 17 23 18
f 18 14 7
f 6 25 5
f 10 3 17
f 9 3 28
f 28 3 2
f 28 6 9
f 5 14 24
f 24 6 5
f 16 23 1
f 16 18 23
f 20 14 5
f 7 14 20
f 20 18 7
f 11 20 22
f 18 20 11
f 25 6 8
f 6 28 8
f 8 28 2
f 29 24 1
f 1 9 29
f 6 24 29
f 9 6 29
f 14 18 19
f 19 16 14
f 18 16 19
f 1 24 26
f 26 16 1
f 26 24 14
f 14 16 26
f 5 13 21
f 13 8 21
f 12 11 2
f 2 3 12
f 3 10 12
f 18 11 12
f 17 18 12
f 12 10 17
f 25 8 4
f 4 8 13
f 5 25 4
f 4 13 5
f 27 8 2
f 2 11 27
f 22 20 15
f 15 21 8
f 15 20 5
f 5 21 15
f 8 27 15
f 15 11 22
f 15 27 11

