# https://github.com/mikedh/trimesh
v 0.05959692 -0.03369533 -0.00603100
v -0.05513028 0.01968633 0.00684477
v 0.08725042 -0.01860838 -0.00506798
v -0.01702860 -0.03703404 0.00666562
v 0.09693565 -0.01500063 -0.00293139
v -0.09101108 -0.02814228 -0.00188092
v 0.02828024 0.04308771 0.00321115
v -0.06087899 -0.04462186 -0.00413635
v 0.09556093 -0.00525823 0.00129533
v 0.04180702 -0.04433173 0.00284240
v 0.00816989 -0.04449045 0.00169407
v 0.05450609 0.00627903 0.00857832
v 0.05546177 -0.04621322 -0.00595027
v 0.08665831 0.04177880 0.00703619
v -0.09417466 0.03968499 -0.00545840
v 0.06392255 0.04199020 -0.00335680
v 0.07840297 -0.02901840 -0.00171916
v -0.06999474 -0.01997077 0.00591307
v -0.08314690 -0.02393208 -0.00563752
v -0.02239310 0.01700302 -0.00616008
v 0.06590226 -0.02058517 0.00374958
v -0.08650050 -0.00214989 0.00445389
v -0.04384548 0.03001777 0.00629871
v -0.00427903 -0.00047051 -0.00610666
v -0.00832243 0.03296061 -0.00528290
f 17 13 5
f 5 13 3
f 3 16 5
f 5 16 14
f 13 17 10
f 6 8 18
f 15 6 22
f 22 6 18
f 12 14 2
f 2 14 23
f 2 22 18
f 2 23 15
f 15 22 2
f 15 16 25
f 25 20 15
f 16 3 25
f 25 3 20
f 13 8 19
f 15 20 19
f 19 6 15
f 8 6 19
f 1 3 13
f 20 3 1
f 5 14 9
f 9 14 12
f 9 17 5
f 9 10 17
f 7 16 15
f 7 14 16
f 15 23 7
f 23 14 7
f 4 10 12
f 12 2 4
f 4 2 18
f 18 8 4
f 11 8 13
f 13 10 11
f 11 4 8
f 10 4 11
f 13 19 24
f 24 19 20
f 24 1 13
f 20 1 24
f 12 10 21
f 21 9 12
f 10 9 21

