# https://github.com/mikedh/trimesh
v 0.05213246 0.02133594 -0.00394180
v -0.01022852 -0.00523919 -0.00438843
v 0.07340282 0.02330233 -0.00119079
v -0.06835801 -0.03407982 -0.00377572
v -0.01034641 -0.03795269 -0.00329746
v -0.06374720 0.03041935 0.00367709
v -0.00046066 -0.02512204 -0.00403414
v -0.04321822 -0.03903290 -0.00321004
v -0.06023303 0.03532898 -0.00281422
v 0.07151869 0.03110492 0.00251600
v 0.02021586 0.01048225 -0.00415567
v -0.04670875 0.00347192 0.00445223
v 0.01330483 -0.03117872 0.00363108
v -0.02322085 0.03445250 0.00178831
v 0.05301591 -0.03115440 -0.00253977
v -0.05271043 -0.01433952 -0.00397672
v 0.05597972 -0.03203507 0.00046808
v 0.05982727 -0.00672714 -0.00313333
v -0.05671762 -0.01718002 0.00423835
v -0.03654038 0.03469722 -0.00391891
v -0.06812223 -0.01209538 -0.00281892
v 0.06353103 0.00997373 -0.00286067
v -0.01342183 -0.03799939 0.00008400
v -0.05137973 -0.03623928 0.00147829
v 0.01551926 0.02223065 0.00437422
v -0.03470060 0.01941104 0.00445796
v 0.04974734 -0.02202891 0.00363558
v 0.02830284 -0.03458518 0.00134290
v 0.02825325 0.03550764 0.00392473
v 0.06549774 -0.01969820 0.00271239
v 0.06816298 -0.02218082 0.00207627
v 0.07247178 -0.00791217 0.00255093
v -0.06294346 -0.02094411 0.00090758
v 0.01472027 0.03577226 -0.00195810
f 1 34 3
f 34 1 20
f 20 9 34
f 4 9 20
f 20 16 4
f 34 9 29
f 12 19 27
f 21 9 4
f 24 19 4
f 4 8 24
f 11 20 1
f 31 30 27
f 31 18 3
f 15 18 31
f 25 29 26
f 27 29 25
f 26 12 25
f 25 12 27
f 26 29 6
f 6 12 26
f 19 12 6
f 9 21 6
f 6 21 4
f 10 29 27
f 3 34 10
f 34 29 10
f 27 19 13
f 19 24 13
f 22 1 3
f 3 18 22
f 22 18 1
f 7 18 15
f 1 18 7
f 14 29 9
f 9 6 14
f 14 6 29
f 4 19 33
f 33 6 4
f 19 6 33
f 27 30 32
f 32 10 27
f 30 31 32
f 32 31 3
f 3 10 32
f 23 24 8
f 23 13 24
f 2 11 1
f 1 7 2
f 16 20 2
f 20 11 2
f 4 16 2
f 2 7 4
f 5 23 8
f 5 7 15
f 5 8 4
f 4 7 5
f 17 5 15
f 15 31 17
f 17 31 27
f 27 13 17
f 13 23 28
f 28 17 13
f 23 5 28
f 5 17 28

