# https://github.com/mikedh/trimesh
v -0.07457953 0.06333700 0.02941403
v 0.00533525 0.08543805 -0.01174016
v 0.03356829 0.06884162 -0.02111462
v 0.01212888 0.08363391 -0.00129531
v -0.10915945 -0.03152325 0.00372717
v -0.03280107 0.07109894 -0.01572925
v 0.11198754 -0.00596203 0.00480127
v 0.07646469 -0.01367905 -0.02233485
v -0.09549860 0.03438457 0.01425404
v 0.01003195 -0.07258506 0.01069067
v 0.06451752 -0.07710303 -0.01099703
v 0.05334666 0.06524134 -0.00428948
v 0.10390888 0.03185177 0.01992299
v -0.09198511 -0.04662722 -0.03199197
v -0.10402541 0.01933395 -0.01175917
v 0.09380822 -0.02820048 -0.01259111
v 0.11080178 0.00984236 -0.01127677
v 0.01981421 -0.04853282 0.02663866
v 0.03760453 -0.07554275 0.02499140
v 0.07696052 -0.05641746 0.00620078
v -0.09381978 -0.05476888 -0.01226692
v -0.07317926 0.03702132 0.03034938
v 0.11521048 -0.02157740 -0.00330525
v -0.01847145 0.07718538 0.01092153
f 8 11 14
f 5 14 21
f 14 11 21
f 3 8 14
f 3 17 8
f 23 11 16
f 11 8 16
f 16 17 23
f 8 17 16
f 5 21 19
f 6 1 2
f 2 3 6
f 6 3 14
f 13 17 12
f 17 3 12
f 12 4 13
f 12 3 2
f 2 4 12
f 1 13 24
f 13 4 24
f 2 1 24
f 24 4 2
f 20 11 23
f 23 19 20
f 20 19 11
f 7 19 23
f 13 19 7
f 23 17 7
f 7 17 13
f 10 21 11
f 11 19 10
f 10 19 21
f 18 19 13
f 15 9 1
f 1 6 15
f 5 9 15
f 15 6 14
f 15 14 5
f 22 13 1
f 22 18 13
f 19 18 22
f 5 19 22
f 22 9 5
f 1 9 22

