# https://github.com/mikedh/trimesh
v -0.06426595 -0.02906928 -0.01492977
v 0.06965004 0.01108563 0.01039120
v -0.04424110 -0.04533636 -0.02383792
v -0.03716381 -0.07733567 0.01191903
v -0.09533613 0.01876469 -0.01224462
v -0.01388913 0.11589450 0.00437179
v 0.02592878 -0.10356135 0.01834969
v -0.06295280 0.06115413 0.03007850
v -0.02201429 -0.05581130 0.02032744
v -0.03288466 -0.07581301 -0.01139533
v -0.03945244 0.00618189 -0.02049228
v 0.10296385 -0.02960725 -0.02460714
v 0.01911923 0.09245325 0.00554527
v 0.07686633 0.02913885 -0.00326972
v -0.08997548 0.04154386 0.00727983
v 0.04446032 -0.10888640 0.00976301
v -0.03438050 0.10489574 -0.00848579
f 17 6 12
f 17 8 6
f 2 16 12
f 15 17 5
f 8 17 15
f 5 4 15
f 15 4 8
f 12 16 10
f 10 3 12
f 11 17 12
f 12 3 11
f 5 17 11
f 11 3 5
f 14 2 12
f 6 8 13
f 8 2 13
f 2 14 13
f 12 6 13
f 13 14 12
f 16 2 7
f 7 2 8
f 7 10 16
f 4 10 7
f 1 4 5
f 1 10 4
f 5 3 1
f 3 10 1
f 8 4 9
f 9 7 8
f 4 7 9

