# https://github.com/mikedh/trimesh
v -0.08373914 0.00304295 0.00168879
v -0.06736796 0.03041996 -0.00007983
v 0.02569962 -0.01014353 0.00426690
v 0.03401227 0.01915575 0.00385337
v 0.04052459 -0.02477870 0.00149314
v 0.03660239 0.02530832 -0.00328853
v 0.05718802 -0.02257641 -0.00199967
v -0.05109786 0.00726224 -0.00471799
v -0.07954941 0.01080853 0.00389373
v 0.05878970 0.02400270 -0.00364582
v -0.09280052 -0.02333530 -0.00227185
v -0.04846379 -0.02945999 0.00230292
v 0.09230741 0.02027708 0.00212022
v 0.06667538 -0.01669706 -0.00384398
v 0.04362373 -0.02253892 0.00403156
v 0.08556016 -0.01605143 0.00406801
v 0.08242234 0.01118244 -0.00404760
v 0.09541334 -0.00715913 0.00220221
v -0.04815667 0.02979498 0.00439261
v -0.05606751 -0.01761792 0.00387618
v -0.07484459 0.00845059 -0.00186302
v -0.02361915 -0.02638756 -0.00493967
v 0.08648287 -0.01257278 -0.00291749
v -0.07674348 -0.00501659 -0.00369330
v -0.06440853 -0.02793595 -0.00320520
f 18 17 13
f 11 20 9
f 9 20 19
f 9 19 2
f 18 13 16
f 23 17 18
f 23 14 17
f 18 16 23
f 11 2 21
f 17 8 10
f 10 13 17
f 19 13 10
f 17 14 22
f 22 8 17
f 1 2 11
f 11 9 1
f 1 9 2
f 19 20 3
f 3 16 19
f 4 13 19
f 19 16 4
f 4 16 13
f 6 8 2
f 6 10 8
f 2 19 6
f 19 10 6
f 24 22 11
f 8 22 24
f 11 21 24
f 2 8 24
f 24 21 2
f 7 22 14
f 14 23 7
f 7 23 16
f 11 22 25
f 15 3 20
f 16 3 15
f 12 15 20
f 12 20 11
f 11 25 12
f 12 25 22
f 5 7 16
f 16 15 5
f 15 12 5
f 22 7 5
f 5 12 22

