# https://github.com/mikedh/trimesh
v -0.03327763 0.08432637 -0.00213218
v -0.06733996 -0.01722816 -0.01919834
v -0.07208346 -0.02633179 0.00020244
v -0.04498971 0.06490291 0.00978426
v 0.03180493 -0.08426704 -0.01130361
v -0.02858093 0.02206798 0.02371867
v -0.01550433 0.08463576 -0.01587943
v -0.05581277 -0.04743635 -0.00220021
v -0.02416667 0.08511814 0.00703575
v 0.03048371 0.03898091 0.01766108
v -0.06973006 0.03272088 0.00183998
v 0.05452137 0.05655184 0.00638133
v 0.00091200 -0.09436469 -0.00437206
v 0.01221896 0.08857121 -0.00932464
v 0.02318688 0.08324476 -0.02089562
v 0.04273000 -0.04286539 -0.01962046
v -0.01226108 -0.07179733 0.01918215
v 0.00429560 0.07070439 -0.02627948
v 0.07680734 0.00996723 0.00185429
v -0.02224746 0.02117529 0.02406159
v 0.04199718 0.07424746 -0.00404126
v 0.06818219 0.03010711 0.01311493
v -0.05449602 0.04429480 0.02131716
v 0.04496962 0.07608755 0.01139412
v 0.04446274 -0.08129935 0.01207355
v -0.00235628 0.06756099 -0.02719469
v -0.04663387 -0.04999796 -0.01380891
v -0.02207039 -0.09363886 0.01598883
v 0.03066182 0.01412314 0.01834840
v -0.06543466 -0.03113259 0.00502216
f 3 28 30
f 19 16 15
f 14 24 15
f 15 7 14
f 20 24 23
f 23 30 28
f 3 30 23
f 28 25 17
f 22 25 19
f 3 23 11
f 11 23 4
f 14 7 1
f 1 11 4
f 7 11 1
f 19 15 21
f 21 15 24
f 8 28 3
f 8 27 28
f 4 23 9
f 9 23 24
f 9 1 4
f 9 24 14
f 14 1 9
f 6 23 28
f 28 17 6
f 20 23 6
f 6 17 20
f 10 24 20
f 10 22 24
f 25 22 29
f 20 17 29
f 29 17 25
f 29 10 20
f 22 10 29
f 5 16 19
f 19 25 5
f 2 11 7
f 3 11 2
f 2 8 3
f 27 8 2
f 16 5 2
f 2 5 27
f 19 21 12
f 12 21 24
f 12 22 19
f 24 22 12
f 28 27 13
f 27 5 13
f 13 25 28
f 13 5 25
f 26 2 7
f 16 2 26
f 7 15 18
f 18 26 7
f 18 15 16
f 16 26 18

