# https://github.com/mikedh/trimesh
v -0.03836585 -0.03576513 0.00301908
v -0.04868767 0.02558020 -0.00529473
v -0.04356673 -0.04022922 -0.00411544
v -0.05097912 -0.01610358 0.00063462
v 0.06690316 0.01239694 -0.00393828
v -0.03788716 -0.02778105 -0.00529732
v 0.00378970 0.01446633 -0.00684417
v 0.06170658 0.02634900 0.00102516
v -0.04935471 -0.03050209 0.00567951
v -0.03804974 0.00365227 -0.00586986
v 0.06699358 0.00956527 0.00010216
v -0.03351951 0.01845093 0.00611733
v -0.00433146 -0.00390048 0.00595503
v -0.01313333 0.03242705 0.00278503
v 0.05114491 0.01910901 -0.00413577
v -0.05469476 0.02678092 0.00424527
v 0.01607376 -0.02410758 0.00520192
v 0.01142506 -0.03370626 -0.00472225
v -0.03936541 0.03571635 -0.00205266
v 0.06500741 0.00881652 0.00504832
v -0.05443866 -0.00031837 0.00069020
v 0.06148606 -0.01267301 0.00220269
v 0.05023546 -0.00857926 -0.00238981
f 3 9 4
f 5 8 11
f 5 18 7
f 16 9 12
f 13 12 9
f 6 10 7
f 6 18 3
f 7 18 6
f 22 5 11
f 1 9 3
f 3 18 1
f 3 4 21
f 21 9 16
f 21 4 9
f 14 19 16
f 8 19 14
f 16 12 14
f 15 19 8
f 8 5 15
f 15 5 7
f 11 8 20
f 20 22 11
f 12 13 20
f 8 14 20
f 20 14 12
f 18 5 23
f 23 22 18
f 5 22 23
f 18 22 17
f 17 1 18
f 9 1 17
f 22 20 17
f 17 13 9
f 17 20 13
f 7 10 2
f 3 21 2
f 16 19 2
f 2 21 16
f 2 15 7
f 19 15 2
f 2 6 3
f 10 6 2

