# https://github.com/mikedh/trimesh
v -0.04941706 0.03075147 0.01853542
v -0.06898038 -0.07873430 -0.01549432
v 0.08461522 0.04703381 -0.00304937
v -0.09061939 -0.01554332 0.00959213
v 0.05902835 -0.08601563 -0.00538472
v 0.04526013 -0.02292867 -0.01503344
v -0.08330485 0.01989287 0.00799698
v -0.04871132 0.08140877 0.00131251
v -0.05771456 0.06984091 -0.00711758
v -0.04317538 -0.05381121 -0.01687543
v 0.03537620 0.08379569 -0.00195044
v 0.09973351 0.03090594 0.00842150
v -0.06365552 -0.06161587 0.00337030
v -0.08130938 -0.06045386 -0.01523100
v -0.08077450 0.06542144 0.00179263
v -0.03319992 -0.00826911 -0.01756286
v 0.07829755 0.06346045 0.01755516
v 0.08894640 -0.01868630 -0.00893960
v 0.01493232 -0.08259352 0.01284020
v -0.02755471 0.08581000 -0.00392012
v -0.04492398 -0.08731961 0.00030740
v -0.09780248 -0.00314027 -0.00076158
v -0.00387921 -0.06384142 0.01593507
v 0.04868037 0.08927726 -0.01141445
v 0.00724078 -0.05268435 0.01758462
v -0.00569601 0.03984961 -0.01483576
v -0.04424929 -0.02071987 -0.01767450
v 0.01407637 -0.08730781 0.00089567
f 22 4 15
f 27 2 14
f 14 4 22
f 2 4 14
f 13 2 21
f 13 4 2
f 17 19 12
f 21 2 5
f 12 19 5
f 24 26 9
f 27 14 9
f 22 15 9
f 9 14 22
f 7 4 1
f 1 15 7
f 7 15 4
f 8 9 15
f 8 15 1
f 1 17 8
f 25 17 1
f 19 17 25
f 28 19 21
f 21 5 28
f 28 5 19
f 6 5 2
f 24 9 20
f 9 8 20
f 1 4 23
f 23 25 1
f 19 25 23
f 4 13 23
f 21 19 23
f 23 13 21
f 10 2 27
f 27 6 10
f 10 6 2
f 16 6 27
f 27 9 16
f 16 9 26
f 16 26 24
f 24 6 16
f 18 6 24
f 12 5 18
f 5 6 18
f 11 8 17
f 11 20 8
f 11 17 24
f 24 20 11
f 12 18 3
f 3 18 24
f 3 17 12
f 24 17 3

