# https://github.com/mikedh/trimesh
v -0.09392762 0.05620720 0.00299968
v -0.08627013 -0.00642109 0.00371414
v 0.03415412 0.08488870 0.00236033
v -0.07247260 -0.03569347 -0.00089714
v 0.07742054 -0.03013753 -0.01607247
v 0.05587206 -0.00795849 -0.02056046
v 0.06248501 -0.04634504 -0.01219216
v 0.09789120 -0.04640038 -0.00450875
v -0.06777921 -0.02827072 -0.01194975
v 0.07441410 0.06332348 0.00489648
v 0.03236151 -0.01903015 -0.02439481
v -0.01378119 0.08520200 -0.02306521
v 0.00936386 -0.08470605 0.02066895
v 0.05390665 -0.08276515 0.00091826
v -0.06234084 0.07763891 0.00021903
v 0.03984062 0.08050824 0.01430491
v -0.07941324 0.05405708 0.00956485
v -0.01602970 -0.11275561 0.02498786
v -0.05854851 -0.02226896 -0.02071694
v -0.10045210 0.00441199 -0.00699414
v 0.07050569 0.08092367 0.00287339
v -0.09035130 0.03342649 -0.00584663
v -0.05666227 0.03288965 0.01573242
f 6 11 12
f 11 14 19
f 20 12 19
f 12 11 19
f 7 14 11
f 18 14 8
f 16 23 18
f 18 19 14
f 11 6 5
f 5 7 11
f 8 14 5
f 14 7 5
f 21 6 12
f 21 5 6
f 8 5 21
f 22 12 20
f 1 15 12
f 12 22 1
f 1 22 20
f 13 18 8
f 16 18 13
f 4 18 20
f 3 21 12
f 16 21 3
f 12 15 3
f 3 15 16
f 8 21 10
f 10 21 16
f 10 13 8
f 16 13 10
f 16 15 17
f 15 1 17
f 17 23 16
f 17 18 23
f 19 18 9
f 18 4 9
f 20 19 9
f 9 4 20
f 18 17 2
f 2 17 1
f 20 18 2
f 2 1 20

