# https://github.com/mikedh/trimesh
v 0.06199690 -0.01640390 -0.00148336
v 0.06586845 0.01878780 -0.00129831
v -0.06130580 -0.02401299 0.00170849
v 0.06638217 0.00652635 -0.00074377
v -0.03019386 -0.03351249 -0.00120240
v -0.06593438 0.01221845 0.00316692
v 0.01492328 0.03084148 0.00447660
v -0.06606070 0.02334611 -0.00303558
v 0.06412454 0.04386522 0.00143945
v 0.02185577 -0.03920285 -0.00172391
v 0.05906752 -0.02335539 0.00162455
v -0.06798213 0.01005855 0.00288380
v 0.04650373 0.00762408 -0.00438045
v -0.05015075 -0.03179180 0.00396844
v 0.06275744 -0.00567938 0.00186066
v 0.05881654 0.03194959 0.00490007
v 0.01211525 0.00005581 -0.00435112
v 0.01341470 -0.03937091 -0.00423645
v -0.07317190 -0.02077729 -0.00375385
v 0.05092304 0.03364949 -0.00028618
f 16 14 11
f 2 9 4
f 2 13 9
f 7 16 9
f 9 8 7
f 7 8 6
f 7 14 16
f 7 6 14
f 19 14 3
f 16 11 15
f 4 9 15
f 9 16 15
f 1 2 4
f 13 2 1
f 4 15 1
f 1 15 11
f 13 1 18
f 19 8 17
f 17 8 13
f 17 18 19
f 13 18 17
f 9 13 20
f 20 8 9
f 13 8 20
f 14 6 12
f 12 3 14
f 19 3 12
f 12 8 19
f 6 8 12
f 5 14 19
f 19 18 5
f 5 18 14
f 10 1 11
f 10 18 1
f 10 11 14
f 14 18 10

