# https://github.com/mikedh/trimesh
v 0.02513136 0.01352541 0.00377413
v -0.07474521 0.01032353 0.00561290
v 0.04899532 -0.02582008 0.00368542
v -0.06736868 -0.02263194 0.00502737
v 0.04955264 -0.02042961 -0.00423711
v 0.08741198 -0.00574827 0.00354248
v -0.03036038 -0.01012448 -0.00630861
v -0.04875549 0.00923034 -0.00375453
v 0.08841370 0.02355930 -0.00310243
v 0.08565642 -0.01108229 -0.00287327
v -0.09398061 -0.00532509 -0.00480265
v -0.04657939 0.02499023 -0.00075743
v -0.08634726 -0.01303587 0.00273394
v -0.02379743 -0.02387380 -0.00401634
v -0.10256950 0.01231234 0.00182713
v 0.10026900 0.00598363 0.00345864
f 15 2 12
f 16 2 6
f 6 2 3
f 16 9 1
f 1 2 16
f 9 12 1
f 1 12 2
f 7 14 11
f 15 12 11
f 3 2 4
f 4 14 3
f 4 11 14
f 4 2 15
f 7 9 5
f 5 14 7
f 3 14 5
f 8 12 9
f 8 11 12
f 8 9 7
f 7 11 8
f 15 11 13
f 13 4 15
f 11 4 13
f 10 9 16
f 10 5 9
f 16 6 10
f 10 6 3
f 3 5 10

