# https://github.com/mikedh/trimesh
v 0.06483743 -0.00759070 -0.00269981
v -0.01460076 -0.03770097 -0.00572428
v -0.06196744 -0.01754868 -0.00347880
v -0.04383240 0.04353934 0.00606208
v -0.03361621 -0.04512035 -0.00249502
v 0.04640009 -0.02790147 0.00483291
v 0.06839185 0.01253077 -0.00074720
v 0.03130662 0.03247563 0.00509156
v -0.06283073 0.00468987 0.00462892
v 0.05342498 0.02031036 0.00564508
v -0.05973057 -0.03147109 -0.00231365
v -0.02191354 0.04053383 -0.00435537
v -0.01568735 -0.04706841 -0.00001976
v 0.06860233 0.04038261 -0.00362999
v 0.02740385 -0.04240363 0.00087928
v 0.02264340 -0.04228492 0.00034436
v -0.06057427 0.04123379 0.00324673
v 0.06984305 -0.02776530 0.00046277
v -0.05771470 -0.05044176 0.00252183
v -0.07140315 0.02399083 -0.00661850
v 0.06306017 -0.03975176 0.00378671
v 0.00582428 -0.03392478 0.00588841
v 0.07083025 0.04137186 -0.00564279
v -0.05900223 -0.04595562 0.00214410
f 20 23 2
f 12 23 20
f 12 4 23
f 17 12 20
f 4 12 17
f 20 9 17
f 17 9 4
f 24 9 20
f 19 9 24
f 20 11 24
f 24 11 19
f 4 9 22
f 22 10 4
f 6 10 22
f 22 9 19
f 4 10 8
f 20 2 3
f 3 11 20
f 2 11 3
f 19 11 5
f 5 11 2
f 1 2 23
f 23 18 1
f 1 18 2
f 7 18 23
f 10 18 7
f 21 10 6
f 21 18 10
f 21 22 19
f 6 22 21
f 2 18 21
f 23 4 14
f 4 8 14
f 14 8 10
f 14 7 23
f 10 7 14
f 2 21 15
f 13 5 2
f 19 5 13
f 13 21 19
f 13 15 21
f 2 15 16
f 16 13 2
f 15 13 16

