# https://github.com/mikedh/trimesh
v -0.05686649 -0.01835310 -0.00302962
v -0.02745013 -0.02259307 -0.00395801
v 0.03331572 0.02514836 -0.00044941
v 0.02269961 -0.01282961 0.00416771
v 0.06606844 -0.00276320 -0.00282750
v -0.04397968 -0.02824983 0.00288579
v -0.00135200 -0.02654855 -0.00264886
v -0.03368008 -0.01886701 0.00430830
v 0.05337541 0.01965246 -0.00249240
v 0.02980878 0.02148762 0.00371472
v 0.06513338 0.01671021 0.00423269
v 0.00541113 -0.02512854 0.00380653
v 0.05759142 -0.01297900 -0.00354478
v -0.02257539 -0.00144774 -0.00441617
v -0.03578083 0.01989697 -0.00380481
v -0.04704515 0.01877318 -0.00232206
v -0.04712924 -0.00983163 0.00250878
v 0.05859095 0.00763038 -0.00361210
v 0.05795703 0.01570648 -0.00128900
v -0.04165752 0.02142490 0.00526591
v -0.06110531 0.01041772 -0.00386004
v -0.04293012 0.02280372 0.00513823
v 0.04483416 0.00394583 -0.00441938
f 21 2 1
f 1 2 6
f 1 17 21
f 6 17 1
f 6 2 7
f 8 20 6
f 8 4 20
f 20 4 11
f 5 19 11
f 14 2 21
f 14 23 2
f 5 11 13
f 13 11 4
f 2 23 13
f 13 7 2
f 20 11 22
f 22 16 21
f 21 17 22
f 6 20 22
f 22 17 6
f 15 22 3
f 16 22 15
f 21 16 15
f 15 14 21
f 23 14 15
f 12 8 6
f 4 8 12
f 6 7 12
f 12 13 4
f 7 13 12
f 9 15 3
f 23 15 9
f 3 11 9
f 9 11 19
f 10 11 3
f 3 22 10
f 10 22 11
f 23 9 18
f 5 13 18
f 18 13 23
f 18 19 5
f 18 9 19

