# https://github.com/mikedh/trimesh
v 0.05464667 -0.05941249 -0.00689736
v 0.07700945 0.04493414 0.01454313
v -0.09023435 0.00920642 0.00153865
v -0.08346789 0.00965985 -0.00732267
v -0.08528072 0.00431374 0.00923821
v -0.07075908 -0.03341505 -0.01123243
v -0.02476801 0.06392727 -0.01139412
v -0.09475372 0.03192493 -0.00227074
v -0.01993198 -0.06767973 0.00686130
v -0.04644528 0.05809244 -0.00366140
v -0.00407700 0.02410963 -0.01592619
v -0.08221063 -0.03951533 -0.00580248
v 0.08192466 0.03779881 0.00198166
v -0.06260370 0.03289660 0.00974745
v 0.09292862 -0.02650100 0.00163550
v -0.02534330 0.06435037 -0.00823712
v 0.08143105 0.00307462 0.01074681
v 0.05018264 0.01740010 0.01383528
v 0.02735906 -0.05587855 0.01175729
v 0.00720985 -0.05897588 -0.00422683
v 0.01735208 0.05932383 -0.01589984
f 13 2 15
f 15 2 17
f 8 5 14
f 14 5 2
f 19 5 9
f 19 17 2
f 15 17 19
f 19 1 15
f 9 1 19
f 3 5 8
f 9 5 12
f 5 3 12
f 12 3 8
f 4 12 8
f 6 12 4
f 2 5 18
f 18 19 2
f 5 19 18
f 6 1 20
f 20 12 6
f 20 1 9
f 9 12 20
f 8 14 10
f 10 14 2
f 21 13 15
f 15 1 21
f 2 13 21
f 11 1 6
f 11 21 1
f 16 10 2
f 2 21 16
f 8 10 7
f 10 16 7
f 7 16 21
f 7 4 8
f 21 11 7
f 6 4 7
f 7 11 6

