# https://github.com/mikedh/trimesh
v -0.01195993 0.07397195 -0.01125468
v 0.05623479 0.01368921 0.02788758
v 0.08516077 -0.03111683 0.00615940
v -0.00310981 -0.04414329 0.02859975
v 0.02223264 -0.10379312 0.00963715
v -0.06112655 -0.07375615 -0.02454001
v 0.06693746 -0.08178938 -0.00929220
v 0.10295118 0.00317300 0.00526751
v 0.04199072 -0.04517124 -0.02701427
v -0.09654941 -0.02538694 -0.01727318
v 0.00036760 0.10466360 -0.00637583
v 0.07604327 -0.02105635 -0.01383928
v 0.08683144 0.03234572 0.00534573
v 0.09468880 0.01130654 -0.00358574
v 0.08234593 0.02870962 0.00911467
v -0.05903734 -0.05862554 -0.02613245
v -0.04374563 -0.08790922 -0.00513761
v -0.07639349 0.08868623 0.01974023
v 0.02152201 0.08102371 -0.01597832
v 0.06349162 0.08413585 -0.00972306
v 0.05162383 0.09172825 -0.01419709
v 0.01349356 -0.10638476 0.01337004
v 0.03586743 -0.08501254 -0.01323448
v 0.02574699 0.06389173 0.01398008
v -0.07676424 -0.01651094 0.00817257
v -0.05500955 -0.07651076 0.00652982
v -0.06321345 -0.03022140 -0.02232069
f 18 11 10
f 25 18 10
f 4 18 25
f 2 18 4
f 11 18 24
f 18 2 24
f 19 21 9
f 11 21 19
f 10 19 27
f 8 2 3
f 23 6 9
f 23 5 6
f 4 25 26
f 26 25 10
f 10 6 26
f 8 14 20
f 20 14 21
f 20 13 8
f 20 21 11
f 11 24 20
f 20 24 2
f 9 21 12
f 21 14 12
f 12 14 8
f 15 2 8
f 8 13 15
f 15 20 2
f 13 20 15
f 10 11 1
f 1 19 10
f 11 19 1
f 9 6 16
f 16 19 9
f 16 27 19
f 16 6 10
f 10 27 16
f 22 3 2
f 5 3 22
f 22 2 4
f 4 26 22
f 6 5 22
f 7 23 9
f 9 12 7
f 7 3 5
f 5 23 7
f 8 3 7
f 7 12 8
f 17 26 6
f 6 22 17
f 17 22 26

