# https://github.com/mikedh/trimesh
v -0.07246684 -0.03882084 -0.01325233
v 0.02735105 0.06613778 -0.01842532
v 0.08044032 -0.02012927 -0.00215091
v -0.06490628 0.04729353 0.01574453
v -0.04775343 -0.03866056 -0.02626811
v 0.06979384 -0.03727268 -0.01209777
v 0.02033282 -0.08874304 0.00770718
v 0.00295276 0.07708780 -0.01484848
v -0.00101352 0.04371559 -0.02106029
v -0.03644314 0.07803187 -0.00405258
v 0.02766969 0.08314611 0.00495402
v 0.06360087 0.04564064 0.00737401
v -0.08069239 -0.00434888 -0.00166958
v 0.06842785 -0.05727210 0.00034929
v 0.02510428 0.08964187 -0.00496046
v -0.03971066 0.07677951 0.00231406
v 0.00997597 0.03870664 -0.02060928
v 0.07095945 -0.00269113 -0.01439703
v -0.04538428 0.04917490 0.01673482
v -0.02288427 -0.07249701 0.00863222
v 0.05077269 0.03064226 0.01729733
v -0.06617824 -0.02876469 -0.02141278
v -0.07797678 -0.01463761 -0.02185824
v 0.00440056 0.09117452 0.00301516
v 0.01210064 -0.09338284 0.02767972
v -0.06592628 0.05187384 -0.00070912
v -0.04755068 -0.04796227 0.00631530
v 0.07606652 -0.02880678 -0.01251595
v -0.05332024 -0.00021181 0.01330714
f 21 25 3
f 7 1 5
f 13 25 29
f 29 4 13
f 25 4 29
f 19 4 25
f 25 21 19
f 24 4 19
f 13 4 26
f 16 4 24
f 24 10 16
f 16 26 4
f 10 26 16
f 15 10 24
f 27 25 13
f 13 1 27
f 27 1 25
f 25 1 20
f 20 7 25
f 1 7 20
f 23 26 10
f 23 1 13
f 13 26 23
f 23 9 5
f 18 28 5
f 3 28 18
f 6 7 5
f 5 28 6
f 11 15 24
f 24 19 11
f 11 19 21
f 10 15 8
f 8 15 2
f 2 9 8
f 8 23 10
f 9 23 8
f 5 1 22
f 22 23 5
f 1 23 22
f 17 18 5
f 2 18 17
f 5 9 17
f 17 9 2
f 14 28 3
f 14 6 28
f 3 25 14
f 25 7 14
f 7 6 14
f 12 11 21
f 12 21 3
f 15 11 12
f 3 18 12
f 2 15 12
f 12 18 2

