# https://github.com/mikedh/trimesh
v 0.06590277 -0.07689155 -0.02156270
v -0.08272744 0.06172849 0.01924693
v 0.08211326 0.00751903 0.01058830
v -0.09938156 -0.01383205 -0.00155706
v -0.08803852 0.06275979 0.01624523
v -0.05379107 0.03628471 0.02081844
v 0.09361239 -0.06910885 -0.00810243
v -0.06740730 0.09892146 -0.00817573
v 0.05267542 -0.11304676 -0.00957385
v 0.02654869 0.09467764 -0.01944083
v 0.10239029 -0.04349890 -0.01603585
v -0.05180204 -0.02072174 -0.02356297
v -0.06111752 -0.06266715 -0.01879037
v 0.04165338 0.11912972 0.01314457
v -0.01713211 -0.12312444 0.02600163
v -0.09292956 0.03442485 -0.00072733
v -0.06685628 -0.08803688 0.00956054
v 0.06270877 0.08997039 -0.00047808
v 0.08335203 -0.04661280 0.00235304
v 0.00118486 0.06759103 -0.02240175
v 0.05957377 0.09415296 0.02083644
v 0.00331864 -0.12913518 -0.00014339
v -0.00418214 0.13039590 -0.01976155
v 0.00469178 0.08379179 -0.02192787
v 0.02888318 0.12235510 0.00503180
v -0.08638389 0.00219593 -0.00854315
f 23 12 8
f 12 1 13
f 26 8 12
f 26 13 4
f 12 13 26
f 4 16 26
f 26 16 8
f 18 21 11
f 2 21 14
f 14 8 2
f 14 18 23
f 21 18 14
f 11 21 3
f 3 21 15
f 6 2 15
f 15 21 6
f 6 21 2
f 20 1 12
f 7 1 11
f 11 3 7
f 4 13 17
f 15 2 17
f 15 17 22
f 22 17 13
f 2 8 5
f 8 16 5
f 5 16 4
f 4 17 5
f 5 17 2
f 10 18 11
f 23 18 10
f 11 1 10
f 23 8 25
f 25 14 23
f 8 14 25
f 19 3 15
f 15 7 19
f 19 7 3
f 9 13 1
f 9 22 13
f 1 7 9
f 9 7 15
f 15 22 9
f 23 10 24
f 24 12 23
f 24 20 12
f 1 20 24
f 24 10 1

