# https://github.com/mikedh/trimesh
v 0.05900688 0.03313929 0.00151490
v 0.00240493 0.06343919 -0.00533126
v 0.04553274 0.01460869 0.01990527
v -0.05696638 0.02716652 0.00186217
v -0.04481387 0.04762963 0.01586087
v 0.00783255 0.05767269 0.00400911
v 0.02914860 -0.02249967 -0.01916315
v 0.02783695 -0.04783586 -0.01399463
v 0.05484306 -0.01853288 -0.00241404
v -0.00825999 -0.06333205 0.01781107
v -0.00727613 0.06741925 -0.01077049
v 0.03879103 0.05098871 -0.00365134
v 0.00080385 -0.05884206 0.01958285
v -0.03145224 -0.06563549 -0.01092920
v 0.05142891 -0.02629429 -0.01676350
v 0.00832627 0.06477544 -0.01797558
v 0.03808125 0.04812733 0.00645929
v -0.05274956 -0.00055033 0.00547570
v -0.06420681 -0.00799129 -0.00901044
v 0.04446528 -0.03635346 -0.01480610
v 0.05037158 -0.03967739 0.00352411
f 1 3 21
f 17 3 1
f 17 5 3
f 19 18 4
f 4 18 5
f 15 16 1
f 1 16 12
f 12 17 1
f 5 17 6
f 5 18 10
f 19 14 10
f 10 18 19
f 11 4 5
f 5 6 11
f 11 16 19
f 19 4 11
f 16 15 7
f 7 14 19
f 19 16 7
f 8 10 14
f 21 10 8
f 14 7 8
f 8 7 15
f 1 21 9
f 9 15 1
f 21 15 9
f 13 21 3
f 13 10 21
f 3 5 13
f 5 10 13
f 2 6 17
f 2 11 6
f 17 12 2
f 2 12 16
f 16 11 2
f 20 15 21
f 21 8 20
f 20 8 15

