# https://github.com/mikedh/trimesh
v -0.07152358 -0.03008824 -0.00574230
v 0.08992664 -0.03619647 0.00220522
v -0.08045549 0.04596977 0.00306368
v 0.08772955 0.01732388 -0.00466672
v 0.08278107 0.01869252 -0.00046547
v 0.06713145 0.02956142 -0.00024686
v -0.07967919 -0.02664400 -0.00179839
v 0.04141696 0.04393374 0.00354738
v -0.07670130 0.01807827 -0.00495076
v -0.06527952 0.04489679 0.00723911
v 0.03820222 0.04157409 0.00401093
v 0.06168912 -0.03033642 0.00694446
v 0.09065691 -0.03550854 -0.00440828
v 0.04425169 -0.02885304 -0.00829087
v 0.00571764 -0.04233607 -0.00765470
v -0.07526269 -0.03812937 0.00699504
v -0.07867533 0.04593015 0.00549937
v -0.02559719 0.01212505 0.00744881
v 0.06212425 0.00839159 -0.00838863
v -0.08456737 -0.00016867 0.00051672
v -0.01141337 -0.04268780 -0.00000231
v -0.05961387 0.03203161 -0.00806499
v -0.07104271 -0.02803404 -0.00824964
v 0.05488953 0.01537885 -0.00706458
v 0.08276703 0.01280286 0.00643173
f 8 22 3
f 18 16 12
f 10 16 18
f 22 8 4
f 20 3 9
f 3 22 9
f 16 10 17
f 17 3 20
f 20 16 17
f 17 8 3
f 17 10 8
f 18 12 25
f 25 10 18
f 19 4 13
f 20 9 23
f 23 9 22
f 22 19 23
f 16 15 21
f 13 15 14
f 14 19 13
f 15 23 14
f 14 23 19
f 8 10 11
f 11 25 8
f 10 25 11
f 6 4 8
f 8 25 6
f 2 25 12
f 13 4 2
f 4 25 2
f 2 12 16
f 2 15 13
f 2 21 15
f 16 21 2
f 22 4 24
f 24 19 22
f 4 19 24
f 1 15 16
f 1 23 15
f 7 16 20
f 20 23 7
f 7 1 16
f 23 1 7
f 5 25 4
f 4 6 5
f 5 6 25

