# https://github.com/mikedh/trimesh
v 0.04985404 -0.04112410 0.00250831
v 0.05394024 0.02465612 -0.00532843
v 0.05803243 0.03775064 -0.00154149
v -0.06191385 0.02035782 0.00514563
v 0.01290787 -0.01003462 0.00633159
v 0.05606913 0.04353785 0.00597360
v -0.03904089 0.03610069 -0.00542491
v 0.05464796 0.04785601 -0.00469035
v 0.00275070 -0.00019495 0.00658121
v -0.05330104 -0.04806862 -0.00179280
v 0.06674831 -0.01098325 -0.00053055
v 0.05789943 -0.02287130 -0.00290980
v -0.04884237 0.02802672 -0.00501580
v 0.03058833 -0.03865118 -0.00531606
v 0.04822735 -0.03829637 0.00010914
v -0.05881310 0.03744919 -0.00256580
v 0.01065590 0.03395227 -0.00558996
v -0.04976799 -0.04733255 0.00440496
v -0.05836788 0.03110569 0.00614799
v -0.03411247 0.03250939 -0.00580121
v 0.04288195 -0.00375287 0.00500907
v 0.00894270 -0.04383196 0.00237282
v -0.05342442 -0.02486723 0.00485732
v -0.06111918 -0.03426175 -0.00572451
f 24 18 4
f 10 18 24
f 16 24 4
f 14 24 20
f 10 24 14
f 14 1 10
f 11 8 3
f 7 8 20
f 7 16 8
f 20 24 7
f 22 18 10
f 10 1 22
f 22 1 18
f 20 8 17
f 17 14 20
f 11 1 12
f 6 1 11
f 11 3 6
f 6 3 8
f 8 16 6
f 24 16 13
f 13 7 24
f 16 7 13
f 2 12 14
f 2 17 8
f 14 17 2
f 2 8 11
f 11 12 2
f 1 14 15
f 15 12 1
f 14 12 15
f 18 1 5
f 1 6 21
f 21 5 1
f 6 5 21
f 4 18 23
f 19 6 16
f 19 16 4
f 4 23 19
f 19 23 18
f 9 5 6
f 6 19 9
f 18 5 9
f 9 19 18

