# https://github.com/mikedh/trimesh
v 0.07612587 0.01607453 -0.00210211
v -0.04536771 -0.02342027 0.00513732
v 0.04619964 -0.02791031 0.00404337
v -0.04473969 0.02872892 -0.00522713
v 0.05304135 0.01838727 -0.00714954
v -0.08939281 -0.00971300 -0.00135624
v 0.03234733 -0.02579081 0.00942740
v -0.06633103 0.01479744 -0.00613856
v 0.00606585 0.02914468 0.00655191
v -0.08256599 0.02236361 0.00270396
v -0.08288774 0.02371435 0.00038134
v -0.07933334 0.01258755 -0.00399158
v 0.03171323 -0.03103049 -0.00079204
v 0.08326051 -0.02718940 -0.00911491
v -0.06671575 0.00674152 0.00750233
v 0.08424862 -0.00690116 -0.00711194
v -0.07372487 0.02783299 -0.00385473
v -0.08531810 0.00181778 0.00426755
v -0.07706663 -0.02045395 -0.00730705
v 0.07536185 0.02660244 0.00584671
v 0.01484002 0.03201063 -0.00056438
v 0.07525338 -0.02377753 0.00454545
v -0.08989613 -0.01005931 -0.00076246
v 0.08492406 -0.03032883 -0.00629103
v 0.04775255 0.02672947 -0.00277248
v 0.03276339 0.00078232 0.00969077
v -0.07990270 -0.00770878 0.00618856
v -0.08743632 -0.02277932 -0.00504020
v -0.06483598 0.02386121 0.00723856
v -0.03422612 0.02878004 0.00415823
v 0.08566377 -0.02300666 -0.00923803
f 26 7 20
f 19 8 31
f 31 8 5
f 26 29 15
f 15 7 26
f 29 27 15
f 15 27 7
f 22 20 7
f 9 29 26
f 26 20 9
f 9 30 29
f 9 20 21
f 21 30 9
f 4 5 8
f 21 20 25
f 25 4 21
f 5 4 25
f 20 1 25
f 25 1 5
f 23 27 18
f 18 27 29
f 7 27 2
f 2 13 7
f 14 19 31
f 24 14 31
f 20 22 24
f 17 4 8
f 17 12 11
f 8 19 17
f 19 12 17
f 17 11 29
f 29 30 17
f 17 30 21
f 21 4 17
f 16 1 20
f 16 24 31
f 20 24 16
f 31 5 16
f 5 1 16
f 23 11 6
f 29 11 10
f 10 18 29
f 10 11 23
f 23 18 10
f 13 2 28
f 28 24 13
f 19 14 28
f 14 24 28
f 23 6 28
f 28 27 23
f 28 2 27
f 28 12 19
f 11 12 28
f 28 6 11
f 7 13 3
f 13 24 3
f 3 22 7
f 3 24 22

