# https://github.com/mikedh/trimesh
v -0.06979449 0.03028374 0.00616999
v -0.10539697 -0.01107380 -0.00571015
v 0.08994724 0.01532288 0.00360433
v -0.03878870 -0.03402384 -0.00161942
v 0.02473760 -0.03351718 -0.00466957
v 0.09802180 -0.00728174 0.00628183
v -0.01936773 0.02919715 -0.00616672
v 0.10307273 0.00398675 -0.00124432
v 0.10014835 0.02630793 -0.00081063
v 0.03780650 -0.01601581 -0.00508617
v -0.00542782 0.02974574 0.00324383
v 0.07768830 -0.00452586 -0.00439901
v 0.10470179 0.03289629 -0.00396399
v -0.07457698 0.01769228 -0.00470128
v -0.09915147 0.02187726 0.00252665
v -0.06519859 -0.03193398 0.00161511
v -0.09610870 -0.02909343 0.00359742
v -0.09431563 0.02739128 0.00140789
v 0.03943520 0.01319770 -0.00519132
v -0.10661091 -0.01947167 0.00443755
v 0.09417141 -0.03007178 -0.00288237
v -0.04433079 -0.01116592 0.00692388
v 0.02661956 -0.02543544 0.00357773
v -0.08905584 0.01244695 0.00629151
f 13 7 1
f 6 23 21
f 6 1 22
f 22 23 6
f 3 1 6
f 18 1 7
f 20 2 17
f 17 2 4
f 17 22 20
f 23 22 17
f 13 6 8
f 8 21 13
f 6 21 8
f 4 2 5
f 5 21 4
f 20 22 24
f 24 22 1
f 9 6 13
f 9 3 6
f 7 2 14
f 14 18 7
f 2 18 14
f 15 2 20
f 15 18 2
f 20 24 15
f 1 18 15
f 15 24 1
f 16 17 4
f 23 17 16
f 4 21 16
f 16 21 23
f 10 2 7
f 10 5 2
f 21 5 10
f 1 3 11
f 3 9 11
f 13 1 11
f 11 9 13
f 19 7 13
f 19 10 7
f 13 21 12
f 21 10 12
f 12 19 13
f 10 19 12

