# https://github.com/mikedh/trimesh
v 0.08339250 -0.02168419 -0.00274546
v 0.07480258 0.02583751 0.00683453
v -0.08004471 -0.01967158 -0.00338040
v 0.01779028 0.01398694 0.00758131
v 0.09672588 -0.00340562 -0.00721579
v 0.08498006 0.00514349 0.00658335
v -0.09092411 0.00964470 -0.00488448
v 0.09116116 0.01817233 -0.00753008
v 0.03628057 -0.02919753 -0.00640095
v 0.06489139 0.02708966 0.00401996
v 0.00246979 0.02713800 0.00162134
v -0.10527082 0.01934816 0.00581749
v 0.09444801 0.02334487 -0.00487458
v -0.07058779 0.02304583 -0.00215783
v 0.05039377 0.03006951 -0.00537739
v 0.04318814 0.00348497 0.00797844
v -0.01032598 0.00294879 0.00819610
v -0.08168529 -0.02333586 -0.00030970
v 0.09129406 -0.00221851 0.00120225
v 0.01577480 -0.01949385 -0.00831123
v -0.06812632 0.01973057 -0.00425380
v -0.03992767 0.01707848 -0.00655677
v -0.09250226 0.00115809 -0.00625886
v -0.10236346 -0.01644456 0.00029352
v 0.09504334 0.01282054 -0.00431273
v 0.06483847 0.01323114 -0.00854395
v -0.08587541 -0.01403252 0.00624866
v -0.03863941 -0.02621629 0.00503789
v -0.04671511 -0.01983808 0.00620157
v 0.06797542 -0.02975221 0.00666587
f 12 2 11
f 15 2 13
f 2 6 13
f 28 9 30
f 17 27 30
f 12 27 17
f 1 9 5
f 30 9 1
f 14 7 12
f 12 11 14
f 14 11 15
f 10 2 15
f 15 11 10
f 10 11 2
f 8 13 5
f 15 13 8
f 5 13 25
f 30 27 29
f 29 28 30
f 27 28 29
f 18 28 27
f 3 9 18
f 9 28 18
f 30 6 16
f 16 17 30
f 16 6 2
f 2 17 16
f 4 2 12
f 12 17 4
f 4 17 2
f 19 6 30
f 30 1 19
f 19 1 5
f 5 25 19
f 19 13 6
f 19 25 13
f 21 14 15
f 7 14 21
f 12 7 23
f 24 18 27
f 24 27 12
f 12 23 24
f 3 18 24
f 24 23 3
f 7 21 22
f 22 23 7
f 22 21 15
f 20 9 3
f 3 23 20
f 5 9 20
f 23 22 26
f 26 20 23
f 15 8 26
f 26 22 15
f 26 8 5
f 5 20 26

