# https://github.com/mikedh/trimesh
v -0.02657923 0.07892729 0.00674698
v -0.05510275 0.04681622 0.01437952
v -0.03885827 0.01914236 0.01605921
v 0.11881686 0.03318920 0.00136923
v -0.09208607 -0.01696186 -0.01760260
v 0.11086143 -0.01877233 -0.01002320
v 0.09406156 0.05254137 0.01081807
v -0.04185451 -0.07899496 -0.00812703
v -0.07983872 0.05157593 0.01318180
v -0.01714645 -0.07430860 -0.00628812
v 0.05393143 -0.07148729 0.00797072
v 0.10956145 0.04444750 0.00201768
v 0.07855164 -0.05284847 0.00679303
v -0.11990712 0.01535769 -0.00573269
v -0.08475210 0.00188544 0.01017202
v -0.04515890 -0.02495491 -0.01899355
v -0.00874974 -0.06642983 0.01496556
v 0.04217224 -0.05574011 -0.00619128
v -0.09225711 0.03740434 0.01446427
v -0.08775320 -0.00581080 -0.01635637
v -0.04749469 0.07075911 -0.00208684
v 0.12055283 0.00385227 0.00925366
v 0.09511599 0.03885679 0.01678707
v 0.11720536 0.01027425 0.01193727
v -0.10514550 -0.04890598 -0.02071082
v -0.10435511 0.01376949 0.00520909
v 0.00792625 0.07227359 -0.01178262
v -0.00875358 -0.07016356 0.00893788
f 17 25 8
f 14 27 20
f 25 17 15
f 8 25 6
f 6 18 8
f 27 4 6
f 6 11 18
f 6 4 22
f 23 4 7
f 5 27 25
f 5 20 27
f 5 25 14
f 14 20 5
f 21 27 14
f 28 17 8
f 8 11 28
f 28 11 17
f 8 18 10
f 10 11 8
f 18 11 10
f 27 7 12
f 12 4 27
f 7 4 12
f 25 27 16
f 16 6 25
f 27 6 16
f 13 6 22
f 11 6 13
f 24 13 22
f 11 13 24
f 22 4 24
f 4 23 24
f 17 11 24
f 24 23 17
f 14 25 26
f 25 15 26
f 1 7 27
f 27 21 1
f 1 23 7
f 19 15 17
f 19 26 15
f 14 26 19
f 23 1 9
f 9 1 21
f 9 21 14
f 14 19 9
f 17 23 3
f 3 19 17
f 23 19 3
f 2 19 23
f 23 9 2
f 2 9 19

