# https://github.com/mikedh/trimesh
v 0.02799215 -0.05925156 0.00468921
v -0.02819297 0.04012897 -0.00644725
v -0.05807368 0.02693354 0.00291972
v 0.03538462 0.00865426 0.01153928
v 0.01121415 -0.07108423 0.00633140
v 0.04818255 -0.00963873 -0.01502478
v -0.04096544 0.02018133 0.01555869
v 0.05567201 -0.02216790 -0.00926862
v -0.02581024 -0.06119990 0.00891265
v -0.01635915 0.06295745 0.00606444
v -0.06765406 0.00437816 0.00770276
v 0.03162831 0.05989452 -0.00860044
v -0.04895973 0.04555613 0.01197633
v -0.05402963 -0.02822699 -0.01785021
v -0.02198969 -0.06880341 0.00386617
v -0.05104200 0.03944115 0.01728890
v 0.03402306 -0.04521578 -0.00821168
v -0.01883198 -0.00734409 -0.01860584
v 0.07215393 -0.00417871 0.00112057
v 0.03099941 -0.04456216 -0.01268565
v 0.04529773 0.05890640 0.00784543
v -0.02587038 -0.00843540 -0.01803132
f 20 14 18
f 9 16 11
f 11 14 9
f 4 9 5
f 2 12 18
f 5 20 1
f 19 4 1
f 1 4 5
f 6 12 19
f 18 12 6
f 6 20 18
f 5 9 15
f 15 9 14
f 15 20 5
f 14 20 15
f 19 12 21
f 21 4 19
f 16 4 21
f 16 9 7
f 7 4 16
f 9 4 7
f 18 14 22
f 22 2 18
f 14 2 22
f 12 2 10
f 10 21 12
f 16 21 10
f 3 14 11
f 3 2 14
f 19 1 8
f 8 6 19
f 20 6 8
f 13 10 2
f 2 3 13
f 16 10 13
f 11 16 13
f 13 3 11
f 17 1 20
f 20 8 17
f 17 8 1

