# https://github.com/mikedh/trimesh
v 0.10143273 0.02287593 -0.00430509
v -0.08304051 -0.04051209 -0.00228314
v 0.03298603 0.03901181 0.01307061
v -0.08078267 0.03714269 0.01588935
v -0.07309489 0.03711554 -0.00150531
v -0.07695799 0.03305896 -0.00646919
v -0.10162627 0.00172647 0.00526224
v 0.11098432 0.00756151 -0.00031505
v 0.06731289 0.00205881 -0.02061692
v -0.03549376 -0.07335807 0.01264398
v -0.02626367 0.05846625 0.00650050
v 0.05834750 0.02702402 0.01730842
v 0.10148944 0.01544230 0.01085442
v -0.05891280 -0.05645269 -0.01234681
v 0.07017606 -0.03087592 -0.02372618
v 0.02244134 0.07661566 -0.01083377
v 0.06775868 -0.02635727 -0.00328436
v -0.09283700 0.02088410 0.00100728
v -0.01145174 -0.07622610 0.02147587
v 0.07626295 0.05368408 -0.00445169
v -0.09679480 0.00770204 -0.01240066
v 0.08975806 0.03999317 -0.00173237
f 8 19 17
f 17 15 8
f 19 15 17
f 13 19 8
f 13 12 19
f 7 19 4
f 19 12 4
f 10 15 19
f 10 14 15
f 10 2 14
f 10 19 7
f 7 2 10
f 15 14 21
f 21 9 15
f 21 2 7
f 14 2 21
f 16 5 4
f 9 21 16
f 8 15 1
f 15 9 1
f 7 4 18
f 18 21 7
f 12 13 20
f 20 16 12
f 9 16 20
f 20 1 9
f 11 16 4
f 5 16 6
f 6 16 21
f 21 18 6
f 4 5 6
f 6 18 4
f 22 20 13
f 1 20 22
f 22 13 8
f 8 1 22
f 3 4 12
f 3 11 4
f 12 16 3
f 16 11 3

