# https://github.com/mikedh/trimesh
v -0.06182543 0.03569270 -0.00027781
v 0.01583861 0.00193596 -0.00501141
v -0.04551823 -0.03656801 -0.00016848
v 0.03281656 0.02260930 0.00447622
v 0.06249994 -0.03545087 -0.00458104
v 0.06384570 0.01518409 0.00278404
v -0.02471266 -0.02342374 0.00491584
v 0.04391895 -0.02581800 0.00565911
v 0.01034576 0.02535280 0.00407688
v -0.03606977 0.03074613 -0.00407617
v -0.05804396 0.02786735 -0.00376974
v -0.06596929 0.00220482 0.00124578
v -0.02475914 -0.02885985 0.00355855
v -0.00012325 -0.03710477 0.00290647
v 0.06044538 0.03614046 -0.00283718
v -0.06820402 -0.00885586 0.00466905
v 0.06179823 0.02992312 0.00395931
v 0.01197280 -0.00895088 -0.00476046
v 0.05006743 -0.03222925 0.00038141
v -0.06569164 -0.02552229 -0.00260378
v 0.04462705 0.03367759 0.00422051
v 0.01536449 -0.03413261 0.00321717
f 21 15 1
f 7 8 16
f 14 8 7
f 16 1 12
f 12 20 16
f 1 20 12
f 16 8 4
f 4 21 16
f 8 21 4
f 17 8 6
f 17 21 8
f 6 15 17
f 15 21 17
f 9 1 16
f 16 21 9
f 9 21 1
f 14 7 13
f 22 8 14
f 14 19 22
f 22 19 8
f 14 13 3
f 16 20 3
f 3 7 16
f 3 13 7
f 2 15 5
f 5 3 20
f 5 15 6
f 5 19 14
f 14 3 5
f 6 8 5
f 8 19 5
f 1 15 10
f 10 15 2
f 2 5 18
f 18 5 20
f 1 10 11
f 11 20 1
f 11 10 2
f 11 18 20
f 2 18 11

