# https://github.com/mikedh/trimesh
v -0.04348081 0.00559283 0.01485546
v 0.02641502 -0.04693046 0.01087982
v 0.05903782 -0.04959581 -0.01520990
v 0.04115896 -0.06052093 -0.01391519
v 0.04093662 0.01037080 0.01683046
v -0.01069880 -0.05613851 0.00769169
v -0.02275779 0.06046154 -0.00895898
v -0.06813563 0.00609796 0.00956063
v -0.06098942 -0.00081468 -0.01036903
v -0.05172782 -0.02623590 -0.01546209
v 0.02568861 -0.06894017 0.00191482
v -0.05660262 0.05304854 0.00663529
v 0.02192872 0.04476268 -0.01115117
v -0.05384430 0.04471837 0.01284810
v 0.06939852 -0.00488174 -0.00124002
v 0.04942258 -0.01869461 -0.01473373
v -0.03037887 -0.05132456 0.00498570
v -0.00219328 -0.02377862 0.01942412
v 0.04841694 0.05644657 0.00746850
v -0.05805773 -0.04331795 -0.00783814
v -0.03958719 0.04492175 -0.01086976
v -0.05141416 -0.03272935 -0.01569323
v -0.07011420 0.01815322 0.00186977
v 0.05937323 0.03810907 0.00566861
v -0.01174149 0.06493909 0.00343060
v 0.05543652 0.05211947 0.00691232
v 0.03014001 -0.06158381 0.00668366
f 4 3 11
f 22 3 4
f 15 5 27
f 27 3 15
f 11 3 27
f 18 5 14
f 20 4 11
f 22 4 20
f 23 21 9
f 9 20 23
f 22 20 9
f 13 21 7
f 2 5 18
f 18 27 2
f 2 27 5
f 6 27 18
f 11 27 6
f 24 5 15
f 15 26 24
f 24 26 5
f 23 20 8
f 22 9 10
f 10 9 21
f 21 13 10
f 18 14 1
f 1 8 18
f 14 8 1
f 17 8 20
f 17 20 11
f 11 6 17
f 17 6 18
f 18 8 17
f 12 25 7
f 14 25 12
f 7 21 12
f 12 21 23
f 23 8 12
f 12 8 14
f 19 25 14
f 5 26 19
f 19 14 5
f 7 25 19
f 19 13 7
f 26 13 19
f 16 10 13
f 15 3 16
f 16 3 22
f 22 10 16
f 16 26 15
f 16 13 26

