# https://github.com/mikedh/trimesh
v -0.02524111 -0.02375924 -0.00628802
v 0.05694046 0.00845236 0.00563486
v 0.07506652 -0.01642626 0.00574569
v 0.08240532 -0.00345754 0.00556400
v 0.07821216 0.01991950 -0.00132050
v -0.01500312 0.03187225 -0.00520289
v 0.07772442 0.01488029 -0.00193617
v -0.07454160 0.00004619 -0.00416357
v -0.04471146 -0.02737270 -0.00076195
v 0.05448696 -0.01983559 0.00571414
v -0.06136581 -0.00817691 -0.00494145
v -0.08175106 -0.02267736 0.00637553
v -0.07805523 0.01813308 -0.00425010
v -0.00708652 -0.01500905 0.00762381
v -0.02010933 0.02872032 -0.00080359
v -0.02432841 -0.00167208 0.00786801
v 0.08562011 -0.01934401 -0.00238734
v 0.02880026 -0.00785159 -0.00478201
f 9 1 17
f 6 1 13
f 17 1 18
f 18 1 6
f 12 13 8
f 6 13 15
f 15 5 6
f 2 5 15
f 12 9 10
f 10 14 12
f 3 14 10
f 10 9 17
f 17 3 10
f 17 18 7
f 7 5 17
f 7 18 6
f 6 5 7
f 4 5 2
f 4 14 3
f 4 3 17
f 17 5 4
f 11 13 1
f 11 8 13
f 1 9 11
f 11 9 12
f 12 8 11
f 16 13 12
f 16 15 13
f 2 15 16
f 12 14 16
f 16 4 2
f 14 4 16

