# https://github.com/mikedh/trimesh
v 0.05722117 -0.02822189 -0.00111485
v 0.02621459 -0.05076550 -0.00591102
v -0.04722074 -0.04169469 -0.01456736
v 0.04297925 -0.02527962 -0.02174145
v -0.04852084 0.03083882 0.02470286
v 0.04987789 -0.03070392 -0.01883052
v -0.05554334 0.01330201 -0.00830443
v -0.01256490 -0.05520685 -0.00290463
v 0.02319999 0.04436987 -0.02629980
v -0.04425542 -0.04406170 -0.01690752
v -0.06573310 -0.00395204 0.01228884
v 0.06592558 0.02981012 0.01659108
v -0.00693290 0.05812418 0.00769198
v -0.04732967 -0.00911331 -0.02295795
v 0.01261128 -0.02917280 0.02069378
v -0.03951423 0.04104261 0.02655473
v 0.01243354 -0.06175696 0.00345109
v 0.04658921 -0.00491456 -0.01799738
v -0.00370580 0.05785301 -0.02759374
v -0.05642730 -0.01318823 -0.00930266
v -0.00089105 -0.06602691 0.01772835
f 15 21 12
f 12 16 15
f 15 16 21
f 11 21 5
f 21 16 5
f 12 19 13
f 13 16 12
f 19 16 13
f 19 14 7
f 11 5 7
f 7 16 19
f 7 5 16
f 11 7 20
f 20 7 14
f 12 21 1
f 1 6 12
f 17 1 21
f 9 19 12
f 3 14 10
f 3 20 14
f 11 20 3
f 3 21 11
f 3 10 21
f 21 10 8
f 8 17 21
f 10 17 8
f 10 6 2
f 2 17 10
f 6 1 2
f 1 17 2
f 12 6 18
f 18 9 12
f 6 9 18
f 4 9 6
f 10 14 4
f 4 6 10
f 4 14 19
f 19 9 4

