# https://github.com/mikedh/trimesh
v 0.04401631 0.02054001 0.00068296
v 0.07720240 -0.01344198 -0.00030113
v -0.00202105 -0.02518848 0.00311929
v -0.07303508 0.02539062 -0.00058531
v -0.06874355 0.01961042 -0.00189247
v -0.06509679 -0.01692639 -0.00265694
v -0.01617420 0.02323572 -0.00389139
v -0.00281532 0.02185081 0.00456588
v -0.05729852 -0.02604028 -0.00346414
v -0.06383691 -0.00634077 0.00398902
v 0.06876529 -0.01888814 0.00125880
v 0.07123865 -0.01563560 -0.00291002
v -0.01650348 0.02614275 0.00098909
v -0.04588076 0.02116800 0.00376552
v 0.06939506 0.01347423 -0.00214467
v 0.00533051 -0.00611498 0.00365391
v 0.04105937 0.01701317 -0.00325587
v 0.01897786 -0.02436117 -0.00055937
v 0.08269811 0.00391553 0.00265802
v -0.06777034 -0.01399691 -0.00200119
v 0.02216172 -0.00186569 0.00363800
v 0.08203241 0.01140053 -0.00107930
f 4 7 5
f 5 7 9
f 9 7 12
f 20 10 4
f 9 10 20
f 4 5 20
f 13 7 4
f 13 1 7
f 6 5 9
f 9 20 6
f 6 20 5
f 19 1 8
f 1 13 8
f 3 10 9
f 3 8 10
f 22 1 19
f 19 2 22
f 22 2 12
f 17 12 7
f 7 1 17
f 10 8 14
f 4 10 14
f 14 13 4
f 14 8 13
f 12 2 11
f 11 2 19
f 19 3 11
f 19 8 21
f 21 3 19
f 12 17 15
f 15 22 12
f 1 22 15
f 15 17 1
f 9 12 18
f 12 11 18
f 18 3 9
f 18 11 3
f 8 3 16
f 16 21 8
f 3 21 16

