# https://github.com/mikedh/trimesh
v -0.07482415 0.00551810 0.00304071
v -0.06725755 0.01334664 -0.00026561
v -0.02518021 -0.02064669 -0.00346480
v -0.02423606 0.00428265 -0.00410743
v -0.06598296 0.02112525 0.00258649
v -0.06225290 -0.00921111 -0.00268634
v -0.04649862 0.02374190 -0.00398379
v -0.05995701 0.02418469 -0.00141933
v -0.05288601 -0.02437621 0.00141257
v 0.05361263 -0.03160728 0.00180872
v 0.00201218 0.01294732 0.00432577
v -0.05671595 0.01421283 0.00395640
v 0.00441279 0.00188472 0.00444189
v -0.03352576 0.00581959 -0.00390994
v 0.06549966 -0.01140350 0.00427211
v 0.04190981 0.01660909 -0.00494409
v 0.06547869 -0.00848524 -0.00364249
v 0.05032530 0.02246580 0.00393973
v -0.01716546 -0.02835883 -0.00206028
v -0.00707173 -0.02519680 0.00331943
v -0.05063015 0.00371514 0.00402829
v 0.05812110 -0.02749545 0.00066638
v -0.07134399 -0.00359308 -0.00205254
v 0.06296999 -0.02317214 0.00054840
v -0.00626569 -0.01001809 -0.00423587
v -0.06649987 0.01233433 0.00329821
v 0.03324498 -0.02709655 0.00356875
v -0.03346320 -0.01992775 -0.00286963
v 0.02390463 0.03138382 0.00114523
v 0.03523404 -0.02807271 -0.00163396
v -0.05943277 -0.01472776 0.00259875
v 0.04307471 -0.02520871 -0.00192454
v -0.06076447 0.01650953 -0.00346414
v 0.03514969 -0.00990616 -0.00478097
v 0.05576086 0.02653651 -0.00374876
v -0.03709587 -0.02695055 0.00159030
v 0.01515579 0.02502116 -0.00438515
f 5 18 29
f 29 18 35
f 35 17 16
f 35 18 15
f 15 17 35
f 13 21 20
f 29 7 8
f 8 5 29
f 18 5 12
f 21 13 12
f 1 21 12
f 16 7 37
f 37 35 16
f 37 7 29
f 29 35 37
f 1 23 9
f 16 17 34
f 34 7 16
f 34 25 7
f 6 9 23
f 2 23 1
f 1 5 2
f 5 8 2
f 18 12 11
f 11 12 13
f 15 18 11
f 11 13 15
f 26 5 1
f 1 12 26
f 26 12 5
f 31 21 1
f 1 9 31
f 20 21 31
f 31 9 20
f 3 34 19
f 25 34 3
f 19 34 30
f 30 10 19
f 24 17 15
f 15 10 24
f 20 9 36
f 36 9 19
f 19 10 36
f 27 10 15
f 15 13 27
f 27 13 20
f 20 36 27
f 27 36 10
f 28 3 19
f 6 3 28
f 19 9 28
f 9 6 28
f 7 25 4
f 33 3 6
f 33 6 23
f 33 8 7
f 25 3 33
f 23 2 33
f 33 2 8
f 32 34 17
f 32 30 34
f 10 30 32
f 14 4 25
f 25 33 14
f 7 4 14
f 14 33 7
f 22 24 10
f 10 32 22
f 17 24 22
f 22 32 17

