# https://github.com/mikedh/trimesh
v -0.03933321 -0.03599751 0.00043930
v -0.05686584 0.03386696 -0.00451007
v 0.08382482 -0.00570969 -0.00081059
v 0.01252491 0.02879978 0.00426768
v 0.04904412 0.03954190 -0.00088918
v -0.05408184 0.00159470 0.00547949
v 0.05523787 0.03013285 -0.00389999
v -0.04662990 0.01186287 0.00479278
v 0.08346153 -0.03109008 -0.00427700
v 0.06779439 0.02835442 0.00442155
v -0.04149906 -0.03380407 -0.00243434
v -0.07972373 -0.03663020 0.00367599
v -0.08172431 -0.01395403 -0.00081439
v -0.08057511 -0.00951199 0.00436675
v -0.04245515 0.00397902 -0.00515176
v -0.06320448 0.03417973 0.00228454
v -0.08081232 -0.00004363 0.00356348
v 0.08603038 -0.00814871 -0.00393776
v 0.07140151 0.01680018 -0.00387992
v -0.08013735 -0.03673541 0.00411993
v -0.02202504 -0.00673749 -0.00602319
v 0.05512568 0.03508179 0.00388239
v 0.07242628 -0.00479451 0.00201911
v 0.01265885 -0.02490097 0.00573183
v -0.02857213 0.02004036 -0.00494680
v -0.07102513 0.01266635 -0.00034401
f 2 16 5
f 24 9 23
f 24 23 10
f 7 2 5
f 26 2 13
f 16 2 26
f 20 9 24
f 20 14 13
f 3 9 18
f 3 23 9
f 18 10 3
f 3 10 23
f 13 14 17
f 17 14 16
f 17 26 13
f 16 26 17
f 5 16 22
f 22 10 5
f 5 10 19
f 19 7 5
f 19 10 18
f 9 11 21
f 7 19 21
f 21 11 13
f 18 9 21
f 21 19 18
f 9 20 1
f 1 11 9
f 16 14 6
f 6 8 16
f 6 20 24
f 14 20 6
f 24 10 6
f 2 7 25
f 25 21 2
f 7 21 25
f 13 2 15
f 15 21 13
f 2 21 15
f 12 1 20
f 11 1 12
f 12 20 13
f 13 11 12
f 8 6 4
f 4 22 16
f 16 8 4
f 10 22 4
f 4 6 10

