# https://github.com/mikedh/trimesh
v -0.06527092 -0.05016490 0.00024867
v -0.04769851 0.04700156 0.01568060
v 0.00794934 0.05769829 -0.02252313
v -0.03993947 0.01263081 0.02470870
v 0.00947247 0.07952027 -0.00258474
v 0.06317811 0.02100653 0.01619194
v 0.02183052 -0.08145253 0.01447396
v 0.08819350 0.02415399 0.01005629
v -0.03970688 0.04138342 0.01868560
v 0.07358157 -0.01668469 -0.01620044
v 0.03912391 0.05971687 -0.01347981
v -0.04253955 -0.03573109 -0.01858602
v -0.06398735 -0.01548969 -0.01667090
v -0.00693119 -0.07926352 0.00282159
v 0.05221643 0.03655482 0.01846879
v -0.05563889 -0.05047919 -0.01787474
v -0.07666181 0.02466741 0.02462337
v -0.06942099 0.05110569 0.00151624
v -0.04005957 0.06893672 0.00380140
v -0.08472742 0.01762939 -0.00612452
v -0.05487939 -0.03252068 -0.01784388
v 0.08407557 -0.01258417 0.00485100
v 0.05706323 -0.05941535 -0.01392006
v -0.08168427 0.03781494 0.00658664
v 0.00526416 0.08301014 -0.02048790
v 0.04582501 -0.07613298 0.00334648
v -0.00427896 -0.03657586 0.02054226
f 6 7 8
f 8 7 22
f 7 6 27
f 4 27 15
f 15 27 6
f 8 5 15
f 15 6 8
f 26 22 7
f 23 22 26
f 5 25 19
f 11 5 8
f 11 25 5
f 20 25 13
f 25 3 13
f 4 15 17
f 17 24 20
f 7 27 17
f 17 27 4
f 9 15 5
f 5 19 9
f 9 17 15
f 18 19 25
f 20 24 18
f 18 25 20
f 24 17 18
f 18 17 19
f 23 12 10
f 12 3 10
f 10 11 8
f 25 11 10
f 10 3 25
f 8 22 10
f 10 22 23
f 7 17 1
f 1 17 20
f 19 17 2
f 2 9 19
f 17 9 2
f 16 3 12
f 20 13 16
f 16 1 20
f 16 12 23
f 21 13 3
f 3 16 21
f 21 16 13
f 23 26 14
f 14 16 23
f 14 26 7
f 7 1 14
f 1 16 14

