# https://github.com/mikedh/trimesh
v -0.02696668 0.08478611 0.00426056
v -0.01006696 -0.05515374 0.01814045
v 0.05419062 -0.07145217 -0.00551766
v -0.07555994 0.02254622 0.01155136
v -0.09230490 -0.01981789 -0.00139749
v -0.08828878 0.00832452 -0.01199083
v 0.06363670 -0.04795538 0.00351000
v -0.01877597 -0.08590006 0.01127975
v 0.01488107 0.08622917 -0.00632252
v -0.03549484 -0.05930828 -0.00561520
v 0.01620155 0.06658262 -0.01538160
v 0.06263161 0.03414951 0.02181461
v 0.04963167 0.05841284 0.01379434
v -0.04764793 0.08043632 -0.00322772
v -0.00211395 -0.08878093 0.00279267
v 0.03434983 -0.07824002 0.00330308
v 0.08946974 -0.03066839 -0.02136867
f 4 6 5
f 5 8 4
f 17 12 7
f 11 9 17
f 17 6 11
f 10 6 17
f 10 8 5
f 5 6 10
f 1 4 12
f 12 4 2
f 2 4 8
f 17 7 3
f 9 1 13
f 13 1 12
f 17 9 13
f 13 12 17
f 6 4 14
f 4 1 14
f 14 11 6
f 9 11 14
f 14 1 9
f 16 2 8
f 16 3 7
f 16 7 12
f 12 2 16
f 15 10 17
f 17 3 15
f 8 10 15
f 15 16 8
f 3 16 15

