# https://github.com/mikedh/trimesh
v -0.00060139 0.07001958 -0.01026578
v 0.01734626 0.05562949 0.00535797
v -0.06800119 0.00831950 0.02557079
v -0.07041372 0.04730675 0.00677990
v 0.06480103 0.03109813 0.02169097
v 0.10365998 0.00254791 -0.00966146
v 0.08168944 0.03480518 0.00636772
v 0.02480450 -0.06608380 -0.00816462
v 0.07573739 0.03057373 0.02034308
v -0.08767669 -0.03065055 -0.00410864
v 0.00898089 -0.04721146 0.02131068
v 0.03442931 -0.02124720 -0.02192155
v 0.08992770 -0.01974179 -0.01081241
v 0.06150282 -0.03686894 0.00477953
v -0.05763544 0.05341775 -0.00737636
v 0.01530555 0.04602288 -0.02212097
v -0.03006011 0.04748592 -0.01801776
v -0.02397355 0.04628423 -0.01953487
v -0.08799359 0.00785717 0.02375680
v -0.05555170 -0.02244768 -0.01995975
v -0.03805857 -0.06109454 -0.01141663
v -0.00649941 0.06599242 -0.01356568
v -0.03845834 -0.06052315 -0.00737617
v -0.09186036 0.00681546 0.00955788
v 0.07646534 0.00592874 0.01799963
v -0.04921796 -0.05172795 -0.01695953
v 0.03837656 -0.05961626 0.00846727
v -0.08062807 -0.03627202 -0.00333169
f 6 16 1
f 13 27 8
f 12 20 16
f 12 16 6
f 12 26 20
f 6 13 12
f 8 26 12
f 12 13 8
f 6 1 7
f 7 9 6
f 1 9 7
f 27 13 14
f 11 27 25
f 25 9 11
f 27 14 25
f 6 9 25
f 25 13 6
f 25 14 13
f 15 17 20
f 22 1 16
f 22 15 1
f 17 15 22
f 16 20 18
f 20 17 18
f 18 22 16
f 17 22 18
f 8 27 23
f 23 27 11
f 11 9 5
f 5 3 11
f 11 3 19
f 21 26 8
f 8 23 21
f 10 19 24
f 20 26 10
f 24 15 10
f 10 15 20
f 3 5 4
f 1 15 4
f 4 19 3
f 4 15 24
f 24 19 4
f 26 21 28
f 28 10 26
f 28 21 23
f 28 23 11
f 11 19 28
f 19 10 28
f 1 4 2
f 2 4 5
f 2 9 1
f 2 5 9

