# https://github.com/mikedh/trimesh
v -0.01907644 0.07225172 0.01284827
v 0.04143755 0.05716754 -0.00301272
v 0.04696880 0.02495640 0.01767137
v 0.05588598 -0.03352649 -0.00446044
v 0.01314457 0.08349454 0.00105091
v 0.03487978 0.02018270 0.02337604
v -0.02367381 0.00897495 0.02363355
v -0.01123212 -0.06562522 0.01580817
v 0.00272929 -0.06683821 0.01658535
v 0.05310440 0.02789529 -0.00330696
v -0.02065209 -0.08684784 -0.00476560
v -0.02867599 0.06175753 0.01853997
v -0.04353985 -0.00322439 -0.01007479
v -0.06279950 -0.00857088 0.01217310
v -0.00139719 -0.04254224 0.01894392
v 0.02254433 0.07140564 0.01023300
v 0.02922879 0.07795845 0.00502901
v 0.00153085 0.04346941 -0.02152786
v -0.05341211 -0.04750385 0.00361797
v 0.00349762 0.05373310 -0.02098638
v 0.04408289 -0.04223181 -0.02399217
v 0.02517479 0.01997684 0.02387001
v 0.04536669 0.02172834 0.01951324
v 0.03316423 -0.07372400 0.00322553
v -0.03326603 -0.06520215 -0.01574084
v -0.00360367 -0.08676008 -0.00235439
v -0.00367303 0.09351990 -0.01894653
v 0.05102321 -0.02963394 -0.02272298
v -0.05413832 0.00658285 0.01938300
v -0.02744182 0.07838205 -0.00791200
f 27 25 13
f 24 21 4
f 30 13 14
f 27 13 30
f 29 30 14
f 12 30 29
f 18 25 27
f 18 21 25
f 4 21 28
f 27 2 28
f 25 21 11
f 10 3 4
f 2 3 10
f 4 28 10
f 10 28 2
f 23 24 4
f 4 3 23
f 17 3 2
f 17 2 27
f 20 18 27
f 21 18 20
f 27 28 20
f 20 28 21
f 25 11 19
f 14 13 19
f 19 13 25
f 22 12 7
f 12 29 7
f 24 9 26
f 21 24 26
f 26 11 21
f 8 29 14
f 14 19 8
f 8 7 29
f 9 7 8
f 8 19 11
f 11 26 8
f 8 26 9
f 6 9 24
f 24 23 6
f 22 9 6
f 6 12 22
f 16 23 3
f 3 17 16
f 16 6 23
f 12 6 16
f 27 30 1
f 1 30 12
f 12 16 1
f 1 16 17
f 15 9 22
f 22 7 15
f 15 7 9
f 5 17 27
f 27 1 5
f 5 1 17

