# https://github.com/mikedh/trimesh
v 0.02973899 -0.04707042 0.00165826
v -0.05236091 0.03610885 -0.00462708
v -0.07326566 0.03113828 0.00075414
v 0.05380751 -0.00740731 -0.00398994
v -0.00311191 -0.01159811 0.00562036
v 0.09074182 0.04320258 -0.00383657
v -0.09023856 0.00341152 0.00196685
v -0.07569777 -0.04045315 0.00130954
v -0.04442279 0.02533430 0.00484030
v 0.04145945 -0.03809577 0.00523478
v 0.05129488 -0.04146860 0.00327821
v 0.01114848 -0.02217134 -0.00628995
v 0.00059098 0.03196836 0.00465835
v -0.08638388 0.02260224 -0.00049909
v 0.03238187 -0.02747430 0.00587270
v -0.08522979 0.02182796 -0.00402589
v 0.01566952 0.04014720 0.00274191
v -0.06222754 -0.04356899 -0.00168990
v 0.08041163 -0.02247748 0.00354123
v 0.00990465 -0.01054017 0.00570222
v 0.07428406 0.00622527 -0.00297582
v -0.05260045 -0.00556776 0.00480439
v 0.05154203 0.03508843 0.00542805
v 0.02877692 0.04033838 -0.00533116
v 0.02703411 -0.04227647 0.00361490
v -0.08716698 -0.01976878 -0.00455999
v -0.06835056 0.01064009 0.00361626
v 0.00137777 -0.03713473 0.00480008
v 0.08673076 0.04365071 0.00040155
v -0.05377799 0.02941099 0.00363382
f 18 12 1
f 6 12 24
f 12 2 24
f 17 24 2
f 17 30 23
f 26 2 12
f 12 18 26
f 1 12 4
f 4 12 6
f 6 21 4
f 19 4 21
f 19 21 6
f 8 18 1
f 28 22 8
f 8 22 7
f 7 26 8
f 8 26 18
f 3 17 2
f 30 17 3
f 7 30 3
f 3 14 7
f 29 19 6
f 23 19 29
f 29 17 23
f 6 24 29
f 24 17 29
f 27 30 7
f 7 22 27
f 30 27 9
f 9 27 22
f 2 26 16
f 16 3 2
f 14 3 16
f 16 26 7
f 7 14 16
f 1 10 25
f 25 10 28
f 25 8 1
f 28 8 25
f 11 10 1
f 19 10 11
f 1 4 11
f 4 19 11
f 15 19 23
f 15 10 19
f 15 22 28
f 28 10 15
f 23 30 13
f 13 9 23
f 30 9 13
f 23 9 5
f 5 9 22
f 22 15 5
f 20 15 23
f 23 5 20
f 20 5 15

