# https://github.com/mikedh/trimesh
v -0.03785495 -0.04242646 -0.01012052
v -0.02459575 -0.06721752 0.01464028
v -0.10591353 -0.00490095 -0.01506865
v 0.09010797 0.02291473 0.01216424
v -0.01178303 0.06912472 -0.00608550
v -0.08979697 0.03746522 0.01892426
v 0.06363651 0.04296648 0.01508504
v -0.07654111 -0.04112182 0.00039015
v -0.07058402 0.05269656 -0.00428096
v 0.03179531 -0.05426032 0.00925222
v 0.10500430 -0.02180983 -0.01559510
v 0.06232323 0.03499623 0.01725358
v -0.01125737 -0.06715075 -0.00124987
v 0.07158322 0.04679032 0.00591366
v -0.09871995 0.02094275 0.01273625
v -0.00893431 0.05934164 -0.01428378
v 0.07469102 -0.04486857 -0.01574844
v -0.00919220 -0.05581696 0.01663853
v 0.02045976 -0.07208549 -0.00031231
v 0.05183763 -0.06251070 0.00398777
v -0.10231370 -0.00775046 -0.00785102
v 0.05109456 0.06231660 -0.00879495
v 0.02389654 -0.07226527 -0.00518278
v 0.09900393 0.01373060 -0.00575577
f 16 11 3
f 3 6 9
f 9 6 5
f 9 16 3
f 5 16 9
f 15 6 3
f 15 2 6
f 11 16 22
f 22 16 5
f 5 6 7
f 6 12 7
f 7 22 5
f 6 2 18
f 18 12 6
f 2 20 18
f 3 11 17
f 11 20 17
f 17 20 23
f 2 15 8
f 11 22 24
f 2 23 19
f 19 20 2
f 23 20 19
f 10 18 20
f 3 17 1
f 1 17 23
f 1 8 3
f 13 23 2
f 2 8 13
f 13 1 23
f 8 1 13
f 21 15 3
f 3 8 21
f 21 8 15
f 22 7 14
f 14 24 22
f 24 14 4
f 11 24 4
f 4 14 7
f 4 20 11
f 4 7 12
f 4 10 20
f 12 18 4
f 18 10 4

