# https://github.com/mikedh/trimesh
v 0.07564326 -0.03982925 0.00906644
v 0.02008957 -0.06746184 0.02754536
v -0.08442582 -0.04547997 -0.01505713
v -0.08611597 0.01173992 0.02494398
v 0.03630602 0.03713846 0.01831214
v -0.05264859 -0.02595566 -0.02193601
v -0.04809648 0.02226836 0.02900680
v 0.04412855 0.06644126 -0.01287346
v -0.04352637 -0.06545360 -0.00394651
v -0.08451990 -0.01402243 0.01297134
v 0.06770865 -0.01248123 -0.02164575
v -0.02849050 0.07886864 -0.01305520
v 0.08321840 0.02194395 0.01199368
v -0.01188027 0.07062839 -0.00014378
v 0.07432963 -0.05423167 -0.01669531
v 0.03105325 -0.01964782 -0.02348704
v -0.06471431 -0.01639181 -0.02445979
v -0.02367726 0.07434012 -0.03053529
v 0.07256032 0.04701792 -0.00658831
v -0.07181254 0.00126201 -0.01159775
v -0.04620038 0.04263239 0.02017994
v 0.05453364 0.01218958 0.03144408
f 10 2 4
f 4 3 10
f 4 18 20
f 20 3 4
f 1 15 13
f 2 15 1
f 13 22 1
f 1 22 2
f 9 15 2
f 3 15 9
f 2 10 9
f 9 10 3
f 7 21 4
f 22 21 7
f 4 2 7
f 2 22 7
f 17 20 18
f 3 20 17
f 5 21 22
f 5 14 21
f 5 22 13
f 6 15 3
f 3 17 6
f 6 17 15
f 16 11 15
f 15 17 16
f 18 11 16
f 16 17 18
f 14 5 8
f 8 11 18
f 12 8 18
f 14 8 12
f 21 14 12
f 12 18 4
f 4 21 12
f 19 5 13
f 19 8 5
f 11 8 19
f 13 15 19
f 15 11 19

