# https://github.com/mikedh/trimesh
v -0.05824052 -0.07127523 -0.00796502
v -0.04785221 0.08085510 0.01114048
v -0.04137016 -0.07174668 -0.01789779
v -0.04511937 -0.09223206 -0.00399587
v 0.06944000 -0.02465329 -0.00050052
v -0.05472256 0.02034939 0.01791207
v 0.03380822 0.06615718 0.02604258
v 0.01454334 0.09949460 -0.01142215
v -0.00928542 -0.05301437 0.02694208
v 0.05014069 -0.06086244 -0.02298036
v 0.06031929 0.08241639 0.02052052
v 0.06633833 -0.02671243 -0.02603177
v 0.03881123 0.09846684 0.00036880
v -0.00306329 -0.11169083 0.02265891
v -0.01287882 0.04122158 -0.02293070
v -0.03200162 0.08736850 0.00778287
v -0.06521432 -0.02131792 -0.01716294
v -0.02654787 -0.08279403 0.01951069
v 0.00604261 -0.09637080 -0.00367890
v 0.02223780 -0.09615231 0.01335395
v -0.00505437 0.09443443 -0.00032496
v -0.07715641 0.02353785 -0.00926415
v -0.01776584 0.08942829 -0.02317830
v -0.04740863 0.02555540 0.02261789
v 0.06629941 -0.04609911 -0.00418537
f 25 12 5
f 11 7 14
f 5 12 11
f 10 3 12
f 12 25 10
f 14 7 9
f 7 24 9
f 17 1 22
f 3 1 17
f 22 23 17
f 14 9 18
f 18 9 24
f 3 10 19
f 20 10 25
f 20 25 5
f 14 19 20
f 20 19 10
f 5 11 20
f 20 11 14
f 13 11 12
f 12 3 15
f 15 23 12
f 3 17 15
f 15 17 23
f 11 13 16
f 6 18 24
f 1 18 6
f 22 1 6
f 4 19 14
f 3 19 4
f 4 1 3
f 14 18 4
f 4 18 1
f 12 23 8
f 8 13 12
f 23 16 8
f 2 6 24
f 2 24 7
f 22 6 2
f 7 11 2
f 11 16 2
f 2 23 22
f 2 16 23
f 21 16 13
f 13 8 21
f 21 8 16

