# https://github.com/mikedh/trimesh
v -0.04817960 -0.02013437 -0.01540555
v -0.02254033 0.03688375 -0.01920544
v 0.00132417 0.07387841 -0.01294982
v -0.06595169 0.02994009 0.00559123
v -0.01279815 -0.06792075 0.01669196
v 0.02522747 -0.05261332 -0.01098634
v 0.06234707 0.01803110 0.01859084
v -0.06414214 -0.03211803 -0.01263459
v -0.06980477 -0.02940850 -0.00969641
v -0.06015150 0.00824612 0.01462848
v 0.03956723 -0.03421312 -0.01978324
v 0.01704896 -0.07254040 0.00160843
v 0.00015823 -0.06935473 -0.00240378
v -0.05490108 0.04306604 0.00680762
v -0.05061359 0.02680392 0.01105996
v -0.07271724 -0.00091376 0.00139646
v -0.00624894 0.07037023 -0.00069190
v 0.04343010 -0.03716626 -0.01831518
v 0.02135129 -0.06829785 0.00947497
v 0.06542856 0.04641600 0.00977634
v 0.03788466 -0.01615493 -0.01909652
v 0.07092463 -0.01113840 -0.00093496
v -0.05402575 -0.04818468 0.00383933
v 0.03623057 -0.02893985 -0.02074908
v 0.01198689 0.07319965 -0.01434522
f 25 2 3
f 24 2 25
f 22 7 19
f 7 5 19
f 3 14 17
f 17 25 3
f 7 14 15
f 21 25 22
f 24 25 21
f 2 8 9
f 9 23 16
f 8 23 9
f 1 2 24
f 24 8 1
f 1 8 2
f 18 21 22
f 20 14 7
f 20 17 14
f 25 17 20
f 20 7 22
f 22 25 20
f 16 23 10
f 10 23 5
f 10 15 14
f 10 5 7
f 7 15 10
f 24 21 11
f 21 18 11
f 11 8 24
f 8 11 13
f 5 23 13
f 13 23 8
f 16 10 4
f 4 10 14
f 4 9 16
f 2 9 4
f 4 14 3
f 3 2 4
f 22 19 12
f 12 18 22
f 12 19 5
f 5 13 12
f 18 12 6
f 6 12 13
f 6 11 18
f 6 13 11

