# https://github.com/mikedh/trimesh
v 0.06927885 0.02547925 -0.00376208
v -0.06114440 0.01247884 0.00427126
v -0.03356254 0.01547531 -0.00491403
v -0.00905320 0.00072321 -0.00429916
v 0.03517306 -0.02631205 0.00164733
v -0.04907068 0.02919413 -0.00406349
v -0.03282391 0.01113035 -0.00475148
v 0.05753547 0.00920057 0.00320286
v -0.04662676 0.03167550 -0.00190182
v -0.03497602 0.02389265 0.00369968
v -0.07088469 0.01165490 0.00127417
v 0.06808538 -0.00535693 0.00366510
v 0.03976529 0.00936528 0.00359192
v 0.06008707 0.02278476 0.00114043
v 0.05127212 -0.02398284 0.00375409
v -0.05647989 -0.03095662 -0.00279038
v -0.05768923 0.02025544 0.00297528
v -0.03220612 -0.02932772 0.00391217
v 0.07530840 -0.02015596 0.00019222
v -0.07258829 -0.02285936 -0.00168971
v 0.07399173 0.01934914 -0.00246316
f 9 14 1
f 18 2 20
f 20 2 11
f 10 14 9
f 19 1 21
f 21 1 14
f 9 11 17
f 17 11 2
f 17 10 9
f 2 10 17
f 14 10 8
f 9 1 6
f 1 3 6
f 20 11 6
f 6 11 9
f 20 6 16
f 16 6 3
f 16 18 20
f 2 18 15
f 4 3 1
f 4 1 19
f 19 16 4
f 5 16 19
f 19 15 5
f 18 16 5
f 5 15 18
f 2 15 12
f 12 15 19
f 19 21 12
f 12 21 14
f 14 8 12
f 7 16 3
f 3 4 7
f 7 4 16
f 13 10 2
f 2 12 13
f 13 8 10
f 13 12 8

