# https://github.com/mikedh/trimesh
v 0.05886449 -0.00109967 0.00371872
v -0.04409273 -0.03112829 -0.02667938
v 0.03768637 0.05365370 0.02412353
v 0.02047198 0.09954453 -0.02290872
v -0.05368021 0.04209361 0.00465551
v -0.00363687 -0.04669833 0.02554416
v 0.05588713 -0.05634157 -0.00984634
v -0.04563691 -0.03566927 -0.02536800
v -0.00594689 0.10276536 -0.02769534
v 0.05742421 -0.00510340 -0.00615974
v -0.00229339 0.11166509 -0.00687043
v 0.02140833 -0.07698685 -0.00749047
v -0.03793925 -0.07771676 0.00868947
v -0.02344188 -0.10575268 0.01979744
v -0.03225499 0.07009036 0.02774595
v 0.01034064 -0.11483140 0.00616852
v -0.05932810 0.00713129 -0.00927325
v 0.03863673 0.07252523 -0.00512923
f 15 11 5
f 3 11 15
f 3 16 1
f 1 16 7
f 9 2 17
f 17 5 9
f 9 5 11
f 9 7 2
f 16 14 8
f 17 2 8
f 13 14 15
f 15 5 13
f 13 5 17
f 17 8 13
f 13 8 14
f 6 14 16
f 16 3 6
f 15 14 6
f 6 3 15
f 1 7 10
f 2 7 12
f 12 8 2
f 12 7 16
f 16 8 12
f 4 9 11
f 7 9 4
f 4 10 7
f 11 3 18
f 18 4 11
f 18 3 1
f 1 10 18
f 10 4 18

