# https://github.com/mikedh/trimesh
v 0.00071277 0.00517242 0.00534364
v -0.09677629 0.02123826 -0.00318234
v -0.04533768 0.02716493 -0.00345234
v -0.06930759 -0.03310574 -0.00358825
v -0.06596064 0.02064851 0.00290483
v -0.07311014 0.00505145 -0.00342328
v 0.01608652 -0.02906196 0.00270406
v -0.08907602 -0.00986191 0.00133881
v -0.00599594 -0.03166837 0.00309959
v 0.07510980 0.03412954 -0.00085725
v -0.08866901 -0.02917906 0.00231344
v -0.06756917 0.02955502 -0.00055320
v -0.03166670 0.03195988 0.00029259
v 0.07542986 0.02982833 -0.00259638
v 0.09711602 -0.02394643 -0.00390670
v -0.04620372 0.02867268 0.00419139
v 0.07545963 -0.00701670 0.00480827
v 0.07117848 0.02308426 0.00474547
v 0.10480007 -0.01233396 -0.00195860
f 2 4 11
f 16 11 1
f 19 10 18
f 18 16 1
f 10 16 18
f 3 15 4
f 4 15 9
f 9 11 4
f 1 11 9
f 5 16 2
f 11 16 5
f 6 4 2
f 2 3 6
f 6 3 4
f 14 3 10
f 15 3 14
f 14 10 19
f 19 15 14
f 13 16 10
f 10 3 13
f 7 9 15
f 17 18 1
f 1 9 17
f 9 7 17
f 19 18 17
f 17 15 19
f 17 7 15
f 2 11 8
f 8 5 2
f 11 5 8
f 12 3 2
f 12 13 3
f 2 16 12
f 16 13 12

