# https://github.com/mikedh/trimesh
v 0.03581265 -0.07388422 0.00138383
v 0.03803286 0.01218480 0.02563671
v 0.01678470 -0.07726654 0.00566507
v 0.01113101 0.05035093 -0.02781612
v -0.02393605 -0.06702742 0.01009688
v -0.01421021 0.07158409 -0.01011831
v 0.08023312 -0.01670773 0.00475815
v 0.05971602 0.05556145 0.00232145
v 0.08127329 0.00537938 -0.00748944
v -0.03500277 0.06671023 0.00686544
v 0.08548715 0.01502524 0.00174106
v 0.05260044 0.04140931 0.02030202
v -0.05816069 0.05115056 0.00179683
v 0.03686349 0.05534312 -0.01506545
v 0.05610179 -0.03837634 -0.02177673
v 0.03146026 -0.07300578 0.01488404
v -0.08413806 -0.03193507 -0.01476224
v -0.00033242 0.06738300 -0.02997915
v -0.07320220 0.01921680 0.02669652
v 0.02542176 -0.05764114 -0.01245016
v -0.00532083 -0.08069629 -0.00138188
v 0.03761448 0.06723072 -0.00730402
v -0.05901107 -0.05237444 -0.01134151
v 0.05245631 0.06282614 0.00254399
v 0.00690617 0.07081575 0.00563199
v -0.07583802 0.03313999 0.00238180
v 0.06704991 0.01636135 0.02324297
f 17 19 26
f 5 19 17
f 5 16 19
f 18 15 17
f 17 26 18
f 19 12 10
f 16 1 7
f 7 1 15
f 19 16 2
f 2 12 19
f 11 7 9
f 9 7 15
f 22 18 6
f 16 5 21
f 15 1 21
f 13 26 19
f 19 10 13
f 13 10 6
f 6 18 13
f 13 18 26
f 12 2 27
f 27 7 11
f 16 7 27
f 27 2 16
f 15 18 4
f 4 9 15
f 18 9 4
f 14 9 18
f 18 22 14
f 3 1 16
f 16 21 3
f 3 21 1
f 23 5 17
f 23 21 5
f 17 15 23
f 25 10 12
f 12 24 25
f 6 10 25
f 25 22 6
f 25 24 22
f 8 24 12
f 8 27 11
f 12 27 8
f 11 9 8
f 9 14 8
f 8 14 22
f 22 24 8
f 15 21 20
f 20 23 15
f 21 23 20

