# https://github.com/mikedh/trimesh
v 0.06065722 0.02492977 0.01587701
v -0.00389004 0.09892362 -0.01145117
v -0.02075026 -0.08413044 0.00305465
v 0.02395522 -0.09275354 0.00605946
v 0.04211544 0.03305733 0.01940627
v -0.00955392 -0.06802020 0.02244136
v -0.02240432 0.01750958 0.01464714
v -0.06139306 -0.03783017 -0.00879774
v -0.00920949 0.08899377 0.00581081
v -0.04846519 0.07220389 -0.00456783
v 0.03761885 -0.05197796 -0.01485384
v -0.02443228 -0.06932252 0.00893817
v -0.05285874 0.05844561 0.00739425
v -0.04603733 0.08026888 0.00059914
v -0.03398832 0.07444005 0.00588825
v 0.05399547 0.04526080 0.00185465
v -0.03307751 -0.05742164 -0.01517807
v 0.06088925 -0.03731226 -0.00136769
v 0.05768572 0.00325237 -0.01269307
v 0.04425254 -0.07747258 0.00526752
v -0.06091070 -0.02579046 -0.01953860
f 8 6 13
f 8 13 21
f 8 21 17
f 17 21 11
f 4 17 11
f 9 13 5
f 9 16 2
f 6 5 7
f 7 13 6
f 5 13 7
f 2 16 19
f 19 21 2
f 11 21 19
f 18 11 19
f 2 21 10
f 10 21 13
f 20 11 18
f 20 4 11
f 6 4 20
f 12 6 8
f 1 9 5
f 16 9 1
f 1 20 18
f 18 19 1
f 1 19 16
f 1 5 6
f 6 20 1
f 14 10 13
f 14 9 2
f 2 10 14
f 17 4 3
f 8 17 3
f 3 12 8
f 3 4 6
f 6 12 3
f 13 9 15
f 15 14 13
f 9 14 15

