# https://github.com/mikedh/trimesh
v 0.02108725 0.08922026 -0.01949296
v 0.07083478 0.04216645 0.02231458
v -0.07452982 -0.04222553 -0.02439905
v -0.05832770 0.05428356 0.01221481
v 0.06195253 0.06188764 0.01864265
v 0.01243799 -0.10090801 -0.00271089
v 0.00383011 -0.04237026 0.02669312
v -0.03579578 0.10066570 -0.01375847
v -0.06687303 0.04230547 -0.00317329
v -0.02288794 -0.06003258 0.02045250
v -0.00190280 -0.10823205 0.00023719
v -0.00307397 -0.06328984 0.02605038
v -0.05288359 -0.07520545 -0.01067598
v 0.03749128 0.08421182 -0.01154993
v -0.05500725 -0.07080455 0.00389120
v -0.06074195 0.02090786 0.01318626
v -0.05105692 0.07609682 0.02007462
v -0.00250960 0.11040611 -0.00694720
v 0.05680036 -0.08410937 0.00502630
v 0.07467489 -0.00251876 -0.01200291
v 0.04575847 -0.04972430 -0.02010076
v -0.04589531 -0.02722526 -0.02518159
v -0.06905341 -0.02188892 0.00528768
v 0.01716229 -0.10596968 0.02013206
v 0.06480619 -0.03298526 0.00479711
v 0.03361512 -0.02585047 -0.02674850
f 7 2 17
f 26 1 20
f 8 1 3
f 18 1 8
f 8 17 18
f 20 1 14
f 14 1 18
f 18 17 5
f 5 17 2
f 5 14 18
f 5 2 20
f 20 14 5
f 3 1 22
f 22 26 3
f 1 26 22
f 3 26 21
f 21 26 20
f 20 19 21
f 9 8 3
f 17 8 9
f 3 11 13
f 13 15 3
f 11 15 13
f 24 15 11
f 11 19 24
f 24 2 7
f 24 19 2
f 20 2 25
f 25 19 20
f 2 19 25
f 6 19 11
f 6 21 19
f 6 11 3
f 3 21 6
f 12 24 7
f 7 17 12
f 17 9 4
f 4 16 17
f 15 24 10
f 24 12 10
f 17 16 10
f 10 12 17
f 15 10 23
f 3 15 23
f 23 10 16
f 23 9 3
f 16 4 23
f 23 4 9

