# https://github.com/mikedh/trimesh
v -0.08992544 0.02794373 -0.00198504
v 0.09598566 0.01845210 -0.00401842
v -0.00732591 -0.02306785 -0.00413728
v 0.09616589 -0.00953734 0.00012094
v 0.07745312 -0.04308543 -0.00251842
v 0.09217940 -0.03047319 -0.00014492
v 0.10410242 -0.02279551 -0.00136691
v 0.07756037 -0.03900247 0.00241125
v -0.10713876 0.03583786 0.00309328
v 0.08952447 0.02221908 0.00137357
v 0.02211183 0.03479728 0.00190954
v 0.04239350 0.03207067 0.00243179
v 0.01125595 0.03632933 0.00362748
v 0.07411913 0.01071232 0.00371551
v 0.10128958 -0.02120856 -0.00087587
v -0.10867137 0.00092196 -0.00300306
v -0.05692047 0.01734794 -0.00476101
v 0.09564938 -0.01354803 -0.00290143
v -0.10122821 -0.00992525 -0.00119634
v 0.05414335 0.03345910 0.00062482
v -0.01177204 -0.03372929 0.00427306
v 0.04554454 -0.04102297 0.00281999
v -0.10447286 0.00489768 0.00357087
v -0.05739445 0.02068817 -0.00451841
v -0.06338121 0.02622457 -0.00332524
v -0.04262072 0.02824531 -0.00282125
v -0.00489949 0.02626513 -0.00395543
v -0.06712230 -0.02700537 -0.00045551
v -0.04290725 0.01470663 -0.00495063
v 0.01257581 0.00578026 0.00419603
v 0.04352383 -0.03491588 -0.00426633
v -0.03241650 0.02351785 -0.00446412
v 0.08733243 0.02496429 -0.00238620
v -0.10520866 -0.00355407 0.00303457
f 8 14 21
f 18 2 7
f 7 5 18
f 30 14 13
f 21 14 30
f 30 23 21
f 13 9 30
f 9 23 30
f 14 8 4
f 13 14 10
f 14 4 10
f 7 2 10
f 10 4 7
f 5 28 31
f 31 29 2
f 2 18 31
f 31 18 5
f 6 5 7
f 7 8 6
f 6 8 5
f 22 8 21
f 5 8 22
f 21 28 22
f 22 28 5
f 34 28 21
f 21 23 34
f 34 9 16
f 34 23 9
f 11 9 13
f 16 9 1
f 15 8 7
f 7 4 15
f 15 4 8
f 3 28 16
f 3 31 28
f 16 29 3
f 29 31 3
f 16 28 19
f 19 34 16
f 28 34 19
f 26 1 9
f 20 11 13
f 27 26 20
f 9 11 20
f 20 26 9
f 16 1 24
f 33 10 2
f 33 20 10
f 2 27 33
f 27 20 33
f 13 10 12
f 12 20 13
f 10 20 12
f 2 29 32
f 32 27 2
f 17 29 16
f 16 24 17
f 17 32 29
f 24 32 17
f 25 26 27
f 27 32 25
f 1 26 25
f 25 24 1
f 25 32 24

