# https://github.com/mikedh/trimesh
v 0.00788778 -0.09331990 0.01391805
v -0.02411159 -0.08332582 -0.00385977
v -0.03176514 -0.07349219 0.01239844
v 0.05736463 0.02639157 0.00448024
v 0.04759783 -0.05821261 0.00637552
v -0.04290421 -0.05067138 -0.02206460
v 0.00517156 -0.03267619 0.02355649
v 0.02272466 0.09132746 -0.00672278
v -0.05233010 -0.04286186 -0.01968778
v -0.04669553 0.00610205 0.00606538
v 0.02359942 -0.02152209 -0.01470330
v 0.01058836 0.10102349 -0.01428506
v 0.05638458 0.03728402 -0.00016802
v -0.02506673 0.01136373 0.01912339
v 0.05228378 -0.03480852 -0.00118570
v 0.00849876 0.08941535 0.00642727
v 0.04626368 -0.05879562 -0.00602594
v -0.05694640 0.01910712 -0.00283926
v 0.01255664 0.09830282 -0.00517411
v -0.04696873 0.04409466 -0.00129294
v -0.02132597 0.08783197 0.01081246
f 20 12 18
f 14 7 21
f 12 20 21
f 21 20 18
f 18 12 9
f 9 12 6
f 2 17 1
f 6 17 2
f 2 9 6
f 10 21 18
f 14 21 10
f 1 17 5
f 4 7 5
f 5 7 1
f 6 12 11
f 11 17 6
f 12 13 11
f 11 13 17
f 3 7 14
f 14 10 3
f 1 7 3
f 3 10 18
f 3 2 1
f 18 9 3
f 9 2 3
f 4 5 15
f 15 5 17
f 15 13 4
f 17 13 15
f 4 13 16
f 16 7 4
f 16 21 7
f 8 13 12
f 8 16 13
f 19 8 12
f 16 8 19
f 12 21 19
f 21 16 19

