# https://github.com/mikedh/trimesh
v 0.03007289 -0.01591798 0.00679351
v 0.04235241 0.00677301 -0.00487351
v -0.04197922 -0.01434992 -0.00895955
v -0.01947174 0.02759832 -0.00254982
v -0.02034029 0.03005072 0.00370915
v -0.04719972 0.02586670 -0.00768871
v 0.06267907 -0.00420298 -0.00498097
v -0.04127322 0.03004780 0.00582190
v 0.02272121 -0.02663276 -0.00603316
v 0.04864680 0.02173455 0.00196465
v -0.03388885 -0.02281940 0.00700335
v 0.06646577 -0.00672898 -0.00374536
v -0.05743782 -0.02100903 0.00303672
v -0.05559013 -0.01211914 -0.00060176
v -0.00582055 0.02731751 -0.00190219
v 0.04054406 0.00559672 0.00452651
v -0.05817728 0.00285832 0.00342391
v 0.04874257 -0.02844455 0.00155387
v -0.04824222 0.02291816 0.00762863
v 0.02671340 0.01464697 0.00668456
v 0.00587809 0.01573256 -0.00720359
f 19 6 17
f 13 19 17
f 9 13 3
f 3 6 21
f 12 10 16
f 5 10 15
f 15 21 6
f 10 21 15
f 20 16 10
f 20 19 1
f 1 16 20
f 17 6 14
f 14 13 17
f 14 6 3
f 3 13 14
f 18 9 12
f 12 16 18
f 18 16 1
f 12 9 7
f 7 10 12
f 7 9 3
f 3 21 7
f 4 6 5
f 5 15 4
f 4 15 6
f 8 10 5
f 8 20 10
f 19 20 8
f 5 6 8
f 6 19 8
f 13 9 11
f 9 18 11
f 11 18 1
f 1 19 11
f 19 13 11
f 2 21 10
f 10 7 2
f 2 7 21

