# https://github.com/mikedh/trimesh
v 0.06695720 -0.03206963 -0.00188830
v -0.04959622 0.04287319 -0.00022139
v -0.05266956 -0.00608794 0.00581302
v 0.04908833 -0.03111168 -0.00293006
v 0.05979263 0.03468019 -0.00205633
v 0.04061486 0.03451299 0.00257462
v -0.02133274 -0.03834562 -0.00361361
v -0.04554717 0.03894442 -0.00299742
v -0.00199165 0.00573777 -0.00545890
v -0.03961815 -0.04040484 0.00121586
v -0.05702997 -0.00932365 -0.00088902
v -0.02822396 0.00186427 0.00636148
v -0.04588583 -0.04550537 0.00404402
v -0.06892890 0.03275913 -0.00564324
v 0.06681882 -0.01468931 0.00162546
v 0.01658034 0.03144243 0.00395370
v -0.06879878 0.03311454 0.00037166
v -0.03352577 -0.00196458 0.00619973
v 0.06229308 0.01744443 -0.00032165
v -0.01720284 0.04178312 0.00204712
v -0.03603005 0.00742626 0.00597302
v 0.05830179 0.03350807 -0.00008559
v -0.00302463 -0.03720477 -0.00437452
v 0.06128205 -0.03701041 0.00187808
f 24 12 13
f 14 5 9
f 14 7 11
f 13 12 18
f 18 3 13
f 12 3 18
f 13 7 23
f 23 24 13
f 1 24 23
f 23 7 14
f 14 9 23
f 19 5 22
f 22 5 6
f 5 20 6
f 14 11 17
f 13 3 17
f 17 11 13
f 8 5 14
f 10 7 13
f 13 11 10
f 10 11 7
f 1 23 4
f 4 23 9
f 4 5 1
f 4 9 5
f 22 6 15
f 15 19 22
f 12 24 15
f 15 24 1
f 1 5 15
f 5 19 15
f 16 6 20
f 12 15 16
f 16 15 6
f 20 17 21
f 12 16 21
f 21 16 20
f 21 3 12
f 21 17 3
f 2 17 20
f 2 20 5
f 5 8 2
f 14 17 2
f 2 8 14

