# https://github.com/mikedh/trimesh
v 0.11231204 0.03093006 0.01439620
v -0.10501507 0.00334469 0.01194932
v 0.11282703 0.03121609 0.02292871
v -0.07346946 -0.07752071 -0.02561131
v -0.10534847 0.02817078 0.02923309
v 0.06217890 0.06277322 -0.00863534
v 0.03832342 -0.06482534 0.01326876
v 0.01085556 0.03797930 -0.02563146
v 0.08098898 0.04151211 -0.01300558
v 0.05875004 -0.07588380 -0.00484021
v -0.08391517 -0.02793873 0.00596280
v -0.02272536 -0.08655542 -0.00561761
v -0.03923239 -0.08830025 -0.00760872
v -0.02945469 -0.02471868 -0.02916730
v -0.05036234 0.08242244 -0.00634722
v -0.08624219 0.06937373 0.02158210
v -0.07005356 -0.06246914 -0.01051207
v 0.01918346 0.06512303 -0.01298001
v 0.08802081 -0.06306179 -0.01294767
v 0.06868028 0.07017054 -0.00389618
v 0.10247717 -0.03553567 -0.00150417
v 0.06903703 0.02226551 0.02544661
v -0.10380109 0.04545331 0.00410080
v 0.10371543 -0.01994358 -0.01463965
f 5 13 7
f 5 3 16
f 20 16 3
f 15 16 20
f 22 3 5
f 5 7 22
f 22 7 3
f 11 13 5
f 5 16 23
f 23 16 15
f 15 4 23
f 1 20 3
f 13 4 10
f 4 19 10
f 3 7 21
f 21 19 24
f 7 10 21
f 21 10 19
f 21 1 3
f 24 1 21
f 2 11 5
f 4 11 2
f 5 23 2
f 2 23 4
f 17 4 13
f 13 11 17
f 17 11 4
f 15 20 18
f 18 8 15
f 24 8 9
f 9 1 24
f 20 1 9
f 12 7 13
f 13 10 12
f 12 10 7
f 14 4 15
f 15 8 14
f 14 19 4
f 14 8 24
f 24 19 14
f 20 9 6
f 6 9 8
f 6 18 20
f 8 18 6

