# https://github.com/mikedh/trimesh
v 0.06544609 -0.03461354 -0.00844145
v -0.07798008 0.01744181 -0.00366756
v 0.01671997 -0.07096587 0.00800462
v 0.04935130 -0.01337650 -0.01733271
v 0.06352233 -0.03160551 -0.01064955
v 0.05705783 -0.04136460 0.00375625
v 0.07363247 0.04559749 0.01422750
v -0.02809064 -0.06960296 0.01037124
v -0.03938872 -0.06427146 0.00584687
v 0.07487901 0.03329928 -0.00545657
v 0.02919172 0.06690974 -0.00604608
v -0.00969996 -0.07604585 0.00489818
v 0.08183479 -0.00030158 0.00648279
v -0.05670505 -0.04221190 -0.02032230
v -0.02618270 0.07371538 -0.01692571
v 0.02416808 -0.06867037 0.01688228
v 0.01097229 -0.06147356 0.02473039
v -0.04212298 0.03476337 0.01763843
v -0.00292804 -0.05850960 0.02276752
v -0.04893975 -0.05382974 0.00652091
v -0.07997356 0.00124937 0.01328436
v -0.07360621 -0.01805074 -0.01424236
v -0.01067652 0.06435072 -0.02188260
v -0.05581241 0.03756167 0.01629566
v 0.03611030 -0.04410244 -0.01466423
v -0.00659758 0.04013290 -0.02334909
f 9 14 12
f 19 17 21
f 12 17 8
f 8 9 12
f 17 19 8
f 8 19 21
f 21 2 22
f 15 22 2
f 4 14 26
f 7 17 13
f 7 18 17
f 20 8 21
f 9 8 20
f 21 22 20
f 14 9 20
f 20 22 14
f 23 15 11
f 23 4 26
f 26 14 23
f 14 22 23
f 22 15 23
f 14 4 25
f 25 4 5
f 12 14 25
f 13 6 1
f 1 25 5
f 24 2 21
f 21 17 24
f 17 18 24
f 24 15 2
f 11 15 24
f 24 7 11
f 18 7 24
f 10 23 11
f 4 23 10
f 11 7 10
f 10 7 13
f 5 4 10
f 13 1 10
f 10 1 5
f 12 25 3
f 25 1 3
f 16 1 6
f 16 3 1
f 16 6 13
f 13 17 16
f 16 17 12
f 12 3 16

