# https://github.com/mikedh/trimesh
v -0.07798652 0.05201818 -0.00147250
v 0.01531114 -0.07853061 0.01719952
v -0.07890511 0.03246480 0.02184685
v -0.05970285 -0.05700052 -0.01589531
v 0.03747142 -0.06688875 -0.00750090
v 0.05774706 0.04569777 0.02794292
v -0.02730241 0.06535620 -0.01713638
v -0.04975981 0.06012020 0.01094982
v 0.06618639 0.06093182 0.01701928
v -0.00734283 0.05674273 -0.02154345
v -0.07600691 -0.06033249 -0.00368397
v -0.07750377 -0.05722900 -0.00363412
v -0.10045959 -0.03211701 -0.01678824
v 0.06710231 -0.02763978 -0.02277575
v 0.08248062 0.04290921 -0.00381578
v -0.01772286 -0.05142217 0.02565529
v 0.00479555 0.07572743 -0.01850105
v 0.10064628 0.00935093 0.00222159
v 0.04256947 0.06863271 0.02116277
v 0.09739732 -0.02021366 -0.01689601
v 0.04495142 0.06662354 0.02196894
v 0.05949034 -0.05795345 -0.02443164
v -0.00775364 0.06796344 0.00714609
v -0.04802216 -0.01939683 -0.02113842
v -0.01832198 -0.06446229 0.02157329
f 18 6 2
f 9 6 18
f 18 2 20
f 2 22 20
f 13 22 4
f 7 10 13
f 17 10 7
f 12 3 13
f 16 2 6
f 6 3 16
f 15 9 18
f 17 9 15
f 18 20 15
f 15 20 17
f 17 7 1
f 13 3 1
f 1 7 13
f 19 9 17
f 24 22 13
f 13 10 24
f 24 10 22
f 14 10 17
f 17 20 14
f 22 10 14
f 14 20 22
f 5 22 2
f 2 4 5
f 5 4 22
f 11 4 2
f 13 4 11
f 11 12 13
f 3 12 11
f 11 16 3
f 6 9 21
f 9 19 21
f 21 3 6
f 21 19 3
f 8 1 3
f 3 19 8
f 17 1 8
f 2 16 25
f 25 11 2
f 16 11 25
f 23 19 17
f 17 8 23
f 23 8 19

