# https://github.com/mikedh/trimesh
v -0.01933728 0.06948079 0.00242160
v 0.05534818 -0.01132500 -0.01156928
v 0.07406685 0.01370391 0.02563570
v -0.05000488 -0.05375894 -0.02815765
v -0.01899615 -0.08593628 0.02720888
v 0.01084731 0.09404889 -0.02842128
v -0.07361795 0.02327404 0.01145423
v -0.06757796 0.02442104 0.03174673
v 0.03713797 0.00519308 0.02857738
v -0.06300674 -0.01194098 -0.00941891
v -0.00198583 0.09669559 -0.03572852
v 0.06411763 0.04495337 0.02197195
v -0.00438853 -0.09590838 0.02931769
v 0.05730346 -0.05332871 -0.02454845
v 0.03617665 -0.05842656 -0.02179514
v -0.06890480 0.03034347 -0.00626427
f 8 11 7
f 7 11 16
f 11 4 16
f 3 13 14
f 14 4 11
f 9 13 3
f 3 8 9
f 9 8 13
f 12 8 3
f 3 14 12
f 5 4 13
f 13 8 5
f 7 4 5
f 5 8 7
f 10 4 7
f 7 16 10
f 10 16 4
f 13 4 15
f 15 14 13
f 4 14 15
f 11 8 1
f 8 12 1
f 2 12 14
f 11 1 6
f 6 1 12
f 12 2 6
f 6 14 11
f 6 2 14

