# https://github.com/mikedh/trimesh
v -0.06495662 -0.03818102 -0.01777506
v 0.08436816 0.00361614 -0.02274673
v 0.09492875 -0.00506668 0.00364807
v -0.03529386 -0.00480903 -0.03363860
v -0.07874960 0.04418777 -0.00647938
v 0.06348598 0.03875733 0.02272919
v -0.03537593 0.02686028 0.02975504
v -0.05730204 0.02614606 0.02965782
v 0.10377708 0.01490442 0.00685539
v -0.00332272 -0.03657463 0.03216217
v -0.05690323 0.02820800 0.03006099
v -0.05802727 0.04895055 0.02064503
v 0.10135794 0.00540119 -0.00535026
v 0.10008781 -0.00532181 -0.01316594
v -0.01091345 0.04873440 -0.01697546
v 0.02113813 -0.05708657 0.02683908
v 0.08392874 0.03092423 0.00738318
v 0.08130676 -0.00881122 -0.02736261
v -0.09825273 -0.00087312 -0.01764592
v -0.09765252 0.00210136 -0.02348820
v 0.04876256 -0.05028564 -0.01129534
v 0.00588243 0.04149380 -0.02547207
v -0.06254285 -0.04139410 0.00878013
v 0.09705812 -0.01134876 -0.00864055
f 6 16 9
f 11 6 12
f 16 23 1
f 1 23 19
f 9 16 3
f 3 24 9
f 16 24 3
f 9 24 14
f 21 24 16
f 16 1 21
f 18 14 21
f 21 14 24
f 19 11 5
f 5 11 12
f 4 22 18
f 18 21 4
f 4 21 1
f 12 6 15
f 15 5 12
f 22 5 15
f 18 22 2
f 2 14 18
f 10 23 16
f 16 6 10
f 20 5 22
f 22 4 20
f 19 5 20
f 20 1 19
f 20 4 1
f 9 14 13
f 13 2 9
f 14 2 13
f 17 2 22
f 9 2 17
f 17 15 6
f 22 15 17
f 17 6 9
f 23 10 8
f 8 10 11
f 19 23 8
f 8 11 19
f 6 11 7
f 7 10 6
f 11 10 7

