# https://github.com/mikedh/trimesh
v 0.02686166 0.05976886 0.01218810
v -0.01659423 -0.07277690 0.01228571
v 0.00311920 0.04219874 -0.02178438
v -0.06585294 -0.01872616 -0.01661306
v 0.00534732 -0.07365396 0.02106495
v 0.04424487 0.01177001 0.02606481
v -0.06248437 0.05363276 0.01344302
v 0.06177063 -0.05103360 -0.01372887
v 0.06465933 0.03308413 0.00661733
v -0.06168474 0.05939569 0.02938714
v -0.05969551 -0.02399669 0.00083593
v -0.05705740 -0.05501920 -0.01974105
v 0.05508380 0.02939022 0.01800776
v -0.06433310 -0.01610147 -0.00819340
v -0.05830910 -0.03776797 -0.00238112
v 0.03426715 -0.07219058 0.00980114
v -0.04585156 -0.06065053 -0.02050716
v -0.05350416 0.04884644 -0.00322564
v 0.02092288 0.07920379 -0.01999256
v 0.04546015 0.03891051 0.02407827
v 0.07009676 -0.03063035 -0.02241351
v -0.06473544 0.02355108 -0.00776441
v -0.04744612 -0.04044234 -0.02333631
v 0.07898840 0.00581635 0.00121477
v -0.06775725 -0.00664357 -0.02052489
v 0.02006378 0.06539146 0.00437056
v -0.04205846 -0.06944804 -0.00851879
v -0.04482606 0.06543421 -0.00071280
v -0.06533570 -0.02867840 -0.02419461
v 0.00869247 -0.07752559 0.00980006
v -0.04518115 0.03647088 0.02914620
f 21 19 24
f 28 19 25
f 28 10 19
f 19 21 3
f 25 10 7
f 10 28 7
f 24 19 9
f 19 1 9
f 19 10 26
f 26 1 19
f 10 1 26
f 14 10 25
f 25 7 22
f 4 14 25
f 15 14 4
f 11 15 10
f 10 14 11
f 11 14 15
f 8 17 21
f 8 21 24
f 24 16 8
f 29 3 21
f 29 4 25
f 25 19 29
f 19 3 29
f 15 4 29
f 18 7 28
f 18 22 7
f 18 28 25
f 25 22 18
f 20 9 1
f 20 1 10
f 15 27 2
f 2 5 10
f 10 15 2
f 21 17 23
f 23 29 21
f 17 29 23
f 17 27 12
f 12 29 17
f 12 27 15
f 15 29 12
f 24 9 13
f 9 20 13
f 10 5 31
f 30 2 27
f 30 8 16
f 30 16 5
f 5 2 30
f 17 8 30
f 30 27 17
f 6 13 20
f 5 16 6
f 6 16 24
f 24 13 6
f 6 31 5
f 6 20 10
f 10 31 6

