# https://github.com/mikedh/trimesh
v 0.04622577 -0.00045305 -0.00462812
v 0.00116819 -0.02755212 -0.00334385
v 0.03922614 0.00980188 -0.00468104
v 0.02206818 -0.03034154 0.00232990
v -0.05445326 0.02231015 0.00055568
v -0.03277081 -0.01329639 -0.00379360
v -0.03848851 -0.02368026 0.00139940
v 0.05391811 -0.00406887 0.00267928
v -0.02401736 0.01795228 -0.00425273
v 0.05356085 -0.02448909 -0.00008416
v -0.03630793 -0.02117147 0.00249944
v -0.02968892 0.00300463 -0.00418171
v 0.05298171 0.02555346 0.00323828
v 0.01948330 0.02669720 0.00365022
v -0.06210049 0.02185449 -0.00033186
v 0.03771823 -0.00703665 0.00479235
v -0.03376477 0.02597947 -0.00286919
v -0.05465084 -0.01027995 0.00316523
v 0.01504279 0.01322004 -0.00465194
v -0.04387492 0.01648319 0.00370971
v -0.04575598 -0.01937667 -0.00143897
v -0.01611477 0.02586271 0.00099830
v -0.05248676 -0.00889442 -0.00101218
v -0.06190436 0.02022821 -0.00251374
v -0.05991084 0.02028570 -0.00301716
v 0.04018728 -0.02868869 -0.00295715
v 0.01295732 -0.02733879 -0.00404899
v 0.03425783 -0.01510979 -0.00474530
v 0.04718811 0.02501584 -0.00073704
v -0.01693316 0.01811760 0.00401981
v -0.05696734 0.02243104 -0.00106121
v 0.01481901 -0.02128243 -0.00435312
v -0.05032014 -0.02040921 0.00163262
v 0.04515132 0.01645549 0.00458737
f 16 10 8
f 4 10 16
f 8 10 13
f 18 16 20
f 18 20 15
f 29 13 1
f 1 13 10
f 17 22 14
f 14 13 29
f 29 17 14
f 34 16 8
f 8 13 34
f 13 14 34
f 26 10 4
f 4 2 26
f 26 2 27
f 26 27 28
f 28 1 26
f 26 1 10
f 28 27 32
f 6 2 21
f 27 2 6
f 6 32 27
f 7 2 4
f 21 2 7
f 3 1 28
f 29 1 3
f 5 14 22
f 5 17 15
f 5 22 17
f 15 20 5
f 20 14 5
f 30 14 20
f 30 34 14
f 20 16 30
f 16 34 30
f 25 6 21
f 25 17 9
f 11 7 4
f 4 16 11
f 16 18 11
f 21 7 33
f 33 23 21
f 33 11 18
f 7 11 33
f 19 17 29
f 29 3 19
f 9 17 19
f 19 3 28
f 21 23 24
f 24 25 21
f 15 25 24
f 24 18 15
f 23 33 24
f 24 33 18
f 12 25 9
f 6 25 12
f 12 19 28
f 9 19 12
f 28 32 12
f 32 6 12
f 15 17 31
f 31 25 15
f 17 25 31

