# https://github.com/mikedh/trimesh
v 0.07232910 0.03940545 0.01029681
v 0.02038537 -0.09019362 0.00704193
v -0.05261993 -0.07686791 0.00347268
v 0.06434409 -0.00537207 -0.01059721
v 0.04683517 0.07845843 -0.00708736
v -0.06272922 0.00429021 -0.01243230
v 0.03722387 -0.07666110 0.01319869
v 0.09381788 0.05014748 -0.00418431
v -0.08339443 -0.06406517 -0.00979642
v -0.07081229 0.07282478 -0.00144618
v -0.05918914 0.05570636 0.00883870
v 0.11769586 0.01809181 0.00127628
v -0.11367075 0.01193876 -0.00304085
v -0.01293056 0.08183098 -0.00719072
v -0.10547888 -0.02277164 -0.00062574
v 0.09947685 -0.04277379 -0.00138390
v -0.01585393 0.09105094 0.00373443
v 0.02247339 -0.08702939 0.01577562
v -0.02707853 0.03720235 0.01305271
v 0.04060919 0.05377169 -0.01133437
v 0.08615552 0.01571992 0.00902563
v -0.04744134 -0.03836656 -0.01708651
f 13 22 9
f 9 22 2
f 2 22 16
f 2 16 18
f 6 22 13
f 6 14 22
f 22 14 20
f 17 11 19
f 19 18 1
f 1 17 19
f 7 16 12
f 7 18 16
f 3 9 2
f 2 18 3
f 10 6 13
f 14 6 10
f 10 17 14
f 13 11 10
f 11 17 10
f 12 16 4
f 4 16 22
f 22 20 4
f 5 20 14
f 14 17 5
f 17 1 5
f 12 1 21
f 21 1 18
f 21 7 12
f 18 7 21
f 13 9 15
f 9 3 15
f 15 11 13
f 15 3 18
f 15 18 19
f 19 11 15
f 12 4 8
f 8 4 20
f 20 5 8
f 8 1 12
f 8 5 1

