# https://github.com/mikedh/trimesh
v 0.07155469 -0.03964573 -0.00129270
v -0.09617580 -0.01930567 0.00519932
v -0.09264856 -0.03325306 -0.00475505
v 0.09542703 -0.02015057 -0.00017852
v 0.07458897 -0.01643906 0.00536501
v -0.01427342 0.00671031 0.00667579
v 0.07020581 0.02392072 0.00339972
v 0.09939918 0.03585192 0.00096576
v 0.09169296 -0.01701304 -0.00213056
v -0.02533561 -0.02784568 0.00553863
v 0.04788154 -0.04200831 0.00379263
v 0.12154763 0.02205787 -0.00271346
v 0.12229734 0.02630660 -0.00384805
v -0.00488990 0.04494322 0.00303885
v -0.09610262 0.04557348 -0.00376950
v -0.05882270 -0.05191378 -0.00172863
v -0.02464018 -0.04593933 0.00334148
v 0.04210204 -0.04013966 0.00430066
v 0.02130520 -0.04390232 -0.00362757
v 0.01409088 0.01944946 -0.00488083
v -0.02573679 0.04666469 0.00337352
v 0.03716054 -0.02745207 0.00515354
v 0.08935395 -0.02378979 0.00264878
f 19 20 13
f 2 21 15
f 13 20 15
f 6 21 2
f 13 15 8
f 16 17 2
f 19 1 16
f 20 19 3
f 3 15 20
f 19 16 3
f 2 15 3
f 3 16 2
f 13 8 12
f 12 8 5
f 14 15 21
f 14 8 15
f 7 6 5
f 5 8 7
f 8 14 7
f 21 6 7
f 7 14 21
f 2 17 10
f 10 6 2
f 5 6 10
f 17 16 11
f 11 16 1
f 23 12 5
f 5 11 23
f 23 11 1
f 18 11 5
f 18 10 17
f 17 11 18
f 4 23 1
f 12 23 4
f 13 12 4
f 5 10 22
f 22 18 5
f 10 18 22
f 13 4 9
f 9 4 1
f 9 19 13
f 9 1 19

