# https://github.com/mikedh/trimesh
v -0.05647777 -0.06684791 -0.00121489
v -0.02271279 0.10292176 -0.01781466
v 0.05564269 0.05229282 0.01506576
v 0.06669713 -0.04879146 -0.01762850
v -0.04038237 0.10379189 0.00461137
v -0.00803085 -0.09810654 0.01590769
v -0.07214482 -0.03133869 0.00210664
v 0.06472638 -0.02890987 -0.01693371
v 0.07252437 0.05369275 0.01504126
v 0.04615803 -0.10035773 0.00680333
v 0.06899607 -0.01018510 -0.01060697
v 0.03695219 -0.06632671 -0.01415221
v 0.07249831 0.06024187 0.00526150
v 0.01857469 0.10390775 -0.00468923
v -0.04844878 0.03545550 0.01439748
v 0.06517885 -0.01881504 0.00240158
v -0.07980991 -0.00241938 -0.00966685
v -0.01862662 -0.11088239 0.00317428
v -0.02085487 -0.09785782 -0.00131202
v -0.03613665 -0.05504417 -0.00965558
v -0.07649992 0.05193182 -0.00146960
v -0.07313462 -0.03348781 -0.00671960
v -0.06201373 0.00319292 0.01140141
v 0.00928410 -0.12501203 0.00725999
f 17 2 4
f 17 4 20
f 24 4 10
f 6 10 9
f 24 10 6
f 21 2 17
f 17 7 21
f 9 13 14
f 12 4 24
f 12 20 4
f 16 4 9
f 9 10 16
f 16 10 4
f 1 6 7
f 3 6 9
f 15 6 3
f 23 6 15
f 7 6 23
f 15 21 23
f 23 21 7
f 5 21 15
f 15 3 5
f 2 21 5
f 5 14 2
f 9 14 5
f 5 3 9
f 8 14 13
f 8 4 2
f 2 14 8
f 20 12 19
f 22 7 17
f 22 1 7
f 17 20 22
f 20 19 22
f 22 19 1
f 4 8 11
f 11 8 13
f 9 4 11
f 11 13 9
f 1 19 18
f 18 12 24
f 18 19 12
f 24 6 18
f 6 1 18

