# https://github.com/mikedh/trimesh
v 0.07145873 -0.04481229 -0.01679925
v 0.06863209 0.02638888 0.01285496
v 0.10096755 0.00175088 0.00348139
v 0.02418473 -0.08593822 0.00187167
v -0.05770903 -0.01607057 -0.02011636
v -0.04421509 0.03803104 0.02037241
v -0.08798533 -0.03400667 -0.01251104
v 0.04397724 -0.07987334 0.00159005
v 0.10606520 -0.01117903 -0.01647815
v -0.01043953 -0.08228295 0.00789954
v 0.00577633 0.07214250 -0.00958079
v -0.07073233 0.06159426 0.00923064
v 0.05880458 -0.06537979 0.01026598
v 0.06047285 0.06342228 0.00166990
v 0.00022273 0.09381506 0.00095508
v -0.10254452 0.02986371 0.00136053
v -0.07928685 -0.06192458 0.00257757
v 0.02120635 -0.06738273 0.01975164
v 0.07735951 -0.05821589 -0.00570360
v 0.04889319 0.06589934 -0.00808591
v 0.02700037 -0.09169013 0.00891443
v -0.05952427 -0.02862737 -0.02105212
v -0.03114419 -0.06617567 -0.00632031
v 0.04734584 0.03318627 0.01560205
v 0.06924017 0.05874390 0.00592402
v 0.02733393 0.06707910 -0.01233199
v -0.07801585 0.07401763 0.00169452
v 0.00094428 -0.06906646 0.01657670
f 9 22 5
f 1 22 9
f 7 17 16
f 16 5 7
f 7 5 22
f 22 1 23
f 23 7 22
f 17 7 23
f 16 17 6
f 24 15 6
f 19 1 9
f 9 3 19
f 27 5 16
f 24 6 18
f 4 23 1
f 17 23 4
f 9 5 26
f 12 6 15
f 15 27 12
f 16 6 12
f 12 27 16
f 13 18 21
f 3 18 13
f 21 19 13
f 13 19 3
f 24 18 2
f 2 18 3
f 10 4 21
f 17 4 10
f 28 6 17
f 28 18 6
f 17 10 28
f 21 18 28
f 28 10 21
f 1 19 8
f 8 4 1
f 8 19 21
f 21 4 8
f 11 27 15
f 15 26 11
f 5 27 11
f 11 26 5
f 20 26 15
f 15 14 20
f 9 26 20
f 25 2 3
f 25 3 9
f 24 2 25
f 9 20 25
f 25 20 14
f 25 15 24
f 25 14 15

