# https://github.com/mikedh/trimesh
v -0.04493216 -0.03649673 0.00068295
v 0.03164317 0.00278471 0.00589963
v -0.03181680 -0.01945237 0.00437052
v -0.04530018 0.01450654 -0.00222329
v -0.02929076 0.01825204 0.00500192
v 0.00959177 0.00947549 0.00591391
v 0.02457551 -0.03142229 0.00031184
v -0.01380149 0.02765518 -0.00368338
v -0.00851843 -0.03811472 0.00338531
v -0.02330070 -0.03808507 -0.00287882
v -0.04556769 -0.03711339 -0.00232726
v -0.03351495 -0.03778751 -0.00210268
v 0.02998446 0.03356776 -0.00562194
v -0.04630008 -0.03459367 -0.00098209
v 0.02152964 -0.01589377 -0.00429126
v 0.02712690 0.03438282 -0.00296514
v 0.05680709 0.02161499 -0.00232120
v -0.04592020 0.01662563 0.00400937
v 0.03976109 -0.01320463 -0.00284163
v 0.02483897 -0.02318838 -0.00338038
v -0.04679652 0.00226169 -0.00570686
v -0.01602105 -0.03909464 0.00250795
v -0.02702540 -0.01530407 -0.00467770
v 0.05165972 -0.00336386 -0.00064529
v 0.00441145 0.04052747 0.00623846
f 17 25 2
f 8 13 21
f 25 13 8
f 16 25 17
f 17 13 16
f 16 13 25
f 21 13 15
f 18 1 3
f 21 15 23
f 10 7 22
f 20 7 10
f 10 15 20
f 10 23 15
f 21 23 10
f 4 18 25
f 25 8 4
f 21 18 4
f 4 8 21
f 22 7 9
f 9 7 2
f 2 3 9
f 9 1 22
f 9 3 1
f 19 7 20
f 20 15 19
f 19 13 17
f 19 15 13
f 17 2 24
f 2 7 24
f 24 19 17
f 7 19 24
f 25 18 5
f 18 3 5
f 6 2 25
f 6 3 2
f 25 5 6
f 6 5 3
f 22 1 11
f 21 10 11
f 12 10 22
f 22 11 12
f 12 11 10
f 14 18 21
f 21 11 14
f 14 1 18
f 14 11 1

