# https://github.com/mikedh/trimesh
v -0.08650073 -0.02918292 -0.01243336
v -0.09265962 -0.02276195 -0.02930043
v -0.00127291 0.06926393 -0.00973818
v 0.07713883 0.01249944 0.03015802
v 0.09727157 -0.01880022 -0.01480069
v -0.09596750 0.00191417 0.02060472
v 0.02672707 0.06487914 -0.02080730
v 0.02554141 -0.01822624 -0.02428382
v -0.01637823 0.07009641 -0.02096956
v 0.09111336 0.01205562 0.00983077
v -0.06263133 0.04387888 0.01392314
v 0.06329202 -0.05485125 -0.02104512
v -0.06659231 0.03460873 0.02538687
v 0.02378596 0.06474638 0.00192459
v -0.04687156 0.05795099 0.01502706
v -0.00872260 -0.06566375 0.03025399
v -0.06619358 -0.04779296 -0.02380537
v 0.03485070 -0.04752817 0.01165896
v 0.09147582 0.03194347 0.00801883
v -0.05919205 0.04678656 0.01216708
f 6 2 1
f 6 1 16
f 4 15 13
f 6 16 13
f 13 16 4
f 11 2 6
f 6 13 11
f 11 13 15
f 10 4 5
f 5 19 10
f 10 19 4
f 14 15 4
f 4 19 14
f 5 4 18
f 4 16 18
f 9 2 20
f 2 11 20
f 20 15 9
f 20 11 15
f 9 15 3
f 15 14 3
f 7 14 19
f 9 3 7
f 7 3 14
f 7 19 5
f 7 2 9
f 7 8 2
f 12 18 16
f 2 8 12
f 5 18 12
f 12 7 5
f 8 7 12
f 2 12 17
f 17 12 16
f 17 1 2
f 17 16 1

