# https://github.com/mikedh/trimesh
v 0.06037740 0.07958196 0.01684084
v -0.07552564 0.04789844 -0.00018554
v -0.05434896 0.06729250 -0.00259831
v -0.05001081 0.02571757 0.00760953
v -0.05725592 -0.08556308 0.00515965
v 0.06094091 -0.06170640 0.00095156
v -0.07084285 -0.01431653 -0.01408533
v 0.07074196 0.06137050 0.01930043
v 0.07007980 -0.02559312 -0.01249948
v -0.04219688 0.08818015 -0.01154499
v -0.00215081 0.09314666 -0.01643431
v 0.06395775 0.06299047 0.02285832
v 0.00903032 -0.10963040 0.00452472
v 0.06916482 -0.01092303 0.00106773
v 0.00301495 -0.10660844 -0.00301486
v 0.01716922 -0.04168642 -0.01595898
v 0.01493342 -0.01969493 -0.01653625
v 0.02589357 0.09787489 0.00613031
v -0.03331770 -0.10055131 -0.00339226
v 0.05423624 0.01964096 0.02067775
v -0.03710676 -0.05325375 0.01254009
v -0.04021437 -0.07178562 0.01192688
v 0.02707546 0.07393773 -0.00521449
f 17 11 9
f 2 22 4
f 20 22 13
f 5 22 2
f 13 22 5
f 23 9 11
f 10 18 11
f 11 18 1
f 1 23 11
f 8 9 1
f 9 23 1
f 6 20 13
f 8 20 6
f 21 4 22
f 15 6 13
f 9 6 15
f 2 18 3
f 3 10 2
f 18 10 3
f 7 11 17
f 7 10 11
f 7 5 2
f 2 10 7
f 4 21 12
f 2 4 12
f 12 20 8
f 8 1 12
f 22 20 12
f 12 21 22
f 12 18 2
f 12 1 18
f 14 9 8
f 8 6 14
f 14 6 9
f 16 7 17
f 17 9 16
f 9 15 16
f 19 16 15
f 7 16 19
f 5 7 19
f 13 5 19
f 19 15 13

