# https://github.com/mikedh/trimesh
v -0.03340359 0.01223856 -0.00537335
v 0.08269862 0.02163376 0.00509383
v 0.08038631 0.03139955 -0.00197043
v 0.03478101 0.03259427 0.00465181
v -0.00363287 -0.02576849 -0.00576408
v 0.09324372 -0.03135304 -0.00050099
v -0.04360133 0.03228453 0.00284689
v 0.05149645 -0.00510692 -0.00525891
v -0.09414968 0.01401402 -0.00510155
v -0.09734604 0.02544711 -0.00363383
v -0.07671325 -0.02689063 0.00348039
v -0.06372295 0.03219694 0.00129181
v -0.02908202 -0.02683289 -0.00376540
v -0.04611014 0.02440617 -0.00522490
v -0.09382364 -0.03014238 0.00223213
v 0.01097180 0.03359843 0.00562096
v -0.08375986 0.01789061 0.00431160
v 0.01585453 0.03658832 0.00368465
v 0.07539531 0.00845809 0.00559201
v -0.10014153 -0.02471311 -0.00175227
v 0.08616265 -0.01795172 0.00427262
v -0.07786588 -0.02009467 -0.00521027
v 0.08940870 0.00527730 0.00283224
v -0.02621092 -0.03156190 0.00195703
v 0.09671052 0.00589918 -0.00088772
v 0.09266802 -0.03084162 -0.00461082
v 0.03956624 -0.03291488 -0.00282472
v -0.09019568 -0.00687106 0.00526414
v 0.01743198 -0.01363392 0.00639856
v 0.10357865 -0.01668718 -0.00487328
v -0.07836622 -0.02792116 -0.00055431
v -0.06257040 0.00431037 0.00538089
v 0.04980904 -0.01706839 -0.00585677
f 15 28 20
f 21 6 30
f 31 15 20
f 32 28 29
f 29 16 32
f 9 22 20
f 30 33 8
f 8 33 14
f 8 3 30
f 14 3 8
f 30 6 26
f 26 33 30
f 30 3 25
f 25 21 30
f 2 25 3
f 6 21 24
f 24 21 29
f 14 33 1
f 1 9 14
f 22 9 5
f 33 26 5
f 5 1 33
f 9 1 5
f 20 22 5
f 17 32 16
f 28 32 17
f 4 3 18
f 4 2 3
f 18 16 4
f 16 2 4
f 21 25 23
f 23 2 21
f 25 2 23
f 19 16 29
f 19 2 16
f 29 21 19
f 21 2 19
f 11 24 29
f 15 24 11
f 29 28 11
f 28 15 11
f 13 31 20
f 20 5 13
f 18 3 12
f 15 31 27
f 31 13 27
f 27 24 15
f 27 5 26
f 27 13 5
f 27 26 6
f 6 24 27
f 7 17 16
f 7 12 17
f 7 16 18
f 18 12 7
f 10 3 14
f 10 12 3
f 14 9 10
f 17 12 10
f 10 9 20
f 28 17 10
f 20 28 10

