# https://github.com/mikedh/trimesh
v -0.04860829 0.01408039 0.01919776
v 0.01660827 -0.08985373 0.00054291
v 0.08495272 -0.03734839 -0.00324011
v 0.07952675 -0.00568214 0.01103992
v 0.00176433 0.07380683 -0.01888774
v -0.02973338 0.07225557 0.00345318
v -0.06464751 0.03630443 0.00969387
v 0.09114777 0.03479389 0.00963579
v 0.09463939 -0.02756186 -0.00193980
v 0.05672525 0.05502722 0.00272234
v 0.07513260 -0.02267309 -0.01598459
v -0.03722125 0.06441417 0.00646295
v -0.04090968 -0.07306109 0.00179670
v -0.03848603 -0.07686929 -0.00273504
v 0.05013582 0.03305782 0.02143051
v 0.01690726 0.06230628 -0.01694574
v 0.02594593 0.01904771 0.02327546
v -0.09638897 -0.03898429 0.00119289
v 0.03377282 -0.07264667 0.00273874
v -0.05243275 -0.03110935 -0.01739653
v -0.01151724 0.08777731 -0.00509232
v -0.05650335 -0.03837907 -0.01364824
v -0.05118936 0.08997010 -0.01705745
v -0.02542516 0.06696051 -0.01869925
v -0.00453844 -0.07139776 0.02089420
v 0.09279171 -0.00206078 -0.01013777
f 18 23 20
f 7 23 18
f 18 25 1
f 1 7 18
f 1 25 17
f 4 25 9
f 9 8 4
f 5 11 20
f 26 8 9
f 9 11 26
f 11 5 26
f 13 25 18
f 18 14 13
f 13 14 25
f 18 20 22
f 22 14 18
f 20 14 22
f 20 11 2
f 2 14 20
f 25 14 2
f 15 4 8
f 15 1 17
f 17 25 15
f 25 4 15
f 7 1 12
f 23 7 12
f 12 6 23
f 12 15 6
f 1 15 12
f 24 20 23
f 23 5 24
f 24 5 20
f 16 5 8
f 8 26 16
f 16 26 5
f 3 11 9
f 9 2 3
f 3 2 11
f 9 25 19
f 19 2 9
f 25 2 19
f 8 5 10
f 21 10 5
f 21 15 8
f 8 10 21
f 6 15 21
f 21 5 23
f 23 6 21

