# https://github.com/mikedh/trimesh
v 0.06493346 0.02013165 0.00016773
v 0.01688009 0.02620993 0.00256683
v -0.06524647 -0.02461833 -0.00173584
v -0.05799310 0.02276378 0.00339164
v 0.02137110 0.00548522 0.00379360
v 0.05099864 0.02726737 -0.00155834
v 0.06417214 0.00657247 0.00266604
v 0.04913889 -0.02861071 -0.00314547
v 0.06021529 -0.00441704 0.00372350
v -0.03715258 0.02899495 0.00265175
v 0.04908736 -0.02131960 -0.00409153
v 0.06082994 -0.02061978 0.00305981
v 0.02165230 -0.01977164 0.00400767
v -0.05381880 0.02848041 -0.00373070
v -0.06729627 -0.00568187 0.00390847
v 0.05023332 0.02946834 -0.00085748
v 0.00194800 -0.02958789 0.00267035
v -0.05404858 0.02588954 0.00094680
v 0.00299186 -0.02290429 0.00414309
v -0.03776475 -0.02429344 0.00456741
v -0.04766813 -0.02350609 0.00429908
v -0.00559931 -0.00492460 -0.00424210
v -0.05864331 0.00610628 -0.00377124
v -0.02999503 -0.02730175 -0.00232115
v -0.06522493 0.00660486 -0.00027494
v 0.06822294 -0.01511744 -0.00414685
f 26 22 14
f 16 14 10
f 26 14 6
f 6 14 16
f 26 6 1
f 1 6 16
f 11 22 26
f 25 3 15
f 23 14 22
f 22 3 23
f 23 25 14
f 3 25 23
f 18 10 14
f 7 12 26
f 26 1 7
f 24 3 22
f 22 11 24
f 15 3 21
f 21 20 15
f 12 7 9
f 3 24 17
f 17 21 3
f 20 21 17
f 12 9 13
f 13 9 20
f 15 20 4
f 4 25 15
f 10 18 4
f 14 25 4
f 4 18 14
f 2 9 7
f 10 4 2
f 16 10 2
f 2 1 16
f 2 7 1
f 12 17 8
f 26 12 8
f 8 11 26
f 8 24 11
f 8 17 24
f 12 13 19
f 19 13 20
f 19 17 12
f 20 17 19
f 20 9 5
f 5 4 20
f 9 2 5
f 5 2 4

