# https://github.com/mikedh/trimesh
v 0.03573436 -0.05062683 0.01383862
v 0.04279821 0.04780806 -0.00408040
v -0.10766884 0.01531791 0.00299389
v 0.02561114 0.03277023 -0.02094335
v -0.09637820 0.01164062 0.01512614
v 0.02395076 -0.06260556 -0.00037674
v 0.02233592 0.06509483 0.00301858
v 0.11045729 -0.00792092 -0.01549218
v 0.00049057 -0.06309072 0.00392216
v -0.08371037 0.04205076 -0.00685556
v 0.01123941 -0.06409413 0.01755607
v -0.08827111 0.00908416 -0.00990131
v 0.04533536 0.01299715 0.02069000
v -0.04169252 0.04091036 0.00816182
v -0.09003331 -0.02692892 0.00324345
v 0.09231400 -0.01508280 0.00432948
v 0.05407935 -0.02176220 -0.02136491
v -0.03535293 -0.00369880 -0.01863538
v -0.09133156 0.02944050 0.00540518
v 0.08176022 0.03017062 0.01760954
v -0.06852090 -0.03394127 -0.01616651
f 11 13 5
f 8 16 6
f 11 5 15
f 3 21 15
f 15 5 3
f 11 6 1
f 1 6 16
f 7 14 20
f 20 1 16
f 20 16 8
f 20 5 13
f 20 14 5
f 20 13 11
f 11 1 20
f 8 6 17
f 17 6 21
f 9 6 11
f 21 6 9
f 11 15 9
f 9 15 21
f 12 21 3
f 3 10 12
f 5 14 19
f 3 5 19
f 19 10 3
f 7 10 19
f 19 14 7
f 18 17 21
f 21 12 18
f 18 12 10
f 4 10 7
f 8 17 4
f 4 18 10
f 17 18 4
f 8 4 2
f 2 4 7
f 2 20 8
f 7 20 2

