# https://github.com/mikedh/trimesh
v -0.04817619 0.02449485 -0.00595547
v 0.04461751 0.01369643 -0.00017413
v -0.02336604 -0.02364843 -0.00710205
v 0.00689397 0.01802678 0.00626183
v 0.02253291 0.02244605 0.00420853
v -0.04609484 0.01679042 -0.00635475
v 0.05923625 -0.02330769 0.00241042
v 0.00593057 0.02524318 0.00485112
v 0.02764700 -0.01265639 0.00702050
v -0.04403645 -0.01735196 -0.00356162
v 0.05851038 -0.01290209 0.00532888
v -0.03753122 -0.01433194 0.00788313
v 0.03433287 0.00741229 0.00713460
v 0.03937418 -0.02083949 -0.00190380
v 0.04948099 -0.01119146 -0.00609360
v 0.03664976 -0.02076857 0.00612087
v 0.02182840 -0.02393619 0.00380271
v -0.05423591 0.00391304 0.00367533
v -0.04080664 0.02951681 -0.00093069
v 0.04886029 0.00235902 -0.00633739
v 0.04700285 0.01218743 -0.00603773
v -0.05276651 -0.00661475 0.00442785
f 18 19 1
f 19 21 1
f 8 19 18
f 7 21 11
f 18 1 10
f 17 3 7
f 7 3 14
f 14 15 7
f 3 15 14
f 20 15 3
f 20 21 7
f 7 15 20
f 4 8 18
f 13 8 4
f 5 8 13
f 5 21 19
f 19 8 5
f 3 10 6
f 6 10 1
f 6 20 3
f 6 1 21
f 21 20 6
f 12 4 18
f 13 4 12
f 3 17 12
f 12 10 3
f 13 11 2
f 2 5 13
f 2 11 21
f 21 5 2
f 16 12 17
f 7 11 16
f 16 17 7
f 22 12 18
f 18 10 22
f 10 12 22
f 13 12 9
f 12 16 9
f 9 11 13
f 9 16 11

