# https://github.com/mikedh/trimesh
v -0.00131316 -0.03061747 -0.00373819
v -0.00932664 0.02239305 -0.00382776
v 0.01832369 0.03399245 -0.00275051
v 0.03840779 0.03551829 -0.00170833
v 0.06269670 0.01418122 -0.00293501
v -0.06071057 0.02996894 -0.00305225
v 0.07263380 -0.02289528 0.00370725
v 0.02325474 0.04887395 -0.00049656
v 0.05723153 0.02837940 -0.00136778
v -0.06155130 0.00469318 0.00381825
v -0.06316545 -0.01551143 0.00414452
v -0.04792946 -0.01849046 0.00418873
v 0.03601194 0.03556543 0.00445625
v 0.07125358 -0.03559400 -0.00449028
v 0.04874568 0.00291605 -0.00447233
v -0.03725364 0.02960440 0.00312997
v -0.06539715 -0.03537474 -0.00235076
v -0.06655030 0.03062121 0.00205177
v -0.05780579 -0.03813980 -0.00118960
v -0.07034708 -0.03140711 0.00170368
v 0.06929223 -0.03174189 0.00275569
f 21 14 7
f 9 13 7
f 8 13 9
f 20 6 17
f 7 14 5
f 5 9 7
f 14 17 1
f 1 17 6
f 14 21 19
f 19 17 14
f 19 21 20
f 20 17 19
f 8 6 18
f 18 13 8
f 18 6 20
f 20 11 18
f 15 5 14
f 14 1 15
f 20 21 12
f 12 11 20
f 12 21 7
f 7 13 12
f 13 11 12
f 10 11 13
f 10 18 11
f 2 1 6
f 2 15 1
f 8 9 4
f 9 5 4
f 13 18 16
f 16 10 13
f 18 10 16
f 15 2 3
f 5 15 3
f 3 4 5
f 8 4 3
f 3 6 8
f 3 2 6

