# https://github.com/mikedh/trimesh
v -0.05292853 0.02286239 0.02607875
v 0.03548549 -0.04782525 -0.01976431
v 0.07277317 -0.02400334 -0.02602068
v -0.03198128 -0.02859388 -0.02121224
v -0.06378984 0.04040999 0.00622077
v -0.00681835 0.07617100 -0.01581767
v 0.02564079 -0.07078627 0.02072356
v 0.01457511 -0.07245980 0.00641730
v 0.06928123 0.03590213 0.01868999
v -0.06522669 -0.05187777 0.00711405
v 0.00208201 -0.07412094 -0.00648663
v -0.03244660 -0.03617455 -0.01808630
v 0.01463708 -0.07605776 0.02108099
v 0.00484706 -0.06550410 0.02331828
v -0.03190440 0.06114582 -0.01512399
v -0.05661356 0.04777866 0.02141482
v -0.07559153 -0.01379284 -0.02211241
v -0.08679014 -0.00031849 -0.00239648
v 0.08513616 0.00472706 0.00984124
v -0.06550250 -0.04591327 0.00165402
v 0.02400320 0.05637959 0.00890598
v 0.00695456 -0.06275577 0.02421929
v 0.01995453 0.07728081 -0.01122506
v 0.05315345 0.05246668 -0.01354102
v -0.02005837 -0.05286486 0.02455606
v -0.01339257 0.03842173 -0.02494408
v -0.00512044 0.07168751 -0.00485530
f 7 3 19
f 19 3 24
f 18 16 5
f 1 16 18
f 8 11 3
f 3 7 8
f 13 11 8
f 8 7 13
f 3 17 26
f 26 24 3
f 6 24 26
f 3 11 2
f 10 11 13
f 10 1 18
f 18 17 10
f 6 26 15
f 15 26 17
f 15 16 6
f 15 5 16
f 15 17 18
f 18 5 15
f 23 24 6
f 13 7 22
f 4 2 11
f 4 17 3
f 3 2 4
f 20 17 11
f 11 10 20
f 20 10 17
f 6 16 27
f 27 23 6
f 16 23 27
f 21 23 16
f 25 10 13
f 1 10 25
f 25 22 1
f 1 22 9
f 16 1 9
f 9 22 7
f 9 21 16
f 9 7 19
f 23 21 9
f 19 24 9
f 24 23 9
f 11 17 12
f 12 4 11
f 17 4 12
f 13 22 14
f 14 25 13
f 22 25 14

