# https://github.com/mikedh/trimesh
v -0.07046302 0.00880253 -0.00566665
v 0.03430791 -0.03254985 0.00444018
v -0.06364868 0.03527506 -0.00159098
v 0.08388622 0.02132569 -0.00470664
v 0.06318993 0.01743595 0.00559015
v -0.07943310 0.00440918 0.00467492
v 0.08770918 0.01379162 0.00038895
v -0.03664049 0.00654399 -0.00592583
v -0.08027905 0.00386379 -0.00531088
v -0.02278896 0.03743212 0.00016303
v 0.03702624 -0.02199684 0.00569852
v 0.02341980 0.00963574 0.00593713
v -0.05464382 -0.01963440 0.00533236
v 0.06890480 0.01285826 -0.00620327
v 0.04765318 -0.03570563 -0.00088703
v -0.06202786 0.03200301 0.00570639
v 0.08857455 -0.01727731 -0.00204306
v -0.07897913 0.03228291 0.00335480
v 0.00670832 -0.02005200 -0.00597250
v 0.05447825 -0.02506326 -0.00632226
v -0.07898121 -0.01121475 -0.00127798
v 0.04239890 0.02764179 -0.00507074
v 0.07531658 -0.02045759 0.00383551
v -0.07983132 -0.00898721 0.00299983
v -0.06205751 -0.03755531 -0.00156017
v 0.01552492 -0.02987330 0.00464548
v 0.04225245 0.02947936 0.00444041
v -0.04188114 0.03783672 -0.00164484
v -0.05752417 -0.02737075 0.00266687
v 0.08370110 -0.01133819 0.00504789
v 0.07042229 -0.01464725 -0.00560846
v -0.01013726 0.03387203 0.00488371
f 19 25 9
f 19 20 25
f 9 25 21
f 25 20 15
f 15 2 25
f 15 20 17
f 25 2 29
f 23 15 17
f 2 15 23
f 11 5 12
f 12 13 11
f 8 14 20
f 17 20 31
f 20 14 31
f 25 29 24
f 24 21 25
f 24 13 6
f 29 13 24
f 24 6 9
f 9 21 24
f 26 29 2
f 26 13 29
f 2 11 26
f 26 11 13
f 5 11 30
f 30 23 17
f 2 23 30
f 30 11 2
f 16 13 12
f 6 13 16
f 12 5 16
f 4 14 22
f 22 27 4
f 17 31 4
f 4 31 14
f 20 19 1
f 1 8 20
f 1 19 9
f 22 14 1
f 14 8 1
f 5 27 32
f 32 16 5
f 9 6 18
f 6 16 18
f 7 27 5
f 7 4 27
f 5 30 7
f 7 30 17
f 17 4 7
f 3 1 9
f 9 18 3
f 22 1 3
f 10 27 22
f 10 32 27
f 16 32 10
f 22 3 28
f 28 10 22
f 28 3 18
f 28 18 16
f 16 10 28

