# https://github.com/mikedh/trimesh
v 0.01790124 -0.04526244 0.02154431
v 0.01255575 -0.03652101 0.02234724
v 0.04566775 0.04457841 0.01460486
v -0.00866192 0.06728081 -0.01039730
v 0.01481874 0.06461158 0.00375343
v -0.03537471 -0.03609291 0.00568231
v -0.04760208 0.05230169 -0.00444820
v 0.06334561 -0.00612764 0.00710434
v 0.04701093 -0.01390495 -0.01939414
v 0.03247465 -0.06691026 0.01004566
v -0.01821023 -0.06720252 -0.01277715
v 0.00934775 0.04098074 -0.01932853
v 0.05752748 0.03470073 0.00153309
v -0.02502185 0.07447039 0.01416951
v -0.06097384 0.02494981 0.02011252
v -0.05157759 -0.05100725 -0.01284717
v -0.04463929 -0.03744273 -0.02705132
v -0.02357548 -0.04256242 -0.02331612
v 0.05422683 0.02991975 0.01906000
v 0.05078297 -0.00393894 -0.01652432
v -0.01172111 -0.07288083 -0.01051904
v 0.06174211 -0.02120279 -0.01651014
v -0.02394507 0.02779033 0.02128360
v 0.00186324 0.07024540 -0.00211167
v 0.01836274 -0.07220511 0.00002056
v 0.03046091 -0.06634896 -0.00256119
f 15 17 16
f 7 17 15
f 7 4 17
f 11 17 21
f 21 16 11
f 11 16 17
f 21 1 6
f 6 16 21
f 6 1 15
f 15 16 6
f 21 17 18
f 10 1 21
f 14 7 15
f 4 7 14
f 23 14 15
f 19 10 8
f 1 10 19
f 3 14 19
f 14 23 19
f 21 18 22
f 22 26 21
f 22 18 17
f 8 10 22
f 10 26 22
f 4 14 24
f 1 19 2
f 2 19 23
f 15 1 2
f 2 23 15
f 25 10 21
f 21 26 25
f 25 26 10
f 17 4 12
f 3 19 13
f 13 19 8
f 8 22 13
f 4 24 13
f 13 12 4
f 5 14 3
f 5 24 14
f 3 13 5
f 5 13 24
f 9 22 17
f 17 12 9
f 20 13 22
f 12 13 20
f 22 9 20
f 20 9 12

