# https://github.com/mikedh/trimesh
v 0.03071960 0.06657131 0.01059071
v 0.05606476 -0.03051018 -0.00523010
v 0.06605091 -0.05592627 0.00147089
v -0.04377644 0.09100659 -0.00103787
v -0.06686818 -0.01244454 0.00695142
v 0.02228995 -0.11783930 0.00836412
v 0.03175353 0.10770438 -0.00425059
v 0.04066352 -0.05863673 -0.01570810
v -0.06962693 0.02005238 0.00238249
v -0.04433149 0.09923651 -0.00960358
v 0.02739822 0.05071276 0.01589682
v 0.05429003 0.06731040 -0.00031933
v 0.05939019 -0.08723039 0.00566548
v -0.06226504 -0.03277141 -0.00734985
v -0.02151799 -0.11394734 0.00019777
v -0.01192501 0.11945915 -0.00457507
v -0.05615698 0.02967806 0.01182714
v -0.02899279 -0.08782301 0.00547572
v -0.00696940 0.12625397 -0.00917567
v -0.02975576 0.04224486 0.01383551
v -0.06687099 0.03086121 0.00549704
v 0.04145316 -0.10651572 -0.00173134
v -0.03111720 0.00905683 0.01503420
f 12 11 3
f 19 8 10
f 3 11 13
f 9 10 14
f 14 10 8
f 19 10 16
f 16 10 4
f 19 16 7
f 7 8 19
f 7 12 8
f 3 8 2
f 2 12 3
f 8 12 2
f 15 14 8
f 11 12 1
f 12 7 1
f 1 16 11
f 1 7 16
f 21 17 4
f 21 10 9
f 4 10 21
f 4 17 20
f 11 16 20
f 20 16 4
f 20 23 11
f 20 17 23
f 11 23 6
f 6 13 11
f 18 6 23
f 15 6 18
f 22 15 8
f 22 6 15
f 13 6 22
f 22 8 3
f 3 13 22
f 23 17 5
f 5 18 23
f 5 21 9
f 17 21 5
f 9 14 5
f 14 15 5
f 15 18 5

