# https://github.com/mikedh/trimesh
v -0.09107983 0.02084902 0.01084727
v -0.06943840 0.07542230 0.00577761
v 0.08122909 -0.00738940 -0.00978977
v -0.09887775 0.00604061 0.00983925
v 0.05518750 -0.07928548 -0.00945614
v 0.04358723 -0.02255532 -0.01934543
v 0.11320570 -0.00103700 0.01157697
v -0.00639438 0.07618015 -0.01704402
v 0.05981313 0.04616402 0.01827744
v 0.09468458 0.02129678 -0.00292132
v -0.01421310 -0.08839570 0.01688251
v -0.07898073 -0.06219379 -0.00687474
v -0.07357776 -0.07203653 -0.00373762
v -0.04825698 -0.05729737 -0.01396386
v -0.02022752 -0.08617849 -0.00590840
v -0.10428010 -0.01541707 -0.00719146
v 0.06159058 0.07236171 -0.00725662
v 0.07981882 0.06654475 0.00254446
v -0.07449927 -0.07083926 0.00242786
v -0.01083371 0.09666411 -0.01606837
v -0.06975495 -0.03798435 -0.01198437
v -0.06765940 -0.01131439 -0.01329581
f 2 20 16
f 16 20 22
f 17 6 20
f 20 6 8
f 8 22 20
f 6 22 8
f 14 22 6
f 6 5 14
f 14 5 15
f 20 2 18
f 18 17 20
f 7 10 18
f 18 10 17
f 4 2 16
f 16 19 4
f 16 22 21
f 22 14 21
f 6 17 3
f 17 10 3
f 3 5 6
f 7 5 3
f 3 10 7
f 9 18 2
f 7 18 9
f 15 5 11
f 11 5 7
f 7 9 11
f 11 4 19
f 13 14 15
f 15 11 13
f 13 11 19
f 2 4 1
f 1 9 2
f 4 11 1
f 1 11 9
f 14 13 12
f 12 21 14
f 16 21 12
f 12 19 16
f 12 13 19

