# https://github.com/mikedh/trimesh
v -0.08928384 0.00785716 0.01076901
v 0.08839239 0.00362734 -0.00566639
v -0.01782180 -0.05215729 0.02341866
v 0.08217040 -0.01103827 -0.02525829
v 0.05748543 -0.05506879 -0.00200715
v -0.03116518 0.02019887 0.02485194
v -0.03876414 -0.03690220 -0.01075143
v 0.03882555 -0.01424121 -0.02543853
v 0.04408645 0.02182670 0.02231909
v -0.09488618 -0.01723592 -0.02053641
v -0.10204318 0.00832403 -0.00099283
v 0.00582543 0.06035020 0.00200083
v 0.00574013 0.05911922 -0.00583667
v -0.07894956 0.03062794 0.01993788
v -0.07645561 0.02787897 0.00085155
v 0.02169292 0.04010689 -0.01811711
v 0.07085758 0.04079898 0.00440977
v 0.07304182 0.03114027 -0.00565765
v 0.01776526 0.02317389 -0.02299595
v 0.07833355 0.02375580 0.01386846
v 0.07629353 -0.03159383 -0.02048348
v 0.05503814 0.04835014 -0.00408896
v 0.07142364 -0.02523402 -0.02531448
v -0.01633953 0.03719878 -0.01524059
v -0.10057549 -0.00447627 -0.02587667
v 0.06983299 0.04351408 0.01028054
v 0.00935620 -0.05471944 0.02939871
f 2 20 5
f 5 20 27
f 5 7 23
f 1 14 11
f 27 20 9
f 2 5 21
f 21 5 23
f 11 14 15
f 15 25 11
f 23 7 10
f 10 25 23
f 11 25 10
f 2 21 4
f 4 21 23
f 24 16 25
f 6 14 27
f 27 9 6
f 3 10 7
f 3 5 27
f 7 5 3
f 27 14 3
f 14 1 3
f 3 1 11
f 11 10 3
f 23 25 8
f 8 4 23
f 25 4 8
f 25 16 19
f 19 4 25
f 16 4 19
f 16 24 13
f 13 14 12
f 13 15 14
f 25 15 13
f 13 24 25
f 26 6 9
f 26 9 20
f 12 14 26
f 14 6 26
f 26 20 2
f 2 17 26
f 22 4 16
f 16 13 22
f 22 26 17
f 22 13 12
f 12 26 22
f 4 22 18
f 18 22 17
f 2 4 18
f 18 17 2

