# https://github.com/mikedh/trimesh
v -0.01571311 0.07763386 -0.01107662
v 0.11696035 0.00751252 -0.00341402
v -0.09238363 -0.05555960 -0.00283725
v -0.10700912 -0.01076774 0.01549109
v -0.08136631 0.04049871 0.02087105
v -0.02122405 -0.07382801 0.00748310
v 0.04142310 0.07521981 0.00830433
v 0.09046296 0.03628405 0.01654968
v 0.02799329 -0.03298380 -0.02066517
v -0.06929121 -0.02936129 -0.01410959
v -0.11280585 0.02954854 -0.00216622
v -0.07238698 0.05557488 0.00084350
v -0.08645167 0.04921002 -0.00685523
v 0.08725780 0.01575083 0.02564609
v 0.01138148 -0.06389225 0.01137427
v 0.07860011 0.05871031 -0.00062394
v 0.11727542 0.00573257 0.02138509
v 0.06665451 -0.06172776 -0.01990126
v -0.11040430 -0.02569556 0.00911956
v 0.11083849 -0.00869382 -0.00319652
v 0.02178741 0.07924495 -0.01586927
v -0.05185683 -0.08012348 -0.01254756
v 0.04174821 -0.08102730 0.00230124
v -0.11387695 0.00611505 0.01118808
v 0.08257452 0.03539186 0.02544118
v -0.02703182 0.07013737 -0.02637914
f 15 23 17
f 26 22 10
f 23 22 18
f 17 23 18
f 18 20 17
f 14 15 17
f 24 5 11
f 26 10 11
f 11 19 24
f 1 5 7
f 6 22 23
f 23 15 6
f 15 14 4
f 4 14 5
f 4 6 15
f 19 6 4
f 4 5 24
f 24 19 4
f 17 20 2
f 20 18 2
f 9 22 26
f 26 18 9
f 9 18 22
f 25 14 17
f 7 5 25
f 5 14 25
f 26 11 13
f 13 1 26
f 22 6 3
f 3 6 19
f 3 10 22
f 3 11 10
f 19 11 3
f 8 25 17
f 26 1 21
f 21 1 7
f 21 18 26
f 21 2 18
f 5 1 12
f 1 13 12
f 12 11 5
f 12 13 11
f 16 21 7
f 2 21 16
f 7 25 16
f 25 8 16
f 17 2 16
f 16 8 17

