# https://github.com/mikedh/trimesh
v -0.06080073 -0.01593913 0.00461063
v -0.04740019 -0.02029822 -0.00046645
v -0.05500449 0.01140380 0.00416030
v -0.00728883 0.02856373 0.00782860
v -0.02476246 0.02559564 0.00595738
v -0.02837553 0.02270391 -0.00302644
v -0.01892264 0.01070943 0.00777664
v 0.04293110 -0.02643102 -0.00313967
v 0.02457890 0.01385415 -0.00674783
v 0.05151000 0.01911994 -0.00170384
v -0.00184755 0.02792810 0.00755380
v 0.05703668 0.02248393 0.00413618
v -0.03864321 0.01710482 -0.00503567
v -0.04655141 -0.01820880 0.00449706
v -0.00367511 -0.02530723 -0.00749485
v -0.06474403 -0.00369273 -0.00640127
v 0.00159211 0.02389686 -0.00034420
v -0.06645697 -0.00139084 0.00441044
v -0.03722937 -0.01779034 -0.00623908
v 0.05748977 -0.00203312 -0.00603058
v 0.03224069 0.01976212 -0.00587970
v 0.03242689 0.01407853 -0.00664859
v -0.06644776 -0.01727930 0.00064516
v -0.05518314 0.01560705 -0.00056642
v -0.04692948 -0.01213420 -0.00725290
v 0.00399154 -0.02659435 -0.00477544
v -0.00610576 0.02234329 -0.00317533
v 0.05478101 -0.02142029 0.00585284
v 0.06059389 0.00533890 -0.00738907
f 7 4 18
f 7 28 4
f 8 28 26
f 12 28 29
f 29 8 15
f 15 8 26
f 24 16 18
f 1 7 18
f 28 7 1
f 29 28 20
f 20 8 29
f 28 8 20
f 10 12 29
f 4 28 11
f 11 12 4
f 28 12 11
f 29 15 25
f 18 4 3
f 3 24 18
f 21 10 29
f 4 12 21
f 12 10 21
f 26 28 14
f 28 1 14
f 16 25 23
f 23 14 1
f 18 16 23
f 23 1 18
f 5 3 4
f 24 3 5
f 29 25 9
f 9 25 16
f 19 25 15
f 15 23 19
f 19 23 25
f 2 15 26
f 2 23 15
f 26 14 2
f 14 23 2
f 24 5 6
f 6 5 4
f 22 21 29
f 29 9 22
f 22 9 21
f 4 21 17
f 17 6 4
f 16 24 13
f 24 6 13
f 13 9 16
f 13 6 21
f 21 9 13
f 21 6 27
f 27 17 21
f 6 17 27

