# https://github.com/mikedh/trimesh
v -0.01622916 -0.05003246 0.02591773
v 0.01226724 -0.03852974 0.02973801
v 0.04200958 0.05828852 0.00596658
v -0.01511322 -0.08134705 0.01807691
v -0.09193512 0.01173988 0.01891448
v -0.02629069 -0.05429729 -0.01506941
v 0.01892841 0.07496808 -0.02945209
v 0.09012662 0.03536767 0.01842043
v -0.09118967 -0.01228579 -0.02739604
v 0.09105639 0.00208177 -0.02153648
v -0.03914763 0.01917502 0.02873483
v -0.05655388 0.05021782 0.02052889
v 0.11221063 -0.01821829 -0.01170868
v 0.01030376 -0.08530615 0.02383981
v -0.04780745 0.07673625 0.00891435
v -0.08664896 -0.06154337 -0.01617366
v -0.07592010 0.04694352 -0.01071268
v 0.11257197 0.01504747 0.01189694
v 0.09030467 0.03857935 -0.00701566
f 5 16 4
f 4 16 14
f 9 16 5
f 14 16 6
f 16 9 6
f 1 11 5
f 5 4 1
f 1 4 14
f 2 14 18
f 2 1 14
f 11 1 2
f 18 14 13
f 14 6 13
f 8 2 18
f 11 2 8
f 7 9 17
f 17 15 7
f 17 9 5
f 5 15 17
f 18 13 19
f 19 8 18
f 7 8 19
f 11 8 12
f 12 8 15
f 5 11 12
f 12 15 5
f 7 15 3
f 3 8 7
f 15 8 3
f 7 19 10
f 10 19 13
f 10 9 7
f 10 6 9
f 10 13 6

