# https://github.com/mikedh/trimesh
v 0.03473645 0.01865982 0.00432346
v -0.01866840 -0.03799905 -0.00445427
v -0.00999675 -0.04190018 0.00249810
v -0.05327522 0.04800026 -0.00346355
v -0.03174921 -0.02633740 0.00669729
v -0.04869215 0.00905949 0.00622710
v 0.05526332 0.01208085 0.00397016
v -0.01452347 -0.02337297 -0.00613215
v 0.05622126 -0.03891684 0.00133280
v 0.05694745 0.00549807 0.00510711
v 0.05673685 -0.00636639 -0.00469264
v -0.05579458 -0.01451500 -0.00173024
v -0.00016226 0.03325104 -0.00651906
v -0.05564384 -0.02636475 0.00330116
v 0.05892574 -0.04014239 -0.00752128
v -0.05131195 0.04233856 0.00615601
v -0.04581610 -0.02910447 0.00629982
v 0.03201803 -0.03442470 0.00662640
v 0.05467207 0.01612832 0.00251371
v 0.03640838 0.03845010 -0.00198755
f 12 4 8
f 4 16 20
f 18 16 5
f 10 16 18
f 15 8 13
f 13 8 4
f 4 20 13
f 2 8 15
f 12 8 2
f 5 16 6
f 11 10 15
f 15 13 11
f 11 13 20
f 1 16 10
f 1 20 16
f 15 10 9
f 10 18 9
f 17 18 5
f 5 6 17
f 17 6 16
f 10 11 19
f 19 11 20
f 3 9 18
f 18 17 3
f 3 2 15
f 15 9 3
f 12 2 14
f 14 17 16
f 2 3 14
f 14 3 17
f 14 4 12
f 14 16 4
f 20 1 7
f 7 19 20
f 7 1 10
f 10 19 7

