# https://github.com/mikedh/trimesh
v 0.07898331 0.00912208 0.00191341
v -0.07382757 0.02318531 -0.00388030
v -0.06637628 0.00095487 0.00410586
v 0.05841814 0.00131916 -0.00393178
v -0.05182315 -0.01708826 0.00392356
v 0.03868584 0.02447129 -0.00052051
v 0.01263859 0.02217037 0.00241142
v -0.00752044 0.02433915 -0.00194359
v 0.01198927 -0.02345521 0.00277710
v -0.01909597 -0.02510194 -0.00389552
v -0.07304049 0.02209483 0.00364700
v -0.03685953 0.00510042 0.00526364
v -0.05207942 -0.01093257 -0.00382140
v -0.07091291 -0.02563173 -0.00118703
v -0.07608263 -0.02076358 0.00086431
v 0.01426467 0.02460999 -0.00367785
v 0.07344601 0.02323883 -0.00278970
v 0.03642994 0.00925148 0.00462599
v 0.01253201 -0.00047748 0.00513297
v -0.03713816 -0.01347869 0.00499082
v 0.07853912 0.01540000 -0.00139994
v 0.08402454 0.00058883 0.00325630
v 0.07886468 -0.01856709 -0.00364711
v 0.06479999 -0.02204335 0.00348319
v -0.07897660 0.01065580 0.00359098
v -0.00643223 -0.02487809 0.00025750
f 25 2 15
f 15 2 14
f 24 23 22
f 18 24 22
f 16 2 8
f 4 2 16
f 17 4 16
f 23 4 17
f 25 15 3
f 5 15 14
f 20 3 5
f 5 3 15
f 20 24 19
f 24 18 19
f 2 4 10
f 10 4 23
f 23 24 10
f 24 26 10
f 10 26 14
f 16 8 6
f 6 17 16
f 7 17 6
f 7 18 1
f 1 17 7
f 1 18 22
f 22 23 21
f 23 17 21
f 21 1 22
f 17 1 21
f 9 24 20
f 20 5 9
f 9 5 14
f 14 26 9
f 9 26 24
f 12 19 18
f 25 3 12
f 12 3 20
f 20 19 12
f 2 10 13
f 14 2 13
f 13 10 14
f 11 18 7
f 11 12 18
f 25 12 11
f 11 2 25
f 7 6 11
f 11 8 2
f 11 6 8

