# https://github.com/mikedh/trimesh
v -0.03823832 -0.04393179 -0.00511769
v -0.07934451 0.03501313 0.00117094
v -0.04728444 0.03234688 0.00553933
v 0.02484879 -0.04168143 -0.00592061
v 0.05834036 0.03650171 0.00083810
v -0.03469031 -0.04096958 0.00499083
v 0.07253582 -0.02783243 0.00383509
v 0.01341105 0.02927525 -0.00578594
v 0.06621237 0.03668901 -0.00146453
v 0.06478492 -0.03713607 -0.00081290
v 0.02192090 -0.04078829 0.00414682
v 0.06127775 0.01898284 0.00344263
v -0.05981114 -0.03785381 0.00489149
v -0.05174449 -0.03531481 -0.00503316
v 0.03379375 -0.02586468 -0.00623309
v 0.07127809 -0.01358792 -0.00611359
v 0.06065416 0.05156057 -0.00547177
v -0.07469083 -0.01796802 0.00422345
v 0.01698063 0.00154827 -0.00650153
v 0.05620560 0.04402187 -0.00062391
v 0.06846886 0.03016569 -0.00518924
v 0.07801328 -0.01583780 0.00642469
v -0.06832981 -0.04172825 0.00281812
v -0.07173343 -0.04355219 0.00008776
v -0.05459250 0.00716306 -0.00518743
v 0.06114372 -0.04078016 0.00047343
v -0.06413285 0.01424865 -0.00435117
v -0.07664666 -0.03539593 -0.00301503
v 0.02154196 0.04373047 0.00684369
v 0.08060037 0.00060199 0.00233768
v 0.07209793 -0.03444161 -0.00043013
f 2 17 27
f 29 17 2
f 17 16 19
f 21 17 30
f 30 16 21
f 21 16 17
f 30 17 9
f 9 5 30
f 5 29 12
f 17 29 20
f 20 29 5
f 20 9 17
f 5 9 20
f 14 19 1
f 8 27 17
f 17 19 8
f 1 19 4
f 22 29 13
f 22 12 29
f 30 5 22
f 5 12 22
f 3 29 2
f 2 18 3
f 13 29 3
f 3 18 13
f 2 27 28
f 28 18 2
f 28 14 1
f 27 8 25
f 25 8 19
f 19 14 25
f 25 28 27
f 14 28 25
f 15 19 16
f 16 4 15
f 15 4 19
f 31 16 30
f 30 22 31
f 31 4 16
f 31 10 4
f 13 18 23
f 18 28 24
f 24 23 18
f 24 28 1
f 6 22 13
f 6 11 22
f 13 23 6
f 23 24 6
f 6 24 11
f 10 31 26
f 4 10 26
f 1 4 26
f 26 24 1
f 11 24 26
f 7 31 22
f 7 26 31
f 22 11 7
f 11 26 7

