# https://github.com/mikedh/trimesh
v -0.05752808 0.05120185 0.01078507
v -0.08480357 0.00944400 0.01709607
v -0.00627300 0.07750338 -0.02554738
v -0.08490396 -0.02498090 -0.03100959
v 0.07033401 0.03483540 0.03228773
v -0.04737958 -0.01641181 -0.03134434
v 0.00087834 -0.05670281 0.03496285
v -0.06532560 0.04971113 -0.00210671
v 0.08008439 -0.02510530 -0.01491491
v -0.06457826 0.04501956 0.02176165
v -0.00124733 0.07884245 -0.01773604
v -0.03921451 0.06267307 -0.00266322
v -0.00303990 -0.07439463 0.03088576
v -0.01802725 -0.08603097 0.00168384
v -0.03267309 0.06294506 0.00851750
v 0.09235975 0.03233664 -0.00126000
v 0.08242911 -0.03102315 -0.02323264
v 0.08391123 0.02427965 0.02631548
f 17 14 4
f 14 17 13
f 16 17 3
f 5 10 7
f 7 10 2
f 2 13 7
f 14 13 2
f 4 14 2
f 8 3 4
f 4 2 8
f 8 2 10
f 6 17 4
f 4 3 6
f 6 3 17
f 7 13 18
f 18 5 7
f 18 17 16
f 16 5 18
f 10 5 15
f 9 13 17
f 17 18 9
f 9 18 13
f 11 15 5
f 16 3 11
f 11 5 16
f 1 8 10
f 10 15 1
f 3 8 12
f 12 11 3
f 15 11 12
f 8 1 12
f 12 1 15

