# https://github.com/mikedh/trimesh
v 0.05002852 -0.02587122 -0.02773936
v -0.04320603 0.04190516 0.01678821
v -0.01516536 -0.04180170 0.01813673
v 0.05385700 0.00807853 -0.01113166
v -0.04954664 -0.04107753 -0.01083854
v -0.04418710 0.01659764 0.02934800
v 0.02877411 -0.05640184 0.00070177
v -0.02330773 0.05934113 -0.03571088
v 0.05135922 0.04317615 0.02156460
v 0.04710559 -0.03882672 -0.02435722
v 0.01998633 -0.06459933 -0.00693268
v 0.06043182 0.02479088 0.02164246
v -0.00953326 -0.03572859 0.02766237
v 0.01274167 0.00651797 0.03058140
v -0.00203641 -0.03807569 0.02609374
v 0.06301240 -0.00206907 0.00994978
v 0.00833454 -0.04844358 0.02148890
v -0.06679130 -0.00562657 -0.00056310
v -0.06421442 -0.01639624 0.01298672
v 0.04751671 -0.01216180 0.01721546
f 2 8 18
f 18 8 5
f 1 5 8
f 8 2 9
f 19 2 18
f 18 5 19
f 11 5 10
f 5 1 10
f 10 1 16
f 4 1 8
f 8 9 4
f 9 12 4
f 16 1 4
f 4 12 16
f 2 19 6
f 6 9 2
f 14 12 9
f 9 6 14
f 12 14 17
f 16 12 20
f 12 17 20
f 3 19 5
f 3 5 11
f 11 17 3
f 13 14 6
f 13 3 17
f 13 6 19
f 19 3 13
f 7 17 11
f 7 20 17
f 16 20 7
f 7 10 16
f 11 10 7
f 15 17 14
f 14 13 15
f 15 13 17

