# https://github.com/mikedh/trimesh
v -0.06412952 0.09549846 0.01187318
v -0.06285922 0.04980401 0.01470637
v -0.06951308 -0.00117528 -0.00748535
v -0.00546836 0.07083140 -0.02132460
v 0.02825032 -0.04752690 -0.02635292
v -0.04142344 0.07665428 -0.01177860
v -0.07713448 0.03497168 0.00676624
v -0.01254487 -0.08323631 0.02104368
v 0.07947288 -0.01592480 -0.01721257
v -0.04492686 0.05955001 0.01601733
v 0.02596241 -0.12121740 -0.00521070
v 0.06781716 -0.01515568 0.00563534
v 0.00077747 0.10766521 0.00152357
v 0.03708127 0.09920170 0.01000529
v 0.03441926 0.07638762 0.01467085
v 0.05608098 0.06065176 -0.00715381
v 0.01198701 -0.13152033 0.00013165
v -0.02700646 -0.10851347 0.01882822
f 11 5 9
f 17 5 11
f 12 11 9
f 17 11 12
f 8 18 17
f 17 12 8
f 8 12 15
f 15 10 8
f 9 5 4
f 7 18 2
f 18 8 2
f 2 8 10
f 3 4 5
f 3 18 7
f 3 5 17
f 17 18 3
f 9 4 16
f 16 4 13
f 16 12 9
f 14 16 13
f 15 12 14
f 12 16 14
f 13 4 6
f 4 3 6
f 6 3 7
f 1 14 13
f 13 6 1
f 15 14 1
f 1 6 7
f 1 10 15
f 7 2 1
f 1 2 10

