# https://github.com/mikedh/trimesh
v 0.00624567 -0.06275783 0.00411114
v 0.03753865 -0.02327948 -0.01419402
v 0.02818080 -0.00802227 -0.01520688
v -0.03163135 -0.02545266 -0.01474046
v 0.03972918 -0.03459355 -0.00344537
v -0.02389669 0.05354698 -0.00745083
v -0.03546388 0.02339391 0.00945710
v 0.04155577 0.05645221 0.00222714
v 0.05108742 -0.01607379 -0.01131812
v -0.05277261 0.01473435 -0.00012500
v -0.02380537 0.02951659 0.01445179
v 0.05427727 -0.00840149 0.00125904
v -0.01777562 -0.06626262 0.01314537
v 0.02879279 0.00523453 0.01814161
v -0.01874914 0.05457148 -0.00599823
v -0.05868212 -0.01385477 -0.01147703
v -0.04146244 -0.00304844 0.00900768
v 0.01611588 0.05967981 -0.00909939
v -0.03062649 0.02219853 0.01247982
f 11 13 14
f 8 14 12
f 8 11 14
f 12 14 1
f 14 13 1
f 16 13 17
f 13 11 17
f 18 8 9
f 9 3 18
f 2 3 9
f 9 8 12
f 2 1 4
f 4 3 2
f 4 13 16
f 4 1 13
f 18 3 4
f 16 6 4
f 4 6 18
f 15 8 18
f 18 6 15
f 11 8 15
f 15 6 11
f 16 17 10
f 10 6 16
f 5 1 2
f 2 9 5
f 12 1 5
f 5 9 12
f 19 17 11
f 7 10 17
f 17 19 7
f 7 19 11
f 11 6 7
f 6 10 7

