# https://github.com/mikedh/trimesh
v -0.06098226 -0.02213723 -0.00616854
v 0.06747366 0.02289090 -0.00444117
v -0.07619764 -0.02661784 -0.00117882
v 0.06906143 -0.00395842 -0.00470967
v -0.03343544 -0.03428552 -0.00468035
v -0.02328955 0.03071707 0.00329368
v -0.06505975 0.01487946 -0.00625596
v 0.01632579 -0.03596089 -0.00225863
v 0.06615513 -0.02091920 0.00082823
v 0.04092076 -0.02536974 0.00599768
v -0.04725233 0.03290154 -0.00539847
v 0.07456224 0.02882556 0.00259917
v 0.07289435 0.01991622 0.00626391
v 0.07553988 0.01333314 0.00087415
v -0.01046674 0.02400316 0.00798851
v -0.02122308 -0.02722717 0.00158251
v 0.02092857 -0.03576598 -0.00356606
v -0.07028844 0.01087747 -0.00068468
v 0.04667520 -0.03265687 0.00001337
v 0.05684175 -0.01252287 -0.00432186
v 0.05733673 -0.02432383 0.00626985
v -0.07034840 -0.00470265 0.00655082
v -0.06112215 -0.03333188 -0.00512529
v -0.07789916 -0.00074850 0.00595958
v 0.04377402 0.03033310 -0.00653207
v 0.07507833 0.00649290 -0.00070551
v 0.04826013 0.03186054 0.00729538
f 6 11 24
f 11 6 27
f 27 25 11
f 24 11 18
f 8 23 5
f 11 25 7
f 7 18 11
f 24 18 7
f 19 9 21
f 13 27 21
f 21 9 13
f 13 26 14
f 9 26 13
f 15 22 21
f 21 27 15
f 24 22 15
f 15 6 24
f 15 27 6
f 10 16 8
f 8 19 10
f 10 19 21
f 21 22 10
f 3 22 24
f 3 23 8
f 8 16 3
f 3 10 22
f 16 10 3
f 24 7 3
f 1 7 25
f 1 5 23
f 23 3 1
f 1 3 7
f 9 19 4
f 4 26 9
f 4 1 25
f 12 13 14
f 14 26 12
f 25 27 12
f 27 13 12
f 17 19 8
f 8 5 17
f 5 1 17
f 1 4 17
f 26 4 2
f 2 12 26
f 2 4 25
f 25 12 2
f 20 4 19
f 19 17 20
f 20 17 4

