# https://github.com/mikedh/trimesh
v 0.08559011 0.02703837 -0.00258368
v -0.10255668 -0.00604164 -0.00395684
v 0.06721946 -0.03400187 0.00153688
v 0.10257739 -0.03184678 -0.00197766
v 0.04455359 0.03132035 -0.00397367
v -0.06485178 -0.01907849 -0.00551820
v 0.01722091 -0.03156428 -0.00651684
v -0.02683262 0.03547605 -0.00333859
v 0.09483035 -0.03371026 -0.00268190
v -0.09011080 -0.02030227 -0.00432912
v -0.09231688 -0.03058450 0.00145799
v 0.09451666 0.01324879 0.00591027
v 0.02323118 0.03623991 0.00308328
v 0.08651562 0.01400126 -0.00295868
v 0.09643438 0.01895141 0.00464200
v -0.02603572 -0.01864951 0.00597177
v 0.09403531 -0.02212417 0.00438889
v -0.08672599 0.01179045 0.00405747
v 0.07752674 0.02925102 -0.00089210
v 0.05459601 -0.03389062 0.00053619
v -0.03093396 -0.02770283 0.00520077
v -0.07878290 0.03374979 -0.00381372
v -0.06941858 0.01814067 -0.00517039
v 0.09002520 -0.02127423 -0.00309052
v -0.09129519 0.02764345 0.00460870
v -0.10542788 -0.00074430 0.00031980
v 0.00124140 0.03357286 -0.00468875
v 0.09398326 0.01566065 0.00571276
f 26 11 25
f 12 25 16
f 13 27 8
f 16 25 18
f 18 25 11
f 20 3 11
f 11 3 21
f 16 18 21
f 21 18 11
f 22 8 27
f 26 25 22
f 22 25 13
f 13 8 22
f 2 11 26
f 26 22 2
f 7 20 11
f 15 12 4
f 4 1 15
f 17 21 3
f 4 12 17
f 17 3 4
f 17 12 16
f 16 21 17
f 20 7 9
f 4 3 9
f 3 20 9
f 11 2 10
f 10 7 11
f 23 2 22
f 23 22 27
f 27 7 23
f 5 7 27
f 5 27 13
f 28 15 13
f 12 15 28
f 13 25 28
f 25 12 28
f 7 5 14
f 14 5 1
f 14 1 4
f 7 10 6
f 6 23 7
f 6 10 2
f 2 23 6
f 19 5 13
f 1 5 19
f 13 15 19
f 19 15 1
f 24 9 7
f 7 14 24
f 4 9 24
f 24 14 4

