# https://github.com/mikedh/trimesh
v 0.06431365 -0.02850648 0.00359157
v -0.10336057 0.01458474 -0.00518949
v 0.05972796 -0.01844446 0.00596299
v 0.05265867 -0.02223159 0.00522490
v -0.09161082 0.01180509 0.00516802
v 0.09461498 0.01856914 0.00551329
v 0.08450279 -0.01830729 -0.00448051
v 0.07463747 -0.03330496 -0.00018653
v -0.06774976 -0.03182693 0.00132431
v -0.05532047 -0.00649646 0.00633000
v -0.00801329 -0.01026257 -0.00548724
v -0.06528039 -0.03637460 -0.00320361
v 0.07495321 0.03078750 0.00576141
v -0.04963278 -0.03843880 0.00075300
v 0.00725501 -0.03646378 -0.00299549
v 0.06138007 0.03294175 0.00517152
v 0.09125824 0.03275253 -0.00196371
v 0.06980338 -0.02993721 -0.00237192
v 0.07090459 0.01563624 -0.00431778
v -0.06549750 0.02967163 0.00121370
v -0.06246377 0.02125626 -0.00541168
v 0.02491813 0.03603979 -0.00586636
v -0.08268266 -0.01190561 0.00582535
v -0.01390220 -0.01331236 -0.00537434
v -0.09520568 -0.01349381 -0.00120404
v 0.08043118 0.01029468 0.00571160
f 10 23 3
f 2 20 22
f 10 3 13
f 8 7 6
f 2 22 21
f 6 7 17
f 17 13 6
f 24 12 2
f 2 12 25
f 14 23 9
f 9 12 14
f 23 25 9
f 9 25 12
f 26 3 6
f 6 13 26
f 26 13 3
f 10 13 5
f 5 20 2
f 5 23 10
f 2 25 5
f 5 25 23
f 14 8 1
f 6 3 1
f 1 8 6
f 14 12 15
f 15 8 14
f 15 24 7
f 12 24 15
f 7 22 19
f 19 17 7
f 22 17 19
f 11 22 7
f 7 24 11
f 11 21 22
f 2 21 11
f 11 24 2
f 20 5 16
f 16 5 13
f 16 22 20
f 16 17 22
f 13 17 16
f 14 1 4
f 4 1 3
f 4 23 14
f 4 3 23
f 7 8 18
f 18 15 7
f 8 15 18

