# https://github.com/mikedh/trimesh
v 0.08500763 0.01035450 -0.00300214
v 0.08245498 -0.01548365 0.00410256
v 0.09233794 0.02368188 0.00103763
v -0.08114589 -0.03080410 -0.00406510
v -0.07606080 0.02242597 0.00613213
v 0.04749210 -0.02140859 -0.00484243
v 0.08348873 -0.02689784 -0.00300447
v -0.07038234 -0.03239872 -0.00242676
v 0.09705416 -0.02844112 0.00317839
v -0.00341802 -0.03094707 0.00691746
v -0.10124037 0.01315404 0.00109470
v 0.04658014 -0.00863498 -0.00535949
v -0.07094697 -0.00083700 -0.00739042
v 0.07792614 0.01687632 0.00418616
v 0.04320844 0.00732973 0.00606011
v -0.00323478 0.03173883 -0.00678051
v -0.05535695 0.03375783 0.00341472
v 0.04214263 0.02920887 0.00555280
v -0.10517890 0.00666514 -0.00596341
v 0.08822690 0.02796486 -0.00157654
v -0.08029991 -0.00342300 0.00579017
v -0.05712705 -0.02568318 0.00390641
v 0.09426043 0.02061802 -0.00140374
v 0.01757361 -0.01176840 -0.00711574
f 9 10 8
f 4 8 22
f 22 8 10
f 2 10 9
f 2 15 10
f 18 20 17
f 9 8 7
f 7 8 4
f 13 4 19
f 13 24 4
f 4 22 21
f 21 22 10
f 14 2 9
f 15 2 14
f 14 18 15
f 23 1 20
f 9 7 23
f 23 7 1
f 4 24 6
f 6 7 4
f 24 7 6
f 24 1 12
f 12 7 24
f 1 7 12
f 16 13 19
f 19 17 16
f 17 20 16
f 24 13 16
f 20 1 16
f 16 1 24
f 19 4 11
f 4 21 11
f 11 17 19
f 20 18 3
f 18 14 3
f 3 23 20
f 3 14 9
f 9 23 3
f 17 11 5
f 5 11 21
f 5 18 17
f 5 21 10
f 10 15 5
f 15 18 5

