# https://github.com/mikedh/trimesh
v -0.00372922 0.05956810 -0.02153657
v -0.09570502 0.00225679 0.01045488
v 0.05924797 0.05409515 -0.00406447
v 0.06503109 -0.01964655 -0.01866851
v 0.09781529 0.02104736 0.01773924
v 0.08947561 0.00618729 -0.00452905
v 0.02153031 0.06401245 -0.01967934
v 0.08839650 0.02289097 -0.00507732
v -0.05143479 -0.06396357 0.01255679
v 0.06279400 0.02581839 0.02137403
v 0.10210827 0.00546090 0.01078021
v -0.05820949 -0.02135650 -0.02423036
v -0.04443712 0.05747066 -0.00449520
v -0.08379487 0.02299215 -0.00383361
v 0.07475419 0.05445550 0.00929041
v -0.03009856 0.01068835 0.01799965
v -0.00662104 -0.07558354 0.01095601
v -0.07967690 0.03900465 0.01383270
v -0.10836453 0.00567487 0.00099473
v -0.01895933 0.06971289 -0.00899903
v -0.00139283 -0.07646137 0.00235008
v -0.06518899 -0.03808464 -0.02110680
v 0.01027808 -0.07843785 0.01175266
v -0.04393320 0.06096467 0.00909974
v 0.06719244 -0.04720092 -0.00918995
v 0.10622212 0.00794100 0.00915014
v -0.03407135 -0.06522553 0.01461252
f 19 12 22
f 23 10 27
f 5 10 23
f 4 22 12
f 12 1 4
f 4 1 7
f 7 8 4
f 19 22 9
f 23 27 9
f 26 5 11
f 11 5 23
f 10 5 15
f 15 24 10
f 15 5 26
f 26 8 15
f 22 4 25
f 25 4 26
f 26 11 25
f 25 11 23
f 6 8 26
f 26 4 6
f 6 4 8
f 10 24 18
f 18 13 19
f 24 13 18
f 21 9 22
f 21 25 23
f 22 25 21
f 19 13 14
f 14 13 1
f 14 12 19
f 14 1 12
f 7 1 20
f 1 13 20
f 20 13 24
f 20 15 7
f 24 15 20
f 3 8 7
f 7 15 3
f 3 15 8
f 2 9 27
f 27 18 2
f 19 9 2
f 2 18 19
f 16 27 10
f 10 18 16
f 16 18 27
f 23 9 17
f 17 21 23
f 9 21 17

