# https://github.com/mikedh/trimesh
v -0.10423855 -0.00019811 -0.00560591
v 0.08874482 -0.01364526 -0.00625724
v 0.09271275 -0.00298602 -0.00314494
v 0.00097300 -0.02937519 0.00811138
v -0.10642556 0.01867190 0.00058405
v 0.02385485 -0.04139208 -0.00403276
v 0.07950855 0.03575464 -0.00527748
v -0.01712661 -0.00576645 -0.00816225
v 0.05894157 0.02137841 -0.00880810
v -0.06777677 -0.03561844 0.00291751
v 0.02615815 -0.02551543 -0.00921150
v 0.06050037 -0.03066107 -0.00947308
v 0.09778587 0.02112273 0.00288947
v -0.08175364 0.03256903 0.00675567
v -0.09679204 -0.02617452 -0.00554640
v -0.07826733 -0.00825674 -0.00687994
v 0.00999683 0.02770887 -0.00781211
v 0.10228821 -0.00994610 0.00849000
v 0.08839657 0.04102547 0.00287299
v 0.06870953 -0.03628646 -0.00462546
v -0.01689420 -0.03168062 -0.00797533
v 0.06344767 -0.04260839 -0.00079939
v 0.01664286 0.03430066 0.00515474
v 0.10483466 0.00615200 0.00748543
v 0.07400892 -0.02120083 0.00813768
v 0.04473523 0.01144030 -0.00878479
v -0.04833524 0.03580650 -0.00403886
v 0.07219860 -0.04141625 0.00466673
v -0.07662952 -0.00759416 0.00667952
v -0.09014309 0.03346791 -0.00602558
v -0.09818891 -0.02791041 0.00585176
f 22 12 20
f 2 20 12
f 5 31 14
f 14 30 5
f 22 20 28
f 20 2 28
f 9 2 12
f 7 2 9
f 27 19 7
f 7 30 27
f 27 14 19
f 30 14 27
f 13 19 24
f 7 19 13
f 29 14 31
f 24 19 23
f 23 14 24
f 19 14 23
f 31 28 4
f 4 29 31
f 14 29 4
f 18 2 24
f 18 28 2
f 24 14 18
f 14 4 18
f 31 15 10
f 22 28 10
f 10 28 31
f 17 30 7
f 7 9 17
f 17 9 30
f 3 2 7
f 7 13 3
f 24 2 3
f 3 13 24
f 25 4 28
f 28 18 25
f 25 18 4
f 22 10 6
f 6 10 15
f 6 12 22
f 15 16 21
f 12 6 21
f 21 6 15
f 30 16 1
f 1 16 15
f 5 30 1
f 1 31 5
f 1 15 31
f 30 9 8
f 8 16 30
f 11 9 12
f 12 21 11
f 11 21 16
f 16 8 11
f 26 8 9
f 9 11 26
f 26 11 8

