# https://github.com/mikedh/trimesh
v -0.00865098 0.03366475 -0.00106349
v -0.07958086 0.01751058 -0.00234231
v 0.02980627 -0.03576808 -0.00225432
v 0.02285893 0.03459311 -0.00048614
v -0.07430121 0.01330908 0.00364139
v 0.05185079 -0.03616298 0.00222724
v 0.03493914 -0.01209971 0.00501570
v 0.01808475 -0.03831957 -0.00033529
v -0.02241053 -0.03491341 -0.00443469
v -0.05542140 -0.01462511 0.00281557
v 0.04195257 -0.01403547 -0.00473011
v 0.06291629 0.03196791 0.00081746
v -0.06217459 -0.01490267 -0.00118854
v -0.00084163 -0.03691171 0.00354007
v -0.02790352 -0.03446998 0.00002067
v -0.05551498 -0.01537562 -0.00230974
v -0.06552206 -0.00889879 0.00101849
v -0.03613640 0.00434409 -0.00463902
v 0.02917505 0.03140137 -0.00587440
v 0.05664816 0.03064583 0.00320704
v 0.06476395 0.02908557 -0.00258174
v 0.05822715 0.00056976 0.00482892
v 0.00824080 0.03429553 0.00594357
v 0.00602906 -0.00737812 -0.00531712
v -0.00855358 -0.03804003 -0.00475759
f 2 23 1
f 5 23 2
f 2 1 19
f 11 19 21
f 10 13 15
f 23 22 20
f 21 22 6
f 6 11 21
f 23 5 14
f 14 5 10
f 10 15 14
f 8 6 14
f 14 25 8
f 14 15 25
f 2 19 18
f 4 1 23
f 4 19 1
f 16 13 2
f 17 5 2
f 2 13 17
f 10 5 17
f 17 13 10
f 25 15 9
f 9 15 13
f 13 16 9
f 9 16 2
f 2 18 9
f 9 18 25
f 25 11 3
f 11 6 3
f 8 25 3
f 3 6 8
f 7 22 23
f 23 14 7
f 7 6 22
f 7 14 6
f 25 18 24
f 24 18 19
f 24 11 25
f 19 11 24
f 12 22 21
f 12 20 22
f 21 19 12
f 19 4 12
f 23 20 12
f 12 4 23

