# https://github.com/mikedh/trimesh
v -0.02173108 0.06549502 -0.01954724
v 0.05868530 0.06047955 0.00520899
v 0.03221045 0.06894196 -0.00734233
v -0.02101611 -0.06580685 0.02547785
v 0.04699795 -0.05695366 -0.00701101
v 0.07302027 0.02343562 0.01296889
v 0.06912847 0.05118356 0.00772053
v -0.07022023 0.04007625 0.00455185
v -0.07658058 -0.01739925 -0.00350234
v -0.05037676 -0.01906171 -0.02283799
v -0.07657392 0.02755003 0.01398489
v -0.08356246 0.01812506 0.01724997
v -0.03817873 -0.06028263 -0.00660555
v 0.00471210 -0.03551072 0.02299422
v -0.06968484 -0.02384106 -0.02130416
v 0.07499037 -0.03131773 0.00339049
v -0.02677218 -0.06711123 0.01555790
v 0.08357728 -0.00383575 -0.00239082
v -0.08291847 -0.00015015 -0.00219849
v 0.08725432 0.01543880 -0.00338549
v -0.06118138 -0.05420502 -0.00851348
v -0.05479693 0.02475886 0.02116350
v 0.07158476 -0.02395725 -0.01718456
v 0.04929451 -0.05374770 0.00240935
f 20 6 16
f 9 21 12
f 12 19 9
f 15 1 10
f 21 9 15
f 15 9 19
f 17 21 13
f 21 15 13
f 4 16 6
f 12 21 4
f 4 21 17
f 4 22 12
f 22 2 8
f 8 19 12
f 1 15 8
f 8 15 19
f 3 2 20
f 1 8 3
f 3 8 2
f 7 6 20
f 20 2 7
f 7 22 6
f 7 2 22
f 6 22 14
f 14 4 6
f 22 4 14
f 20 16 18
f 23 18 16
f 20 18 23
f 10 1 23
f 23 3 20
f 1 3 23
f 12 22 11
f 11 8 12
f 22 8 11
f 5 23 16
f 5 4 17
f 17 13 5
f 10 23 5
f 5 15 10
f 5 13 15
f 16 4 24
f 24 5 16
f 4 5 24

