# https://github.com/mikedh/trimesh
v -0.03690518 -0.05733912 -0.00050209
v 0.10072224 -0.00301897 0.00820077
v -0.06356133 -0.04800862 -0.00335157
v -0.07863318 -0.02406122 -0.01842542
v 0.08999958 0.02435789 0.02719855
v -0.00972985 -0.07146810 0.02386058
v 0.04988630 -0.04932021 -0.02576392
v 0.02555151 0.06903375 -0.00936074
v 0.08056627 -0.03305108 -0.01982931
v 0.02641456 -0.07685703 0.00972646
v -0.01750123 0.05829604 -0.03021685
v 0.02030242 -0.07214831 0.01606379
v 0.08324367 -0.04340016 -0.00317929
v -0.09269581 0.02208869 -0.00055463
v 0.06818608 0.03901612 -0.00310142
v -0.09757198 -0.01921967 -0.01048192
v -0.07829198 0.05555977 -0.00590500
v -0.01432905 0.07561175 -0.00809775
v -0.06057395 0.05553663 0.01084628
v -0.08538595 0.01421405 0.02053331
f 8 11 18
f 16 11 4
f 11 7 4
f 6 20 16
f 17 11 16
f 18 11 17
f 11 8 15
f 5 8 18
f 5 15 8
f 2 15 5
f 20 6 5
f 16 4 3
f 3 6 16
f 3 4 7
f 16 20 14
f 14 17 16
f 20 17 14
f 9 7 11
f 11 15 9
f 9 15 2
f 2 13 9
f 9 13 7
f 7 13 10
f 20 5 19
f 19 17 20
f 19 5 18
f 18 17 19
f 6 3 1
f 1 10 6
f 1 3 7
f 7 10 1
f 12 5 6
f 6 10 12
f 2 5 12
f 12 13 2
f 12 10 13

