# https://github.com/mikedh/trimesh
v -0.10866472 0.04415525 0.01113378
v 0.10062350 0.01672194 -0.00250696
v 0.06505938 -0.07679522 -0.02150836
v -0.08892108 -0.01934861 0.00253428
v -0.09619141 0.04546794 0.01852917
v -0.03001541 0.06547740 -0.02520148
v 0.09038412 0.05997286 0.00632941
v 0.08762807 -0.06008136 -0.02318255
v -0.05761955 -0.09999173 -0.01197958
v -0.07689083 -0.06319348 -0.01315880
v -0.00496535 -0.10168467 0.02782751
v 0.09988009 0.02290636 -0.00151503
v -0.06037392 0.01516593 0.02549717
v 0.08777535 0.04874827 0.02109524
v 0.04189321 -0.04173766 -0.02971486
v 0.00303692 0.08039599 -0.02404661
v -0.09637038 0.06071934 -0.00136238
v -0.06584838 0.06590351 0.00695681
v 0.02965675 0.07622103 -0.01636969
v 0.08158607 0.09041779 0.02474371
v 0.07494974 0.08556950 0.00415503
v -0.06205331 0.08861980 -0.01593746
v -0.08356950 -0.03864072 -0.02235064
v -0.04274116 -0.07495829 0.02075342
v 0.08936730 0.00776758 0.01539043
v 0.09936141 -0.01484498 0.00381374
f 11 20 13
f 24 9 11
f 11 13 24
f 15 9 23
f 11 9 3
f 3 8 11
f 3 9 15
f 15 8 3
f 14 20 11
f 11 25 14
f 11 8 26
f 26 25 11
f 26 8 2
f 26 14 25
f 7 21 20
f 16 8 15
f 4 24 1
f 9 24 4
f 1 24 5
f 5 24 13
f 5 13 20
f 20 18 5
f 12 7 20
f 20 14 12
f 21 7 12
f 12 26 2
f 14 26 12
f 2 8 12
f 15 23 6
f 6 16 15
f 20 21 22
f 21 16 22
f 22 18 20
f 16 6 22
f 22 5 18
f 22 6 23
f 10 23 9
f 9 4 10
f 1 23 10
f 10 4 1
f 19 16 21
f 21 12 19
f 8 16 19
f 19 12 8
f 17 23 1
f 17 22 23
f 1 5 17
f 5 22 17

