# https://github.com/mikedh/trimesh
v 0.06593847 0.02652480 0.00413111
v -0.02642041 -0.03981777 -0.00746598
v -0.00284449 0.03381374 0.00637273
v -0.02311861 0.03939112 -0.00563028
v -0.04634739 0.04565307 0.00253066
v 0.08495154 0.00598915 -0.00001419
v -0.07306117 -0.03823718 0.00346318
v 0.06878351 -0.00093027 -0.00394334
v 0.07719839 -0.01272604 -0.00312606
v -0.06683020 0.03592794 0.00470686
v 0.07122757 0.03232226 -0.00413173
v -0.04933033 -0.03745759 -0.00348066
v 0.07736049 -0.02658617 -0.00223161
v -0.01188697 -0.02100151 0.00638699
v 0.01100841 -0.04421731 0.00389777
v 0.07557310 0.03132416 0.00119136
v 0.07482714 0.02641878 0.00256077
v -0.05923208 0.03601643 -0.00226352
v 0.08292807 -0.01630707 0.00458984
v -0.05149930 -0.03146833 -0.00737272
v 0.01448261 0.03758704 -0.00383244
v -0.07540572 0.02430517 -0.00531002
v -0.03773059 -0.01984099 0.00666569
f 15 2 13
f 19 13 6
f 15 13 19
f 4 11 2
f 22 4 20
f 20 4 2
f 2 11 8
f 3 19 1
f 12 20 2
f 15 23 7
f 7 2 15
f 7 12 2
f 20 12 7
f 22 20 7
f 14 19 3
f 3 23 14
f 15 19 14
f 14 23 15
f 9 8 11
f 9 11 6
f 6 13 9
f 9 13 2
f 2 8 9
f 17 19 6
f 17 1 19
f 11 4 21
f 21 5 11
f 4 5 21
f 10 23 3
f 3 5 10
f 10 7 23
f 22 7 10
f 18 4 22
f 18 5 4
f 22 10 18
f 18 10 5
f 1 17 16
f 3 1 16
f 16 5 3
f 11 5 16
f 6 11 16
f 16 17 6

