# https://github.com/mikedh/trimesh
v 0.05555448 -0.01536488 0.00488674
v 0.00018360 -0.08681180 0.01703035
v -0.07097241 0.00486789 0.00501392
v -0.03381364 0.01674517 0.01024113
v -0.05474612 0.03909501 -0.00057887
v 0.03854152 -0.05420698 -0.01027139
v -0.02095743 0.07729551 0.00044571
v -0.01190408 -0.04994792 0.01466910
v -0.01803600 0.05592826 -0.01770537
v 0.00889047 0.07962961 -0.01485291
v 0.05648943 0.01448941 0.00723624
v 0.01938321 -0.07925594 0.01179982
v -0.02890886 -0.05637551 0.00228606
v -0.04638174 -0.03209792 -0.01501096
v 0.03172620 0.06173429 0.01145726
v -0.00736454 0.03835502 -0.01807396
v 0.04316694 -0.03555963 -0.01354829
v -0.02634497 0.05607909 -0.01402459
v 0.01645921 0.08459578 -0.00229585
v 0.04676236 -0.06440323 -0.00255004
v 0.05841862 -0.02182629 -0.00915060
v 0.02866143 0.03031538 0.01837765
v -0.02983828 -0.05117267 -0.01176673
v -0.02196310 0.07051797 -0.00802494
v 0.05149999 0.02530230 0.01489736
v -0.03392759 0.04135324 0.00710123
v -0.05466141 0.00165625 -0.01149555
f 22 2 25
f 3 2 8
f 8 2 22
f 4 26 3
f 22 26 4
f 3 8 4
f 4 8 22
f 15 26 22
f 22 25 15
f 9 10 16
f 16 14 9
f 3 26 7
f 19 10 7
f 7 15 19
f 26 15 7
f 13 2 3
f 3 14 13
f 27 14 3
f 9 14 27
f 21 10 11
f 11 10 19
f 19 15 11
f 11 15 25
f 12 25 2
f 2 20 12
f 21 20 17
f 14 16 17
f 17 10 21
f 17 16 10
f 23 20 2
f 2 13 23
f 23 13 14
f 14 17 23
f 24 10 9
f 24 7 10
f 25 12 1
f 1 12 20
f 1 11 25
f 1 20 21
f 21 11 1
f 6 17 20
f 20 23 6
f 6 23 17
f 3 7 5
f 7 24 5
f 5 27 3
f 18 24 9
f 18 5 24
f 9 27 18
f 27 5 18

