# https://github.com/mikedh/trimesh
v -0.00671223 -0.03105604 -0.00451738
v -0.01178760 -0.02922246 -0.00419862
v 0.04140092 0.02314113 0.00456073
v 0.02473686 -0.00332417 -0.00550393
v -0.05037034 -0.00478166 -0.00418103
v 0.04402260 0.02060310 -0.00393614
v -0.01172284 -0.02738675 0.00468719
v -0.01037953 0.03197106 -0.00497840
v -0.04421201 -0.01712641 0.00345084
v -0.05139011 -0.02589770 0.00284297
v -0.03529831 0.03298242 0.00185629
v -0.01395459 -0.03447907 0.00096267
v 0.05873304 0.02225634 0.00319167
v -0.01456073 -0.02451459 0.00534645
v 0.05507295 0.00933259 0.00579104
v -0.01517662 -0.03120264 -0.00289304
v 0.03660733 -0.01370686 0.00499914
v 0.04800885 -0.02544911 0.00314358
v -0.04572011 0.01008461 -0.00458102
v 0.04076299 -0.02601032 -0.00106407
v -0.05885686 0.01831694 0.00126382
v 0.05672766 0.00993819 -0.00501673
v 0.03313927 -0.01418813 -0.00385692
v 0.05266400 -0.02513354 0.00074283
v -0.04589877 -0.02449414 -0.00024217
f 11 8 21
f 13 8 11
f 21 14 11
f 4 8 22
f 13 24 22
f 21 8 19
f 19 8 4
f 20 24 12
f 20 22 24
f 15 24 13
f 15 11 14
f 12 24 18
f 24 15 18
f 6 8 13
f 13 22 6
f 6 22 8
f 1 19 4
f 1 20 12
f 4 22 1
f 9 14 21
f 21 10 9
f 9 10 14
f 13 11 3
f 3 15 13
f 11 15 3
f 12 18 7
f 7 18 14
f 7 10 12
f 14 10 7
f 17 15 14
f 14 18 17
f 17 18 15
f 12 10 16
f 16 1 12
f 19 1 5
f 21 19 5
f 5 10 21
f 22 20 23
f 23 1 22
f 20 1 23
f 1 16 25
f 25 16 10
f 10 5 25
f 2 5 1
f 1 25 2
f 2 25 5

