# https://github.com/mikedh/trimesh
v -0.10534993 0.02901695 0.00148029
v 0.08166242 -0.03814929 0.00190650
v -0.03222959 -0.02864313 0.00481107
v -0.09302224 0.02930146 -0.00706302
v -0.05711061 0.00999078 -0.00776634
v -0.10439907 -0.02861790 -0.00074135
v 0.06468320 0.00435867 0.00836216
v -0.09475419 -0.03304874 0.00281370
v 0.05362224 0.03193557 -0.00402506
v -0.02024187 -0.01661161 -0.00758107
v -0.08747754 0.02990624 -0.00359111
v 0.08307835 -0.02679758 -0.00775192
v 0.00981013 0.00341206 0.00898874
v -0.07908805 -0.03190569 -0.00007026
v 0.00669052 0.01722267 -0.00774808
v 0.01094554 0.00338346 -0.00783856
v 0.04972669 -0.03722931 -0.00578548
v -0.10100100 -0.00915816 -0.00555622
v 0.10927207 0.03635891 0.00791259
v -0.08892198 0.02571116 0.00537296
v -0.08985349 -0.00873077 0.00617176
v 0.09845883 0.01191275 -0.00784072
v 0.04679953 -0.01864180 0.00607953
f 19 2 22
f 4 18 1
f 12 22 2
f 20 19 1
f 1 21 20
f 19 20 13
f 13 20 21
f 1 18 6
f 6 21 1
f 1 19 11
f 11 4 1
f 19 4 11
f 19 22 9
f 9 4 19
f 22 4 9
f 22 12 16
f 7 2 19
f 19 13 7
f 3 13 21
f 17 12 2
f 15 4 22
f 5 16 12
f 18 4 5
f 4 15 5
f 22 16 5
f 5 15 22
f 23 3 2
f 13 3 23
f 2 7 23
f 23 7 13
f 6 17 14
f 21 6 8
f 8 3 21
f 6 14 8
f 2 3 8
f 8 17 2
f 8 14 17
f 10 6 18
f 10 17 6
f 12 17 10
f 18 5 10
f 10 5 12

