# https://github.com/mikedh/trimesh
v 0.06379436 -0.03240645 -0.00509549
v -0.02294243 -0.03648365 -0.00880451
v 0.04960430 -0.00184394 -0.01652886
v -0.01321080 -0.02495189 -0.02091356
v -0.05221869 -0.00673117 -0.00656304
v -0.02392710 -0.01660809 -0.02413843
v 0.06466670 -0.01445180 -0.00728719
v -0.02703675 0.05005653 0.00983592
v 0.05188969 -0.04082914 -0.01937608
v 0.04087409 0.04307907 -0.00245246
v 0.04036792 -0.04867323 -0.00443812
v 0.00043525 0.05595587 -0.01942707
v -0.00809943 -0.04324895 0.02750225
v -0.02337591 -0.05273779 0.00527291
v 0.03520863 0.03759732 -0.01396790
v -0.06228314 0.02757470 0.01694477
v 0.06351171 0.01449771 0.00258596
v -0.06503144 0.01895748 0.01661676
v 0.05621716 -0.04227363 -0.00127606
v 0.01329282 0.06156385 -0.00691651
v 0.04566496 -0.03160366 -0.02002008
v -0.00915277 0.05925981 -0.02130552
v 0.02887267 0.02585604 0.01697099
v -0.00894280 -0.05748825 0.00908581
v -0.06768555 -0.02315322 0.00307075
v 0.00697802 0.04588434 -0.02027050
f 25 13 18
f 18 16 25
f 13 16 18
f 23 16 13
f 13 17 23
f 5 6 25
f 25 16 5
f 22 5 16
f 6 5 22
f 8 23 20
f 16 23 8
f 20 22 8
f 8 22 16
f 1 9 7
f 7 17 1
f 26 15 3
f 7 9 3
f 3 17 7
f 3 15 17
f 10 15 20
f 17 15 10
f 20 23 10
f 10 23 17
f 14 13 25
f 14 24 13
f 9 24 14
f 12 15 26
f 26 22 12
f 20 15 12
f 12 22 20
f 21 22 26
f 26 3 21
f 21 3 9
f 21 9 6
f 6 22 21
f 9 1 19
f 13 24 19
f 19 17 13
f 19 1 17
f 25 6 2
f 2 14 25
f 11 24 9
f 9 19 11
f 11 19 24
f 9 14 4
f 14 2 4
f 6 9 4
f 4 2 6

