# https://github.com/mikedh/trimesh
v 0.06885947 -0.04871130 0.00312847
v 0.00910349 0.06952465 -0.01359597
v -0.05722670 0.01866421 0.01321934
v 0.09302041 -0.04257444 -0.00519459
v -0.02970885 -0.05557958 -0.00317919
v -0.01306280 -0.06487294 0.00797754
v -0.01008970 -0.06550366 0.01188600
v -0.04707475 -0.03767547 -0.00997605
v 0.05164556 -0.01442994 -0.01612705
v -0.06880751 -0.05110883 0.00624423
v 0.07750277 -0.05738650 -0.01155364
v -0.03796258 0.06392598 0.00721304
v -0.02744381 0.04967004 0.01257208
v -0.07471416 -0.02610859 -0.01005698
v -0.00877546 -0.05214573 0.01625026
v -0.03322292 0.07179855 -0.00895830
v 0.03380901 0.03613679 0.01256425
v 0.02569390 0.07618076 -0.00680508
v 0.00924477 -0.06087647 -0.00052894
v 0.08382245 -0.04307546 0.00017159
v 0.06943378 0.01479462 0.00971228
v -0.07281910 0.05153414 0.00980354
v -0.04734205 -0.05640302 0.00472172
f 9 18 4
f 4 18 21
f 2 9 14
f 18 9 2
f 10 22 14
f 15 10 7
f 14 9 8
f 11 9 4
f 11 8 9
f 4 21 20
f 20 11 4
f 15 21 17
f 17 21 18
f 18 12 17
f 14 22 16
f 16 2 14
f 22 12 16
f 18 2 16
f 16 12 18
f 6 7 10
f 19 11 6
f 6 11 7
f 19 6 5
f 5 11 19
f 8 11 5
f 5 10 14
f 14 8 5
f 7 11 1
f 11 20 1
f 15 7 1
f 1 21 15
f 1 20 21
f 15 17 13
f 13 12 22
f 13 17 12
f 23 6 10
f 10 5 23
f 23 5 6
f 15 13 3
f 3 13 22
f 3 10 15
f 22 10 3

