# https://github.com/mikedh/trimesh
v 0.08822994 0.00578879 0.00420360
v -0.06621906 0.02061059 -0.00225263
v 0.09465252 0.02047613 -0.00304626
v 0.08294377 -0.02273118 -0.00173294
v 0.04201041 0.01287675 -0.00426254
v 0.05557392 -0.01100991 -0.00384902
v 0.08393946 0.01712810 -0.00367126
v -0.03970575 -0.02976749 -0.00244152
v -0.07888281 -0.01590932 0.00092455
v -0.02962194 -0.02576339 0.00032946
v -0.07291116 0.02956157 0.00474344
v 0.07628180 -0.02162502 0.00367835
v -0.02095778 0.02188124 -0.00433806
v -0.07852491 -0.02811429 -0.00367506
v 0.01772425 0.02759358 0.00409754
v -0.05318716 -0.03259057 -0.00459102
v -0.06023685 0.00058317 -0.00391974
v -0.05960061 0.00038023 0.00542116
v -0.07218657 -0.02180500 0.00168014
v -0.04673015 0.02985924 -0.00062912
v -0.08126955 -0.01339594 -0.00306494
v -0.08393720 0.01769366 0.00238102
f 19 12 18
f 4 12 16
f 16 13 5
f 22 18 11
f 3 13 20
f 20 15 3
f 20 11 15
f 18 12 1
f 1 11 18
f 15 11 1
f 3 15 1
f 1 4 3
f 12 4 1
f 9 18 22
f 9 19 18
f 22 21 9
f 12 19 10
f 17 13 16
f 6 4 16
f 16 5 6
f 16 12 8
f 12 10 8
f 8 19 16
f 8 10 19
f 14 17 16
f 21 17 14
f 16 19 14
f 19 9 14
f 14 9 21
f 2 20 13
f 13 17 2
f 22 11 2
f 11 20 2
f 2 21 22
f 2 17 21
f 7 6 5
f 7 13 3
f 7 5 13
f 3 4 7
f 4 6 7

