# https://github.com/mikedh/trimesh
v 0.05641530 0.03062239 0.01513704
v -0.03322279 0.03785409 -0.01029037
v 0.03866885 0.04078108 0.01232333
v -0.04245072 -0.05322870 -0.01642557
v -0.04576667 -0.04227828 -0.00363511
v 0.06568699 0.03437737 -0.00812783
v -0.07912128 0.01186125 0.00592938
v -0.05433707 -0.02764019 -0.00988200
v 0.00573955 -0.06769057 -0.00009033
v -0.00013138 0.04828369 -0.01390383
v 0.05913894 -0.02756064 -0.01900820
v 0.06559417 -0.01401917 -0.01714972
v 0.00748661 -0.06422791 0.01934008
v -0.00513725 0.02972549 -0.01908512
v -0.05545626 0.05711432 0.00190822
v -0.01900177 -0.05222920 0.01560017
v 0.04736928 -0.01574961 -0.02518781
v 0.03565217 0.05393660 -0.01051468
v 0.08016796 0.00962233 0.00991700
v -0.00289912 0.03861328 -0.01877433
v -0.03691519 0.03339996 0.01713444
v 0.05446774 -0.03625447 -0.00353902
v -0.00684240 -0.06270604 0.00486703
v -0.04656073 0.05096839 0.01061823
v 0.04985654 0.04678172 0.00273183
v -0.08094085 0.02643562 0.01516151
f 9 4 11
f 11 4 17
f 17 18 6
f 16 13 26
f 16 4 13
f 9 13 23
f 23 4 9
f 13 4 23
f 19 13 22
f 22 11 19
f 22 13 9
f 9 11 22
f 1 13 19
f 12 11 17
f 17 6 12
f 19 11 12
f 12 6 19
f 4 16 5
f 24 15 26
f 20 18 17
f 25 6 18
f 3 1 25
f 19 6 25
f 25 1 19
f 18 15 25
f 25 24 3
f 15 24 25
f 4 5 7
f 7 8 4
f 7 16 26
f 7 5 16
f 26 15 7
f 21 1 3
f 3 24 21
f 21 24 26
f 26 13 21
f 13 1 21
f 15 20 2
f 8 7 2
f 2 7 15
f 4 8 2
f 17 4 14
f 14 20 17
f 4 2 14
f 14 2 20
f 10 15 18
f 18 20 10
f 10 20 15

