# https://github.com/mikedh/trimesh
v -0.03271357 -0.05740404 0.01598738
v 0.06011726 -0.04525674 -0.01137462
v 0.06981155 -0.04506835 -0.00017019
v 0.03537551 0.07015898 -0.00364473
v -0.08525020 0.00235019 0.00162444
v -0.05064653 0.06801903 -0.00757624
v 0.02314037 0.06800948 -0.01617959
v 0.08340692 0.02505108 0.01608998
v 0.02592085 -0.08241346 0.00804629
v -0.06745299 -0.06323466 -0.01239454
v -0.07257843 -0.00918730 0.00834355
v 0.06164026 -0.02274070 -0.01044466
v -0.09085081 0.01640194 -0.00553744
v -0.06839945 -0.04281905 -0.01783563
v 0.05411998 0.07082948 0.01964313
v -0.08356286 -0.01281574 -0.00761799
v 0.02027012 -0.06718635 0.01841830
v 0.02275561 -0.02606555 -0.01962465
v 0.06302457 0.06452170 -0.00161562
f 9 1 10
f 9 10 2
f 2 10 18
f 17 1 9
f 9 2 3
f 8 17 3
f 3 17 9
f 15 17 8
f 1 17 15
f 8 19 15
f 14 6 7
f 14 7 18
f 18 10 14
f 13 6 14
f 14 16 13
f 10 16 14
f 7 19 12
f 18 7 12
f 12 2 18
f 12 19 8
f 8 3 12
f 12 3 2
f 1 15 11
f 11 15 6
f 11 10 1
f 4 19 7
f 4 15 19
f 7 6 4
f 6 15 4
f 13 16 5
f 5 6 13
f 5 11 6
f 5 16 10
f 10 11 5

