# https://github.com/mikedh/trimesh
v 0.05600504 -0.09277988 -0.00443682
v -0.02312327 -0.09908884 0.01328455
v 0.07904266 -0.01791180 0.01409982
v -0.04327064 0.04807820 0.01411771
v 0.11270540 -0.00382829 0.00838204
v -0.11828811 0.02635911 -0.00033336
v 0.07531003 0.08169275 0.01462269
v -0.05227811 0.07553273 -0.00305160
v -0.07385261 -0.05197152 -0.01402034
v 0.06686328 -0.05917387 -0.01154732
v 0.03393521 -0.04620703 -0.01716128
v -0.01134264 0.11053770 -0.01073063
v -0.08647052 -0.06327610 -0.00808420
v -0.02053871 -0.07892249 0.01505638
v 0.06734011 -0.03272769 -0.01447267
v -0.08455628 -0.05575308 -0.01179615
v 0.04945295 0.05977715 -0.01010587
v -0.06462849 -0.07706051 -0.01515619
v 0.06986698 0.06788576 -0.00093727
f 18 12 11
f 2 18 1
f 1 18 11
f 5 7 3
f 3 1 5
f 2 1 3
f 4 7 12
f 13 2 6
f 13 18 2
f 6 12 9
f 12 18 9
f 5 1 10
f 10 1 11
f 11 12 15
f 12 17 15
f 15 10 11
f 5 10 15
f 19 7 5
f 5 15 19
f 19 15 17
f 12 7 19
f 19 17 12
f 8 12 6
f 6 4 8
f 8 4 12
f 14 3 7
f 7 4 14
f 2 3 14
f 6 2 14
f 14 4 6
f 16 13 6
f 6 9 16
f 18 13 16
f 16 9 18

