# https://github.com/mikedh/trimesh
v 0.05852804 0.01259514 -0.00551761
v 0.05146194 0.00828511 0.00402410
v 0.03669702 -0.02616115 0.00846357
v -0.01671785 0.02104854 0.00539631
v -0.00046983 0.01425547 0.00759979
v -0.07254552 0.02266852 0.00206098
v 0.03401945 0.02960261 -0.00370960
v 0.06745787 0.00077583 0.00136037
v 0.05670262 0.01981211 -0.00012694
v 0.07320669 -0.02773695 0.00243425
v -0.06137038 0.01418731 -0.00443556
v 0.05966677 0.01446852 0.00184172
v -0.02041302 0.01460249 -0.00606610
v 0.06534026 0.01161174 -0.00358133
v 0.06864108 -0.02670177 -0.00131540
v 0.02587206 0.03015463 0.00275043
v -0.07360502 -0.00208536 -0.00260549
v -0.02191017 -0.02588219 -0.00343418
v -0.04057973 0.02413559 -0.00420219
v -0.07074304 0.00480863 -0.00551942
v 0.07111768 -0.02370071 -0.00406666
v -0.06961863 0.00182229 0.00683848
v -0.02262701 0.02691514 -0.00119058
v -0.04478748 -0.01421382 0.00334730
v 0.04700565 0.01850049 -0.00700612
v -0.04070384 0.02516843 -0.00092544
v -0.06702448 -0.02022870 -0.00508093
v -0.00549958 -0.01672098 -0.00568082
v -0.07350659 0.00898150 -0.00150522
v 0.01419803 0.02191465 -0.00614095
v 0.02537394 0.01945500 -0.00680522
f 27 22 17
f 17 22 6
f 6 29 17
f 20 27 17
f 17 29 20
f 29 6 20
f 22 3 5
f 2 3 10
f 2 5 3
f 2 12 16
f 16 5 2
f 22 27 24
f 24 3 22
f 27 3 24
f 27 21 18
f 10 3 18
f 18 3 27
f 28 27 25
f 25 21 28
f 28 21 27
f 1 21 25
f 30 7 25
f 19 7 30
f 23 6 16
f 16 7 23
f 23 7 19
f 11 6 19
f 19 20 11
f 11 20 6
f 16 6 4
f 4 5 16
f 4 6 22
f 22 5 4
f 15 21 10
f 10 18 15
f 15 18 21
f 8 2 10
f 12 2 8
f 16 12 9
f 9 7 16
f 13 20 19
f 19 6 26
f 26 23 19
f 6 23 26
f 25 7 14
f 7 9 14
f 14 1 25
f 21 1 14
f 12 8 14
f 14 9 12
f 10 21 14
f 14 8 10
f 19 30 31
f 31 13 19
f 31 30 25
f 20 13 31
f 25 27 31
f 27 20 31

