# https://github.com/mikedh/trimesh
v -0.05784449 0.02054374 0.00391537
v -0.06108532 0.02621791 0.00408274
v -0.07744352 -0.03907376 -0.00339922
v -0.05956468 0.01846006 -0.00227080
v -0.09033043 0.03588214 0.00227378
v 0.05679289 -0.03505622 0.00466288
v -0.08629860 -0.00454955 -0.00295530
v -0.09374228 -0.03266976 -0.00262581
v 0.00704539 -0.01334835 0.00557327
v 0.09077083 0.00994076 0.00526312
v 0.06658698 0.03425738 0.00373410
v -0.08338780 -0.02956650 -0.00430367
v -0.02243629 0.00326525 -0.00448621
v 0.09279984 -0.02339715 -0.00385219
v 0.09509152 0.03146926 -0.00469997
v 0.06026333 -0.03214658 0.00547002
v 0.00503035 0.02582364 0.00446557
v -0.09444072 0.01902590 0.00144952
v 0.09621980 -0.00752292 -0.00234003
v 0.06040879 0.01390660 0.00527806
f 8 9 18
f 6 8 3
f 14 15 19
f 14 6 3
f 10 15 11
f 19 15 10
f 10 14 19
f 18 9 1
f 1 2 18
f 9 2 1
f 11 15 5
f 5 2 11
f 18 2 5
f 7 8 18
f 18 5 7
f 15 14 12
f 12 13 15
f 12 14 3
f 12 7 13
f 3 8 12
f 8 7 12
f 16 10 9
f 9 8 16
f 8 6 16
f 6 14 16
f 14 10 16
f 20 2 9
f 9 10 20
f 20 10 11
f 15 13 4
f 4 5 15
f 13 7 4
f 4 7 5
f 11 2 17
f 17 20 11
f 2 20 17

