# https://github.com/mikedh/trimesh
v 0.05989163 0.06058237 -0.00464604
v -0.05821137 -0.04580352 -0.02207374
v -0.04400022 -0.07862998 0.00719497
v 0.04474164 -0.07896593 -0.00481571
v 0.03369782 -0.02139898 -0.02215005
v -0.05463452 0.06991343 0.00558999
v 0.06416198 -0.05269510 0.00240970
v 0.00978405 0.10144256 -0.00944515
v 0.00646390 -0.10300304 0.01936435
v 0.03737195 0.03695651 0.02174850
v 0.02785742 0.09789381 0.00940983
v -0.05131239 -0.04805433 -0.02313191
v -0.03633211 0.08732822 -0.00809635
v -0.02398393 -0.09328338 0.00210646
v -0.00356292 -0.10052785 0.01261734
v 0.06494204 0.02394661 0.00904632
v 0.03710469 -0.05454634 -0.01495510
v -0.01041660 -0.09272353 0.00075288
v -0.05146636 -0.06706520 -0.00288174
v 0.03522002 0.09455265 -0.00527528
v -0.06426873 0.00697192 -0.01315443
v -0.00211632 -0.05443406 0.02061259
v -0.01539889 0.03696854 0.01652110
v -0.06726166 -0.00335800 0.00620422
v -0.06350944 -0.02717379 0.00039985
f 9 10 22
f 24 3 22
f 22 3 9
f 6 21 24
f 11 10 16
f 3 19 14
f 17 4 12
f 24 21 2
f 12 14 2
f 2 14 19
f 21 6 13
f 13 2 21
f 13 11 8
f 6 11 13
f 13 8 12
f 12 2 13
f 24 22 23
f 23 6 24
f 23 22 10
f 10 11 23
f 23 11 6
f 9 3 15
f 3 14 15
f 15 4 9
f 1 11 16
f 24 2 25
f 25 2 19
f 25 3 24
f 25 19 3
f 4 15 18
f 18 15 14
f 12 4 18
f 18 14 12
f 4 17 7
f 7 1 16
f 9 4 7
f 16 10 7
f 7 10 9
f 8 11 20
f 11 1 20
f 5 7 17
f 1 7 5
f 5 17 12
f 8 20 5
f 5 20 1
f 12 8 5

