# https://github.com/mikedh/trimesh
v 0.06081218 0.03942440 0.01037790
v 0.00209915 -0.05394552 0.02366553
v 0.05674150 -0.05981766 -0.00979007
v 0.04402663 0.03907155 0.01753572
v 0.00519206 0.06204516 -0.02067163
v -0.00705263 -0.06932482 -0.00067528
v -0.05388360 -0.04704384 0.00171987
v 0.06086302 -0.04074441 -0.01771441
v 0.06573235 0.03499419 -0.00460289
v 0.07177111 0.00277545 -0.01372978
v -0.01840694 0.07811195 -0.00038521
v -0.07342327 0.00326283 -0.00835944
v -0.04765001 0.06561256 -0.00525488
v -0.02099103 -0.06586654 0.02188086
v -0.03345338 -0.06431187 -0.02036801
v -0.06357234 -0.04879065 -0.02571874
v 0.06382954 -0.00941103 -0.01828387
v 0.06707197 -0.04855592 0.00058283
v -0.06546694 0.02785852 0.02580361
v 0.02685311 0.06840801 -0.00705315
v 0.07576889 -0.03015835 -0.00057824
v 0.05465695 -0.01894636 -0.02209420
v -0.04892799 0.03196453 0.03136904
v -0.00565462 0.05278743 -0.02762825
v -0.05228093 0.06375470 0.01427483
v 0.07701117 0.00874463 0.02239923
v 0.05738631 0.04282242 0.00365057
v -0.00775895 -0.06077123 0.02212991
f 3 14 6
f 22 16 24
f 24 17 22
f 26 23 2
f 23 14 2
f 12 16 7
f 16 14 7
f 12 25 13
f 13 16 12
f 24 16 13
f 19 25 12
f 23 25 19
f 12 7 19
f 19 14 23
f 19 7 14
f 4 23 26
f 4 25 23
f 10 17 24
f 26 21 10
f 10 9 26
f 16 22 8
f 8 22 17
f 21 3 8
f 17 10 8
f 8 10 21
f 14 3 18
f 18 3 21
f 18 21 26
f 26 2 18
f 26 9 1
f 1 4 26
f 16 8 15
f 15 8 3
f 15 3 6
f 6 14 15
f 15 14 16
f 28 2 14
f 14 18 28
f 28 18 2
f 11 13 25
f 25 4 11
f 24 13 11
f 4 1 20
f 20 11 4
f 27 1 9
f 9 20 27
f 27 20 1
f 24 11 5
f 11 20 5
f 5 20 9
f 5 10 24
f 9 10 5

