# https://github.com/mikedh/trimesh
v 0.07540311 -0.02343339 0.00203453
v -0.04563494 -0.03542970 0.00286481
v 0.02971327 -0.03125386 -0.00469579
v 0.04046439 -0.02586913 0.00386473
v 0.09382361 0.04074109 0.00099958
v -0.10888798 -0.02566065 -0.00228241
v -0.01086319 0.02938156 0.00451628
v 0.02852137 -0.04518858 0.00098062
v 0.08676248 -0.02405362 -0.00396947
v 0.09319775 0.01210096 -0.00430676
v 0.00871027 0.03846401 -0.00371562
v -0.02196571 -0.04010454 -0.00048355
v -0.04967447 0.02150190 -0.00432798
v -0.10844617 0.01232988 -0.00011001
v 0.02438182 -0.03462601 0.00287801
v -0.06252157 0.03608354 0.00180554
v 0.09888263 0.02939381 0.00472099
v -0.09875273 -0.01073865 0.00352418
v -0.08549151 0.00051579 -0.00277719
v 0.09364335 -0.02954153 -0.00068769
v 0.03576243 0.03018493 -0.00538872
v -0.03699682 -0.03019665 0.00375248
v -0.03618471 -0.03978393 0.00077826
v -0.06321556 -0.03402089 0.00312851
v -0.10745604 -0.01239112 0.00003206
v 0.01047946 0.02301457 0.00485197
v -0.09243762 0.02701455 0.00114152
v -0.00924818 0.00930157 0.00517210
v 0.07503513 -0.03039582 -0.00268240
f 12 3 8
f 8 23 12
f 6 3 12
f 12 23 6
f 28 4 17
f 24 23 8
f 24 18 6
f 6 23 24
f 13 3 6
f 21 3 13
f 18 27 14
f 27 13 14
f 8 3 29
f 29 20 8
f 17 4 1
f 1 20 17
f 1 4 8
f 8 20 1
f 26 28 17
f 18 28 7
f 28 26 7
f 17 5 7
f 7 26 17
f 8 4 15
f 4 28 22
f 22 15 4
f 22 28 18
f 18 24 22
f 21 13 11
f 11 13 27
f 11 5 21
f 6 18 25
f 25 14 6
f 18 14 25
f 19 13 6
f 6 14 19
f 19 14 13
f 21 5 10
f 17 20 10
f 10 5 17
f 2 24 8
f 8 15 2
f 2 22 24
f 15 22 2
f 16 11 27
f 5 11 16
f 16 7 5
f 16 27 18
f 18 7 16
f 9 29 3
f 9 3 21
f 21 10 9
f 20 29 9
f 9 10 20

