# https://github.com/mikedh/trimesh
v 0.06178437 -0.00752421 -0.01105686
v -0.03644704 -0.03111317 -0.01868400
v 0.03563774 -0.00552448 -0.02237036
v 0.02436824 0.06706195 -0.00844236
v 0.06365513 0.02657095 0.01061235
v 0.00383026 -0.04048196 0.02450740
v -0.05926622 -0.00133668 -0.01346042
v -0.04681440 0.04498933 0.01578469
v -0.03607759 -0.04479283 -0.01695781
v -0.05746474 0.03528956 0.00446111
v 0.04929155 0.04024359 -0.00416480
v -0.04838391 -0.02757309 -0.01770865
v -0.02760513 -0.06058608 0.01218623
v 0.04256863 -0.06158706 0.00168018
v -0.03182608 0.06841424 0.00405553
v -0.04150114 0.05497366 0.01109523
v 0.04124587 -0.05396960 0.00496268
v 0.04856641 0.04237993 0.01625539
v 0.06120191 -0.01793900 -0.00601632
v -0.05454892 -0.02089150 0.00119949
v -0.05442548 0.02538570 -0.00316270
v 0.03938140 0.03019737 0.02127879
v 0.02225041 0.06838305 -0.01638861
v -0.01274443 0.06755332 -0.01339455
v -0.02341828 -0.07672320 0.00214985
v 0.00883236 -0.06672726 -0.00199043
v -0.05746418 -0.04301697 -0.01459025
f 25 14 6
f 3 9 2
f 1 14 3
f 25 9 26
f 26 14 25
f 26 9 3
f 3 14 26
f 27 9 25
f 22 6 5
f 8 6 22
f 17 14 5
f 5 6 17
f 17 6 14
f 25 6 13
f 13 27 25
f 20 27 13
f 8 20 13
f 13 6 8
f 5 14 19
f 19 1 5
f 14 1 19
f 12 2 9
f 9 27 12
f 12 27 7
f 7 24 12
f 3 2 12
f 10 20 8
f 7 27 10
f 10 27 20
f 8 22 18
f 18 22 5
f 5 4 18
f 24 10 15
f 15 18 4
f 5 1 11
f 21 24 7
f 7 10 21
f 21 10 24
f 16 10 8
f 16 15 10
f 8 18 16
f 18 15 16
f 23 11 1
f 23 1 3
f 23 4 5
f 5 11 23
f 24 15 23
f 23 15 4
f 3 12 23
f 23 12 24

