# https://github.com/mikedh/trimesh
v 0.02883538 -0.02914921 -0.00371450
v -0.10643322 -0.01910686 0.00484613
v 0.08721013 0.01117225 -0.00463449
v -0.10232890 -0.01932435 0.00128680
v 0.10475966 -0.00153121 -0.00374703
v -0.09486462 -0.02666465 0.00081332
v -0.00657259 0.01807486 0.00513414
v -0.10524930 -0.00730887 -0.00117250
v 0.03443933 0.03373384 -0.00292147
v 0.08528373 0.01772349 0.00509456
v -0.07254773 -0.00659470 -0.00432772
v -0.08679308 0.02028780 -0.00129474
v -0.00182518 -0.03737107 -0.00469568
v 0.06176012 -0.03258720 0.00388167
v 0.09483308 0.03699426 -0.00416993
v 0.05415279 -0.03494030 0.00260880
v -0.04364498 0.03371027 0.00163220
v -0.08655380 0.02640698 -0.00006851
v -0.07494732 -0.03531884 -0.00104736
v 0.01017858 0.03746212 0.00008665
f 2 10 7
f 14 10 2
f 5 10 14
f 15 10 5
f 20 10 15
f 17 10 20
f 17 7 10
f 2 7 17
f 5 14 16
f 13 16 19
f 19 14 2
f 19 16 14
f 11 8 12
f 12 15 11
f 13 19 11
f 11 19 8
f 5 13 3
f 3 15 5
f 13 11 3
f 3 11 15
f 20 15 9
f 9 15 12
f 1 13 5
f 5 16 1
f 1 16 13
f 6 19 2
f 8 19 6
f 18 9 12
f 2 17 18
f 18 17 20
f 20 9 18
f 18 8 2
f 12 8 18
f 2 8 4
f 4 6 2
f 8 6 4

