# https://github.com/mikedh/trimesh
v 0.07472417 -0.05790573 -0.02396887
v 0.09127528 0.02786029 0.02081426
v 0.09277216 -0.03145817 0.00314899
v -0.06917761 0.05594678 0.01833574
v 0.01658247 0.08010732 -0.01422896
v -0.06607229 0.05372038 0.02123623
v -0.06307536 -0.06206950 -0.01201284
v 0.09425241 -0.03508955 -0.02438894
v -0.09187908 -0.04857609 -0.00087218
v 0.08635206 0.03974291 0.02304551
v -0.08067839 -0.02242614 -0.02719609
v -0.08030239 0.05720946 0.00033042
v 0.11833104 0.01948631 0.01265397
v 0.03360118 -0.08226487 0.01678291
v -0.10644074 -0.03399477 -0.00112115
v 0.01829710 0.08839109 -0.01251302
v 0.00654908 -0.07521217 0.01973809
v -0.11157619 0.04948791 0.01756995
f 13 16 10
f 12 11 18
f 18 16 12
f 12 16 11
f 14 10 17
f 2 14 13
f 13 10 2
f 2 10 14
f 6 10 16
f 18 17 6
f 6 17 10
f 18 11 15
f 15 17 18
f 9 17 15
f 13 14 3
f 14 1 3
f 8 1 11
f 8 16 13
f 13 3 8
f 8 3 1
f 11 1 7
f 7 15 11
f 9 15 7
f 7 1 14
f 14 17 7
f 7 17 9
f 4 16 18
f 18 6 4
f 4 6 16
f 11 16 5
f 5 8 11
f 16 8 5

