# https://github.com/mikedh/trimesh
v 0.01951029 0.02634724 -0.00613795
v 0.01859774 -0.02458132 0.00574229
v -0.00148373 -0.03646361 -0.00583624
v 0.09508662 0.03610461 0.00530400
v -0.05464106 0.02697395 -0.00530953
v -0.01182332 -0.03051333 0.00551853
v 0.02908265 -0.03421851 -0.00703725
v -0.11680887 0.00074661 -0.00306608
v -0.10959042 -0.02050483 0.00361741
v -0.10788366 -0.03717089 0.00581439
v 0.11048098 0.01763186 0.00566658
v 0.08078397 -0.00985979 0.00543027
v -0.00327594 0.03815468 0.00550409
v 0.10900114 0.00203407 -0.00668814
v -0.03186707 0.03912608 -0.00585468
v 0.11716051 -0.03377822 -0.00124791
v 0.11084758 -0.02655620 -0.00525106
v -0.09712509 0.03759053 0.00506256
v -0.08678427 -0.02232540 -0.00649715
v 0.06010602 -0.01640477 -0.00702540
v 0.10493917 -0.03304074 -0.00640037
f 18 15 8
f 2 11 10
f 8 15 5
f 19 10 8
f 8 5 19
f 19 5 15
f 16 10 3
f 10 19 3
f 3 19 7
f 8 10 9
f 9 18 8
f 10 18 9
f 14 4 11
f 14 11 16
f 6 10 16
f 16 2 6
f 6 2 10
f 16 11 12
f 12 2 16
f 11 2 12
f 11 4 13
f 10 11 13
f 13 18 10
f 15 18 13
f 13 4 15
f 15 14 20
f 20 19 15
f 7 19 20
f 15 4 1
f 1 14 15
f 4 14 1
f 16 3 21
f 21 3 7
f 7 20 21
f 21 20 14
f 17 14 16
f 16 21 17
f 17 21 14

