# https://github.com/mikedh/trimesh
v -0.04222891 -0.06546979 -0.00596619
v 0.07044697 -0.00588311 0.01230199
v -0.04944481 0.03563987 0.01980746
v 0.06468590 -0.05150743 -0.00991003
v -0.07259845 -0.03907064 -0.01879574
v -0.08414958 0.02816918 0.01501062
v -0.03113373 -0.05520072 0.02177945
v -0.04295115 0.03949907 0.01881060
v -0.01985911 -0.06436356 0.02201740
v 0.03169392 0.01983243 0.02578846
v 0.07202957 0.02169797 0.02537504
v -0.04600533 -0.06205309 0.00834478
v -0.08500320 -0.01219866 0.00308892
v 0.04684015 0.06568748 -0.00813362
v -0.01977385 -0.06467977 0.01179922
v 0.05600278 0.06172418 0.01057661
v 0.00469457 0.07028300 -0.02149185
v -0.00932834 -0.04793605 0.02797203
v 0.07978721 -0.03659083 -0.02607710
v 0.00375416 0.07138327 -0.01377561
v -0.06666443 0.04490604 0.00207277
f 19 5 17
f 17 21 20
f 5 21 17
f 1 5 19
f 14 17 20
f 19 17 14
f 18 2 11
f 11 2 19
f 6 5 13
f 6 21 5
f 18 3 6
f 4 1 19
f 19 2 4
f 4 2 18
f 13 5 12
f 5 1 12
f 10 3 18
f 18 11 10
f 16 14 20
f 19 14 16
f 16 11 19
f 1 4 15
f 11 16 8
f 3 10 8
f 8 10 11
f 8 16 20
f 20 21 8
f 8 6 3
f 21 6 8
f 18 6 7
f 7 6 13
f 13 12 7
f 9 12 1
f 1 15 9
f 9 7 12
f 18 7 9
f 9 4 18
f 9 15 4

