# https://github.com/mikedh/trimesh
v 0.09054379 -0.00884377 -0.01759395
v 0.04919607 -0.04621598 -0.01988293
v -0.08489950 -0.00957616 0.00642648
v 0.02104789 0.08106496 0.00061369
v -0.02078259 0.05412605 -0.02326355
v -0.07922446 0.02475186 0.01734216
v -0.04115330 -0.06455244 0.02162672
v 0.06280823 -0.05511532 -0.01140957
v -0.01058083 -0.02939825 0.03338289
v 0.08898302 -0.03091781 -0.02470781
v 0.02805054 -0.00964688 -0.02900229
v 0.00676778 0.08702514 -0.00573089
v 0.04536396 0.03446844 0.02878516
v -0.03521443 0.08673837 -0.01916493
v -0.00056795 -0.08017564 0.00178572
v -0.05682927 -0.05815042 0.00654864
v -0.06213668 0.01167005 0.02218586
v -0.06685657 -0.00486605 -0.02072590
v -0.04261385 0.04287343 0.01753816
v 0.07507427 -0.05037012 -0.00268766
v -0.08427357 0.02323213 0.00064076
v 0.01720733 -0.07654657 0.01190251
v -0.06037227 -0.05058575 -0.01764957
v -0.07821933 0.03388733 0.01492187
v 0.05282609 0.04909195 -0.00419353
v 0.09374180 -0.01311534 0.00564806
v -0.01986099 -0.06464576 0.02797874
v -0.05939356 -0.01865837 -0.02170384
v -0.04217219 -0.00339749 -0.02602037
v 0.01165447 -0.06800360 0.02444502
f 1 14 12
f 12 14 24
f 26 13 30
f 10 23 11
f 11 14 10
f 14 1 10
f 10 1 26
f 21 24 14
f 25 1 12
f 12 4 25
f 26 1 25
f 25 4 13
f 25 13 26
f 13 4 19
f 19 17 13
f 12 24 19
f 19 4 12
f 11 23 29
f 13 17 9
f 9 30 13
f 3 23 16
f 16 23 15
f 15 23 2
f 23 10 2
f 6 19 24
f 17 19 6
f 6 21 3
f 24 21 6
f 5 14 11
f 11 29 5
f 5 29 14
f 18 21 14
f 14 29 18
f 18 23 3
f 3 21 18
f 7 16 15
f 3 16 7
f 7 6 3
f 17 6 7
f 20 10 26
f 30 22 20
f 26 30 20
f 15 2 8
f 8 2 10
f 10 20 8
f 8 22 15
f 8 20 22
f 28 29 23
f 23 18 28
f 28 18 29
f 27 9 17
f 17 7 27
f 30 9 27
f 27 22 30
f 15 22 27
f 27 7 15

