# https://github.com/mikedh/trimesh
v 0.00484832 -0.02209709 0.00483954
v -0.02626706 0.03021769 0.00479687
v 0.05331066 -0.01775968 0.00469357
v 0.04690141 -0.02397710 -0.00499180
v 0.02627468 -0.03888182 0.00243301
v -0.05316887 -0.02697595 0.00235612
v 0.01777162 0.04401248 0.00309653
v 0.01042171 -0.00433104 -0.00527595
v 0.05108584 0.03839712 -0.00534391
v 0.04138329 0.04388943 0.00207449
v -0.03487958 0.03238058 -0.00239887
v -0.04871234 0.01238053 0.00441361
v 0.01281455 0.03669024 0.00465738
v -0.03226368 -0.02604859 0.00485671
v -0.05010943 -0.03476751 0.00443638
v 0.03904917 -0.03523064 0.00215660
v 0.05300174 -0.03581625 0.00004634
v 0.05011381 0.04469252 0.00001042
v -0.05554638 -0.03878980 -0.00508980
v -0.03433550 -0.03842266 -0.00379369
v 0.05236629 -0.02316047 -0.00357308
v -0.04297108 -0.04360408 0.00420988
v -0.02343045 0.03203057 -0.00336489
v -0.05187571 0.03427115 0.00070203
v 0.04053617 0.03406180 0.00294332
v -0.01411130 0.04307915 0.00070912
v 0.02788859 -0.03648809 -0.00138749
f 6 24 19
f 24 6 12
f 19 24 11
f 11 23 19
f 25 13 3
f 3 13 2
f 2 12 14
f 24 12 2
f 13 7 2
f 9 21 4
f 9 18 3
f 3 21 9
f 19 23 9
f 17 21 3
f 4 21 17
f 15 22 14
f 14 12 15
f 15 12 6
f 19 22 15
f 15 6 19
f 26 7 18
f 18 9 26
f 24 2 26
f 26 2 7
f 26 11 24
f 23 11 26
f 26 9 23
f 18 7 10
f 3 18 10
f 10 25 3
f 13 25 10
f 10 7 13
f 3 2 1
f 1 2 14
f 1 22 3
f 14 22 1
f 8 4 19
f 19 9 8
f 8 9 4
f 16 17 3
f 5 22 19
f 19 20 5
f 17 16 5
f 3 22 5
f 5 16 3
f 27 5 20
f 17 5 27
f 27 20 19
f 19 4 27
f 4 17 27

