# https://github.com/mikedh/trimesh
v 0.04896819 -0.04086769 -0.00183580
v -0.07130987 -0.03529674 0.00074786
v -0.08558631 -0.02203731 -0.00409242
v -0.06398547 0.01900307 0.00305943
v 0.02602800 0.03354165 -0.00360310
v -0.07629220 0.03208755 0.00144038
v 0.05310394 -0.04084696 0.00125654
v 0.08061314 0.03113040 0.00496938
v 0.07840746 -0.03327930 -0.00255150
v 0.01006560 -0.03540470 0.00357843
v -0.06101308 -0.02823263 0.00282293
v -0.07350196 0.03582803 -0.00410507
v -0.05775687 0.02354533 -0.00421297
v -0.04411670 0.03717998 0.00186129
v 0.06916071 0.03537627 0.00351427
v 0.07947395 -0.00186644 0.00462827
v 0.07440137 0.03446676 -0.00158014
v -0.08395051 0.00757009 -0.00292172
v -0.08125620 0.00287028 0.00167371
v 0.04564740 -0.03051580 0.00368246
v -0.08031951 0.01650675 0.00154956
v 0.06532504 0.01559219 0.00510219
v -0.01368523 0.03071144 0.00428706
v 0.03206101 0.01275369 0.00482657
v 0.07545543 0.01985602 -0.00412805
v 0.04156042 -0.03664313 0.00256667
v -0.03300202 -0.01898511 0.00368026
v -0.07615471 -0.03040681 0.00085356
f 3 13 25
f 3 1 2
f 9 25 8
f 9 1 3
f 3 25 9
f 7 2 1
f 1 9 7
f 19 18 3
f 12 25 13
f 12 18 6
f 12 13 3
f 3 18 12
f 20 7 16
f 16 9 8
f 16 7 9
f 20 16 10
f 11 2 10
f 2 7 10
f 4 19 11
f 3 2 28
f 28 19 3
f 28 2 11
f 11 19 28
f 6 18 21
f 18 19 21
f 21 4 6
f 19 4 21
f 8 25 17
f 14 12 6
f 14 17 12
f 11 10 27
f 27 10 24
f 27 4 11
f 26 7 20
f 20 10 26
f 26 10 7
f 24 10 22
f 22 10 16
f 22 16 8
f 25 12 5
f 5 17 25
f 12 17 5
f 8 17 15
f 17 14 15
f 23 27 24
f 4 27 23
f 6 4 23
f 23 22 8
f 24 22 23
f 23 14 6
f 8 15 23
f 23 15 14

