# https://github.com/mikedh/trimesh
v 0.03151327 -0.06834890 0.02052045
v -0.06944417 0.04867203 0.01627154
v 0.02795801 0.04502611 -0.01086990
v -0.00651645 0.03912634 -0.01399376
v -0.03349282 0.06193195 -0.01081662
v -0.02981019 -0.03805010 0.01522277
v -0.09379544 0.04368203 0.01080700
v -0.08844922 -0.04328805 -0.01440174
v -0.08602658 0.04205947 -0.00110601
v -0.06382964 -0.04479434 0.00464396
v -0.03537957 0.06142826 0.00449510
v 0.03342749 0.06934216 0.00422757
v 0.10733449 -0.00162407 -0.00303777
v 0.05320355 0.05688263 -0.00211202
v 0.09773210 -0.01203806 -0.01159878
v 0.00211590 0.04505118 -0.01248970
v -0.06390341 -0.06186416 -0.01715556
v -0.08144231 -0.01957027 0.00100094
v -0.09585407 0.02973751 0.00549918
v -0.00035301 -0.05669523 0.01668836
v 0.08937205 -0.02922030 -0.01572147
v 0.09774981 0.04094919 0.00190547
v -0.01547483 0.06639075 0.00042117
v -0.05714267 0.03655839 0.01908978
f 17 1 10
f 8 5 17
f 17 10 8
f 13 1 21
f 21 1 17
f 1 24 6
f 24 7 6
f 6 7 10
f 9 8 19
f 5 8 9
f 19 7 9
f 9 7 5
f 19 8 18
f 18 8 10
f 18 7 19
f 10 7 18
f 17 5 4
f 4 21 17
f 4 3 21
f 20 10 1
f 1 6 20
f 20 6 10
f 5 3 16
f 16 4 5
f 3 4 16
f 21 3 15
f 13 21 15
f 5 7 11
f 14 3 5
f 5 12 14
f 23 12 5
f 5 11 23
f 23 11 12
f 24 12 2
f 12 11 2
f 2 7 24
f 2 11 7
f 22 14 12
f 22 12 24
f 13 15 22
f 22 15 3
f 3 14 22
f 22 1 13
f 22 24 1

