# https://github.com/mikedh/trimesh
v 0.05750183 -0.01761846 -0.02068530
v 0.04255047 -0.09140444 -0.01304144
v -0.01149056 -0.06555024 0.02014386
v 0.00542040 0.05714941 -0.02575163
v 0.08308936 0.06429251 0.01280314
v 0.10617393 0.01937255 0.00428850
v 0.08679483 0.05849570 0.01500153
v 0.09930593 -0.00783822 -0.01445399
v 0.01535124 0.08752412 0.00238342
v -0.10673100 -0.00191037 -0.01550528
v -0.06502054 -0.01325738 -0.02227177
v 0.04359655 0.06050073 -0.01242706
v 0.09679148 -0.02730744 -0.00298911
v 0.00265396 0.07425734 -0.01690405
v 0.08565911 -0.06922018 -0.00605187
v -0.08947337 0.05986189 0.01605402
v -0.01738074 0.05509084 -0.02769416
v -0.07636288 -0.05256755 -0.00456996
v -0.04004486 -0.07052312 -0.00650698
v -0.07387950 0.02834140 0.02257388
v -0.10999877 -0.04362140 0.00048522
v 0.03212292 -0.03833567 -0.02232423
v 0.06842841 0.03622691 0.02572594
v -0.00998664 -0.04322962 0.02673778
f 16 10 21
f 17 10 16
f 3 24 21
f 11 10 17
f 21 10 11
f 11 18 21
f 9 12 14
f 14 16 9
f 17 16 14
f 5 12 9
f 9 16 5
f 16 23 5
f 6 8 5
f 5 8 12
f 24 23 20
f 20 23 16
f 21 24 20
f 20 16 21
f 19 3 21
f 2 3 19
f 21 18 19
f 19 11 2
f 18 11 19
f 22 11 17
f 2 11 22
f 12 8 4
f 17 14 4
f 4 14 12
f 2 8 15
f 6 23 15
f 15 3 2
f 15 23 24
f 24 3 15
f 7 23 6
f 6 5 7
f 7 5 23
f 1 8 2
f 2 22 1
f 1 4 8
f 1 22 17
f 17 4 1
f 13 8 6
f 6 15 13
f 13 15 8

