# https://github.com/mikedh/trimesh
v 0.00452323 -0.08207398 0.01074240
v 0.07635254 0.06493342 -0.00152625
v -0.00653151 0.07292148 -0.01480195
v -0.06388239 0.04605495 0.01415332
v -0.07338225 0.00410844 0.01017762
v -0.04487775 0.04518585 0.02402372
v 0.04949148 -0.06618465 0.00149767
v -0.08478379 -0.02364064 -0.00761143
v 0.06847535 0.03606758 0.01244639
v -0.02587817 -0.00028654 -0.02047014
v -0.08011220 0.03155369 0.00999206
v 0.03054904 0.06180928 0.00611199
v -0.00974080 0.07333008 -0.00556510
v 0.04338036 0.03182996 0.01676070
v -0.05828262 0.01507869 -0.01242441
v -0.04078784 -0.06396688 0.00425344
v 0.06440354 -0.04173110 -0.01803544
v 0.08207258 0.03019285 0.00373568
v -0.06775836 -0.05453348 -0.01018362
v 0.01213462 -0.07711908 -0.00090910
v -0.05580987 -0.03188035 -0.01863240
v 0.03420262 -0.07053755 0.01409510
v -0.03461626 0.06120961 0.01480291
v -0.08469979 0.00268885 -0.00148774
f 1 6 5
f 22 6 1
f 18 17 2
f 11 5 6
f 8 5 11
f 6 22 14
f 7 22 1
f 7 17 18
f 18 22 7
f 1 19 20
f 20 19 17
f 20 7 1
f 17 7 20
f 1 5 16
f 16 19 1
f 16 5 8
f 8 19 16
f 23 2 13
f 21 19 8
f 17 19 21
f 21 10 17
f 13 2 3
f 3 2 17
f 17 10 3
f 18 2 9
f 9 22 18
f 9 14 22
f 9 2 6
f 6 14 9
f 6 2 12
f 12 23 6
f 2 23 12
f 4 23 13
f 13 3 4
f 4 3 11
f 4 11 6
f 6 23 4
f 11 3 15
f 15 21 8
f 10 21 15
f 15 3 10
f 8 11 24
f 24 15 8
f 11 15 24

