# https://github.com/mikedh/trimesh
v 0.02205512 0.07903514 -0.01087840
v -0.00531355 -0.08304016 0.01083533
v 0.07904076 0.03870542 0.01385059
v -0.06010190 -0.01746157 -0.01726495
v 0.09452250 -0.01214109 -0.00315184
v 0.04980783 -0.05678728 0.00941778
v 0.06253968 0.06639565 0.00461676
v -0.04688968 0.02600417 0.01224282
v 0.08330396 -0.02601358 0.00095438
v -0.00963025 0.06181632 0.00024243
v -0.04153790 -0.06378381 0.00225013
v -0.10225827 -0.02681384 0.00221401
v -0.01230297 0.06125226 -0.01448135
v -0.10870149 0.03399646 0.00844146
v 0.06607002 0.06327739 0.00764002
v -0.07522949 -0.04691515 -0.00404425
v 0.01099277 0.05784020 -0.01753299
v 0.09176283 0.01599041 -0.00545576
v 0.01287965 -0.08065269 0.01766487
v 0.09709229 0.01602503 0.00803320
v 0.09582697 0.02172192 0.00822773
v 0.08313640 -0.02721322 -0.01826708
v -0.05094881 -0.01057448 -0.01937499
v -0.06999641 -0.04344586 -0.00754962
f 12 19 14
f 2 19 12
f 22 19 2
f 13 23 14
f 14 1 13
f 24 22 2
f 10 1 14
f 10 7 1
f 3 19 20
f 18 22 1
f 1 7 18
f 1 22 17
f 17 13 1
f 17 22 23
f 23 13 17
f 2 12 16
f 12 24 16
f 4 24 12
f 14 23 4
f 4 12 14
f 23 22 4
f 22 24 4
f 20 9 5
f 5 9 22
f 5 18 20
f 22 18 5
f 19 22 6
f 22 9 6
f 20 19 6
f 6 9 20
f 21 3 20
f 20 18 21
f 21 18 7
f 14 19 8
f 8 3 14
f 19 3 8
f 11 24 2
f 2 16 11
f 11 16 24
f 15 21 7
f 3 21 15
f 14 3 15
f 15 10 14
f 7 10 15

