# https://github.com/mikedh/trimesh
v -0.06176511 -0.01234547 -0.01591125
v -0.01108570 0.08855499 -0.01577536
v 0.02085263 -0.09465124 0.01455032
v -0.06135341 -0.01823843 -0.00043070
v -0.02092549 -0.07597834 0.00985281
v 0.04636733 0.02299161 0.01477282
v 0.04120043 0.05926925 0.01279951
v 0.01860455 0.07561986 -0.00156562
v -0.07421698 0.00045046 0.00850559
v -0.06963376 0.02121527 0.00393518
v -0.02005089 0.09022630 -0.01894633
v -0.00872862 -0.07917891 0.00243633
v 0.05667723 0.04627864 0.00063150
v -0.02473044 -0.07287740 0.01792096
v 0.06951130 -0.03391661 0.00030312
v -0.02659410 0.08919491 -0.01233750
v 0.04626227 -0.09406245 0.00488269
v 0.06750835 -0.04220888 -0.02746561
v 0.04032001 0.04248110 0.01830152
v 0.02867982 -0.10801931 -0.00043859
v -0.02220530 0.10218614 0.00231112
v -0.06841926 0.06765445 0.01984231
f 18 20 1
f 1 11 18
f 15 19 6
f 9 1 4
f 21 11 16
f 16 22 21
f 11 22 16
f 12 1 20
f 19 22 14
f 14 22 9
f 9 4 14
f 11 1 10
f 10 22 11
f 10 1 9
f 9 22 10
f 15 18 13
f 13 19 15
f 3 14 20
f 3 6 19
f 19 14 3
f 5 12 20
f 20 14 5
f 1 12 5
f 5 4 1
f 5 14 4
f 19 13 7
f 21 22 7
f 7 22 19
f 7 8 21
f 13 8 7
f 17 3 20
f 17 18 15
f 17 20 18
f 15 6 17
f 6 3 17
f 2 8 13
f 18 11 2
f 2 13 18
f 2 11 21
f 21 8 2

