# https://github.com/mikedh/trimesh
v 0.05138286 -0.03879856 -0.00470868
v -0.05618998 -0.02614851 -0.00542946
v 0.07032931 0.01062222 -0.00777837
v -0.06510223 0.02711315 0.00124273
v -0.06621405 0.01799178 0.00743819
v 0.01674129 -0.01329352 0.00813561
v -0.00745532 0.01156236 0.00937499
v -0.06701919 -0.02621182 0.00291495
v -0.05866416 0.01184511 -0.00539980
v -0.06614572 -0.02486934 -0.00413416
v -0.03892634 0.03722710 0.00677742
v 0.03761453 -0.02329608 -0.00668142
v 0.00627523 -0.01196097 -0.00695277
v 0.06747588 -0.01090090 -0.00171908
v -0.06663838 -0.01128340 -0.00352122
v 0.01743277 0.02883365 0.00770624
v 0.00907881 -0.02751085 0.00696445
v 0.07161601 -0.00921909 -0.00661212
v 0.00656371 0.03440702 0.00494305
v 0.05186399 0.03105391 0.00094959
v 0.03654788 0.01514057 0.00693318
v 0.04164885 -0.03148155 0.00056008
v -0.04817208 0.03442795 0.00482403
v 0.03645725 0.03120409 0.00485307
v -0.05152819 0.02574922 -0.00618816
v 0.01303698 -0.01206702 0.00845337
v 0.00138437 0.01888448 -0.00743621
v 0.05574352 0.02325355 0.00484712
v 0.06247157 -0.02633572 -0.00567140
f 5 7 11
f 8 17 5
f 11 7 16
f 20 25 11
f 6 14 28
f 23 5 11
f 23 4 5
f 11 25 23
f 25 4 23
f 8 5 15
f 5 4 15
f 3 20 28
f 3 14 18
f 28 14 3
f 19 20 11
f 24 16 28
f 28 20 24
f 20 19 24
f 11 16 24
f 24 19 11
f 17 6 26
f 7 5 26
f 26 5 17
f 22 6 17
f 14 6 22
f 2 13 12
f 12 3 18
f 13 3 12
f 9 4 25
f 9 15 4
f 25 2 9
f 10 2 8
f 8 15 10
f 10 9 2
f 15 9 10
f 25 20 27
f 20 3 27
f 27 3 13
f 27 2 25
f 27 13 2
f 21 16 7
f 7 26 21
f 28 16 21
f 21 6 28
f 21 26 6
f 2 12 1
f 8 2 1
f 1 17 8
f 1 22 17
f 14 22 1
f 29 12 18
f 29 1 12
f 18 14 29
f 14 1 29

