# https://github.com/mikedh/trimesh
v -0.00415465 0.01054732 0.00483543
v 0.05781877 -0.03575282 0.00116825
v -0.05070436 -0.00415968 0.00485044
v -0.04835528 0.03503401 0.00491347
v -0.05196344 0.03871117 0.00191622
v 0.02903564 0.03157480 -0.00415183
v -0.02704479 0.04502220 0.00390751
v 0.03051140 -0.04085542 -0.00451136
v -0.05022395 0.04192995 -0.00296515
v -0.03336970 0.04314943 -0.00392092
v 0.02935527 0.01345782 0.00379286
v -0.04293848 -0.02806628 -0.00426722
v -0.05276817 -0.00435435 -0.00368590
v 0.05928137 0.01643966 0.00276647
v -0.05845122 -0.02999800 0.00156531
v -0.01491560 -0.00407290 -0.00451354
v 0.05167035 -0.02895093 -0.00410983
v 0.04930467 0.03648591 -0.00317820
v 0.04624215 -0.04210876 -0.00121731
v -0.04799158 0.01987827 -0.00438818
v -0.02991935 0.04798078 0.00330456
v -0.03678757 -0.04327356 -0.00346219
v -0.05640556 -0.03301658 0.00434497
v 0.05640699 -0.02926783 -0.00191838
v 0.04363474 -0.04037231 0.00398882
v 0.04820757 0.03811033 0.00078551
v 0.01237837 0.04297531 -0.00168903
f 22 23 15
f 19 17 2
f 15 23 5
f 5 9 15
f 21 9 5
f 12 22 15
f 21 5 4
f 4 5 23
f 14 2 24
f 24 2 17
f 19 2 25
f 25 11 1
f 25 22 19
f 23 22 25
f 25 2 14
f 14 11 25
f 16 12 20
f 20 6 16
f 22 12 8
f 19 22 8
f 8 17 19
f 8 12 16
f 16 6 8
f 8 6 17
f 3 4 23
f 1 4 3
f 23 25 3
f 3 25 1
f 1 11 7
f 7 4 1
f 7 11 14
f 21 4 7
f 26 27 21
f 26 7 14
f 21 7 26
f 13 12 15
f 13 20 12
f 15 9 13
f 9 20 13
f 10 20 9
f 6 20 10
f 10 9 21
f 21 27 10
f 17 6 18
f 27 26 18
f 18 24 17
f 18 26 14
f 18 10 27
f 6 10 18
f 14 24 18

