# https://github.com/mikedh/trimesh
v 0.02732361 0.04130491 0.00426787
v -0.04175698 -0.03497458 -0.00368267
v 0.03612469 0.03680938 0.00000926
v -0.00783203 -0.02852966 0.00439666
v -0.02283019 0.03525712 -0.00364584
v 0.05977969 -0.03400037 -0.00044545
v -0.01402505 -0.04601673 0.00009615
v -0.04585439 0.01968997 -0.00532585
v 0.06801617 0.03302963 0.00478398
v -0.07365606 0.01638838 -0.00220320
v 0.06178005 -0.03395917 -0.00547052
v -0.02980049 -0.03179849 -0.00431962
v -0.06902640 0.03103228 0.00581695
v -0.06612136 -0.02552395 -0.00378286
v 0.07386211 0.00545528 -0.00046309
v 0.02155271 -0.03973041 0.00404284
v 0.07362018 0.00833287 0.00149673
v 0.07337860 0.01521246 -0.00080883
v -0.05804583 -0.03791120 0.00365225
v 0.07416257 -0.01738783 0.00192275
v -0.06521597 0.04203373 0.00313156
v 0.06157882 -0.01858808 0.00338456
v 0.04692955 0.01524950 0.00538675
v -0.05657120 -0.03305039 -0.00356192
v -0.06274477 -0.00229163 -0.00506237
v -0.05773224 0.03443389 -0.00489374
v -0.00461005 0.03532044 0.00563456
v 0.03651335 -0.04455779 -0.00171701
v 0.05878090 0.02847488 -0.00542536
v -0.04731980 -0.01086596 -0.00588460
f 19 13 10
f 14 19 10
f 2 28 7
f 11 28 2
f 16 19 7
f 7 28 16
f 10 13 21
f 21 26 10
f 20 11 15
f 11 18 15
f 17 9 20
f 17 18 9
f 20 15 17
f 17 15 18
f 29 18 11
f 11 30 29
f 9 18 29
f 13 23 27
f 27 23 9
f 27 21 13
f 20 16 6
f 6 16 28
f 6 11 20
f 6 28 11
f 22 16 20
f 23 16 22
f 20 9 22
f 9 23 22
f 13 19 4
f 19 16 4
f 4 23 13
f 4 16 23
f 25 30 14
f 26 30 25
f 25 14 10
f 10 26 25
f 11 2 12
f 12 30 11
f 14 30 24
f 19 14 24
f 24 12 2
f 30 12 24
f 7 19 24
f 24 2 7
f 8 30 26
f 26 29 8
f 8 29 30
f 1 27 9
f 21 27 1
f 5 29 26
f 26 21 5
f 21 1 5
f 29 5 3
f 3 5 1
f 9 29 3
f 3 1 9

