# https://github.com/mikedh/trimesh
v -0.05103886 0.00035042 -0.00803049
v -0.02240431 0.05189270 -0.01786686
v 0.00383070 -0.04646547 0.01330599
v -0.05591827 0.00978018 -0.00186782
v 0.04425197 -0.04041351 -0.01132146
v 0.05906368 0.01911749 0.01069150
v -0.02766938 -0.01209873 -0.00894505
v 0.01469767 -0.04536315 0.01208664
v -0.03644538 -0.04677173 -0.00173134
v -0.00900301 -0.05291809 0.01130041
v -0.02925109 0.03173718 0.00868060
v 0.06673955 0.00780341 -0.00051434
v -0.03061137 0.05746436 -0.00914994
v 0.05800462 0.02410856 0.01047714
v -0.03563733 0.05911397 0.00406084
v 0.01635975 0.03790260 0.01121538
v -0.02925286 0.05536993 -0.01452142
v -0.03289653 -0.05849583 0.01196593
f 4 18 11
f 11 15 4
f 9 18 4
f 9 5 18
f 12 5 2
f 12 2 14
f 4 15 17
f 1 9 4
f 4 17 1
f 1 17 2
f 8 3 18
f 8 5 12
f 15 11 16
f 16 14 15
f 16 11 18
f 18 3 16
f 15 14 13
f 13 17 15
f 13 14 2
f 2 17 13
f 5 9 7
f 9 1 7
f 7 2 5
f 7 1 2
f 18 5 10
f 10 8 18
f 5 8 10
f 3 8 6
f 6 16 3
f 14 16 6
f 12 14 6
f 6 8 12

