# https://github.com/mikedh/trimesh
v 0.00674972 -0.02659964 -0.00486697
v -0.05395805 0.03542213 0.00498834
v 0.05347756 -0.04282356 0.00667250
v 0.06159907 -0.03171673 -0.00205013
v -0.04365923 0.04255265 -0.00723696
v -0.06410245 -0.02372832 0.00055625
v -0.05613786 -0.01482817 0.00449236
v -0.06328671 -0.03450048 0.00121097
v 0.04670175 -0.00349445 0.00684925
v 0.03758133 -0.02122374 -0.00805076
v 0.03902030 0.00949960 -0.00627729
v -0.05055682 0.01363552 -0.00783334
v 0.06709843 -0.01379153 0.00179009
v 0.02731214 0.03471318 -0.00536013
v 0.06188588 -0.01862581 -0.00466366
v -0.02613761 0.04331203 -0.00701152
v 0.06224619 0.01941937 -0.00310628
v -0.01079861 0.04612246 0.00375167
v -0.02097220 0.04407682 0.00696948
f 12 5 10
f 2 12 6
f 5 12 2
f 9 3 13
f 13 17 9
f 6 12 8
f 8 12 10
f 8 2 6
f 13 3 4
f 3 8 4
f 18 17 14
f 19 17 18
f 19 9 17
f 18 5 19
f 5 2 19
f 3 9 19
f 7 8 3
f 2 8 7
f 3 19 7
f 7 19 2
f 15 17 13
f 13 4 15
f 10 17 15
f 15 4 10
f 1 8 10
f 10 4 1
f 1 4 8
f 10 5 16
f 16 14 10
f 16 5 18
f 18 14 16
f 11 17 10
f 10 14 11
f 11 14 17

