# https://github.com/mikedh/trimesh
v 0.01541082 -0.03617434 0.00640751
v -0.03385419 -0.03793700 0.00694316
v -0.05160982 -0.03873597 -0.00466245
v -0.05816605 0.00805009 0.00531918
v -0.07541227 0.01801067 -0.00189384
v 0.07549640 0.03017197 0.00419559
v -0.05888393 0.00119861 -0.00609063
v -0.06104716 -0.02253404 -0.00386480
v 0.06212862 -0.02357593 0.00223506
v 0.01633816 -0.04859070 -0.00287420
v -0.06079626 0.04350841 -0.00532842
v -0.04852956 0.04429604 -0.00435400
v 0.00721839 -0.00657692 0.00815155
v 0.02293027 0.04578359 -0.00224295
v 0.06756668 -0.00058142 0.00449963
v -0.01022576 -0.04160883 0.00360677
v 0.07131459 -0.00666974 0.00356260
v -0.06465571 -0.03452946 0.00716227
v -0.05379513 -0.01684871 0.00794408
v 0.07636649 0.00512064 0.00303855
v -0.05175599 0.02871038 0.00116813
v 0.06275023 -0.00425324 -0.00433977
v -0.03574543 -0.04566510 -0.00003055
v 0.06863420 0.02999889 -0.00338111
v 0.06477215 0.03672949 0.00052867
v 0.02336698 0.03171226 -0.00633774
v -0.00775789 0.02449914 0.00497665
v 0.04310511 -0.03394251 0.00323380
v -0.05826017 -0.00285293 0.00806263
v 0.06841191 -0.03039609 -0.00362322
f 11 7 5
f 26 7 11
f 5 18 29
f 3 30 10
f 3 7 26
f 26 30 3
f 24 6 20
f 20 30 24
f 5 29 4
f 23 3 10
f 18 3 23
f 8 18 5
f 8 3 18
f 5 7 8
f 7 3 8
f 10 30 28
f 28 1 10
f 6 29 13
f 22 30 26
f 26 24 22
f 22 24 30
f 6 24 25
f 27 29 6
f 10 1 16
f 16 23 10
f 1 28 17
f 20 6 17
f 17 30 20
f 19 29 18
f 19 13 29
f 1 13 2
f 2 16 1
f 2 19 18
f 13 19 2
f 18 23 2
f 23 16 2
f 6 25 14
f 14 27 6
f 12 27 14
f 14 24 26
f 14 25 24
f 26 11 14
f 11 12 14
f 21 4 29
f 29 27 21
f 21 27 12
f 21 12 11
f 21 11 5
f 5 4 21
f 9 28 30
f 30 17 9
f 9 17 28
f 15 13 1
f 1 17 15
f 6 13 15
f 15 17 6

