# https://github.com/mikedh/trimesh
v 0.07700972 -0.00085257 0.00424648
v 0.00591442 -0.03207644 0.00764407
v 0.02959239 0.04289844 0.00264364
v -0.01526362 -0.00251261 0.00767125
v 0.09654233 -0.03933151 -0.00675675
v 0.08783604 0.00849026 -0.00150632
v -0.08607178 0.04439390 -0.00548564
v 0.01416483 0.04235847 -0.00092446
v -0.09146425 -0.00406885 -0.00663666
v 0.07001040 0.03640974 -0.00117927
v -0.08880931 -0.02501142 0.00034803
v 0.03439620 -0.03747295 -0.00550131
v -0.06840150 -0.03672978 0.00540695
v 0.01415964 0.00152232 0.00766505
v -0.08465519 -0.02006309 0.00476203
v 0.02502325 0.01602570 0.00760697
v -0.03039537 0.03946467 0.00568665
v 0.04056190 -0.02749599 0.00690802
v 0.03968290 -0.00456741 0.00694459
v -0.07262217 0.02736874 0.00434059
v 0.06022123 -0.04415980 0.00385619
v 0.06224880 0.02495281 0.00252729
v -0.08655390 0.00454579 0.00102942
v -0.01756001 0.01737359 -0.00613139
v 0.08579501 -0.02943413 -0.00755938
v 0.08941855 0.00715125 0.00288262
f 25 5 9
f 9 7 25
f 25 10 5
f 7 10 24
f 24 25 7
f 10 25 24
f 9 5 12
f 15 13 4
f 5 10 6
f 8 10 7
f 7 3 8
f 8 3 10
f 26 6 10
f 5 6 26
f 13 15 11
f 9 12 11
f 11 12 13
f 21 12 5
f 13 12 21
f 1 18 21
f 5 26 21
f 21 26 1
f 20 15 4
f 4 14 16
f 1 26 16
f 10 3 22
f 22 26 10
f 3 16 22
f 22 16 26
f 13 21 2
f 2 21 18
f 4 13 2
f 2 14 4
f 18 16 2
f 2 16 14
f 23 20 7
f 15 20 23
f 23 11 15
f 23 7 9
f 9 11 23
f 17 16 3
f 17 20 4
f 4 16 17
f 17 3 7
f 7 20 17
f 19 18 1
f 1 16 19
f 19 16 18

