# https://github.com/mikedh/trimesh
v -0.04032083 -0.03089940 0.00576923
v 0.08921149 0.01278452 0.00462555
v -0.06468509 0.04215217 -0.00035021
v 0.10398231 0.02013736 -0.00427359
v 0.04893957 0.02580027 0.00434472
v -0.03954327 -0.03368111 -0.00523742
v -0.03795322 0.04095262 0.00371040
v 0.03274646 0.03785070 -0.00441934
v -0.00476521 0.03788459 0.00254298
v 0.11454588 -0.01605563 0.00477911
v 0.08641827 -0.02696354 0.00196480
v 0.10066550 0.02349475 -0.00103568
v 0.11180585 0.02564632 -0.00349908
v -0.09764360 0.04126243 0.00512754
v -0.04164852 -0.02207950 0.00603334
v -0.04228410 -0.04004893 0.00269977
v -0.10026347 -0.02299118 0.00183646
v 0.11846913 -0.00851867 0.00041886
v -0.08958662 -0.03777175 0.00195337
v 0.07161637 -0.02513572 0.00350146
v -0.07116545 0.02870917 -0.00324802
v 0.10724069 -0.03109749 -0.00382623
v -0.09468943 0.01149051 -0.00509594
v -0.00242746 -0.01672553 -0.00510968
v 0.03691091 -0.03566910 -0.00075823
v -0.10311496 -0.04090896 -0.00231438
v 0.11373323 0.00541005 -0.00277871
v -0.02274868 -0.02696743 0.00600117
v -0.01013176 -0.03456225 -0.00418899
f 26 14 23
f 23 14 3
f 25 16 26
f 11 16 25
f 17 14 26
f 13 10 18
f 2 14 15
f 10 13 2
f 15 14 1
f 20 16 11
f 11 10 20
f 20 1 16
f 10 1 20
f 26 23 6
f 27 13 18
f 3 14 7
f 8 13 4
f 3 7 8
f 11 25 22
f 22 10 11
f 18 10 22
f 22 27 18
f 22 25 26
f 4 13 22
f 13 27 22
f 28 2 15
f 10 2 28
f 15 1 28
f 28 1 10
f 14 17 19
f 19 1 14
f 19 17 26
f 26 16 19
f 16 1 19
f 14 2 5
f 5 7 14
f 24 6 23
f 23 8 24
f 24 8 4
f 4 22 24
f 24 22 6
f 21 23 3
f 3 8 21
f 21 8 23
f 26 6 29
f 29 22 26
f 6 22 29
f 12 2 13
f 13 5 12
f 12 5 2
f 9 5 13
f 7 5 9
f 13 8 9
f 9 8 7

