# https://github.com/mikedh/trimesh
v -0.04332462 0.04743566 -0.00613427
v 0.08636616 0.03566199 0.00857581
v -0.09314783 0.01590626 0.02154047
v 0.02191831 -0.05598510 0.01491679
v 0.02552245 -0.05795917 -0.00194699
v 0.08267592 0.02460886 -0.00159444
v -0.06511444 -0.02621042 -0.02627146
v 0.02694058 0.03895557 -0.01889289
v 0.07050792 0.00031545 -0.01584238
v 0.04214897 0.03653122 0.01667567
v -0.03905121 0.05000882 -0.00122809
v -0.03517222 -0.06029778 0.01253530
v 0.07593993 -0.02127352 -0.00450535
v -0.08342213 -0.01436865 -0.01856953
v 0.08271175 -0.00034646 0.01058793
v 0.00929011 0.03170810 -0.02537831
v -0.08187059 0.03413925 -0.00482207
v 0.10092641 0.00500298 0.00306016
v 0.00982989 -0.02285966 0.02275051
v -0.03566405 0.04830603 0.00707392
v -0.02809726 0.02138691 0.02487931
v 0.07466253 -0.02826022 -0.02007177
v 0.07342256 0.00927517 0.01756120
v 0.00891536 0.06300132 -0.00640256
v 0.08273005 0.00151155 -0.00928264
v 0.02009080 0.06089508 -0.00650586
v 0.00278358 -0.06494068 0.01508547
f 12 27 3
f 3 27 19
f 4 19 27
f 23 19 4
f 7 22 5
f 27 12 5
f 5 12 7
f 5 4 27
f 22 4 5
f 16 22 7
f 7 17 16
f 3 17 14
f 14 17 7
f 14 12 3
f 7 12 14
f 18 23 15
f 15 4 18
f 23 4 15
f 13 22 18
f 18 4 13
f 13 4 22
f 20 10 24
f 24 11 20
f 20 17 3
f 20 11 17
f 2 23 18
f 2 10 23
f 18 6 2
f 24 10 2
f 24 16 1
f 1 16 17
f 1 11 24
f 17 11 1
f 21 20 3
f 10 20 21
f 3 19 21
f 21 19 23
f 23 10 21
f 26 16 24
f 26 8 16
f 24 2 26
f 26 2 6
f 6 8 26
f 18 22 25
f 25 6 18
f 22 16 9
f 16 8 9
f 9 25 22
f 9 8 6
f 6 25 9

