# https://github.com/mikedh/trimesh
v 0.00977662 -0.03421806 0.00567255
v -0.03970408 0.03445196 0.00480786
v -0.04894229 -0.00166317 -0.00295819
v -0.04562316 0.04424820 0.00107535
v -0.03142495 -0.00474304 -0.00455212
v 0.00584590 -0.04408900 -0.00104262
v -0.03651212 0.04631052 0.00152627
v 0.02594683 0.04800874 0.00289323
v -0.04142641 0.04320490 0.00290651
v 0.04457871 0.03643505 0.00163046
v 0.00085543 0.04176481 -0.00293689
v -0.03652861 0.00900734 0.00491376
v -0.03877897 -0.04395047 -0.00424112
v 0.04804337 0.04397895 -0.00195782
v 0.00577991 -0.03498352 -0.00500951
v 0.05662136 -0.03988735 0.00249010
v -0.05254085 -0.02566188 0.00225761
v -0.05863576 -0.03909227 -0.00101129
v 0.05178673 -0.01945622 -0.00325093
v 0.02353273 0.04662487 0.00300072
v 0.05017013 0.02967322 0.00140442
v -0.05091150 0.03841142 0.00402076
v 0.03940936 -0.04339844 -0.00353333
v 0.04835199 -0.04125676 -0.00443025
v -0.04376593 0.02725172 -0.00178420
v 0.04001684 0.04677287 -0.00357874
v -0.00731163 -0.00813081 -0.00461179
v 0.03287675 0.01445623 0.00333256
f 28 1 16
f 8 1 28
f 22 3 18
f 6 23 16
f 6 1 18
f 16 1 6
f 18 3 13
f 13 6 18
f 23 6 13
f 15 26 24
f 24 13 15
f 23 13 24
f 16 23 24
f 27 26 15
f 21 28 16
f 8 28 21
f 18 1 17
f 17 22 18
f 8 22 2
f 8 26 7
f 14 26 8
f 14 21 16
f 20 1 8
f 8 2 20
f 20 2 1
f 22 17 12
f 12 2 22
f 12 17 1
f 1 2 12
f 9 22 8
f 8 7 9
f 26 27 5
f 5 11 26
f 5 27 15
f 5 3 25
f 25 11 5
f 15 13 5
f 5 13 3
f 8 21 10
f 10 14 8
f 21 14 10
f 19 24 26
f 26 14 19
f 16 24 19
f 19 14 16
f 4 7 26
f 26 11 4
f 4 11 25
f 25 3 4
f 3 22 4
f 22 9 4
f 4 9 7

