# https://github.com/mikedh/trimesh
v 0.02347809 -0.03977562 -0.00660448
v -0.09008155 -0.01238896 -0.01795306
v 0.04011930 0.05042931 0.01045484
v -0.01286985 0.04897383 -0.01365884
v 0.07552871 -0.01699749 -0.01342476
v -0.02967602 -0.04548307 -0.00187819
v 0.06485150 -0.01502608 -0.01636562
v -0.07317116 -0.00475980 -0.00018263
v -0.04015040 0.04575845 0.01062602
v -0.02157557 -0.05077070 0.02104570
v -0.04692367 -0.04243230 0.01051811
v -0.02419401 0.05102039 0.01013959
v -0.05191980 0.03889947 0.00143206
v 0.06746643 0.00158463 -0.01769587
v -0.07476104 -0.01210444 -0.00251977
v 0.09421670 0.00797610 0.00215079
v 0.00624324 -0.04960599 0.02336842
v 0.10074932 -0.00126932 -0.01339551
v -0.02494003 0.02577038 0.01708097
v -0.03481613 0.05790377 -0.00376386
v 0.04011733 0.02489393 0.01821488
v -0.03630057 -0.02993231 0.01512319
v -0.01729153 -0.04962684 0.00313860
v -0.00419217 -0.06025056 0.02565329
v -0.09748473 -0.00410331 -0.01987870
v -0.05624163 -0.03445054 -0.01474819
v 0.03597213 -0.04842011 0.00963346
f 25 20 4
f 17 21 24
f 25 4 14
f 14 4 18
f 3 4 20
f 18 4 3
f 11 26 24
f 13 20 25
f 25 9 13
f 13 9 20
f 24 21 19
f 18 3 16
f 16 3 21
f 21 17 16
f 16 17 24
f 25 26 2
f 2 11 25
f 26 11 2
f 8 9 25
f 18 16 27
f 27 16 24
f 23 27 24
f 1 27 23
f 7 14 18
f 7 1 26
f 7 26 25
f 25 14 7
f 9 19 12
f 20 9 12
f 12 3 20
f 21 3 12
f 12 19 21
f 25 11 15
f 15 8 25
f 11 8 15
f 22 8 11
f 22 19 9
f 9 8 22
f 26 1 6
f 1 23 6
f 24 26 6
f 6 23 24
f 18 27 5
f 5 7 18
f 5 27 1
f 1 7 5
f 10 11 24
f 10 22 11
f 24 19 10
f 19 22 10

