# https://github.com/mikedh/trimesh
v -0.05163326 -0.03141258 -0.01592790
v -0.00860459 -0.07991270 0.00441967
v 0.06272882 0.05760354 0.01465068
v 0.01318629 0.07553073 0.00533109
v 0.06396828 -0.00513697 0.00709921
v 0.01587204 0.08640514 -0.00698171
v 0.06274229 -0.03107784 -0.00489637
v 0.03040406 0.06166748 -0.00838445
v -0.08135969 0.01604387 -0.00697863
v -0.01156050 0.07829370 0.00224138
v 0.06894871 0.03384568 -0.00386349
v 0.01600662 -0.08415237 0.01011204
v -0.06490441 -0.04888308 0.00387834
v 0.02759418 -0.02720468 -0.01974445
v 0.07672816 0.03362084 0.00393142
v -0.01218188 -0.08160547 0.01463161
v -0.00550759 0.08460554 -0.00679563
v -0.05181093 -0.06735318 0.00413458
v -0.05102249 -0.05771952 -0.00756289
v -0.04731521 0.05277172 0.00420994
v -0.06353276 -0.05426487 0.00294998
v -0.07229417 0.01963381 0.00112688
v -0.03998719 0.02480781 0.01318399
v 0.05506375 -0.04265107 -0.01589731
f 15 6 3
f 17 6 14
f 1 19 9
f 9 17 1
f 1 17 14
f 14 24 1
f 1 24 19
f 7 24 15
f 12 24 7
f 11 24 14
f 11 6 15
f 15 24 11
f 2 24 12
f 19 24 2
f 15 3 5
f 5 3 12
f 5 7 15
f 12 7 5
f 12 3 16
f 16 3 23
f 23 13 16
f 16 2 12
f 20 17 9
f 4 3 6
f 23 3 4
f 14 6 8
f 8 11 14
f 6 11 8
f 9 19 21
f 21 13 9
f 19 2 18
f 2 16 18
f 18 21 19
f 18 16 13
f 13 21 18
f 22 20 9
f 9 13 22
f 23 20 22
f 22 13 23
f 6 17 10
f 10 4 6
f 17 20 10
f 10 20 23
f 23 4 10

