# https://github.com/mikedh/trimesh
v -0.08249637 -0.03560933 -0.00384232
v 0.09343491 0.01654338 0.00285513
v 0.09858823 -0.02584841 0.00283110
v 0.03130481 -0.02234455 -0.00376006
v -0.08572571 0.03211372 -0.00368904
v 0.08499728 0.02137509 0.00020119
v -0.09069501 0.03528734 0.00147014
v 0.01085790 0.00260782 -0.00514584
v 0.07359651 -0.01870913 0.00333913
v -0.08698115 0.00357760 -0.00268293
v 0.10036096 -0.00293629 -0.00071009
v 0.09298598 -0.02664928 -0.00172371
v -0.01681649 0.00184678 0.00463990
v -0.07841459 0.02424889 0.00301961
v 0.08671410 0.02260287 -0.00300825
v 0.02064678 -0.03076159 0.00024899
v -0.06720882 0.02035541 0.00436284
v 0.02023084 0.03444813 0.00430801
v -0.06956198 -0.02701559 0.00403706
v -0.00602698 -0.03358370 -0.00313289
v 0.01606476 -0.02895846 0.00386990
f 18 5 7
f 7 1 19
f 10 1 7
f 7 5 10
f 10 5 1
f 1 5 8
f 17 18 7
f 13 18 17
f 17 19 13
f 7 19 14
f 14 17 7
f 19 17 14
f 2 6 18
f 11 2 3
f 15 8 5
f 5 18 15
f 18 6 15
f 15 2 11
f 6 2 15
f 1 8 4
f 13 19 21
f 21 19 1
f 11 3 12
f 12 15 11
f 8 15 12
f 12 4 8
f 13 21 9
f 9 21 3
f 9 18 13
f 9 2 18
f 9 3 2
f 3 21 16
f 20 12 3
f 3 16 20
f 20 16 21
f 1 4 20
f 4 12 20
f 20 21 1

