# https://github.com/mikedh/trimesh
v 0.02981792 0.00493446 -0.00487051
v 0.05626270 0.02595038 0.00187558
v 0.10946579 -0.01981064 0.00182901
v -0.00521314 0.03078259 0.00457888
v 0.04239541 0.02313718 -0.00331176
v 0.09640429 -0.02169435 0.00177409
v -0.08543822 0.02558106 -0.00495746
v -0.04338783 -0.03243695 -0.00471855
v 0.02370295 -0.02372992 0.00365262
v -0.02550144 0.03137472 0.00251660
v -0.06865396 -0.02662502 0.00305222
v 0.00239664 -0.00669269 0.00490078
v -0.08186527 0.02613882 0.00091093
v 0.09418184 -0.02108005 0.00348910
v -0.05716868 0.01763272 0.00463723
v 0.09106665 0.01018920 0.00340110
v -0.09570106 -0.01857306 0.00334322
v 0.10077392 0.00973496 -0.00323866
v -0.06663867 -0.03109491 -0.00134694
v -0.00273893 -0.02500756 -0.00415996
v 0.03792369 -0.01163597 -0.00418873
v 0.09228669 -0.02274533 0.00365819
v -0.06579063 -0.03080953 -0.00031744
v -0.02067186 0.03283601 -0.00432387
f 24 7 13
f 13 7 17
f 21 18 3
f 3 18 16
f 24 4 2
f 4 16 2
f 2 16 18
f 17 11 12
f 12 16 4
f 22 16 12
f 6 8 3
f 3 22 6
f 6 22 8
f 8 22 23
f 23 22 11
f 23 11 17
f 10 4 24
f 24 13 10
f 10 13 4
f 3 8 20
f 20 21 3
f 8 21 20
f 14 22 3
f 3 16 14
f 14 16 22
f 5 18 24
f 24 2 5
f 5 2 18
f 17 12 15
f 15 12 4
f 15 13 17
f 4 13 15
f 11 22 9
f 9 12 11
f 22 12 9
f 19 23 17
f 8 23 19
f 17 7 19
f 19 7 8
f 18 21 1
f 24 18 1
f 1 21 8
f 1 7 24
f 8 7 1

