# https://github.com/mikedh/trimesh
v 0.04354401 0.03920761 -0.00191473
v 0.00117575 0.04615181 -0.00487732
v 0.04114094 -0.01962442 -0.00482843
v -0.03747169 0.01993099 -0.00530348
v -0.00137925 0.00333288 -0.00665465
v -0.05313632 -0.04182478 0.00432482
v 0.06811466 -0.02493097 0.00307030
v -0.06394029 -0.03444571 0.00123898
v -0.05989848 0.00014871 -0.00227281
v -0.07407091 0.03668138 0.00412683
v 0.03438568 -0.03920820 -0.00277573
v -0.03724104 -0.01483188 0.00472752
v 0.05340674 -0.04386909 0.00399989
v 0.00960708 -0.03116553 -0.00479110
v 0.06890547 0.02415673 0.00244397
v -0.07070257 0.02261166 0.00460813
v -0.04361266 -0.04287188 0.00267252
v 0.04782508 0.03683015 0.00350255
v -0.06850980 0.02838557 0.00061303
v -0.00369737 0.01198652 -0.00680268
v 0.05745022 -0.04455294 0.00260787
v -0.02811916 0.02452942 0.00473075
v -0.05028990 0.01245679 -0.00471221
v -0.04408267 -0.01957332 -0.00543758
v 0.06850725 0.02429467 -0.00613699
f 18 2 10
f 7 13 21
f 15 18 7
f 7 18 13
f 2 18 1
f 20 2 25
f 2 1 25
f 15 7 25
f 25 18 15
f 25 1 18
f 21 3 25
f 25 7 21
f 9 24 8
f 23 24 9
f 10 2 19
f 23 9 19
f 19 8 10
f 19 9 8
f 4 2 20
f 20 24 4
f 4 24 23
f 4 19 2
f 23 19 4
f 22 18 10
f 13 18 22
f 21 13 17
f 13 6 17
f 17 6 8
f 8 24 17
f 14 17 24
f 16 22 10
f 10 8 16
f 8 6 16
f 12 6 13
f 13 22 12
f 12 16 6
f 22 16 12
f 5 24 20
f 5 14 24
f 3 14 5
f 20 25 5
f 5 25 3
f 11 3 21
f 11 14 3
f 21 17 11
f 17 14 11

