# https://github.com/mikedh/trimesh
v 0.08340977 0.03404280 0.00816035
v -0.08512665 -0.05045544 0.00027093
v -0.05137009 0.06108868 -0.00811151
v -0.07057363 -0.00370401 -0.02057787
v -0.08371562 0.04271208 0.02059329
v 0.04639202 -0.07838072 -0.00662392
v 0.09035088 -0.00615954 -0.01892496
v 0.00850786 -0.07450628 0.02145853
v -0.04983377 0.06873053 0.00619265
v 0.03248778 0.07446757 -0.00802988
v -0.02974361 -0.08382692 0.01156686
v 0.05135602 0.03789316 0.02168130
v 0.10046692 -0.01546115 -0.01224768
v -0.05548190 -0.04995499 -0.00517234
v -0.09430292 -0.01223390 -0.00109529
v -0.03380055 0.07772079 -0.01045743
v -0.07045472 -0.06324428 0.00446620
v 0.09335741 -0.04154513 -0.01901447
v 0.02300732 -0.07538208 0.01493726
v -0.01313213 -0.08076156 0.00058928
v -0.00688689 -0.08482682 0.00711552
v 0.00470705 0.08906277 -0.02112267
v 0.09306798 -0.00057776 -0.01651900
v -0.07450247 0.04895687 0.00029355
v 0.08020223 -0.01463958 0.00531275
v -0.09933400 -0.00143619 0.00085289
v 0.04524019 0.07531752 0.00970077
f 5 8 12
f 18 4 22
f 26 5 24
f 24 4 26
f 27 5 12
f 12 1 27
f 12 8 25
f 25 1 12
f 8 19 25
f 13 1 25
f 25 18 13
f 25 19 18
f 13 18 7
f 7 18 22
f 4 18 6
f 6 20 4
f 18 19 6
f 9 27 22
f 5 27 9
f 9 24 5
f 22 27 10
f 10 27 1
f 11 17 20
f 8 5 11
f 5 17 11
f 2 5 26
f 2 17 5
f 20 17 2
f 16 9 22
f 24 9 16
f 22 4 16
f 23 10 1
f 23 1 13
f 13 7 23
f 23 7 22
f 22 10 23
f 20 6 21
f 21 11 20
f 21 6 19
f 21 19 8
f 8 11 21
f 26 4 15
f 15 2 26
f 4 2 15
f 4 20 14
f 14 2 4
f 20 2 14
f 4 24 3
f 3 16 4
f 24 16 3

