# https://github.com/mikedh/trimesh
v 0.06266675 -0.02678083 0.00220403
v 0.07625986 0.01688361 -0.00376420
v -0.07571852 0.01117421 -0.00313356
v -0.06742430 0.02514499 0.00377031
v 0.01863204 0.02377805 0.00443562
v -0.02469726 0.02795325 -0.00328270
v -0.04299259 -0.02567048 -0.00446765
v 0.07824056 0.00229324 -0.00540927
v -0.07201080 0.01641671 -0.00507723
v 0.07582493 0.02271172 0.00220976
v 0.03733542 -0.00091067 0.00514913
v 0.06788826 -0.02008292 0.00232103
v 0.03807376 0.00434504 0.00525946
v -0.03567594 0.02058364 -0.00580462
v 0.04072798 -0.02688686 0.00203274
v 0.01850050 -0.02612714 -0.00389145
v 0.01528531 -0.01266138 -0.00606168
v 0.06740174 0.02703099 0.00441228
v 0.08146793 0.01237157 0.00333550
v -0.07549118 -0.02717830 0.00550328
v 0.06633929 -0.02439086 -0.00123407
v -0.05266314 0.01590323 0.00431478
v -0.03048637 -0.01450891 -0.00555848
v -0.07676480 0.00645089 -0.00513192
f 7 20 24
f 23 7 24
f 17 7 23
f 24 14 23
f 23 14 17
f 15 1 20
f 19 18 13
f 19 2 10
f 10 18 19
f 2 18 10
f 9 14 24
f 6 18 2
f 2 14 6
f 4 18 6
f 6 9 4
f 14 9 6
f 1 21 12
f 17 14 8
f 8 14 2
f 8 2 19
f 19 12 8
f 8 12 21
f 16 21 1
f 1 15 16
f 16 7 17
f 20 7 16
f 16 15 20
f 17 8 16
f 16 8 21
f 5 18 4
f 5 13 18
f 3 9 24
f 4 9 3
f 24 20 3
f 20 4 3
f 1 12 11
f 20 1 11
f 11 13 20
f 19 13 11
f 11 12 19
f 22 5 4
f 13 5 22
f 22 4 20
f 20 13 22

