# https://github.com/mikedh/trimesh
v 0.06043085 0.01990118 -0.00267081
v -0.03960169 0.04194284 0.00216111
v -0.08049430 -0.02886428 0.00355089
v -0.09191925 -0.03056509 -0.00327990
v -0.09364185 -0.00726226 -0.00015817
v -0.07892459 0.01723581 -0.00300294
v -0.09226835 -0.03385719 0.00191332
v 0.00010617 0.04088160 -0.00353734
v -0.02464670 -0.03946037 -0.00022782
v 0.09392911 -0.03448226 -0.00025092
v 0.02139199 -0.03315010 0.00234236
v -0.09009821 -0.00959438 -0.00180940
v 0.01550905 -0.03485356 -0.00274578
v -0.01143752 0.01125063 0.00442627
v 0.02399543 0.04057007 -0.00088462
v 0.00799086 0.03751370 0.00257949
v 0.09377773 0.02295825 0.00218919
v 0.08791819 -0.02212766 -0.00239330
v 0.00514253 -0.03886497 0.00201416
v -0.07513500 0.03718452 0.00289099
v 0.07756000 0.03559094 0.00021623
v 0.06290237 -0.02943542 -0.00370033
v -0.05250109 -0.03693282 0.00234238
v -0.05272735 -0.03833911 -0.00046205
v 0.06732190 -0.01368717 0.00324472
v -0.02519585 -0.01792926 -0.00416649
v -0.04472733 0.03632405 -0.00337877
v 0.07836695 -0.00618569 -0.00242070
f 2 27 20
f 5 20 6
f 6 20 27
f 14 20 3
f 3 25 14
f 7 20 5
f 3 20 7
f 5 6 12
f 26 27 8
f 8 27 2
f 17 25 10
f 17 14 25
f 11 25 3
f 3 19 11
f 10 25 11
f 11 19 10
f 13 24 4
f 4 12 6
f 4 24 7
f 4 27 26
f 4 6 27
f 4 7 5
f 5 12 4
f 18 17 10
f 26 8 22
f 22 8 1
f 1 18 22
f 22 4 26
f 13 4 22
f 10 13 22
f 22 18 10
f 14 17 16
f 2 20 16
f 20 14 16
f 7 24 23
f 23 19 3
f 3 7 23
f 9 24 13
f 10 19 9
f 9 13 10
f 19 23 9
f 9 23 24
f 17 18 21
f 1 8 21
f 21 16 17
f 2 16 21
f 28 18 1
f 1 21 28
f 28 21 18
f 15 8 2
f 2 21 15
f 15 21 8

