# https://github.com/mikedh/trimesh
v -0.07903713 -0.03168410 -0.00117911
v -0.04231114 -0.01333624 -0.00751532
v 0.07742056 0.00014113 -0.00612474
v 0.07586162 0.02110855 0.00559623
v -0.07109265 -0.02304962 -0.00464581
v -0.03676944 -0.02022307 0.00611402
v -0.00354621 -0.03055511 0.00741456
v 0.05437768 -0.02531494 0.00347915
v -0.00643022 0.03289705 -0.00568956
v -0.03377802 0.01550991 -0.00717648
v 0.06760464 -0.02405376 -0.00548352
v -0.06441194 0.02968450 0.00611496
v -0.03186021 -0.02435767 -0.00787020
v -0.06913180 -0.02712184 0.00193533
v 0.03450160 0.00028459 0.00658572
v 0.07061557 -0.02392414 -0.00168696
v 0.07283810 0.02298951 -0.00364052
v 0.06735882 0.02704084 0.00498102
v 0.08005751 -0.00831872 0.00353523
v -0.07324981 0.01027337 -0.00279861
f 9 12 18
f 1 13 11
f 11 7 1
f 16 7 11
f 2 10 13
f 10 2 5
f 5 13 1
f 5 2 13
f 20 12 9
f 9 10 20
f 10 5 20
f 1 12 20
f 20 5 1
f 14 12 1
f 1 7 14
f 8 16 19
f 19 7 8
f 8 7 16
f 12 7 15
f 3 10 9
f 13 10 3
f 3 11 13
f 19 16 3
f 16 11 3
f 6 7 12
f 12 14 6
f 6 14 7
f 9 18 17
f 17 3 9
f 19 3 4
f 3 17 4
f 4 17 18
f 4 7 19
f 4 15 7
f 4 18 12
f 12 15 4

