# https://github.com/mikedh/trimesh
v 0.00678299 -0.04816632 0.01980482
v 0.03037510 0.06002540 -0.01992510
v 0.07652440 -0.05273008 0.00760257
v 0.08858147 -0.04187196 -0.00803801
v 0.03381459 0.04526236 0.01332778
v -0.06519659 -0.05213723 -0.00050433
v -0.09036279 -0.04116912 -0.01482432
v 0.00858625 -0.07131412 0.01514729
v 0.09490435 0.00484907 0.00951766
v -0.08018916 0.01034281 0.01445196
v 0.07544099 -0.01251679 -0.02113794
v -0.07542917 0.06540735 0.00499284
v 0.08906890 0.01572102 -0.00053925
v -0.09188354 0.00434288 0.01240575
v 0.04940823 -0.01269807 -0.02338390
v 0.09010171 -0.01568371 -0.00508588
v 0.07031635 -0.04958190 -0.01679036
v 0.03933037 0.07758818 -0.01040421
v 0.02588276 -0.07472762 0.01926942
v 0.07272436 0.02997617 0.01418324
v -0.07929050 0.04733508 0.01556567
v -0.02915836 0.03578708 0.02300889
v -0.07371775 -0.05436503 -0.01487782
f 14 19 1
f 19 22 1
f 20 19 9
f 20 22 19
f 6 19 14
f 9 19 3
f 3 4 9
f 17 23 15
f 15 11 17
f 17 11 4
f 19 23 17
f 17 3 19
f 4 3 17
f 14 1 10
f 10 1 22
f 5 20 18
f 22 20 5
f 18 12 5
f 5 12 22
f 8 23 19
f 19 6 8
f 8 6 23
f 14 12 7
f 15 23 7
f 7 6 14
f 23 6 7
f 13 11 18
f 13 20 9
f 18 20 13
f 2 11 15
f 18 11 2
f 15 7 2
f 2 12 18
f 2 7 12
f 22 12 21
f 21 10 22
f 21 12 14
f 14 10 21
f 4 11 16
f 11 13 16
f 9 4 16
f 16 13 9

