# https://github.com/mikedh/trimesh
v -0.03319578 -0.07782245 -0.00245778
v -0.04567888 -0.00366658 -0.02063238
v -0.00370349 0.08829661 -0.00404841
v -0.00697504 0.07151797 -0.02543208
v -0.02719124 0.06401487 0.00854434
v 0.04486252 -0.03668449 -0.02278187
v -0.00650696 -0.07442229 0.01384095
v -0.03624854 -0.04513882 -0.01408616
v -0.01178403 -0.03594351 0.03320525
v 0.06244550 0.04625711 0.01070859
v -0.06498676 -0.05138772 -0.00832195
v 0.06050546 0.05008581 -0.00457271
v -0.06610502 -0.03623525 -0.00229194
v -0.03812741 0.05621064 -0.00677283
v 0.06673171 0.03088640 0.01270969
v -0.06724437 0.00878298 -0.01445372
v -0.03534547 -0.07111483 0.01590381
v -0.06521770 -0.03657423 0.00565507
v 0.06730034 -0.02063438 -0.03047559
v 0.00788220 0.07215629 -0.02237962
v 0.05022925 0.04531465 0.01912881
v 0.06848683 -0.02052150 -0.01171756
v -0.03231213 0.02539678 0.02482582
v 0.03503149 -0.06676257 0.01709117
v -0.06122608 0.02278958 0.02464272
f 24 21 9
f 16 25 14
f 14 4 16
f 3 4 14
f 18 25 16
f 5 21 3
f 3 14 5
f 5 14 25
f 23 25 9
f 9 21 23
f 23 5 25
f 21 5 23
f 9 25 17
f 25 18 17
f 15 24 22
f 21 24 15
f 13 18 16
f 19 15 22
f 12 15 19
f 22 24 19
f 1 8 19
f 1 24 7
f 7 17 1
f 7 24 9
f 9 17 7
f 21 15 10
f 10 15 12
f 3 21 10
f 10 12 3
f 11 8 1
f 18 13 11
f 11 13 16
f 1 17 11
f 11 17 18
f 20 19 4
f 12 19 20
f 20 4 3
f 3 12 20
f 6 24 1
f 1 19 6
f 6 19 24
f 16 4 2
f 4 19 2
f 2 19 8
f 2 11 16
f 8 11 2

