# https://github.com/mikedh/trimesh
v -0.05188860 -0.10395180 0.00755634
v -0.04412742 -0.02823389 -0.01721476
v 0.07178382 0.01196950 -0.00664646
v -0.05103369 0.02886670 0.01342086
v -0.06713064 0.03725764 0.00411808
v 0.00975840 0.11240226 -0.00529448
v 0.00976195 0.11450063 -0.01008075
v 0.02630460 -0.07644523 0.00979499
v -0.01894444 0.09721043 0.00080987
v 0.06291459 0.04043191 0.00716893
v 0.02216638 -0.08336033 -0.01385231
v -0.04483459 0.06637404 -0.00435039
v -0.05380872 -0.03546800 -0.01288199
v -0.02447863 -0.06242489 0.01602197
v 0.06874577 -0.01367349 -0.00181892
v 0.04657527 0.06330750 0.01715084
v 0.06342126 -0.03839846 -0.01320889
v 0.07331085 -0.00457858 -0.00286489
v -0.05673893 0.00557688 -0.00849483
v 0.00821127 0.10005114 0.00063261
f 13 1 5
f 13 2 1
f 1 2 11
f 5 1 4
f 1 11 8
f 17 11 2
f 17 8 11
f 1 8 14
f 14 8 16
f 14 4 1
f 16 4 14
f 7 17 2
f 2 12 7
f 15 17 18
f 8 17 15
f 9 12 5
f 5 4 9
f 9 7 12
f 9 4 16
f 16 20 9
f 2 13 19
f 19 12 2
f 19 13 5
f 5 12 19
f 10 7 16
f 10 15 18
f 16 8 10
f 8 15 10
f 6 20 16
f 16 7 6
f 6 9 20
f 7 9 6
f 18 17 3
f 17 7 3
f 3 10 18
f 7 10 3

