# https://github.com/mikedh/trimesh
v -0.02589441 0.02897175 0.00580146
v -0.00834669 -0.02522537 0.00520455
v 0.05004848 0.00611630 0.00452213
v 0.02925319 0.02109692 0.00243705
v -0.01937621 -0.01200226 0.00562891
v 0.04048602 0.01702404 -0.00570644
v -0.00911422 0.03077556 -0.00444566
v -0.03733995 -0.01140774 0.00572253
v -0.04870840 -0.00086756 0.00271446
v 0.01116482 0.02310648 -0.00579603
v 0.01188359 -0.01766965 -0.00305225
v 0.03340967 0.02236085 -0.00341195
v 0.01411880 0.02457903 0.00047972
v -0.05219676 -0.01272488 -0.00526445
v 0.05304714 0.00969645 -0.00409789
v -0.01232264 -0.02418243 -0.00082088
v -0.05269189 0.01051104 0.00046527
v 0.04838548 -0.00383381 0.00405848
v -0.05657595 0.00925045 -0.00569330
v -0.04372148 -0.02305718 0.00110720
v 0.04391250 0.00511833 -0.00601515
v 0.00066446 0.00131820 0.00584114
v -0.03550739 0.01884981 0.00522279
v 0.05199030 -0.02784468 0.00170288
f 19 1 7
f 15 24 21
f 21 6 15
f 21 14 19
f 24 18 2
f 3 1 22
f 22 2 3
f 3 2 18
f 3 4 1
f 3 24 15
f 3 18 24
f 19 7 10
f 7 6 10
f 10 21 19
f 6 21 10
f 11 21 24
f 14 21 11
f 24 2 20
f 22 1 8
f 8 20 2
f 13 7 1
f 1 4 13
f 13 4 7
f 12 6 7
f 7 4 12
f 15 6 12
f 12 3 15
f 4 3 12
f 24 20 16
f 16 20 14
f 16 11 24
f 14 11 16
f 5 2 22
f 22 8 5
f 5 8 2
f 20 8 9
f 14 20 9
f 23 8 1
f 23 9 8
f 19 14 17
f 14 9 17
f 9 23 17
f 17 1 19
f 17 23 1

