# https://github.com/mikedh/trimesh
v 0.02964030 0.03071022 0.00673122
v -0.06081303 0.02277183 -0.00036785
v 0.05426750 -0.03125959 -0.00899447
v -0.04531991 -0.02273007 0.00578153
v -0.06496888 0.01996024 0.00113172
v 0.05184808 -0.03677752 0.00517421
v 0.06041090 -0.02101127 0.00746995
v -0.05672294 0.00890927 -0.00661683
v 0.02204356 -0.03652376 0.00369517
v -0.06867901 0.00470692 0.00547247
v 0.01555268 0.03000325 -0.00770840
v 0.03195595 -0.02932549 0.00829310
v 0.05613182 -0.02250708 -0.00438663
v -0.07111358 -0.00284997 0.00514407
v -0.04825338 0.02816875 0.00180027
v -0.06247605 0.02136671 -0.00105723
v 0.04523836 0.00011304 -0.00818084
v -0.02658393 -0.03056624 -0.00426271
v -0.06862969 -0.01934645 -0.00312572
v 0.06012963 -0.01157682 0.00551625
v -0.06575217 0.02439896 0.00444491
v 0.00168362 0.03373199 0.00449028
v -0.04608432 -0.02796985 -0.00060392
v 0.00985338 -0.02606766 -0.00891367
v -0.03599963 0.02462872 -0.00626632
v 0.05832513 0.03646507 0.00281564
v -0.05862342 0.01697635 -0.00616814
v 0.00308542 -0.00991894 0.00853449
v -0.00623682 -0.00136761 -0.00827942
v 0.04252182 0.02393952 -0.00630293
v -0.00472730 0.03405601 -0.00242433
v -0.02445864 0.03063093 0.00529295
v 0.01777920 0.03448698 -0.00574324
v -0.04532490 -0.02157863 -0.00653684
f 7 26 1
f 20 26 7
f 7 3 20
f 7 1 28
f 6 3 7
f 6 9 3
f 13 3 26
f 26 20 13
f 13 20 3
f 27 11 8
f 27 8 19
f 26 3 30
f 14 28 10
f 10 21 14
f 28 21 10
f 32 28 1
f 32 21 28
f 4 28 14
f 14 19 4
f 29 8 11
f 3 9 18
f 27 19 5
f 14 21 5
f 5 19 14
f 3 11 17
f 17 30 3
f 11 30 17
f 22 1 26
f 22 32 1
f 26 31 22
f 22 31 32
f 33 31 26
f 26 30 33
f 33 30 11
f 31 33 25
f 25 11 27
f 25 33 11
f 28 4 12
f 7 28 12
f 12 6 7
f 9 6 12
f 12 4 9
f 34 18 19
f 34 19 8
f 9 4 23
f 23 18 9
f 23 4 19
f 19 18 23
f 27 5 16
f 16 5 21
f 31 25 15
f 21 32 15
f 32 31 15
f 3 18 24
f 18 34 24
f 24 11 3
f 24 29 11
f 8 29 24
f 24 34 8
f 2 15 25
f 2 25 27
f 27 16 2
f 2 16 21
f 21 15 2

