# https://github.com/mikedh/trimesh
v 0.06231464 0.04534704 -0.00346649
v 0.03294843 -0.08530122 0.00875121
v -0.07470320 -0.01046021 -0.00729672
v 0.04531365 0.07443446 0.00729395
v 0.07452748 0.00797694 0.01305225
v -0.03957604 -0.02318359 -0.02054026
v 0.05612146 -0.04721604 -0.01771429
v -0.00723410 -0.09507170 0.00190006
v 0.04180774 -0.07240001 -0.00046064
v -0.07899832 0.03909596 0.00114217
v 0.07663872 0.02227513 -0.00125707
v 0.02058723 -0.05258898 -0.01740591
v -0.06798873 -0.03225044 -0.01408732
v 0.00270161 0.08020068 -0.02509870
v -0.07055895 0.03947174 0.01956569
v 0.01086753 0.08076918 0.00142305
v 0.07043752 -0.02335083 0.01158407
v -0.00179701 -0.07901135 0.02197751
v 0.03817488 0.07352389 -0.01284748
v 0.03440687 0.05679513 0.01913218
v -0.06330312 -0.05451754 -0.00827613
v 0.02392769 0.07757955 -0.00592599
v -0.06645661 -0.00609469 -0.01193169
v -0.04060235 0.08022410 -0.00376946
v -0.06512166 0.02025539 0.02362718
v 0.05562783 -0.03635174 -0.02292986
v 0.07767723 -0.03460744 -0.00722181
v -0.07184287 -0.01962062 0.00568729
f 25 28 18
f 10 28 15
f 15 28 25
f 14 26 6
f 8 18 21
f 21 18 28
f 2 18 8
f 25 18 20
f 20 15 25
f 10 15 24
f 24 14 10
f 19 14 4
f 26 14 19
f 6 26 12
f 12 21 6
f 8 21 12
f 6 21 13
f 13 14 6
f 8 12 7
f 7 12 26
f 7 26 27
f 5 20 18
f 4 20 5
f 4 14 22
f 15 20 16
f 16 24 15
f 16 20 4
f 4 22 16
f 14 24 16
f 16 22 14
f 10 14 23
f 23 13 10
f 14 13 23
f 3 21 28
f 3 13 21
f 3 28 10
f 10 13 3
f 9 2 8
f 8 7 9
f 27 2 9
f 9 7 27
f 17 2 27
f 27 5 17
f 18 2 17
f 17 5 18
f 11 5 27
f 27 26 11
f 26 19 11
f 4 5 11
f 1 19 4
f 4 11 1
f 1 11 19

