# https://github.com/mikedh/trimesh
v -0.08544996 0.02990558 0.00213921
v 0.02353087 0.05070375 -0.01906539
v -0.00375313 0.06087019 0.00667556
v -0.03187971 0.05934011 0.00232283
v -0.03746382 -0.02153969 -0.02728777
v -0.03497251 0.05682043 -0.00129956
v 0.06095155 -0.03646172 -0.02060014
v 0.09179673 0.00259064 0.01427206
v 0.07012895 -0.03392116 0.00372397
v -0.00064881 0.02969782 -0.02956870
v -0.00670580 0.06361120 -0.01346044
v 0.04882247 0.04536936 -0.00488714
v -0.03386134 0.05792283 0.00254743
v 0.08528353 0.01145905 0.00012159
v -0.08780776 0.01362268 -0.00863314
v -0.09862341 -0.00770437 0.01000444
v -0.06675525 -0.02581151 -0.00617725
v 0.06498330 -0.04945287 -0.01571436
v -0.01995241 -0.06249483 -0.00403042
v -0.01654366 -0.06537907 0.01412790
v 0.08218916 0.01912139 0.00944079
v 0.07433218 -0.01655154 -0.02596956
v -0.09402915 -0.00054371 0.00166060
v -0.07764891 -0.00647365 -0.01958294
v 0.08079624 0.00469129 -0.01454144
v 0.02166951 -0.03189828 0.02915619
v -0.04045787 0.01121905 0.02902903
v 0.06360163 0.02880938 0.02480656
v 0.02505176 0.06061760 0.00940523
f 11 10 15
f 2 10 11
f 29 2 11
f 11 15 1
f 16 27 1
f 1 15 16
f 16 15 23
f 10 2 22
f 22 5 10
f 8 18 22
f 28 29 27
f 28 26 8
f 27 26 28
f 20 27 16
f 20 26 27
f 9 18 8
f 8 26 9
f 9 20 18
f 26 20 9
f 24 15 10
f 10 5 24
f 24 23 15
f 16 23 24
f 2 29 12
f 18 5 7
f 7 22 18
f 5 22 7
f 27 29 3
f 3 4 27
f 3 29 11
f 11 4 3
f 13 1 27
f 27 4 13
f 13 4 1
f 11 1 6
f 6 4 11
f 1 4 6
f 16 24 17
f 25 12 14
f 25 14 8
f 8 22 25
f 25 22 2
f 2 12 25
f 14 12 21
f 8 14 21
f 21 28 8
f 29 28 21
f 21 12 29
f 19 17 24
f 19 24 5
f 19 5 18
f 16 17 19
f 18 20 19
f 19 20 16

