# https://github.com/mikedh/trimesh
v 0.06197887 0.01528242 0.00499587
v 0.04929784 0.02316089 -0.00287461
v 0.09657853 0.01406204 -0.00177130
v -0.08578130 0.01573422 -0.00029777
v 0.06989366 0.00828898 0.00560546
v 0.08197437 0.02047246 0.00310222
v 0.09211341 0.01890657 -0.00336104
v -0.07366476 0.02108698 0.00218395
v 0.03556129 0.02174063 0.00458250
v 0.02678376 -0.00135257 0.00583498
v -0.09531361 -0.01156419 0.00067765
v -0.01377465 0.01494470 -0.00417475
v -0.07612361 -0.02253864 -0.00328404
v 0.06445740 -0.02201469 0.00351364
v -0.01243379 -0.02901958 0.00259980
v 0.08573369 0.00737388 0.00306552
v -0.01170729 0.02593418 -0.00032797
v -0.00529514 0.02155347 0.00580847
v -0.09280960 0.02589903 -0.00414420
v -0.05349326 0.02619033 -0.00334781
v 0.08289938 0.00773578 -0.00363855
v 0.08808481 -0.02547576 -0.00176392
f 11 13 15
f 15 10 11
f 15 14 10
f 11 10 18
f 18 8 11
f 11 8 4
f 19 13 11
f 19 4 8
f 11 4 19
f 8 18 19
f 3 16 22
f 22 16 14
f 22 7 3
f 21 7 22
f 13 21 22
f 14 15 22
f 22 15 13
f 5 18 10
f 10 14 5
f 14 16 5
f 2 19 20
f 7 19 2
f 12 21 13
f 13 19 12
f 12 7 21
f 12 19 7
f 20 19 17
f 17 19 18
f 17 2 20
f 7 2 6
f 3 7 6
f 2 17 6
f 6 16 3
f 6 5 16
f 18 5 1
f 5 6 1
f 18 1 9
f 9 1 6
f 9 17 18
f 9 6 17

