# https://github.com/mikedh/trimesh
v -0.05081685 0.03806068 0.02630358
v -0.04432378 -0.07760313 -0.01209009
v -0.05554039 0.01401538 0.02447188
v 0.03802432 -0.11301225 -0.00928080
v -0.02187301 0.08373704 -0.02530137
v -0.04303936 -0.05732368 -0.01460136
v 0.03992945 0.06647006 -0.00730286
v 0.04994534 -0.05840624 -0.01343562
v 0.00950409 0.12686785 -0.00263439
v 0.03443836 -0.09156007 -0.01989139
v -0.05267363 -0.07062699 -0.00905775
v -0.06870595 0.04603032 0.00580785
v 0.07019850 -0.00437321 0.02049737
v 0.02927491 0.08648714 -0.00086883
v 0.01342776 0.08682023 -0.02434604
v 0.00164622 -0.11020286 0.01976696
v 0.06009670 0.00081372 -0.00230196
v -0.03362156 0.01865004 0.02623320
v -0.00803589 0.12336630 -0.02552019
v 0.05304795 -0.02782713 -0.01394844
f 16 4 13
f 9 19 12
f 1 9 12
f 13 9 1
f 4 16 2
f 2 10 4
f 6 10 2
f 19 9 7
f 18 16 13
f 13 1 18
f 5 10 6
f 12 19 5
f 4 10 8
f 8 10 20
f 13 4 8
f 8 20 13
f 20 10 15
f 19 7 15
f 15 7 20
f 15 5 19
f 10 5 15
f 16 18 3
f 3 18 1
f 3 1 12
f 14 9 13
f 13 7 14
f 14 7 9
f 13 20 17
f 17 7 13
f 20 7 17
f 11 2 16
f 16 3 11
f 11 3 12
f 6 2 11
f 12 5 11
f 11 5 6

