# https://github.com/mikedh/trimesh
v -0.02494426 0.04097937 0.00472540
v 0.03329368 0.04041602 -0.00156686
v -0.05570323 0.02595037 -0.00088763
v 0.04398129 -0.03264137 -0.00573435
v -0.00451843 -0.04026784 -0.00410718
v -0.04644224 0.03548748 0.00093852
v 0.02848035 -0.04508013 0.00096864
v 0.04822414 -0.03104156 0.00119443
v -0.02614353 -0.04441791 0.00109392
v -0.04282426 -0.04314131 -0.00135464
v 0.05999277 -0.02500138 0.00054289
v -0.00005057 0.03450537 -0.00400197
v -0.04873259 -0.01326119 0.00492639
v -0.00079995 -0.01842470 0.00540288
v -0.06164428 0.03182208 0.00512352
v -0.05873453 -0.02677768 -0.00590553
v 0.05741209 -0.01692687 -0.00561245
v 0.05845861 -0.00679599 -0.00139349
v 0.05804945 0.04203195 0.00444628
v -0.04073676 -0.04419852 -0.00017147
v -0.02659733 0.03245441 -0.00521257
v 0.03170042 -0.02694666 0.00476535
f 11 19 22
f 15 19 1
f 3 16 15
f 3 21 16
f 2 1 19
f 21 1 2
f 16 21 17
f 17 2 19
f 15 16 13
f 6 3 15
f 21 3 6
f 15 1 6
f 6 1 21
f 21 2 12
f 12 17 21
f 2 17 12
f 18 19 11
f 11 17 18
f 18 17 19
f 15 13 14
f 14 19 15
f 14 22 19
f 11 22 8
f 16 17 4
f 4 17 11
f 20 13 16
f 16 4 5
f 22 14 9
f 9 14 13
f 13 20 9
f 10 20 16
f 16 5 10
f 7 9 20
f 22 9 7
f 7 5 4
f 20 10 7
f 7 10 5
f 7 8 22
f 11 8 7
f 7 4 11

