# https://github.com/mikedh/trimesh
v -0.05248622 0.00739317 -0.00738987
v -0.01224964 0.07622526 -0.00842383
v 0.02569609 -0.05764285 0.00820694
v 0.00486671 0.08534955 -0.00596805
v 0.01577543 -0.07699179 0.00163360
v 0.05429829 0.04955400 0.00032551
v 0.03351468 0.02046787 0.01274166
v 0.01370637 0.07810251 -0.00988970
v 0.00210529 0.08597773 0.00072811
v 0.06685555 0.04066469 -0.00410368
v -0.05694291 0.04342459 0.01786612
v -0.03858022 -0.05899576 0.00062109
v -0.03360253 0.06127814 0.00835197
v 0.05319460 -0.01256923 0.00516924
v -0.04385382 -0.02443249 -0.01862100
v -0.00361926 0.04695803 -0.01394878
v 0.04510835 0.02982640 0.00984238
v 0.03584646 -0.05050430 -0.00684443
v 0.02096667 0.07692968 -0.00829215
v -0.03626083 0.04877461 -0.00231673
v -0.00936395 -0.09004058 0.01049010
v 0.06103516 -0.02606370 -0.01192273
v -0.02647247 -0.09133012 -0.00452385
v 0.00413628 -0.06415119 0.01593035
v -0.06087324 0.00736586 -0.00236682
v 0.00037231 -0.04363832 0.01734103
v 0.02446368 0.03721663 0.01439730
v -0.02525704 -0.08333004 0.00241883
v 0.06306866 -0.00084174 -0.00321927
v -0.05717088 -0.02999941 -0.01163118
v 0.04366183 0.06259141 0.00090904
v -0.04899124 0.04186959 0.01809900
f 27 9 32
f 25 15 30
f 30 15 23
f 23 12 30
f 23 5 21
f 10 14 29
f 26 27 32
f 9 27 31
f 32 9 11
f 11 20 25
f 25 30 11
f 11 30 12
f 11 21 24
f 11 26 32
f 24 26 11
f 1 15 25
f 28 12 23
f 23 21 28
f 28 11 12
f 21 11 28
f 3 14 24
f 24 21 3
f 3 21 5
f 24 14 7
f 7 26 24
f 27 26 7
f 23 15 22
f 22 3 5
f 10 29 22
f 22 29 14
f 14 3 22
f 15 16 22
f 22 8 10
f 22 16 8
f 17 31 27
f 27 7 17
f 17 14 10
f 17 7 14
f 9 31 19
f 10 8 19
f 19 31 10
f 13 11 9
f 8 16 2
f 2 16 15
f 2 13 9
f 15 1 2
f 20 11 2
f 11 13 2
f 25 20 2
f 2 1 25
f 18 5 23
f 23 22 18
f 18 22 5
f 10 31 6
f 6 17 10
f 31 17 6
f 9 19 4
f 4 19 8
f 4 2 9
f 8 2 4

