# https://github.com/mikedh/trimesh
v 0.03043625 0.07141238 -0.00333393
v 0.00943115 0.07912115 -0.02248366
v -0.05906187 -0.01054914 -0.01331057
v 0.06029842 0.00018132 0.00848838
v 0.07670107 -0.00696365 -0.01031139
v -0.06703388 -0.03372845 -0.00529207
v 0.05690481 0.02872079 0.01311274
v -0.02871306 0.05886414 0.02249865
v 0.05725540 -0.05731875 -0.02042128
v 0.07687602 -0.02789685 -0.01318788
v 0.00706716 0.09788547 -0.00039358
v -0.02098791 0.09845742 -0.00300621
v 0.04151190 0.05648817 -0.00124094
v 0.04942327 -0.06407628 0.00681362
v -0.04912001 0.08128340 0.02260900
v -0.04882263 -0.07155780 -0.01715892
v -0.03259464 -0.02666283 -0.02344345
v -0.05657604 -0.05256507 -0.01323394
v -0.05923623 0.02020614 0.02020049
v 0.00460486 -0.07650517 0.02513920
v 0.01659886 -0.04338561 0.02221480
v -0.06669259 -0.02722398 0.01174145
v 0.02837172 -0.08585673 0.00749831
v -0.05525818 -0.03842051 0.01063983
f 8 15 20
f 20 23 14
f 20 22 24
f 20 15 19
f 19 22 20
f 19 15 6
f 6 22 19
f 9 2 10
f 9 17 2
f 10 14 9
f 9 14 23
f 16 9 23
f 17 9 16
f 16 23 20
f 20 24 16
f 16 22 6
f 16 24 22
f 17 16 3
f 12 2 3
f 2 17 3
f 6 15 3
f 3 15 12
f 11 2 12
f 12 15 11
f 20 14 7
f 15 8 7
f 7 11 15
f 18 16 6
f 6 3 18
f 18 3 16
f 21 8 20
f 20 7 21
f 21 7 8
f 4 14 10
f 4 7 14
f 10 2 5
f 5 4 10
f 7 4 5
f 2 11 1
f 1 5 2
f 11 7 1
f 7 5 13
f 13 1 7
f 5 1 13

