# https://github.com/mikedh/trimesh
v 0.08769759 -0.03885585 -0.00197716
v 0.01211890 -0.03988747 0.00447535
v 0.02861233 0.01027271 0.00489001
v 0.01868638 0.00161566 0.00489273
v 0.07396186 0.00913291 -0.00344043
v -0.02769613 0.01477550 0.00469133
v 0.03128605 -0.02181002 0.00432096
v -0.05617460 0.02487653 -0.00314528
v 0.04260511 0.04619104 0.00372626
v -0.08937665 -0.01281603 -0.00449451
v -0.00637339 0.01588116 0.00490138
v -0.02670211 -0.02898710 -0.00386128
v -0.06543631 0.03351289 -0.00183343
v -0.06787947 -0.03791672 -0.00192583
v -0.03172334 -0.00270355 0.00439939
v -0.05763235 0.03893652 -0.00118522
v -0.02795607 0.00804088 -0.00416856
v -0.09714353 -0.00201484 -0.00133098
v -0.09803091 -0.01945797 0.00263019
v 0.07859047 0.01656811 0.00347402
v -0.05890687 0.02315718 0.00345523
v -0.06850392 -0.02471526 -0.00351125
v 0.07588421 0.04057137 -0.00211042
v 0.00761799 0.00603871 0.00492305
v 0.06083915 -0.01275914 -0.00529482
v -0.04854651 0.00277625 -0.00429627
v 0.07036345 0.03166856 0.00258919
v 0.05498483 0.03435767 0.00457295
v -0.08492733 0.01467029 0.00060391
v -0.04739715 0.00870437 -0.00406273
v -0.03755629 -0.03484842 0.00253967
f 1 2 14
f 12 25 1
f 1 14 12
f 31 2 19
f 19 14 31
f 31 14 2
f 10 14 19
f 25 12 10
f 20 2 1
f 1 23 20
f 19 21 29
f 9 23 16
f 16 21 9
f 13 29 16
f 16 29 21
f 8 10 13
f 13 16 8
f 8 16 23
f 1 25 5
f 5 23 1
f 25 23 5
f 22 12 14
f 14 10 22
f 22 10 12
f 27 23 9
f 27 20 23
f 13 10 18
f 18 29 13
f 18 10 19
f 19 29 18
f 9 21 6
f 6 11 9
f 6 21 19
f 2 11 6
f 24 11 2
f 17 23 25
f 17 8 23
f 19 2 15
f 15 6 19
f 2 6 15
f 28 27 9
f 20 27 28
f 9 11 28
f 10 8 30
f 8 17 30
f 11 24 3
f 3 28 11
f 2 20 7
f 20 28 7
f 7 3 2
f 28 3 7
f 25 10 26
f 10 30 26
f 26 17 25
f 26 30 17
f 4 24 2
f 2 3 4
f 4 3 24

