# https://github.com/mikedh/trimesh
v 0.09145880 0.00875988 0.00511580
v -0.07578472 0.00811869 -0.00681185
v 0.08777222 -0.01972343 -0.00487419
v -0.09259308 0.01812793 -0.00399700
v -0.10282226 0.00767671 0.00410422
v 0.03454895 0.01374841 -0.00756497
v -0.00832283 -0.02608676 0.00135327
v -0.04787528 0.01466801 0.00632600
v -0.00599718 -0.01917294 0.00671246
v 0.08629557 -0.02091620 0.00231133
v 0.09046251 0.00665864 -0.00359696
v 0.09230430 -0.00922705 0.00394605
v 0.09665264 0.02356170 0.00064017
v 0.08716254 -0.00718870 -0.00663496
v -0.10008527 -0.01506003 -0.00671556
v 0.08726753 0.02851564 0.00576260
v -0.09755450 -0.01715072 0.00437884
v -0.09660260 0.00453683 -0.00464153
v 0.08432209 -0.02381280 -0.00658969
v -0.02527927 -0.02585065 0.00662151
v -0.06518355 0.02229995 0.00542955
v -0.07522285 -0.02075874 -0.00508488
v -0.08201629 -0.00922449 0.00603003
v -0.04692578 0.00309680 -0.00754584
v 0.01883671 0.02498528 -0.00092059
v -0.09451117 -0.01982263 -0.00017771
v 0.01028493 -0.02478060 -0.00531447
v -0.06280271 -0.02344478 0.00455913
f 5 15 17
f 13 6 25
f 6 4 25
f 25 16 13
f 18 15 5
f 5 4 18
f 18 4 15
f 2 4 6
f 15 4 2
f 13 3 14
f 9 16 8
f 9 8 20
f 24 2 6
f 15 2 24
f 11 6 13
f 13 14 11
f 11 14 6
f 19 14 3
f 15 24 19
f 6 14 19
f 19 24 6
f 3 10 19
f 19 20 7
f 10 20 19
f 9 20 12
f 12 20 10
f 12 3 13
f 12 10 3
f 26 17 15
f 15 22 26
f 21 4 5
f 21 8 16
f 21 25 4
f 16 25 21
f 17 20 23
f 23 20 8
f 5 17 23
f 23 21 5
f 8 21 23
f 27 22 15
f 15 19 27
f 7 22 27
f 27 19 7
f 1 16 9
f 9 12 1
f 13 16 1
f 1 12 13
f 28 26 22
f 28 22 7
f 7 20 28
f 28 20 17
f 17 26 28

