# https://github.com/mikedh/trimesh
v -0.03996788 0.02093985 0.00591509
v -0.07957797 0.02124009 -0.00252119
v 0.02327173 -0.01637103 -0.00716086
v -0.03129111 -0.04271724 0.00614772
v 0.08404442 -0.00261639 -0.00623750
v -0.08967062 -0.00808003 0.00117047
v 0.02566494 -0.03465479 0.00547733
v -0.03796094 -0.03155831 -0.00636652
v 0.08098950 -0.00924421 0.00496707
v -0.07795522 -0.02553357 0.00318463
v 0.07564573 0.03907354 0.00615437
v -0.09020353 0.03939193 0.00055707
v 0.05832031 -0.02573508 0.00609867
v -0.06966828 -0.02682930 0.00043200
v -0.08570438 0.00511598 0.00218621
v -0.05712730 -0.00501831 -0.00574607
v -0.04357229 0.03825129 -0.00666234
v 0.06404027 -0.00038007 -0.00657521
v 0.07545345 -0.04333108 -0.00472038
v 0.07486048 -0.04285562 0.00100744
v -0.03626717 -0.04053715 0.00284006
v 0.02630145 -0.01068375 -0.00736186
v 0.02935169 0.03772408 -0.00522438
f 1 11 12
f 1 4 11
f 11 4 13
f 5 19 22
f 4 1 10
f 19 4 21
f 21 8 19
f 4 10 21
f 11 13 9
f 5 11 9
f 7 13 4
f 19 8 3
f 3 22 19
f 8 22 3
f 12 11 17
f 17 22 8
f 15 1 12
f 15 10 1
f 12 6 15
f 15 6 10
f 8 21 14
f 14 21 10
f 14 6 8
f 10 6 14
f 20 19 5
f 5 9 20
f 20 9 13
f 13 7 20
f 20 4 19
f 20 7 4
f 5 22 18
f 22 17 18
f 23 17 11
f 23 11 5
f 5 18 23
f 23 18 17
f 16 17 8
f 8 6 16
f 2 6 12
f 2 16 6
f 12 17 2
f 17 16 2

