# https://github.com/mikedh/trimesh
v 0.07516431 -0.01863722 -0.00387151
v -0.01303090 -0.04227132 0.00094463
v -0.04259599 0.03126535 0.00614307
v -0.04861659 0.04330324 0.00303468
v -0.06676761 0.02477039 -0.00248378
v 0.03859419 -0.04385016 0.00145816
v -0.04471264 -0.03966905 0.00551776
v -0.07031727 0.00196133 -0.00387024
v -0.01281257 0.00449864 0.00679236
v -0.01710364 0.00873628 -0.00678246
v 0.05571487 0.02946521 0.00356288
v -0.03911613 0.03960782 -0.00588130
v -0.04860286 -0.04121947 -0.00580895
v 0.04862507 -0.02531110 0.00608269
v -0.00073031 0.01614580 -0.00669137
v -0.07758887 -0.03125857 -0.00250450
v -0.00848108 0.02315965 0.00723014
v 0.06287930 -0.01389161 0.00264357
v -0.07873296 0.02112233 -0.00052170
v 0.06808938 -0.04108912 -0.00297911
v -0.07479860 -0.00936016 0.00499283
v 0.06722136 -0.04054473 -0.00326311
v 0.03695250 -0.02620024 -0.00530768
v -0.03995158 0.00449400 0.00638004
v 0.06083446 0.02583335 -0.00451256
v -0.06308801 0.00422982 0.00572683
v 0.02872052 0.04001986 0.00625147
v 0.08009283 0.03759284 -0.00055961
v -0.03651095 -0.01333536 -0.00618576
v -0.07308517 -0.03550651 0.00267083
v 0.02289346 0.04569298 -0.00134858
f 19 4 12
f 27 3 17
f 4 3 27
f 31 12 4
f 31 27 28
f 4 27 31
f 6 13 20
f 13 22 20
f 25 31 28
f 12 31 25
f 19 12 5
f 8 12 13
f 13 16 8
f 8 5 12
f 8 16 19
f 19 5 8
f 6 20 14
f 14 20 18
f 14 27 17
f 14 18 28
f 6 14 7
f 1 20 22
f 1 25 28
f 28 18 1
f 18 20 1
f 12 25 15
f 28 27 11
f 11 14 28
f 27 14 11
f 2 13 6
f 6 7 2
f 2 7 13
f 30 16 13
f 13 7 30
f 24 7 17
f 9 14 17
f 17 7 9
f 9 7 14
f 12 15 10
f 25 1 23
f 23 15 25
f 23 22 13
f 23 1 22
f 13 10 23
f 23 10 15
f 19 16 21
f 16 30 21
f 21 30 7
f 13 12 29
f 29 10 13
f 12 10 29
f 26 4 19
f 19 21 26
f 26 3 4
f 17 3 26
f 26 24 17
f 7 24 26
f 26 21 7

