# https://github.com/mikedh/trimesh
v -0.05063859 0.01072735 -0.00375850
v -0.03476643 0.00605046 0.00497621
v 0.01393087 -0.02780751 0.00244728
v 0.05766577 0.02614455 0.00451850
v -0.11362985 -0.01131718 0.00348517
v 0.05242123 0.02868183 0.00233101
v 0.00583775 -0.03333270 -0.00294622
v -0.07831418 -0.02082314 0.00213395
v -0.00506247 -0.03265028 -0.00632312
v 0.04602287 -0.02837404 -0.00455093
v 0.10066274 -0.01323654 0.00268390
v 0.07824664 0.00957161 -0.00307048
v -0.01834151 0.02931537 -0.00206881
v -0.08879720 0.00118986 -0.00277103
v 0.08160248 0.00463276 0.00391860
v 0.03563879 0.01953914 -0.00392240
v 0.01440774 0.02828162 0.00305306
v -0.07424664 0.02759227 -0.00036858
v 0.08806726 0.02475775 -0.00235829
v 0.08254837 0.02621218 0.00118853
v 0.08475810 -0.01787342 0.00377417
v 0.08380938 0.01558592 0.00281271
f 14 9 5
f 18 14 5
f 5 9 8
f 8 3 5
f 7 8 9
f 3 8 7
f 3 7 21
f 5 3 21
f 9 14 1
f 1 18 13
f 14 18 1
f 10 7 9
f 11 21 10
f 10 21 7
f 6 19 13
f 15 21 11
f 4 21 15
f 11 22 15
f 15 22 4
f 9 1 16
f 13 19 16
f 16 1 13
f 12 10 9
f 9 16 12
f 12 16 19
f 12 19 11
f 11 10 12
f 20 6 4
f 19 6 20
f 4 22 20
f 11 19 20
f 20 22 11
f 4 6 17
f 13 18 17
f 17 6 13
f 2 21 4
f 4 17 2
f 5 21 2
f 2 17 18
f 2 18 5

