# https://github.com/mikedh/trimesh
v 0.10885638 0.00446965 -0.00843582
v -0.00702720 0.11872448 -0.02161592
v -0.01359618 -0.06248300 0.02582802
v 0.10418694 0.03137349 0.00056242
v 0.08735102 -0.04582167 0.00722470
v 0.09636821 -0.01363807 0.01643400
v -0.10995404 0.02337717 0.00729031
v -0.02097707 -0.08587904 0.02060998
v -0.01928540 0.09460022 0.00807064
v 0.07101874 0.03642265 0.03460797
v -0.00284788 -0.07238925 0.02488341
v 0.05785526 0.08952479 0.02022954
v 0.11190221 -0.03880191 -0.00287688
v -0.10312954 -0.05434654 -0.01020530
v -0.09852583 0.03992482 0.02729316
v -0.07446878 -0.07482717 0.00338217
v 0.08906660 -0.07485419 -0.02812427
v 0.10256345 0.03159914 0.02537669
v 0.00643171 0.10633115 -0.02736968
v 0.04668210 -0.06323651 0.01101104
v -0.07558129 -0.10023723 -0.00444075
v 0.04207220 -0.08230168 -0.00641298
v -0.05007828 -0.10675953 0.00336565
v -0.11554384 -0.03811680 -0.01650806
v -0.04472228 -0.03638011 -0.02476386
f 7 2 24
f 24 25 21
f 21 25 17
f 2 7 15
f 15 9 2
f 15 7 24
f 10 6 18
f 18 6 13
f 17 25 19
f 24 2 19
f 19 25 24
f 13 6 5
f 5 17 13
f 11 6 10
f 11 5 6
f 8 21 23
f 23 21 17
f 2 9 12
f 10 18 12
f 12 15 10
f 9 15 12
f 12 18 4
f 12 19 2
f 4 19 12
f 16 21 8
f 8 15 16
f 16 15 21
f 24 21 14
f 14 15 24
f 21 15 14
f 17 19 1
f 1 19 4
f 13 17 1
f 1 18 13
f 4 18 1
f 20 11 8
f 5 11 20
f 3 15 8
f 8 11 3
f 10 15 3
f 3 11 10
f 8 23 22
f 22 23 17
f 22 20 8
f 17 5 22
f 5 20 22

