# https://github.com/mikedh/trimesh
v -0.02282722 -0.11247560 0.01591346
v -0.07791925 0.00588357 -0.01035413
v -0.04890164 -0.09598890 -0.01167130
v -0.08768528 -0.03726188 -0.01166040
v -0.00165301 0.07970716 -0.02939532
v -0.05728213 -0.05548876 -0.02297312
v 0.05521401 0.08555490 -0.01189544
v 0.06347377 -0.07291070 -0.01290335
v 0.06849414 0.09204384 0.01557245
v -0.00163586 0.07033343 -0.02965455
v 0.03963022 -0.07687660 0.00912799
v 0.01598482 -0.11128257 0.00112967
v 0.04429759 -0.08226518 0.00106810
v -0.09142797 -0.05929575 -0.00667042
v 0.05291887 0.00732264 0.02034000
v -0.03315522 0.09494346 0.00913116
v -0.03682809 0.09428396 -0.01179561
v 0.05124931 -0.08358759 -0.01255736
v 0.07552309 -0.04504582 0.00176374
v -0.05408992 0.09179694 0.01110129
v 0.09857782 0.00348373 -0.00994109
v 0.10112709 0.01543419 0.00605760
v -0.08016594 0.05237531 0.02590135
f 14 1 23
f 3 6 18
f 3 1 14
f 14 6 3
f 10 21 8
f 8 6 10
f 18 6 8
f 15 23 1
f 15 11 22
f 1 11 15
f 16 17 20
f 17 2 20
f 20 2 23
f 10 6 5
f 5 2 17
f 17 7 5
f 5 21 10
f 5 7 21
f 12 3 18
f 1 3 12
f 12 11 1
f 18 8 12
f 22 11 19
f 19 21 22
f 19 8 21
f 9 15 22
f 23 15 9
f 22 21 9
f 21 7 9
f 9 17 16
f 9 7 17
f 9 20 23
f 16 20 9
f 4 5 6
f 2 5 4
f 4 6 14
f 23 2 4
f 14 23 4
f 13 12 8
f 8 19 13
f 11 12 13
f 13 19 11

