# https://github.com/mikedh/trimesh
v 0.04525934 0.01694308 0.00506654
v -0.03970660 0.03381686 -0.00189400
v 0.07292492 -0.03222826 -0.00230425
v -0.06632457 0.02178774 -0.00207870
v 0.03546752 0.04176848 -0.00132747
v -0.05296010 -0.03739637 0.00103841
v -0.03675194 -0.00210306 -0.00431225
v -0.08550661 0.01929170 0.00231098
v -0.08189926 0.00690765 -0.00213355
v -0.03076355 0.03180108 0.00500701
v -0.02759143 -0.03053345 0.00346959
v -0.01511950 0.00259966 -0.00423520
v -0.08271388 -0.01598912 -0.00290863
v 0.07412395 -0.00290153 0.00283796
v 0.07920188 -0.01725758 -0.00410224
v -0.07864781 0.02672880 0.00385962
v 0.07034364 0.02026690 0.00309927
v -0.08180207 -0.03462280 -0.00398453
v 0.09214916 -0.02892469 -0.00430869
v 0.02571617 -0.02764336 0.00366307
v -0.06323207 -0.02431324 0.00435373
v 0.08743723 -0.03170787 0.00073547
v -0.02585438 0.02625861 -0.00367986
v -0.04975636 0.03817562 0.00325797
v 0.07338520 0.03145001 -0.00257713
v 0.02984620 0.03875894 0.00050926
f 18 21 8
f 10 21 1
f 17 25 5
f 17 10 1
f 19 25 17
f 17 22 19
f 15 25 19
f 1 21 20
f 3 18 19
f 19 22 3
f 13 18 8
f 8 9 13
f 13 9 18
f 18 9 23
f 25 15 23
f 5 25 23
f 5 24 26
f 24 10 26
f 26 17 5
f 10 17 26
f 16 10 24
f 8 21 16
f 21 10 16
f 14 17 1
f 22 17 14
f 1 20 14
f 14 20 22
f 11 20 21
f 22 20 11
f 19 18 7
f 18 23 7
f 2 24 5
f 5 23 2
f 2 16 24
f 22 11 6
f 18 3 6
f 6 3 22
f 21 18 6
f 6 11 21
f 19 7 12
f 12 7 23
f 12 15 19
f 12 23 15
f 4 23 9
f 4 2 23
f 4 9 8
f 8 16 4
f 16 2 4

