# https://github.com/mikedh/trimesh
v -0.06678942 -0.03301190 0.00664350
v -0.08753368 0.02851897 -0.00524917
v 0.10435938 -0.01612207 0.00125329
v 0.08148235 0.03732464 0.00145491
v -0.09139738 0.00738114 0.00604364
v -0.08018074 0.02998868 0.00240844
v 0.07696735 -0.00620657 -0.00774062
v 0.10629670 0.02134618 0.00559993
v 0.05863026 0.02685841 -0.00751427
v -0.10169154 0.01568669 0.00093360
v -0.10149880 -0.02389839 0.00396227
v 0.05098751 -0.03081248 0.00431701
v -0.07871099 0.03003126 0.00576279
v -0.09515433 -0.03573845 0.00285612
v -0.01408567 -0.03456320 -0.00705821
v 0.02845679 -0.01623425 0.00669106
v 0.05627408 0.03439843 -0.00117423
v 0.08713136 0.01647031 -0.00635989
v -0.06121771 0.03391652 -0.00211094
v -0.09826919 -0.01216005 -0.00488483
v 0.08177531 -0.03243323 -0.00069433
v 0.05605518 -0.01815851 0.00516935
v 0.04490284 -0.00573827 0.00671866
f 7 9 18
f 10 13 2
f 2 20 10
f 4 13 8
f 8 18 4
f 4 18 9
f 7 21 15
f 20 2 15
f 14 20 15
f 15 21 14
f 15 9 7
f 15 2 9
f 3 21 7
f 7 18 3
f 3 18 8
f 8 13 23
f 14 21 12
f 12 1 14
f 21 3 12
f 12 3 8
f 5 13 10
f 5 23 13
f 1 23 5
f 9 2 19
f 13 4 19
f 16 23 1
f 1 12 16
f 8 23 22
f 22 12 8
f 23 16 22
f 22 16 12
f 11 5 10
f 10 20 11
f 11 20 14
f 14 1 11
f 1 5 11
f 17 4 9
f 9 19 17
f 17 19 4
f 6 2 13
f 13 19 6
f 6 19 2

