# https://github.com/mikedh/trimesh
v -0.01888077 0.09798750 -0.01492110
v 0.01290329 0.05874438 -0.01655655
v -0.04507848 0.06789367 0.00811428
v -0.06535252 0.01874771 0.01043335
v -0.07493246 0.00643922 -0.00721857
v 0.00082128 -0.08324066 0.01363055
v -0.00175719 0.09625152 0.00126774
v 0.04119085 0.07117495 0.01266664
v -0.06686339 0.00265096 0.01189245
v 0.03297311 -0.09753524 0.00787649
v 0.07912273 -0.02541642 -0.00872212
v 0.07721334 0.02503878 0.01773916
v -0.04985045 0.02123322 0.01656924
v 0.05546843 0.07462770 0.00186130
v -0.02331393 0.07540166 -0.01842607
v 0.04098179 -0.01304683 -0.01836948
v -0.05990894 0.06374899 0.00096341
v 0.04233164 0.05078734 0.01676756
v -0.00760226 -0.08123899 0.01396264
v -0.06019030 -0.06030076 -0.00004838
v -0.06151363 -0.08361301 -0.00961488
v -0.07219145 -0.02946493 -0.01569635
f 14 12 11
f 11 12 10
f 11 10 16
f 5 22 21
f 21 10 19
f 22 16 21
f 21 16 10
f 17 1 5
f 17 3 1
f 13 19 12
f 12 14 8
f 12 19 6
f 6 10 12
f 19 10 6
f 15 16 22
f 5 1 15
f 15 22 5
f 19 13 9
f 5 21 9
f 18 13 12
f 12 8 18
f 3 13 18
f 18 8 3
f 7 14 1
f 7 8 14
f 1 3 7
f 3 8 7
f 2 15 1
f 16 15 2
f 1 14 2
f 2 14 11
f 11 16 2
f 20 21 19
f 19 9 20
f 20 9 21
f 4 13 3
f 4 9 13
f 3 17 4
f 4 17 5
f 5 9 4

