# https://github.com/mikedh/trimesh
v 0.05726095 -0.00486460 -0.00320502
v 0.04463571 -0.01803262 0.00182629
v 0.02818957 -0.02275429 -0.00332725
v -0.03017882 -0.00222851 0.00588244
v -0.05119449 -0.02811262 -0.00325953
v 0.00826961 -0.02415306 -0.00225915
v -0.03267291 -0.01577302 0.00500370
v -0.05841273 0.01210172 0.00240338
v -0.01324419 -0.00420321 -0.00480654
v 0.05600909 0.01846243 0.00441964
v -0.01571912 -0.02547784 -0.00004039
v -0.04379025 0.01576130 0.00534328
v 0.04463750 -0.00508148 0.00464535
v -0.05202319 -0.02198590 0.00238604
v -0.02812251 0.02292545 -0.00473823
v 0.02331680 -0.01598174 0.00471721
v 0.05592918 0.00150313 0.00461649
v 0.04625978 -0.01555530 -0.00064845
v 0.06143649 0.01827887 0.00221387
v 0.00656741 0.00953297 0.00524968
v 0.02842580 -0.02227897 0.00271272
v -0.05899270 0.00988149 -0.00362159
v 0.05779537 -0.00245001 -0.00334819
v -0.03280699 -0.02295198 -0.00448428
v -0.01225466 -0.01978393 0.00561097
v 0.05292303 0.02628584 -0.00351766
v -0.05669473 -0.01108730 0.00304208
v -0.05732111 -0.00781947 0.00302984
v 0.06331436 0.01302312 -0.00192245
f 25 17 4
f 3 6 5
f 21 6 3
f 10 26 12
f 11 25 5
f 21 25 11
f 5 6 11
f 11 6 21
f 16 25 21
f 15 26 9
f 12 26 15
f 22 8 15
f 15 8 12
f 4 12 27
f 22 5 27
f 24 3 5
f 9 3 24
f 24 5 22
f 22 15 24
f 24 15 9
f 9 26 23
f 23 3 9
f 23 26 29
f 21 3 2
f 2 3 18
f 2 16 21
f 4 17 20
f 17 10 20
f 20 12 4
f 20 10 12
f 19 17 29
f 19 10 17
f 29 26 19
f 26 10 19
f 17 25 13
f 25 16 13
f 13 2 17
f 16 2 13
f 12 8 28
f 28 27 12
f 28 8 22
f 22 27 28
f 7 25 4
f 4 27 7
f 18 3 1
f 3 23 1
f 1 2 18
f 17 2 1
f 29 17 1
f 1 23 29
f 14 27 5
f 14 7 27
f 5 25 14
f 25 7 14

