# https://github.com/mikedh/trimesh
v -0.08511439 -0.02200203 -0.00018799
v -0.06755777 -0.02637669 -0.00570922
v 0.07325189 0.03930069 0.00013457
v 0.07403107 -0.03578717 0.00418809
v 0.06787016 0.02966064 -0.00495210
v 0.07055534 -0.03902658 -0.00027702
v 0.00975473 -0.00774984 0.00548004
v 0.08105959 0.03918275 0.00517681
v 0.01349925 -0.03980360 0.00472839
v 0.08378745 -0.02963098 0.00550845
v -0.03340365 -0.03491441 -0.00658735
v 0.05219417 0.04305027 0.00176986
v -0.08247391 -0.03082679 -0.00518374
v -0.07627215 0.03199218 0.00412068
v 0.02354276 -0.04300324 -0.00331006
v -0.07524158 0.01763846 -0.00488539
v -0.07831775 -0.02240832 0.00524299
v 0.08166854 0.00586378 -0.00104685
v -0.08009006 -0.04232846 -0.00333434
v 0.08730863 0.02312184 0.00057141
v 0.05700594 -0.03581922 -0.00643136
v -0.05283235 -0.03428386 0.00461730
v -0.06425319 0.03873665 -0.00357440
v -0.07831382 0.04498847 -0.00043844
f 1 24 13
f 19 13 11
f 19 17 1
f 1 13 19
f 18 5 20
f 11 5 21
f 21 18 6
f 5 18 21
f 14 8 24
f 17 8 14
f 14 24 1
f 1 17 14
f 24 8 12
f 20 8 10
f 10 18 20
f 6 18 10
f 15 19 11
f 11 21 15
f 15 21 6
f 11 13 2
f 16 5 11
f 11 2 16
f 16 13 24
f 16 2 13
f 3 12 8
f 20 5 3
f 3 8 20
f 24 12 3
f 7 8 17
f 17 10 7
f 7 10 8
f 9 15 6
f 19 15 9
f 9 10 17
f 5 16 23
f 23 16 24
f 24 3 23
f 23 3 5
f 6 10 4
f 4 9 6
f 10 9 4
f 17 19 22
f 22 9 17
f 19 9 22

