# https://github.com/mikedh/trimesh
v 0.09655427 -0.01945197 -0.01410484
v -0.06439555 -0.03406682 -0.00848995
v -0.04635261 -0.07606738 0.00995148
v -0.04603539 -0.09055797 0.00279393
v 0.02396270 0.07935751 0.00438161
v 0.08032116 0.01191982 -0.00551851
v -0.07454079 0.05734958 0.01218683
v 0.03716044 -0.07849730 -0.00277325
v -0.07627411 0.01883421 -0.00304749
v -0.04963513 -0.04052056 -0.01190918
v 0.04944846 0.07987994 0.00154116
v 0.01033370 0.09587424 0.00012526
v 0.00043438 -0.08140063 0.01319603
v -0.04337856 -0.09004780 -0.00074514
v -0.08457840 0.03795151 0.01525134
v -0.01366634 0.09128677 -0.00471146
v 0.01477779 0.02967679 -0.01252696
v 0.04049270 0.00905504 0.01420045
v -0.06692945 -0.00658948 -0.00981863
v 0.04971015 -0.02917912 -0.01600274
v 0.05665332 0.07025478 -0.00546330
v 0.07419858 -0.04999541 -0.01766189
v 0.02816535 -0.07768714 0.01324123
v -0.09550849 0.04632311 0.01047916
v -0.05869768 -0.06277505 0.00314232
v 0.03655469 0.08364116 -0.00948864
v 0.06803844 0.01521720 0.00454171
f 3 15 24
f 8 23 4
f 25 3 24
f 4 3 25
f 27 23 1
f 13 23 15
f 15 3 13
f 4 23 13
f 13 3 4
f 1 23 22
f 23 8 22
f 11 12 5
f 26 12 11
f 1 22 26
f 6 27 1
f 11 27 6
f 14 8 4
f 14 22 8
f 14 10 22
f 7 5 12
f 24 15 7
f 9 19 24
f 1 26 21
f 21 26 11
f 21 6 1
f 11 6 21
f 19 26 17
f 17 26 22
f 17 10 19
f 12 26 16
f 16 26 19
f 19 9 16
f 24 7 16
f 16 7 12
f 16 9 24
f 19 10 2
f 10 14 2
f 24 19 2
f 2 25 24
f 4 25 2
f 2 14 4
f 23 27 18
f 15 23 18
f 18 27 11
f 11 5 18
f 18 7 15
f 5 7 18
f 22 10 20
f 20 17 22
f 10 17 20

