# https://github.com/mikedh/trimesh
v -0.05639913 0.03704669 0.00351509
v -0.07219713 -0.03040771 0.00567154
v 0.03716120 0.02547362 0.00687456
v -0.00846179 0.03291167 -0.00721226
v -0.06286271 0.02599462 0.00135150
v 0.07318106 0.00147687 -0.00571970
v 0.04373854 0.03061399 -0.00522995
v -0.03426788 0.03648299 0.00823279
v -0.05078572 -0.03250406 -0.00644549
v 0.07366228 0.01536796 -0.00476874
v -0.07086177 0.01842785 -0.00702328
v -0.03840537 -0.03309126 -0.00278072
v 0.06213327 0.02704528 0.00308651
v 0.05701073 -0.03219172 -0.00588710
v 0.06975888 0.02129095 -0.00109002
v 0.07712610 0.00925359 -0.00318340
v -0.05245779 0.02920179 0.00671814
v 0.00835654 -0.03265994 0.00553639
v 0.01097955 0.01561798 -0.00761287
v 0.07690041 0.00059997 -0.00173058
v 0.07592216 -0.02112078 0.00394869
v -0.03198147 -0.03426428 0.00426391
v 0.07329291 -0.02243441 0.00211523
v 0.07593450 -0.01428165 0.00293657
v -0.04411294 -0.03363913 0.00045833
v 0.07290246 0.02409607 0.00317374
v -0.00477291 0.02557629 0.00844188
v 0.03636010 -0.02894508 0.00431162
v 0.06357187 -0.01607737 0.00542607
f 6 14 19
f 2 1 5
f 5 11 2
f 1 11 5
f 4 11 1
f 19 11 4
f 19 14 9
f 9 11 19
f 14 12 9
f 2 11 9
f 17 1 2
f 2 8 17
f 17 8 1
f 27 8 2
f 3 8 27
f 22 12 14
f 22 9 12
f 20 6 16
f 16 21 20
f 20 21 6
f 14 6 23
f 23 21 14
f 6 21 23
f 16 6 10
f 16 10 26
f 26 10 15
f 1 8 7
f 7 4 1
f 7 26 15
f 15 10 7
f 19 4 7
f 7 6 19
f 7 10 6
f 18 27 2
f 2 22 18
f 18 22 14
f 3 27 29
f 29 26 3
f 21 26 29
f 29 18 21
f 27 18 29
f 2 9 25
f 25 22 2
f 9 22 25
f 13 8 3
f 3 26 13
f 13 7 8
f 26 7 13
f 24 21 16
f 16 26 24
f 24 26 21
f 14 21 28
f 28 18 14
f 21 18 28

