# https://github.com/mikedh/trimesh
v 0.00252778 -0.05335263 0.01281346
v -0.06390303 -0.03977442 -0.02100581
v 0.02243801 0.03683313 -0.02410510
v 0.02723797 0.05576198 -0.00605211
v 0.03472696 -0.03520758 -0.01919716
v -0.07929381 0.02881426 0.02027334
v -0.01049770 0.05610586 -0.01654932
v 0.07089089 -0.00965219 -0.01447406
v -0.07310132 -0.03691159 -0.01186226
v 0.00873456 0.06164737 -0.00344132
v 0.07366094 0.01511710 0.01031043
v 0.05132281 -0.05775305 0.00167284
v 0.07218190 0.01644924 0.00209740
v 0.02933417 -0.06066422 0.00340249
v -0.07242417 -0.02088056 -0.01044007
v 0.05296898 -0.03336536 -0.01838514
v 0.09026107 -0.01225010 0.00280766
v 0.06537619 -0.05126285 0.00803257
v -0.06024087 0.02481124 0.02374257
v -0.08579296 -0.00885452 0.00238392
v 0.02288862 0.05700335 0.00601688
v -0.05121033 0.01646540 0.02589610
v -0.04306417 0.05351606 0.01170309
v -0.03138509 -0.04436132 0.00544221
v -0.02956642 0.05265624 -0.02605657
v 0.01682376 -0.05812254 0.00499989
v 0.07582277 0.01004953 0.02462329
f 20 22 6
f 15 2 20
f 2 15 25
f 25 3 2
f 25 15 20
f 20 6 25
f 24 22 20
f 17 11 27
f 11 21 27
f 13 11 17
f 17 16 8
f 8 16 3
f 8 13 17
f 3 13 8
f 2 3 5
f 3 16 5
f 18 16 17
f 17 27 18
f 7 25 10
f 2 26 9
f 20 2 9
f 9 24 20
f 23 27 21
f 23 21 10
f 10 25 23
f 23 25 6
f 4 21 11
f 11 13 4
f 10 21 4
f 4 13 3
f 4 7 10
f 3 25 4
f 25 7 4
f 12 5 16
f 16 18 12
f 2 5 12
f 1 27 22
f 1 18 27
f 22 24 1
f 1 9 26
f 24 9 1
f 22 27 19
f 27 23 19
f 19 6 22
f 19 23 6
f 14 12 18
f 18 1 14
f 14 1 26
f 14 26 2
f 2 12 14

