# https://github.com/mikedh/trimesh
v 0.08094915 -0.01346661 -0.01597495
v -0.01451454 -0.07535419 0.01765859
v 0.08560683 0.03100788 0.00765655
v -0.05248805 0.07810289 -0.00026009
v 0.07531704 0.03480699 0.01043387
v -0.08084313 0.05575546 0.01423107
v 0.08655253 0.00149155 -0.00597828
v -0.02141073 -0.09963993 -0.00678819
v 0.03080774 -0.10376291 0.00701857
v 0.08150419 0.01510027 0.00633050
v -0.05507624 -0.07975974 -0.00057753
v 0.05080515 0.09824942 -0.00124552
v 0.01910921 -0.10671680 0.00250410
v 0.07066429 -0.03834078 -0.01171481
v 0.06327626 -0.03313805 -0.01666844
v -0.04955629 -0.11007492 0.01324733
v -0.04288376 -0.03330607 -0.01916600
v 0.03352239 0.03960724 0.01479712
v -0.04099480 0.09368485 -0.00036312
v -0.00465072 0.10292909 -0.01784462
v -0.08625681 0.06012724 0.01295787
f 11 16 21
f 21 17 11
f 4 17 21
f 4 20 17
f 21 16 6
f 21 6 12
f 7 1 12
f 12 1 20
f 16 13 9
f 7 10 9
f 8 11 17
f 8 13 16
f 16 11 8
f 21 12 19
f 19 12 20
f 19 4 21
f 20 4 19
f 5 12 18
f 18 12 6
f 3 10 7
f 7 12 3
f 3 12 5
f 5 9 3
f 3 9 10
f 13 8 15
f 15 8 17
f 17 20 15
f 20 1 15
f 2 9 5
f 5 18 2
f 16 9 2
f 2 6 16
f 2 18 6
f 14 9 13
f 13 15 14
f 14 15 1
f 14 1 7
f 7 9 14

