# https://github.com/mikedh/trimesh
v -0.06054551 -0.03800467 -0.00338247
v -0.08772447 -0.00252607 -0.00743032
v 0.02806468 0.03960073 -0.00147195
v 0.06510375 0.02601511 -0.00467406
v -0.03286583 0.04028182 -0.00701737
v -0.04649619 -0.02166933 0.00732631
v 0.07701381 -0.00397431 0.00723293
v 0.02557857 0.02684245 -0.00626713
v -0.06743293 0.02548872 0.00277699
v -0.07294608 -0.00261698 0.00818812
v -0.07842636 0.01312040 0.00687413
v 0.08793014 0.03007787 -0.00316477
v 0.07397558 -0.03704521 -0.00001739
v 0.07658450 0.01355607 0.00615337
v -0.01410817 -0.03619061 0.00631288
v -0.07110460 0.00634393 0.00896099
v -0.08323374 0.03750968 -0.00432074
v -0.03673913 -0.04496781 -0.00575371
v 0.09270881 -0.02424927 0.00203557
v 0.06728228 -0.01132513 -0.00603761
v 0.08455120 -0.00420602 -0.00474792
v -0.03353806 0.01727236 0.00867714
v -0.04645625 -0.03770010 0.00386397
v -0.09368027 -0.00674254 0.00704567
v 0.06638093 0.03656965 0.00643685
f 20 2 5
f 18 2 20
f 18 15 23
f 19 15 13
f 13 15 18
f 18 20 13
f 7 15 19
f 19 13 21
f 21 13 20
f 1 23 24
f 18 23 1
f 24 2 1
f 1 2 18
f 24 23 6
f 6 23 15
f 15 7 6
f 6 7 16
f 14 7 19
f 25 7 14
f 22 7 25
f 16 7 22
f 25 9 22
f 4 21 20
f 24 16 11
f 11 22 9
f 16 22 11
f 17 9 25
f 5 2 17
f 17 11 9
f 17 3 5
f 25 3 17
f 17 2 24
f 24 11 17
f 10 16 24
f 24 6 10
f 10 6 16
f 8 20 5
f 8 4 20
f 21 4 12
f 25 14 12
f 12 3 25
f 19 21 12
f 12 14 19
f 5 3 12
f 12 8 5
f 4 8 12

