# https://github.com/mikedh/trimesh
v 0.06065878 0.03823450 0.01153152
v 0.01033695 -0.08661855 -0.00118863
v -0.07867494 -0.00474596 -0.01241019
v -0.02917219 0.01408343 0.01372849
v -0.05408268 -0.04911474 -0.00468663
v 0.06557310 0.03954941 0.00372596
v -0.04879060 -0.04420761 -0.00952865
v 0.05913343 0.02756905 -0.00291459
v -0.00438749 0.07565060 -0.01113116
v -0.00442771 -0.05006945 0.02379806
v -0.06142224 0.04762334 -0.00302910
v 0.00716070 0.06450883 -0.01430959
v 0.03323700 0.07928252 0.01367786
v 0.03754315 -0.07768710 -0.01339130
v 0.04147400 -0.06872752 -0.00500677
v 0.00872797 -0.08374952 0.01182383
v 0.05802704 0.05283726 0.00752037
v -0.07306136 0.02625607 0.00648018
v 0.05760871 -0.03222976 0.00514819
v -0.03709438 -0.01805100 -0.01573663
v 0.00183754 0.08399186 0.00263158
v 0.04984468 -0.02080095 -0.01851828
v -0.06905067 0.01722985 0.00732149
v 0.06665656 -0.01907258 -0.00348591
f 10 5 16
f 16 5 2
f 9 12 3
f 4 18 10
f 6 1 24
f 24 22 6
f 10 18 23
f 23 5 10
f 23 18 3
f 3 5 23
f 3 12 20
f 12 22 20
f 10 1 13
f 13 4 10
f 21 18 13
f 18 4 13
f 13 9 21
f 12 9 13
f 8 22 12
f 12 6 8
f 8 6 22
f 19 15 24
f 16 15 19
f 24 1 19
f 19 1 10
f 10 16 19
f 21 9 11
f 11 18 21
f 11 9 3
f 3 18 11
f 7 5 3
f 3 20 7
f 2 5 7
f 17 6 12
f 12 13 17
f 1 6 17
f 17 13 1
f 14 20 22
f 14 7 20
f 2 7 14
f 14 16 2
f 14 15 16
f 14 22 24
f 24 15 14

