# https://github.com/mikedh/trimesh
v -0.06594551 -0.01819408 -0.01873633
v -0.00652088 -0.04816333 0.01994257
v -0.05137110 0.04011963 0.01138769
v -0.02774412 -0.05600118 0.00948694
v -0.00508939 0.07771545 -0.01024674
v 0.07506518 -0.01243763 0.00165779
v 0.00676499 -0.04531422 0.02273998
v 0.04470494 0.04642459 0.01412512
v 0.02773457 0.06394633 -0.01274297
v 0.03515310 -0.07818829 0.00402645
v -0.01799277 0.07625642 0.00052600
v 0.03747870 0.05995652 0.00601512
v -0.05713365 -0.04427390 0.00196850
v 0.01032864 -0.04130097 0.02225134
v -0.04299812 0.06303738 -0.00161678
v 0.02424641 -0.04477665 0.01866071
v 0.07046325 -0.02604713 -0.01111551
v -0.00180654 0.06896806 -0.01485726
v 0.05194702 -0.05743502 -0.01063695
v -0.07726047 -0.01934235 -0.01362026
v -0.07521679 -0.00903769 0.00438680
f 21 15 20
f 3 15 21
f 5 15 11
f 11 15 3
f 6 17 9
f 19 17 6
f 8 3 7
f 8 11 3
f 5 9 18
f 18 15 5
f 18 9 17
f 10 19 6
f 14 8 7
f 6 9 12
f 12 8 6
f 12 9 5
f 5 11 12
f 11 8 12
f 17 19 1
f 1 18 17
f 19 10 1
f 20 15 1
f 15 18 1
f 13 21 20
f 20 1 13
f 13 1 10
f 7 10 16
f 16 14 7
f 16 10 6
f 6 8 16
f 8 14 16
f 4 13 10
f 2 10 7
f 2 4 10
f 7 3 2
f 3 21 2
f 21 13 2
f 13 4 2

