# https://github.com/mikedh/trimesh
v -0.03798017 0.01948057 0.01654797
v 0.08134093 -0.00143648 -0.00224050
v -0.04049582 0.06704077 -0.00380762
v -0.07128856 0.01090722 0.00165201
v -0.04205297 -0.06189313 0.01358269
v -0.00524775 0.06280322 -0.01498973
v 0.04145007 -0.05354152 -0.01128027
v -0.05366157 -0.00885198 -0.01878243
v 0.07632384 0.02633298 -0.00546756
v -0.04443934 0.05939791 -0.00636682
v -0.07774443 0.01188227 0.01064856
v 0.01595071 -0.05043433 0.01886949
v 0.03008094 -0.06464552 -0.00806669
v 0.07047424 0.03787885 0.00987841
v 0.05386814 0.04814462 -0.00044401
v 0.01942039 -0.01141085 -0.01549117
v 0.02236758 0.03424662 0.01352584
v -0.03658969 -0.06156221 -0.00418199
v 0.03972396 0.05544819 -0.00687352
f 12 13 2
f 11 8 18
f 18 8 13
f 14 12 2
f 10 6 8
f 8 6 16
f 13 12 5
f 5 18 13
f 11 18 5
f 11 5 1
f 1 5 12
f 9 14 2
f 9 16 6
f 4 8 11
f 11 10 4
f 4 10 8
f 13 8 7
f 8 16 7
f 2 13 7
f 7 9 2
f 16 9 7
f 12 14 17
f 17 1 12
f 19 9 6
f 1 17 3
f 3 17 14
f 3 10 11
f 11 1 3
f 14 19 3
f 6 10 3
f 3 19 6
f 14 9 15
f 15 19 14
f 9 19 15

