# https://github.com/mikedh/trimesh
v 0.00326829 -0.10350127 0.02803859
v -0.07339288 0.01011674 -0.01003200
v 0.00718372 -0.06050956 0.02713054
v -0.05379332 -0.08215613 -0.00500965
v 0.00274924 -0.10612912 0.00600427
v -0.04614069 0.05851711 0.02480424
v -0.03669387 0.08984451 0.00370251
v 0.00382504 0.10968172 -0.00796479
v -0.07324259 0.04022270 0.00527267
v 0.06890327 -0.01778309 -0.01934027
v 0.06309552 0.02727891 0.02291435
v -0.00431414 -0.11625526 0.01572767
v 0.05142841 -0.07136521 -0.00544498
v -0.03811167 -0.08194501 -0.01136545
v 0.03865418 0.08493278 0.01914363
v 0.06200293 -0.07787588 -0.01971946
v -0.01150002 0.10911130 -0.02189958
v -0.06815236 -0.06786260 -0.00971356
v -0.06182921 0.06773160 0.01087331
v 0.06239392 0.09001275 -0.00598876
v 0.00846408 0.10272777 -0.02174110
v -0.04888405 -0.09068972 0.00631695
v -0.00511805 -0.11445736 0.02010439
v 0.06169656 -0.07559908 -0.02161823
v -0.07736894 -0.01172493 -0.00098403
v -0.05602505 -0.06740577 -0.02079322
v -0.07202181 -0.00096184 -0.01094496
f 21 17 8
f 25 6 9
f 8 17 7
f 22 6 25
f 1 6 22
f 11 16 10
f 25 9 2
f 2 9 17
f 19 9 6
f 6 7 19
f 17 9 19
f 19 7 17
f 12 16 1
f 12 22 4
f 3 6 1
f 1 11 3
f 3 11 6
f 1 16 13
f 13 11 1
f 16 11 13
f 6 11 15
f 8 7 15
f 15 7 6
f 20 11 10
f 10 21 20
f 20 15 11
f 20 21 8
f 8 15 20
f 1 22 23
f 23 12 1
f 22 12 23
f 16 12 5
f 26 2 17
f 26 27 2
f 14 5 12
f 14 12 4
f 4 26 14
f 18 26 4
f 18 22 25
f 4 22 18
f 27 26 18
f 25 2 18
f 2 27 18
f 24 14 26
f 16 5 24
f 5 14 24
f 24 21 10
f 10 16 24
f 17 21 24
f 24 26 17

