# https://github.com/mikedh/trimesh
v -0.09237479 0.00881352 -0.00199452
v -0.04768165 0.02562816 -0.00316259
v 0.03839288 -0.00016877 0.00732506
v 0.05238836 0.03096719 -0.00079297
v 0.07813747 0.01239127 0.00558664
v 0.07301963 0.01187510 -0.00031952
v 0.04747053 0.02920785 0.00766334
v 0.05937647 -0.00963044 -0.00751585
v -0.00774647 0.02520537 -0.00425740
v 0.03235494 -0.02981766 -0.00671692
v -0.07747138 0.00460891 -0.00625063
v -0.05746952 -0.01009807 -0.00599936
v -0.06544900 -0.00599817 -0.00681199
v -0.09106162 0.01169646 0.00506725
v -0.04611771 -0.02712388 0.00609648
v 0.06540578 0.02737837 -0.00002270
v -0.09212867 -0.00529472 -0.00056456
v 0.05034768 -0.02861041 0.00317630
v -0.08880402 -0.00210233 0.00227733
v 0.02123259 0.02274805 -0.00629071
v 0.02781917 0.01051091 0.00743869
v 0.02854291 -0.00892902 0.00655691
v -0.01756899 -0.01775524 -0.00733477
v 0.06647743 0.01039228 -0.00295023
v 0.07490378 -0.02465578 -0.00778625
v -0.07778221 -0.00693198 0.00554462
v 0.00730736 0.01813957 -0.00747532
v -0.00979334 0.02154970 -0.00617258
f 18 15 10
f 2 7 4
f 26 17 15
f 21 26 15
f 7 26 21
f 5 6 16
f 16 7 5
f 4 7 16
f 14 2 1
f 7 2 14
f 14 26 7
f 1 17 14
f 9 2 4
f 3 21 15
f 3 18 5
f 5 7 3
f 7 21 3
f 23 13 27
f 10 15 23
f 11 17 1
f 11 13 17
f 1 2 11
f 27 13 11
f 25 16 6
f 10 23 25
f 25 23 27
f 25 18 10
f 25 6 5
f 5 18 25
f 17 26 19
f 19 14 17
f 26 14 19
f 27 11 28
f 28 11 2
f 15 18 22
f 22 3 15
f 18 3 22
f 12 23 15
f 13 23 12
f 15 17 12
f 17 13 12
f 4 16 20
f 20 9 4
f 27 28 20
f 2 9 20
f 20 28 2
f 8 20 16
f 8 25 27
f 27 20 8
f 16 25 24
f 24 8 16
f 25 8 24

