# https://github.com/mikedh/trimesh
v 0.01750684 -0.02678336 0.02486587
v 0.01742048 0.02693506 -0.01886794
v 0.02517595 0.05180913 -0.00082274
v 0.07927837 -0.00972499 -0.01741296
v 0.10425644 -0.01188879 -0.01209797
v 0.02635163 -0.05502136 -0.00389480
v -0.03105899 0.06355644 0.00849481
v -0.03006923 -0.06337436 0.00661313
v -0.06357529 -0.00678045 0.00397530
v -0.03787544 0.00977189 0.02811099
v -0.03358039 0.05167294 -0.01589896
v 0.06463491 0.00543561 0.02331025
v -0.08358429 0.03512569 -0.00004886
v -0.08217396 -0.03752203 -0.02284980
v 0.05215347 0.05175920 0.00812431
v 0.03333217 0.04343100 0.01428190
v 0.07178942 -0.03607747 -0.00425771
v 0.07209635 -0.03206222 -0.01511457
v 0.07177291 0.02447156 0.02098755
v 0.06990651 -0.03298657 -0.00008030
v 0.05253300 -0.04527914 -0.00458800
v 0.06596762 0.03651402 0.00985753
v 0.00327486 -0.05131992 0.01672747
f 11 14 13
f 23 10 8
f 7 11 13
f 13 10 7
f 7 10 19
f 8 14 6
f 14 18 6
f 6 23 8
f 14 11 2
f 2 15 5
f 9 14 8
f 8 10 9
f 13 14 9
f 9 10 13
f 5 19 12
f 19 10 12
f 22 19 5
f 5 15 22
f 22 15 19
f 16 7 19
f 19 15 16
f 16 15 7
f 21 6 18
f 23 6 21
f 4 18 14
f 14 2 4
f 5 18 4
f 4 2 5
f 3 2 11
f 15 2 3
f 11 7 3
f 7 15 3
f 10 23 1
f 1 12 10
f 20 1 23
f 12 1 20
f 5 12 20
f 23 21 17
f 17 20 23
f 5 20 17
f 17 18 5
f 17 21 18

