# https://github.com/mikedh/trimesh
v 0.08165155 -0.02368799 0.00363805
v 0.06236683 0.02385310 -0.00082523
v -0.01516136 0.02356381 0.00531483
v -0.07380512 -0.02370711 0.00382490
v -0.04185390 -0.01884644 -0.00459142
v 0.08398500 -0.02305710 -0.00179043
v 0.05470498 0.02191484 0.00206156
v -0.05529229 0.02830510 -0.00155577
v 0.04991586 0.00451139 -0.00509914
v -0.00372296 -0.02226450 0.00388757
v 0.08369637 -0.01408560 -0.00499521
v -0.07728979 0.02573542 0.00223434
v 0.07701618 0.00540798 0.00078963
v -0.02127362 0.02569050 -0.00436747
v -0.08119420 0.00045924 0.00454624
v -0.05780753 0.01537309 -0.00460930
v -0.00633034 0.02770584 0.00367013
v 0.07717082 0.01841155 -0.00301933
v -0.03614661 -0.02234356 -0.00238447
v 0.05612356 -0.00456982 -0.00509341
v -0.04477672 -0.02688056 0.00211333
v -0.07924763 0.01710771 -0.00379198
v 0.02866646 -0.02760095 0.00174133
v 0.05174200 -0.02480985 -0.00308025
f 15 3 12
f 18 1 6
f 11 18 6
f 8 2 14
f 14 2 18
f 5 21 4
f 4 3 15
f 19 21 5
f 17 2 8
f 17 12 3
f 8 12 17
f 3 1 7
f 7 17 3
f 2 17 7
f 18 2 7
f 24 11 6
f 5 11 24
f 24 19 5
f 21 19 24
f 8 14 22
f 22 12 8
f 5 4 22
f 15 12 22
f 22 4 15
f 18 11 9
f 9 14 18
f 10 1 3
f 3 4 10
f 10 4 1
f 1 18 13
f 13 7 1
f 18 7 13
f 21 24 23
f 1 4 23
f 23 4 21
f 6 1 23
f 23 24 6
f 5 22 16
f 16 22 14
f 16 9 5
f 14 9 16
f 20 11 5
f 5 9 20
f 20 9 11

