# https://github.com/mikedh/trimesh
v 0.08666692 -0.04727095 0.00432992
v -0.08996331 -0.02630618 -0.02807152
v 0.02143761 -0.10415484 0.03035539
v -0.04231905 0.09508292 0.00889736
v -0.09776564 0.05537484 0.01194754
v 0.02206595 0.07746132 -0.02248097
v 0.09339786 0.00410406 -0.02126715
v 0.04255381 0.08758527 -0.01503811
v 0.10771560 -0.01096788 -0.01604280
v -0.04391165 0.09279933 0.01761748
v 0.04607538 -0.08436560 -0.01105466
v 0.03650185 -0.09298904 0.00166184
v 0.05856721 0.05977768 0.01770509
v 0.07196286 -0.00141771 -0.02881673
v 0.06758145 0.06069124 0.01132926
v 0.04355573 -0.09509734 0.02256366
v -0.07751074 0.07995663 0.02376235
v -0.07352085 -0.05364007 -0.02425495
v -0.09102688 -0.04897490 -0.01698599
v 0.09969920 0.02302016 0.00048961
v 0.00300784 -0.09345165 -0.00138700
v -0.10404679 0.02829079 -0.00340808
v -0.07514533 -0.04665136 -0.00437047
v -0.03943282 -0.08148658 -0.01225990
v 0.00099407 0.09742505 -0.00549837
v 0.07830433 -0.05859369 -0.01547865
v -0.04679273 -0.02084404 -0.03023053
v 0.04935513 0.03937179 0.02809728
v 0.05773137 0.06346112 0.01516257
f 23 19 3
f 2 19 22
f 20 1 9
f 28 1 20
f 3 28 17
f 9 14 7
f 14 8 7
f 7 20 9
f 8 20 7
f 6 14 27
f 6 8 14
f 27 2 6
f 6 2 22
f 26 14 9
f 9 1 26
f 19 2 18
f 18 2 27
f 18 26 11
f 27 14 18
f 14 26 18
f 22 19 5
f 19 23 5
f 5 23 3
f 3 17 5
f 4 5 17
f 22 5 4
f 11 26 16
f 16 26 1
f 16 28 3
f 16 1 28
f 3 21 12
f 12 21 11
f 12 16 3
f 11 16 12
f 19 18 24
f 3 19 24
f 24 21 3
f 11 21 24
f 24 18 11
f 28 20 13
f 15 20 8
f 8 29 15
f 15 13 20
f 29 13 15
f 8 6 25
f 25 29 8
f 25 6 22
f 22 4 25
f 29 25 10
f 10 25 4
f 10 13 29
f 10 4 17
f 10 17 28
f 28 13 10

