# https://github.com/mikedh/trimesh
v -0.00512201 0.04022539 -0.01469800
v 0.04570119 -0.03056378 -0.01839084
v -0.03869766 -0.03465862 -0.01492305
v -0.03551956 -0.05878399 0.00635570
v 0.02351051 0.04695745 -0.00989120
v -0.06218575 0.00730943 -0.01113544
v -0.02275014 0.07999396 0.00679144
v 0.00808503 -0.07142928 0.01615199
v 0.02997683 -0.06913171 -0.00179933
v -0.05533457 -0.00871766 -0.00603149
v -0.02704725 -0.06506729 0.00904069
v 0.04355414 0.03613492 0.01149168
v 0.05725818 -0.03592350 -0.01392566
v 0.02677804 -0.06099441 0.01033698
v 0.00700353 -0.06774014 -0.00235523
v -0.00456904 0.07459737 -0.01175426
v 0.04730816 0.04392875 0.00061473
v 0.05715452 0.00489801 -0.00674517
v 0.05865694 -0.01785621 0.00300275
v -0.04702236 0.03900255 0.01729268
f 6 7 16
f 20 7 6
f 17 16 7
f 19 8 14
f 14 9 19
f 8 9 14
f 8 20 11
f 20 4 11
f 10 20 6
f 6 4 10
f 10 4 20
f 19 9 13
f 9 2 13
f 16 17 5
f 5 2 16
f 6 16 1
f 16 2 1
f 12 20 8
f 12 8 19
f 7 20 12
f 19 17 12
f 12 17 7
f 15 9 8
f 8 11 15
f 15 2 9
f 15 11 4
f 18 5 17
f 2 5 18
f 18 13 2
f 18 17 19
f 19 13 18
f 3 15 4
f 3 4 6
f 2 15 3
f 6 1 3
f 3 1 2

