# https://github.com/mikedh/trimesh
v -0.03527856 -0.03163544 -0.00684719
v 0.05384216 0.03471181 -0.00539126
v -0.06913079 -0.03489817 0.00640903
v 0.09547471 -0.00925069 -0.00817213
v -0.07360324 0.03337536 -0.00173087
v 0.02387449 0.02763073 0.00735312
v 0.07826991 -0.02232992 0.00517418
v -0.00624314 -0.01103969 0.00752411
v 0.08731785 0.00585413 0.00700958
v -0.05101835 -0.03204037 0.00753096
v 0.09340282 -0.03087875 -0.00434771
v 0.09620480 -0.00542300 -0.00248681
v 0.07244215 -0.00602951 -0.00839242
v 0.08505861 -0.03650503 -0.00319537
v -0.06990878 -0.03416991 -0.00485618
v 0.07980770 -0.00620733 0.00680351
v -0.09228721 0.01691719 -0.00389333
v -0.00472614 0.03789772 -0.00210926
v 0.07033418 0.02837825 -0.00776631
v -0.08676143 0.03700347 0.00431653
v 0.05494255 0.01903132 0.00685355
v 0.06467613 0.03238094 -0.00108144
v -0.03515941 0.03849953 0.00477866
v -0.03442587 -0.01021351 0.00752031
v 0.00867566 0.03915133 0.00357421
v -0.08231334 -0.02668271 0.00602035
f 19 1 17
f 12 19 9
f 17 1 15
f 14 15 1
f 22 9 19
f 24 20 10
f 6 22 25
f 20 24 6
f 17 15 26
f 26 20 17
f 10 20 26
f 12 9 11
f 11 14 1
f 10 14 7
f 7 11 9
f 14 11 7
f 3 14 10
f 15 14 3
f 10 26 3
f 3 26 15
f 5 19 17
f 17 20 5
f 20 18 5
f 2 18 25
f 25 22 2
f 2 22 19
f 19 5 2
f 2 5 18
f 10 9 8
f 8 24 10
f 9 6 8
f 8 6 24
f 23 6 25
f 20 6 23
f 25 18 23
f 23 18 20
f 9 22 21
f 21 6 9
f 22 6 21
f 4 19 12
f 12 11 4
f 4 11 1
f 16 9 10
f 10 7 16
f 16 7 9
f 1 19 13
f 13 4 1
f 19 4 13

