# https://github.com/mikedh/trimesh
v -0.04455836 0.04726442 0.00641048
v -0.07164259 0.00123368 0.01480124
v -0.05647832 -0.03563126 -0.02266134
v 0.05687171 -0.03460191 -0.01852784
v -0.05408362 0.01322189 0.01888570
v 0.07194482 0.01983546 0.01281641
v -0.03603432 -0.04612374 -0.00693172
v -0.05366820 -0.04152939 -0.00674050
v 0.06923351 0.00006729 -0.00581502
v -0.01788672 0.05849540 -0.01263291
v 0.00120796 -0.03344760 0.02207190
v 0.01771734 -0.06156144 0.00015166
v -0.03931910 -0.03011021 -0.02296807
v -0.05651133 0.03671848 0.00267168
v 0.04018993 -0.03997771 0.01009957
v -0.07075558 -0.01608115 0.00815566
v 0.07127167 0.00796477 0.00676553
v -0.00361980 0.06042041 -0.01690206
v -0.01296299 -0.04759588 0.01286220
v 0.02864245 -0.03551553 0.01438934
v -0.07656099 0.00997146 0.00901248
v 0.01463748 0.05873729 -0.00722400
v 0.07039089 0.01483382 0.01711979
v 0.06232816 -0.02062336 0.00069748
v 0.04930296 -0.05091672 -0.00303049
v 0.04109654 0.05339597 0.01238728
v -0.00431792 -0.04810196 0.01697927
f 21 3 16
f 14 3 21
f 22 26 6
f 25 15 12
f 12 3 4
f 4 25 12
f 12 15 27
f 27 15 11
f 10 22 18
f 26 22 10
f 18 3 10
f 3 14 10
f 15 25 23
f 6 26 23
f 13 3 18
f 18 4 13
f 13 4 3
f 18 22 9
f 9 4 18
f 9 22 6
f 8 16 3
f 21 16 2
f 2 27 11
f 16 27 2
f 5 23 26
f 11 23 5
f 5 2 11
f 21 2 5
f 11 15 20
f 20 23 11
f 15 23 20
f 6 23 17
f 17 9 6
f 7 3 12
f 12 8 7
f 7 8 3
f 12 27 19
f 19 8 12
f 19 27 16
f 16 8 19
f 1 5 26
f 26 10 1
f 1 10 14
f 1 14 21
f 21 5 1
f 24 23 25
f 24 17 23
f 25 4 24
f 4 9 24
f 9 17 24

