# https://github.com/mikedh/trimesh
v 0.00859349 0.08477875 -0.00269130
v -0.05272802 0.07774275 0.00302157
v -0.04396800 -0.07134981 -0.00080597
v -0.06783972 -0.03434278 -0.00053228
v 0.02332478 -0.08387855 0.01840614
v 0.07626088 0.02093734 0.00010307
v 0.06795206 0.01484172 0.00930946
v -0.06466476 -0.06269060 -0.00521815
v 0.06050664 0.00657646 0.01084050
v 0.01530027 0.08196614 -0.01231765
v -0.04123843 -0.05162447 -0.01353563
v -0.03569309 0.02802783 0.01564530
v -0.06535021 0.05069974 0.01480098
v -0.06648742 -0.03123505 -0.01176813
v -0.01593122 -0.04412394 0.01456288
v 0.07305094 -0.04192011 -0.01148211
v 0.00297024 0.07415477 -0.01377448
v 0.01714267 0.07588822 -0.01595593
v -0.02527345 -0.02366985 -0.01586018
v 0.06047275 -0.07089984 -0.00368374
v 0.02715523 0.07964605 -0.01004533
v -0.02255189 0.08810739 -0.00795047
v 0.05682999 -0.02581305 -0.01370668
v -0.03384814 -0.02754396 -0.01561308
v -0.04447208 0.07994450 0.01310378
f 15 13 4
f 5 13 15
f 2 25 22
f 13 25 2
f 12 13 5
f 12 25 13
f 6 18 21
f 21 7 6
f 5 3 20
f 20 3 11
f 20 7 5
f 19 18 23
f 23 11 19
f 11 3 8
f 8 15 4
f 5 15 8
f 8 3 5
f 14 2 22
f 11 8 14
f 14 8 4
f 4 13 14
f 13 2 14
f 5 7 9
f 9 7 25
f 9 12 5
f 25 12 9
f 22 25 1
f 25 7 1
f 7 21 1
f 10 18 22
f 10 21 18
f 22 1 10
f 10 1 21
f 16 11 23
f 16 20 11
f 16 18 6
f 23 18 16
f 6 7 16
f 7 20 16
f 24 19 11
f 11 14 24
f 18 19 24
f 24 14 18
f 22 18 17
f 17 14 22
f 18 14 17

