# https://github.com/mikedh/trimesh
v 0.05758099 0.00232533 -0.01329584
v -0.03708701 -0.04068825 0.01015263
v -0.05370770 0.03463971 0.01428490
v -0.05226476 -0.02073556 -0.01675082
v 0.00794329 0.06366598 0.00008727
v -0.01445909 0.04600879 0.01277962
v 0.04480631 0.02666335 0.00704856
v 0.02574296 0.02161264 0.02075684
v 0.01234127 -0.03012492 0.01604612
v 0.07338473 -0.01541021 -0.00703897
v 0.02927155 -0.03773219 0.01303476
v -0.05617391 0.01928409 0.01965618
v 0.02390051 -0.00513753 -0.02244723
v -0.06700763 -0.01325621 0.00303292
v 0.05315684 -0.00448163 -0.02070919
v -0.02150733 -0.04417237 0.01395726
v 0.03998605 -0.05219989 -0.01295306
v 0.05274121 0.00780479 0.00470621
v 0.01720533 0.05890232 -0.00422747
v -0.06527138 -0.01402011 -0.01941586
v 0.03681020 0.03507139 0.01117409
f 5 8 21
f 10 8 11
f 14 20 2
f 2 12 14
f 16 12 2
f 6 8 5
f 6 12 8
f 10 15 1
f 19 20 5
f 19 1 15
f 5 21 19
f 21 7 19
f 19 7 10
f 10 1 19
f 16 2 17
f 17 15 10
f 10 11 17
f 17 11 16
f 9 11 8
f 16 11 9
f 8 12 9
f 9 12 16
f 12 6 3
f 3 6 5
f 3 20 14
f 14 12 3
f 5 20 3
f 18 21 8
f 18 7 21
f 18 8 10
f 10 7 18
f 20 19 13
f 13 19 15
f 13 17 20
f 15 17 13
f 4 2 20
f 20 17 4
f 4 17 2

