# https://github.com/mikedh/trimesh
v -0.05519843 -0.04287328 0.00379592
v 0.06303676 -0.03350452 0.00293024
v -0.03371553 -0.04001342 -0.00221274
v -0.01130963 -0.04170135 0.00472347
v 0.06146104 0.00642043 -0.00475550
v 0.05894889 -0.03047220 0.00455999
v 0.07068951 0.02341603 0.00104595
v -0.03764424 0.03529157 0.00522226
v -0.04248067 -0.00207435 -0.00564619
v -0.06265009 -0.00226610 -0.00354733
v 0.03403052 0.03600915 0.00025261
v 0.07052770 0.02680910 0.00377766
v -0.03353542 -0.03774921 0.00457822
v 0.04169550 -0.03280667 -0.00165333
v -0.00174499 -0.03192605 0.00537047
v -0.06576217 -0.03543387 0.00250758
v -0.06094081 -0.02623633 0.00379014
v 0.00035368 0.03725430 0.00027174
v 0.07055805 0.03585156 -0.00399640
v -0.01224177 -0.04339105 0.00447321
v 0.06187577 0.02270914 0.00447411
v -0.06407246 0.04142408 -0.00487247
v -0.06183066 -0.02680856 -0.00044082
v -0.03845969 -0.02696963 -0.00571675
v -0.05033092 -0.04211613 -0.00039168
v -0.01696610 -0.03381404 0.00516406
v 0.06094763 -0.02785959 -0.00330564
v -0.04962210 -0.02060507 0.00505205
v -0.02078834 0.03185613 0.00568338
v -0.06271791 -0.02639842 -0.00011595
v 0.02011709 -0.03246713 -0.00392489
f 28 15 29
f 29 8 28
f 16 22 10
f 22 24 10
f 22 8 18
f 9 24 22
f 29 15 6
f 6 21 29
f 12 8 29
f 29 21 12
f 7 19 12
f 21 6 12
f 17 28 8
f 17 22 16
f 17 8 22
f 16 1 17
f 17 1 28
f 23 10 24
f 24 9 5
f 27 24 5
f 5 19 27
f 22 19 5
f 5 9 22
f 2 6 20
f 2 19 7
f 27 19 2
f 7 12 2
f 2 12 6
f 4 6 15
f 20 6 4
f 4 1 20
f 8 12 11
f 11 12 19
f 11 18 8
f 11 19 22
f 22 18 11
f 20 1 25
f 25 3 20
f 25 1 16
f 24 3 25
f 16 23 25
f 25 23 24
f 16 10 30
f 30 23 16
f 10 23 30
f 20 3 14
f 14 2 20
f 27 2 14
f 15 28 26
f 26 4 15
f 27 14 31
f 31 14 3
f 31 24 27
f 31 3 24
f 1 4 13
f 4 26 13
f 28 1 13
f 13 26 28

