# https://github.com/mikedh/trimesh
v 0.04528532 -0.04247776 0.00686832
v -0.04290912 -0.04117961 -0.00511731
v 0.01762786 0.02626912 -0.00722124
v 0.04726814 0.02667679 0.00497296
v -0.03086340 -0.04333138 0.00287689
v -0.05562647 0.04304314 0.00303137
v 0.01360943 0.03677784 -0.00537372
v -0.02686203 -0.00516130 -0.00774828
v 0.02274346 0.03629795 0.00515270
v -0.04879023 -0.03606480 -0.00550249
v 0.03685535 0.04394620 0.00069390
v 0.04513174 -0.02540533 -0.00386095
v 0.01234880 0.00336875 -0.00737605
v 0.02474811 0.04249251 -0.00400170
v 0.03239951 -0.03912493 -0.00233846
v 0.05525789 -0.00867414 0.00497059
v -0.02327198 0.04352865 0.00160197
v -0.04107849 0.02475942 -0.00749556
v 0.05815834 -0.01338213 -0.00337101
v 0.02988299 -0.03319176 -0.00608720
v -0.04715223 -0.01036057 0.00139686
v -0.05063864 0.03532891 0.00670749
v 0.04172523 0.01310844 -0.00440312
v 0.05402896 0.01213827 0.00515231
v -0.03657543 0.00120498 0.00541108
f 5 1 25
f 6 14 18
f 18 10 6
f 8 10 18
f 8 18 3
f 22 25 1
f 5 25 22
f 4 22 1
f 20 10 8
f 20 3 19
f 19 3 23
f 23 3 14
f 7 18 14
f 14 3 7
f 7 3 18
f 21 10 5
f 5 22 21
f 6 10 21
f 21 22 6
f 16 1 19
f 6 22 9
f 22 4 9
f 8 3 13
f 13 20 8
f 3 20 13
f 19 1 12
f 12 20 19
f 5 10 2
f 10 20 2
f 2 1 5
f 11 23 14
f 11 9 4
f 19 23 11
f 6 9 11
f 24 4 1
f 1 16 24
f 24 16 19
f 19 11 24
f 24 11 4
f 15 12 1
f 20 12 15
f 1 2 15
f 15 2 20
f 17 14 6
f 6 11 17
f 17 11 14

