# https://github.com/mikedh/trimesh
v -0.00357827 -0.04618210 0.02364493
v 0.08615842 -0.01625367 -0.02429909
v -0.11010259 0.01362117 -0.00811533
v -0.06413014 0.04573038 -0.00518416
v -0.03868329 0.02202926 0.03336186
v 0.10904769 -0.02656591 -0.00183265
v 0.05973838 0.03869671 0.01990252
v -0.02387317 0.07557191 0.00369140
v 0.03610467 -0.05919938 -0.00370363
v -0.04802053 0.07481465 0.01438055
v 0.04796686 0.04331467 -0.00330159
v 0.12290554 0.00772025 -0.00484751
v -0.03600129 -0.06587616 0.01148816
v 0.05692435 0.04575551 0.01771041
v -0.03248291 -0.06728058 0.01632778
v -0.11209132 -0.01661658 -0.01605761
v 0.05445890 -0.05299060 0.01366332
v -0.01019846 0.07523031 0.00366388
v 0.08524671 -0.02240738 -0.02318014
v 0.09472607 -0.03494575 -0.01649746
v -0.01402581 0.04833630 -0.02062825
v -0.06442600 -0.04791941 -0.02879182
v 0.11984292 0.00604148 0.00439172
v 0.11619431 0.01427420 -0.00107502
v 0.07910228 0.03333257 0.01396487
v 0.07106638 -0.04530603 -0.00510218
v -0.06424793 -0.02831005 -0.02696700
v 0.08159216 0.03039650 0.02093130
v 0.09519197 -0.00296071 -0.01867567
f 15 5 16
f 15 9 17
f 18 21 8
f 8 10 18
f 16 5 3
f 5 10 3
f 3 21 16
f 13 15 16
f 13 9 15
f 5 15 1
f 15 17 1
f 1 28 5
f 17 28 1
f 12 21 11
f 21 18 11
f 4 10 8
f 4 3 10
f 8 21 4
f 21 3 4
f 14 10 5
f 14 18 10
f 26 17 9
f 23 28 17
f 17 6 23
f 23 6 12
f 5 28 7
f 7 14 5
f 28 14 7
f 24 23 12
f 28 23 24
f 18 14 24
f 12 11 24
f 24 11 18
f 22 13 16
f 9 13 22
f 25 14 28
f 28 24 25
f 25 24 14
f 20 26 9
f 9 22 20
f 20 6 17
f 17 26 20
f 12 6 20
f 16 21 27
f 27 22 16
f 21 22 27
f 2 22 21
f 12 20 2
f 19 20 22
f 22 2 19
f 19 2 20
f 29 21 12
f 12 2 29
f 29 2 21

