# https://github.com/mikedh/trimesh
v 0.01864402 -0.03041975 0.00689797
v 0.05316891 -0.02692712 0.00689676
v -0.05525194 0.02608857 0.00438063
v -0.01672026 0.01238753 -0.00868247
v -0.05023582 -0.00852679 0.00288476
v 0.04613446 0.02184226 0.00161483
v 0.03329769 -0.02170275 -0.00843496
v -0.04336271 0.03445693 0.00675410
v 0.00958893 0.04358931 -0.00714882
v 0.04861736 0.03928100 0.00610422
v -0.03039222 0.03749306 -0.00568745
v -0.03419067 -0.04093752 -0.00624404
v 0.04525933 0.01249270 -0.00055917
v 0.04963396 -0.00081485 0.00262685
v -0.04663654 -0.03930198 0.00065677
v -0.04685836 -0.03403478 -0.00097403
v -0.05143874 0.03081326 -0.00169307
v 0.02786450 -0.04177217 0.00368762
v -0.03112012 0.02940830 -0.00696257
v 0.04855182 0.01845231 0.00758165
v 0.05042091 -0.04102986 -0.00109056
v 0.03818852 -0.02750663 -0.00744128
v 0.01156467 -0.03008282 0.00692816
v 0.04470245 -0.03482220 -0.00601314
v -0.04428906 0.03951204 0.00021130
v -0.03481213 -0.03092092 0.00631376
v -0.04961689 0.00114147 -0.00868505
f 3 27 15
f 2 10 20
f 14 10 2
f 18 26 15
f 17 27 3
f 17 11 27
f 9 27 19
f 19 11 9
f 27 11 19
f 25 10 9
f 9 11 25
f 25 17 3
f 11 17 25
f 4 27 9
f 9 7 4
f 4 7 27
f 10 14 13
f 13 7 9
f 12 18 15
f 27 7 12
f 3 15 5
f 5 26 3
f 15 26 5
f 1 18 2
f 26 18 1
f 8 25 3
f 10 25 8
f 8 20 10
f 3 26 8
f 22 13 24
f 7 13 22
f 24 12 22
f 22 12 7
f 9 10 6
f 6 13 9
f 10 13 6
f 21 12 24
f 18 12 21
f 2 18 21
f 21 14 2
f 24 13 21
f 21 13 14
f 16 15 27
f 27 12 16
f 16 12 15
f 2 20 23
f 23 1 2
f 20 8 23
f 26 1 23
f 23 8 26

