# https://github.com/mikedh/trimesh
v 0.11708010 -0.02143979 0.00517542
v -0.06169581 0.04230639 -0.00510869
v 0.07097768 -0.03255264 0.00437120
v 0.02528789 -0.03005451 -0.00444903
v -0.11614944 -0.01362815 -0.00259517
v 0.11473231 0.00680231 -0.00444175
v -0.10839138 0.04043477 -0.00470314
v -0.04489588 0.03809929 -0.00557825
v -0.09330770 0.01739620 0.00450592
v -0.08758088 -0.03858431 0.00412623
v -0.03414636 0.03917157 0.00286563
v 0.10992011 0.03199561 0.00321384
v -0.11003410 -0.03068353 -0.00271979
v 0.11602434 -0.03704772 -0.00256430
v -0.05652638 -0.03503506 -0.00164758
v -0.11238733 -0.02809553 0.00078656
v -0.06474777 -0.00159559 -0.00464364
v 0.11896101 0.00225116 -0.00172464
v -0.09567575 -0.02983339 0.00560641
v 0.11874096 0.00563258 -0.00384066
v -0.08147099 0.04243922 -0.00236077
f 7 9 21
f 20 12 18
f 5 7 13
f 21 9 11
f 11 9 12
f 2 7 21
f 8 7 2
f 12 8 2
f 21 11 2
f 2 11 12
f 14 20 18
f 5 13 16
f 19 9 16
f 16 7 5
f 9 7 16
f 19 3 1
f 1 9 19
f 12 9 1
f 3 14 1
f 18 12 1
f 1 14 18
f 19 16 10
f 10 16 13
f 10 3 19
f 10 14 3
f 8 4 17
f 17 4 13
f 17 7 8
f 17 13 7
f 6 4 8
f 6 8 12
f 12 20 6
f 20 14 6
f 14 4 6
f 15 10 13
f 14 10 15
f 13 4 15
f 15 4 14

