# https://github.com/mikedh/trimesh
v -0.05953357 0.02310014 -0.00506116
v 0.06419754 0.02610133 -0.00381750
v -0.05929478 -0.02636776 0.00117428
v 0.05438747 -0.00251999 0.00642541
v -0.06261057 -0.00540044 0.00402005
v -0.05930404 -0.02261916 -0.00490390
v 0.04499245 0.03583004 0.00228781
v 0.00375639 -0.01143653 -0.00746918
v -0.00035991 -0.01670474 0.00523933
v -0.05319114 -0.01537069 -0.00591419
v 0.06556773 0.00452814 0.00382116
v 0.02722944 -0.03534041 0.00387988
v 0.05322147 0.03282119 0.00308190
v 0.06338602 0.03232098 -0.00084896
v 0.05414070 0.03012050 0.00596984
v -0.06712589 0.02536623 0.00653588
v 0.04837902 0.03722238 -0.00376361
v -0.05244830 -0.03668455 0.00310613
v -0.02857876 0.03037643 0.00340288
v -0.07221850 0.02906249 -0.00211104
v 0.02799500 0.02102889 0.00663469
v 0.05814486 -0.01765326 -0.00777849
v 0.01240710 -0.03555860 -0.00226416
v 0.06051370 -0.02551457 -0.00040974
v 0.05241349 -0.03723016 0.00104290
v -0.01068408 -0.00491484 0.00574472
f 11 25 24
f 24 22 11
f 25 22 24
f 4 25 11
f 20 17 1
f 1 6 20
f 11 22 2
f 22 17 2
f 7 17 20
f 23 22 25
f 23 6 22
f 20 6 3
f 8 17 22
f 8 1 17
f 20 16 19
f 19 7 20
f 16 7 19
f 16 4 21
f 15 4 11
f 15 21 4
f 15 7 16
f 16 21 15
f 18 23 25
f 6 23 18
f 18 3 6
f 6 1 10
f 1 8 10
f 22 6 10
f 10 8 22
f 7 15 13
f 16 18 9
f 5 18 16
f 3 18 5
f 5 16 20
f 20 3 5
f 25 4 12
f 12 18 25
f 4 9 12
f 12 9 18
f 17 7 14
f 7 13 14
f 14 2 17
f 14 13 15
f 11 2 14
f 14 15 11
f 26 4 16
f 16 9 26
f 26 9 4

