# https://github.com/mikedh/trimesh
v -0.00237822 -0.06518131 0.01517358
v 0.09417389 -0.00564884 -0.01069944
v -0.09725907 -0.03010782 -0.01192068
v 0.10088964 -0.01015849 -0.00939167
v -0.04513023 0.05186627 -0.00894409
v 0.04076612 0.07071000 0.00393146
v 0.08640972 0.02982056 0.01288225
v -0.09809059 -0.04090907 -0.01130515
v 0.05970299 -0.02435002 -0.01630118
v 0.09823989 -0.01893194 -0.00714277
v 0.01156600 0.06860561 -0.01728776
v 0.09344402 0.00140586 0.00867756
v -0.02288871 0.07294874 -0.00011624
v -0.03621858 -0.06331274 -0.00629533
v 0.08440426 -0.04098525 -0.01510638
v -0.09733061 -0.04213176 -0.01039565
v -0.05858557 0.04275910 0.01738996
v -0.10261627 -0.03306372 0.00053085
v -0.05916037 -0.05986197 0.00776155
v -0.04650630 0.02549468 0.01856052
v 0.05417610 -0.04600969 0.00489759
v -0.03807521 -0.06644674 0.00753076
v -0.01055535 -0.04870802 0.01684743
v -0.09114275 -0.01209555 0.00843642
f 24 17 18
f 20 17 24
f 7 17 20
f 13 11 5
f 5 17 13
f 4 7 12
f 12 7 1
f 23 7 20
f 1 7 23
f 20 24 23
f 13 17 6
f 17 7 6
f 6 11 13
f 4 11 6
f 6 7 4
f 19 22 1
f 1 23 19
f 19 23 24
f 19 24 18
f 2 11 4
f 21 12 1
f 15 2 4
f 11 2 15
f 15 21 1
f 3 8 18
f 18 17 3
f 17 5 3
f 3 5 11
f 4 12 10
f 10 15 4
f 12 21 10
f 21 15 10
f 9 15 8
f 8 3 9
f 11 15 9
f 9 3 11
f 16 19 18
f 18 8 16
f 8 15 14
f 14 16 8
f 22 19 14
f 19 16 14
f 1 22 14
f 14 15 1

