# https://github.com/mikedh/trimesh
v -0.06355709 0.01379453 -0.00306409
v -0.00314643 0.04181504 0.00819413
v -0.05483761 -0.03329409 -0.00255378
v -0.02228788 0.04126872 0.00534760
v 0.03440384 0.01638006 -0.00715711
v -0.05745461 0.02170077 -0.00207687
v -0.05232116 -0.02838463 0.00503415
v 0.03293457 0.00528380 0.00758394
v -0.05662039 0.00850841 -0.00633812
v 0.04279450 -0.03412483 -0.00389520
v 0.05203389 -0.03854266 -0.00163953
v -0.05833886 -0.02029975 0.00083804
v 0.05658891 0.03387331 -0.00046621
v 0.05682048 -0.00225515 -0.00354330
v -0.05451843 -0.03201266 -0.00289791
v -0.04602289 -0.03830271 -0.00484180
v 0.05006715 0.00873671 0.00393563
v 0.01504854 -0.04193852 0.00222677
v -0.05774952 -0.00723709 0.00579536
v 0.05705582 0.02752105 0.00017689
v 0.03392108 0.04414505 0.00226928
v -0.01146302 -0.03920175 0.00221891
v -0.03527819 0.03185274 -0.00279705
v 0.01082471 -0.02834095 -0.00613855
v -0.01752799 0.03131031 -0.00777306
v 0.05250212 -0.01866731 -0.00468694
v -0.03743241 -0.03563087 0.00403595
v 0.05399977 0.02689021 -0.00483623
v 0.05166176 -0.03230478 0.00495332
f 8 21 2
f 7 29 8
f 11 29 18
f 18 16 11
f 19 8 2
f 7 8 19
f 19 6 1
f 2 21 4
f 23 6 4
f 4 19 2
f 6 19 4
f 21 8 13
f 23 4 25
f 25 4 21
f 25 6 23
f 25 5 24
f 18 29 27
f 27 29 7
f 3 27 7
f 16 27 3
f 17 29 20
f 17 8 29
f 20 13 17
f 17 13 8
f 10 16 24
f 10 11 16
f 20 29 14
f 29 11 14
f 14 13 20
f 1 6 9
f 6 25 9
f 24 16 9
f 9 25 24
f 22 16 18
f 18 27 22
f 22 27 16
f 12 19 1
f 1 3 12
f 7 19 12
f 12 3 7
f 13 14 28
f 5 25 28
f 21 13 28
f 28 25 21
f 11 10 26
f 26 14 11
f 24 5 26
f 26 10 24
f 5 28 26
f 26 28 14
f 16 3 15
f 15 9 16
f 15 3 1
f 1 9 15

