# https://github.com/mikedh/trimesh
v -0.04165260 0.06142470 0.00071928
v 0.02839159 -0.00632938 -0.01850595
v 0.02355317 0.06575945 -0.00029388
v 0.07710700 0.01073694 0.01350981
v 0.02610886 -0.05864329 -0.00562008
v 0.09115909 0.03934316 0.01632065
v -0.09223261 0.02690355 0.00819640
v 0.10115335 0.00148537 0.00529338
v 0.00934136 0.03973071 -0.01188768
v -0.00423650 -0.05042488 0.01665697
v 0.06752618 0.05334404 -0.00181499
v -0.08911885 -0.03424068 -0.00855021
v 0.07542311 -0.01694273 -0.01604506
v -0.10009922 0.01885237 0.01286509
v 0.05739759 0.06323946 -0.00694052
v 0.07226588 -0.05156534 -0.01786463
v -0.03685860 0.05263438 -0.00941445
v 0.04264926 -0.05501725 0.00599571
v -0.11154770 0.00174338 -0.00070792
v -0.06852060 -0.06178136 0.00116001
v -0.08844841 -0.00886835 -0.00980772
v -0.07950809 0.00030277 -0.01004086
v 0.01443594 -0.01836199 -0.01946362
v -0.07851102 0.03823792 0.00177681
f 19 20 14
f 12 20 19
f 16 12 23
f 20 12 16
f 8 11 6
f 1 6 3
f 14 6 1
f 15 11 8
f 15 1 3
f 17 1 15
f 3 6 15
f 15 6 11
f 23 12 21
f 19 17 21
f 21 12 19
f 18 16 8
f 24 17 19
f 24 1 17
f 17 15 9
f 8 16 13
f 13 15 8
f 22 17 23
f 23 21 22
f 22 21 17
f 20 16 5
f 5 18 20
f 16 18 5
f 10 6 14
f 10 14 20
f 20 18 10
f 14 1 7
f 1 24 7
f 19 14 7
f 7 24 19
f 23 17 2
f 17 9 2
f 2 9 15
f 15 13 2
f 2 16 23
f 2 13 16
f 6 10 4
f 4 10 18
f 8 6 4
f 4 18 8

