# https://github.com/mikedh/trimesh
v -0.02251957 -0.11756048 -0.00254562
v -0.06810385 -0.09737554 0.00297850
v -0.09910577 -0.02788611 -0.01647336
v -0.09230437 0.03509128 -0.00020331
v -0.08813159 0.05178010 0.01791361
v 0.06653717 -0.09104017 -0.01139317
v -0.04770186 -0.03077088 -0.02287017
v 0.00897717 0.12319188 -0.00291321
v -0.06830341 -0.06119983 -0.02068573
v -0.06661653 -0.08836475 -0.00946072
v 0.08315664 0.04866022 0.02217078
v -0.04126985 0.07879405 -0.01617954
v 0.05739042 -0.09983153 -0.00955136
v 0.00985150 0.03857632 -0.01988526
v -0.06174876 -0.06603651 -0.01980987
v 0.08525438 0.07497618 0.01559059
v -0.08625754 -0.06439755 -0.00854532
v 0.01573438 -0.10162894 0.01350891
v 0.05994660 -0.09087642 0.00700032
v -0.05287076 -0.10480242 0.00614343
v -0.01022723 0.03812272 -0.01971381
v -0.10401750 0.03867900 0.00822914
v 0.10028945 0.08593196 -0.00265574
v 0.08936132 -0.03113570 0.00192520
f 5 18 11
f 16 11 23
f 16 5 11
f 7 6 9
f 1 18 20
f 18 5 20
f 23 6 14
f 14 6 7
f 14 12 23
f 11 18 19
f 23 12 8
f 8 16 23
f 5 16 8
f 22 5 8
f 8 12 22
f 17 9 10
f 6 19 13
f 13 18 1
f 13 19 18
f 3 12 7
f 7 9 3
f 3 17 22
f 3 9 17
f 7 12 21
f 21 14 7
f 12 14 21
f 23 11 24
f 11 19 24
f 24 6 23
f 24 19 6
f 17 10 2
f 22 17 2
f 1 20 2
f 2 10 1
f 2 5 22
f 2 20 5
f 15 9 6
f 6 13 15
f 15 13 1
f 1 10 15
f 15 10 9
f 22 12 4
f 4 3 22
f 12 3 4

