# https://github.com/mikedh/trimesh
v -0.02111859 -0.08728315 0.00830583
v 0.02699912 0.02794069 0.01851532
v 0.02363332 -0.11865779 0.00817815
v 0.02313672 -0.02062742 -0.02217141
v -0.05424923 -0.00877837 -0.00887057
v -0.04678817 -0.00803788 -0.01982259
v -0.03547382 0.08056207 0.01198591
v -0.01721357 0.09977726 -0.01786188
v -0.04846143 -0.05731251 -0.01529450
v -0.04945559 0.07434298 0.00060111
v 0.06413348 -0.05297069 0.00204802
v -0.02481715 -0.07904314 -0.00636127
v -0.01813208 0.10236654 -0.00774875
v -0.05882455 0.03071185 0.00652795
v -0.00786522 -0.06846576 0.01944840
v 0.03979259 0.07550015 0.01561761
v 0.00050441 0.06360445 -0.01873625
v 0.00015092 0.10432182 0.00415048
v 0.01586297 0.10022825 -0.00808694
f 19 8 18
f 11 4 19
f 7 10 14
f 15 7 14
f 2 7 15
f 16 19 18
f 18 7 16
f 16 7 2
f 16 2 11
f 11 19 16
f 4 8 17
f 17 19 4
f 8 19 17
f 8 10 13
f 10 7 13
f 18 8 13
f 13 7 18
f 3 4 11
f 11 2 3
f 2 15 3
f 3 9 4
f 12 9 3
f 6 10 8
f 6 8 4
f 4 9 6
f 12 3 1
f 1 3 15
f 1 9 12
f 1 15 14
f 14 9 1
f 5 9 14
f 5 6 9
f 14 10 5
f 10 6 5

