# https://github.com/mikedh/trimesh
v 0.07242770 -0.00395724 0.00285944
v 0.00580788 0.03160569 -0.00127882
v 0.08815987 0.00598910 -0.00003021
v 0.02487806 -0.03295833 -0.00296670
v -0.08258545 0.00467247 0.00405807
v 0.07422071 -0.01965675 0.00229977
v -0.03491206 0.02448772 0.00313230
v -0.00915207 0.01768787 -0.00391409
v -0.06405660 0.01944808 0.00354656
v 0.08057757 0.02093119 -0.00384848
v 0.05276114 -0.01496949 -0.00378787
v 0.06252276 0.03156014 0.00157321
v -0.08663995 0.00768948 -0.00107428
v 0.08259874 -0.01892363 -0.00104953
v -0.01633374 -0.02677024 0.00398696
v -0.04453325 -0.01311438 -0.00382496
v -0.05108963 0.02682761 0.00236384
v -0.07983102 0.02647993 0.00063377
v -0.06911477 -0.00147098 -0.00315736
v -0.03293351 -0.01712351 0.00485219
v -0.05994086 -0.00665168 -0.00341847
v 0.03526683 0.00393798 0.00317905
v 0.05339290 -0.02998053 -0.00321578
v -0.08801427 -0.00668126 0.00303158
v -0.07682962 -0.02645895 0.00265295
v 0.03908769 -0.02919378 -0.00115330
v -0.05034042 -0.02601038 -0.00356115
v -0.02002254 -0.01852069 -0.00389516
f 10 12 3
f 5 18 24
f 4 15 25
f 25 27 4
f 25 5 24
f 8 10 28
f 28 10 11
f 24 18 13
f 13 25 24
f 27 25 13
f 12 10 2
f 8 18 2
f 2 10 8
f 26 15 4
f 26 6 15
f 3 6 14
f 14 10 3
f 3 12 1
f 1 6 3
f 8 28 16
f 16 28 27
f 19 18 8
f 19 13 18
f 8 16 19
f 27 13 19
f 11 10 23
f 10 14 23
f 23 28 11
f 23 26 4
f 4 27 23
f 27 28 23
f 6 26 23
f 23 14 6
f 20 25 15
f 5 25 20
f 15 6 20
f 6 1 20
f 18 5 9
f 5 20 9
f 9 20 7
f 21 16 27
f 27 19 21
f 21 19 16
f 22 1 12
f 22 20 1
f 12 7 22
f 7 20 22
f 18 9 17
f 17 9 7
f 17 7 12
f 12 2 17
f 17 2 18

