# https://github.com/mikedh/trimesh
v 0.04386009 -0.00232827 -0.00513876
v -0.03418649 0.01498982 -0.00653538
v 0.00616971 0.00563571 -0.00688914
v 0.07780941 0.02205643 0.00193239
v 0.06942445 -0.01513396 0.00554946
v -0.05764757 0.01534157 -0.00475607
v -0.06715889 -0.02235221 -0.00592646
v 0.03072981 0.02627482 -0.00243077
v 0.07484818 -0.01128560 0.00182799
v -0.07647226 -0.00643593 0.00327176
v -0.05554673 0.02006694 0.00147140
v 0.05364010 -0.00989929 0.00813699
v 0.01692201 0.01828620 -0.00527050
v -0.02518865 -0.02228533 0.00133206
v 0.05510769 0.01548987 0.00857578
v -0.05469309 0.01490634 0.00442023
v -0.02179282 -0.01914090 0.00702163
v 0.02322293 0.02407629 0.00088655
v -0.07929485 -0.01071078 -0.00769715
v -0.01350101 -0.02144849 -0.00674846
v 0.01775697 -0.00344757 0.00826783
v 0.06293150 -0.02307017 -0.00467543
v -0.08275447 0.01412980 -0.00145291
v 0.04706663 -0.02372957 -0.00135237
v -0.04917032 -0.00331124 0.00590601
f 24 17 14
f 15 11 16
f 16 11 23
f 4 9 22
f 10 16 23
f 18 15 4
f 4 8 18
f 18 11 15
f 18 8 11
f 15 16 25
f 25 10 17
f 16 10 25
f 4 22 1
f 1 22 3
f 21 12 15
f 17 12 21
f 15 25 21
f 21 25 17
f 15 12 5
f 4 15 5
f 5 9 4
f 5 22 9
f 24 22 5
f 5 17 24
f 5 12 17
f 11 8 6
f 8 2 6
f 23 11 6
f 24 14 7
f 7 22 24
f 7 14 17
f 17 10 7
f 13 1 3
f 3 2 13
f 13 2 8
f 13 8 4
f 4 1 13
f 19 6 2
f 19 2 3
f 23 6 19
f 19 10 23
f 19 7 10
f 22 7 20
f 7 19 20
f 3 22 20
f 20 19 3

