# https://github.com/mikedh/trimesh
v -0.00769281 0.06793680 -0.00326634
v -0.02666338 -0.02405143 -0.01729475
v -0.02264901 0.05756068 -0.01543889
v -0.05578412 -0.03345421 -0.00844623
v 0.08297568 -0.02263540 -0.00678442
v 0.07178800 0.04202708 0.01277357
v -0.06149568 0.04952534 0.00238219
v 0.05978672 -0.03629258 -0.01153114
v 0.09723081 -0.00214823 -0.00617168
v 0.02263853 -0.05973019 0.00959263
v -0.06659747 -0.04352326 -0.00338813
v 0.07126499 0.00200737 0.00696619
v -0.04389190 -0.06494444 -0.00526648
v -0.07760201 -0.00082450 0.01191782
v 0.04147086 -0.05031029 -0.00881596
v -0.03342336 0.02040509 0.01528439
v -0.02601156 0.05996776 0.00322982
v -0.02781323 -0.07278261 0.00807217
v 0.01757531 0.06318676 0.00075639
v 0.04609257 -0.04999224 -0.00740133
v -0.05899143 0.05282237 0.00070378
v -0.05097906 0.04360939 0.01440643
v 0.06691380 -0.03996322 -0.00028550
v 0.00047488 -0.04820644 0.01112803
v -0.06889350 0.02778277 0.01654185
v -0.08832179 -0.01317644 -0.00069037
v 0.00626797 0.06805198 -0.01395985
v -0.02426615 -0.06855057 -0.00503561
f 9 27 6
f 14 25 26
f 26 18 14
f 14 18 25
f 3 2 26
f 27 2 3
f 26 21 3
f 3 21 27
f 8 27 9
f 8 2 27
f 26 25 7
f 7 21 26
f 19 6 27
f 26 2 4
f 2 13 4
f 18 13 28
f 28 13 2
f 5 8 9
f 9 23 5
f 24 10 6
f 25 18 24
f 18 10 24
f 6 10 12
f 12 10 23
f 9 6 12
f 12 23 9
f 22 7 25
f 21 7 22
f 25 6 22
f 6 19 22
f 26 4 11
f 11 4 13
f 11 18 26
f 11 13 18
f 20 10 18
f 18 28 20
f 23 10 20
f 8 5 20
f 20 5 23
f 16 6 25
f 25 24 16
f 16 24 6
f 27 21 1
f 1 19 27
f 8 20 15
f 15 20 28
f 2 8 15
f 15 28 2
f 17 22 19
f 19 1 17
f 21 22 17
f 17 1 21

