# https://github.com/mikedh/trimesh
v 0.00881493 0.06532402 -0.00300021
v -0.05596050 -0.00574793 -0.01019911
v 0.00301860 0.06925480 -0.01568161
v -0.06415221 -0.01027415 -0.00217708
v -0.06130382 -0.03683430 0.00184384
v 0.00945257 -0.06339221 -0.00888714
v -0.02719515 0.05886508 -0.00120582
v -0.02633560 -0.04142771 0.01716673
v 0.06219357 -0.00875056 0.00173288
v -0.03524536 0.01870847 0.02650858
v -0.06314165 0.01213937 -0.00178037
v -0.00831815 0.05787851 -0.02302254
v 0.03208454 0.04772890 -0.00940909
v -0.04118439 -0.00908557 -0.01963823
v 0.04833966 -0.03991639 -0.02251076
v -0.02518107 0.06953842 0.00710792
v 0.03870938 -0.01676838 -0.02800098
v -0.06147609 -0.02291039 -0.00965337
v -0.04999397 -0.03238343 -0.01614428
v -0.05859064 -0.03702702 -0.00675495
v 0.06163377 0.01890689 0.03002568
v 0.04577283 0.04093047 0.02137926
v -0.02697338 -0.06457233 0.00693704
v 0.03657173 -0.05310974 -0.02568814
v 0.00246586 0.05639117 -0.02302128
v 0.06773193 0.00897170 0.01467492
v 0.02612496 0.05794478 0.00076873
v 0.00450716 -0.06954844 0.00468645
v 0.05082180 0.03711468 0.02299559
f 11 10 16
f 26 17 13
f 16 10 22
f 23 19 6
f 23 20 19
f 14 12 17
f 14 11 12
f 9 17 26
f 9 15 17
f 6 19 24
f 17 15 24
f 24 14 17
f 19 14 24
f 16 12 7
f 7 11 16
f 12 11 7
f 17 12 25
f 25 13 17
f 10 21 29
f 29 22 10
f 29 21 26
f 26 13 29
f 13 25 3
f 3 12 16
f 3 25 12
f 28 23 6
f 6 24 28
f 26 21 28
f 28 9 26
f 15 9 28
f 28 24 15
f 5 11 4
f 10 11 5
f 20 23 5
f 18 14 19
f 4 11 18
f 19 20 18
f 18 5 4
f 20 5 18
f 16 22 1
f 1 3 16
f 13 3 27
f 27 29 13
f 22 29 27
f 27 1 22
f 3 1 27
f 10 5 8
f 8 5 23
f 8 21 10
f 8 28 21
f 23 28 8
f 11 14 2
f 2 18 11
f 14 18 2

