# https://github.com/mikedh/trimesh
v -0.06794108 0.02095555 0.00480049
v 0.10144862 0.01051348 -0.00560174
v -0.08879352 0.02505488 -0.00485055
v 0.09678367 -0.00996265 0.00512622
v 0.03155781 0.03084666 0.00107827
v -0.05561441 -0.00417801 -0.00426352
v 0.03130850 -0.01325931 0.00698807
v -0.09677363 -0.02670949 -0.00086884
v 0.07468476 0.01920177 0.00602220
v 0.02295816 -0.02807727 0.00568010
v 0.04411446 0.00766752 -0.00581971
v 0.06797558 0.03176415 -0.00373545
v -0.04594618 0.02094225 0.00560208
v 0.02132863 -0.03192995 -0.00555901
v 0.09441007 0.00788706 0.00012860
v 0.02281548 -0.03191889 -0.00211131
v -0.06854514 -0.01725597 0.00608249
v -0.08246603 0.00764172 0.00600214
v 0.00920044 0.02947043 -0.00443047
v -0.09475662 0.00337301 0.00584994
v 0.09519640 -0.01507097 -0.00563950
f 19 12 2
f 2 3 19
f 2 15 4
f 18 17 7
f 8 3 6
f 14 16 8
f 14 6 3
f 8 6 14
f 10 4 7
f 16 4 10
f 7 17 10
f 8 16 10
f 10 17 8
f 7 4 9
f 9 18 7
f 9 4 15
f 2 12 9
f 9 15 2
f 8 17 20
f 17 18 20
f 20 3 8
f 1 3 20
f 20 18 1
f 21 4 16
f 16 14 21
f 2 4 21
f 11 3 2
f 11 14 3
f 2 21 11
f 11 21 14
f 1 18 13
f 18 9 13
f 5 9 12
f 5 13 9
f 1 13 5
f 12 19 5
f 5 3 1
f 5 19 3

