# https://github.com/mikedh/trimesh
v 0.05849756 0.04301936 0.00739077
v 0.04102802 -0.07275023 -0.01017052
v -0.02180780 -0.03164628 -0.01799829
v -0.01578120 0.09988164 -0.00688956
v -0.04558349 0.07769182 0.02032795
v -0.03369012 0.09113135 0.00441598
v 0.02248043 -0.06903126 0.01092542
v 0.04052463 0.07665567 -0.00842647
v -0.00876948 0.09488987 -0.00011390
v -0.00566508 0.08103866 -0.01639517
v -0.00442318 -0.10528204 0.01017554
v 0.03221533 -0.03320710 -0.01464494
v -0.05827094 -0.05412332 -0.00407047
v -0.02934349 -0.07134413 -0.01029406
v -0.02919684 0.08979129 0.01287399
v 0.05165698 -0.06616345 -0.00170055
v 0.00240207 -0.06600178 0.01318703
v 0.06551990 -0.01602465 0.00748725
v 0.05838954 -0.04984159 -0.00001326
v 0.00861766 0.05073514 -0.02107169
v -0.05347816 -0.02782246 -0.00969062
v -0.04619939 -0.08118239 -0.00497510
v -0.04970786 0.07219776 0.00876883
v -0.05782291 -0.02978003 -0.00471589
f 11 5 13
f 1 5 18
f 18 5 17
f 5 11 17
f 2 3 12
f 13 5 24
f 5 23 24
f 4 23 6
f 6 23 5
f 5 1 15
f 4 6 15
f 15 6 5
f 8 15 1
f 8 1 18
f 18 17 7
f 7 17 11
f 22 11 13
f 22 2 11
f 21 23 4
f 21 24 23
f 13 24 21
f 21 22 13
f 3 22 21
f 12 3 20
f 20 8 12
f 4 15 9
f 9 8 4
f 15 8 9
f 11 2 16
f 16 7 11
f 18 7 16
f 3 2 14
f 14 22 3
f 2 22 14
f 4 8 10
f 8 20 10
f 10 21 4
f 3 21 10
f 10 20 3
f 18 16 19
f 19 16 2
f 19 8 18
f 19 2 12
f 12 8 19

