# https://github.com/mikedh/trimesh
v 0.10131717 0.00831332 0.00573905
v -0.00017643 0.04350298 -0.00454149
v -0.08795563 0.00468872 -0.00629936
v 0.08403337 -0.02766923 -0.00596384
v -0.07038871 -0.02163351 0.00630483
v 0.01945479 0.03746279 0.00510584
v 0.05061029 -0.02696954 0.00514120
v 0.09567213 0.00730440 -0.00091333
v -0.09099865 -0.01995726 0.00508651
v -0.04729701 0.04252731 0.00441985
v 0.04226912 0.02161206 -0.00589878
v -0.10245179 0.01817868 -0.00548608
v 0.00063405 -0.04105195 0.00568789
v -0.04502717 -0.03676430 0.00328700
v -0.10077044 0.02181862 0.00593163
v -0.02367798 0.01224192 0.00611840
v -0.09713383 -0.01131719 0.00054629
v 0.00101585 -0.04471718 0.00392816
v -0.05545831 -0.03370209 -0.00717246
v 0.02961639 0.03189858 -0.00547608
v 0.10347332 -0.02841641 -0.00447380
v -0.06363367 0.04343313 -0.00390950
v -0.08864092 -0.00836432 -0.00488838
v -0.04004240 -0.03460774 0.00498737
v 0.05219513 -0.03933880 0.00305611
v 0.09554078 -0.03806773 -0.00329519
v -0.04189544 -0.03835348 0.00045293
v 0.04400919 0.03891633 0.00321417
v -0.00773142 -0.03568371 -0.00546191
v 0.09408357 0.02207945 0.00250906
f 19 3 11
f 5 15 9
f 22 2 12
f 12 15 22
f 5 1 16
f 16 15 5
f 8 1 21
f 8 30 1
f 21 11 8
f 6 16 1
f 15 16 6
f 4 11 21
f 19 11 4
f 2 30 20
f 20 11 3
f 30 8 20
f 20 8 11
f 12 2 20
f 20 3 12
f 19 9 17
f 17 15 12
f 17 9 15
f 1 30 28
f 28 6 1
f 28 30 2
f 19 29 18
f 23 17 12
f 19 17 23
f 12 3 23
f 23 3 19
f 6 28 10
f 10 22 15
f 15 6 10
f 2 22 10
f 10 28 2
f 13 1 5
f 13 7 1
f 21 1 26
f 26 18 29
f 26 4 21
f 19 4 26
f 26 29 19
f 27 9 19
f 19 18 27
f 18 13 24
f 5 9 24
f 24 13 5
f 1 7 25
f 25 26 1
f 7 13 25
f 25 13 18
f 18 26 25
f 14 27 18
f 18 24 14
f 9 27 14
f 14 24 9

