# https://github.com/mikedh/trimesh
v -0.02716698 0.00411500 0.00446943
v 0.06803371 0.02012692 -0.00263201
v -0.00054361 -0.02103071 -0.00312796
v 0.00468297 0.03511700 0.00283133
v 0.00973244 -0.01014269 -0.00479934
v 0.05417358 0.00651165 -0.00325342
v -0.07649774 -0.01443821 0.00423553
v -0.02466008 -0.03353093 0.00064882
v 0.08262075 -0.01401435 0.00094001
v -0.06707995 -0.02897151 0.00068924
v -0.05894669 0.02611208 -0.00002632
v 0.06674232 0.01545857 0.00306008
v -0.07123701 0.00997730 0.00258997
v 0.04865186 -0.02838485 0.00171974
v -0.07938249 -0.01426318 -0.00221710
v -0.02366950 -0.01041949 -0.00465680
v 0.07405564 -0.02685695 -0.00152613
v -0.06824925 -0.00668963 -0.00297255
v -0.00382271 -0.00814239 0.00502139
v 0.07259271 0.00878303 0.00121181
v 0.08669278 -0.03153285 -0.00051102
v 0.02776015 -0.03158333 0.00179233
v 0.03410524 0.03199282 0.00377340
v 0.05323871 0.03143732 0.00078347
v -0.07144437 0.03339235 -0.00403611
v 0.01767421 0.00079579 0.00462778
f 21 2 9
f 17 2 21
f 2 5 25
f 5 16 25
f 14 22 21
f 19 22 14
f 21 9 14
f 7 22 19
f 15 10 7
f 7 25 15
f 13 25 7
f 26 23 19
f 12 23 26
f 26 9 12
f 19 14 26
f 26 14 9
f 24 12 2
f 24 23 12
f 2 25 24
f 4 23 24
f 24 25 4
f 2 12 20
f 20 9 2
f 12 9 20
f 6 5 2
f 2 17 6
f 6 17 5
f 5 17 3
f 3 16 5
f 3 17 21
f 3 10 15
f 15 16 3
f 11 13 4
f 4 25 11
f 11 25 13
f 18 16 15
f 15 25 18
f 18 25 16
f 8 7 10
f 22 7 8
f 21 22 8
f 8 3 21
f 10 3 8
f 19 23 1
f 1 7 19
f 1 23 4
f 4 13 1
f 13 7 1

