# https://github.com/mikedh/trimesh
v -0.07790489 0.02398127 -0.00436303
v 0.07470203 -0.01693321 -0.00441494
v -0.07419481 -0.02419369 0.00101440
v 0.07587345 -0.03064045 0.00015017
v 0.08062678 -0.00325036 -0.00590062
v -0.09111063 0.01974926 -0.00150184
v 0.05499406 0.02408849 0.00148171
v -0.07484893 -0.01730765 -0.00161015
v -0.05913385 -0.01089890 0.00480484
v 0.08335787 -0.02857093 -0.00018676
v 0.02505722 -0.02289183 0.00660273
v 0.06120618 0.01350978 0.00550495
v -0.09066435 -0.00100544 0.00224811
v 0.07917477 0.00756349 0.00113334
v 0.01859641 0.02487337 0.00614207
v -0.02923863 0.01321430 -0.00554813
v 0.08250128 0.02247136 -0.00435750
v -0.00673958 -0.01808417 0.00668145
v -0.08442328 0.00690745 -0.00316810
v -0.02188172 0.00643544 0.00638834
v -0.00836807 -0.01272272 -0.00578669
v -0.06234339 -0.02258528 -0.00083818
v -0.02848156 -0.00820688 -0.00555147
v 0.01312397 -0.03091840 0.00179435
v 0.09031151 0.00652694 -0.00296245
v -0.08765245 0.02420957 -0.00393516
v -0.08843049 -0.02072743 -0.00013909
v -0.08498201 0.01916887 0.00559240
v 0.02633804 0.02863327 -0.00562982
v 0.01771615 0.03101583 -0.00435780
v -0.01438886 -0.02048396 -0.00477536
v 0.07060356 0.00176156 0.00479719
f 11 15 18
f 27 9 13
f 27 13 6
f 7 30 15
f 17 30 7
f 25 10 5
f 5 17 25
f 11 10 32
f 32 10 25
f 13 9 28
f 6 13 28
f 28 9 18
f 15 30 28
f 24 31 4
f 4 11 24
f 4 10 11
f 24 11 3
f 3 11 18
f 18 9 3
f 9 27 3
f 2 5 10
f 10 4 2
f 2 4 31
f 21 5 2
f 2 31 21
f 8 27 19
f 8 31 27
f 15 11 12
f 11 32 12
f 12 7 15
f 17 7 12
f 18 15 20
f 20 28 18
f 15 28 20
f 6 28 26
f 26 27 6
f 19 27 26
f 26 28 30
f 30 1 26
f 29 1 30
f 29 30 17
f 17 5 29
f 29 5 21
f 27 31 22
f 22 3 27
f 22 31 24
f 24 3 22
f 14 32 25
f 14 12 32
f 25 17 14
f 17 12 14
f 23 26 1
f 19 26 23
f 21 31 23
f 23 8 19
f 31 8 23
f 1 29 16
f 16 23 1
f 16 29 21
f 21 23 16

