# https://github.com/mikedh/trimesh
v -0.08719541 0.03249621 -0.00375254
v -0.05706125 0.02413887 0.00233828
v 0.07484065 -0.01100628 -0.00262885
v -0.04180129 0.00980220 -0.00481819
v 0.09465729 0.03197909 0.00035454
v 0.08661019 -0.03114730 0.00346130
v -0.03130629 0.02145646 0.00314882
v 0.10098655 -0.01136098 0.00004651
v 0.05077050 -0.02484693 -0.00167035
v -0.05113939 0.03362805 0.00003330
v 0.04131957 0.02264117 -0.00449436
v 0.05060472 0.02278007 0.00310494
v 0.01421201 0.02996406 -0.00303465
v -0.08851669 -0.00237327 0.00333870
v -0.01038122 -0.03510871 0.00389968
v -0.10165652 -0.02745809 -0.00094276
v 0.09159336 -0.03100015 -0.00038079
v 0.06659401 -0.03220071 0.00093785
v 0.05328218 -0.02691900 -0.00135845
v 0.08960587 -0.01272417 0.00314704
v -0.09369660 -0.00948414 -0.00297994
v 0.01690504 -0.03127267 -0.00012209
v -0.09526088 0.03072208 -0.00229821
f 16 15 14
f 5 1 10
f 15 18 6
f 4 1 11
f 3 5 8
f 11 5 3
f 3 4 11
f 16 14 23
f 10 1 23
f 7 14 15
f 11 1 13
f 13 5 11
f 1 5 13
f 1 4 21
f 16 23 21
f 21 23 1
f 17 3 8
f 8 6 17
f 17 6 18
f 17 18 15
f 2 7 10
f 14 7 2
f 10 23 2
f 2 23 14
f 12 5 10
f 10 7 12
f 15 6 12
f 12 7 15
f 22 15 16
f 16 17 22
f 22 17 15
f 16 21 9
f 3 17 9
f 4 3 9
f 9 21 4
f 5 12 20
f 20 12 6
f 8 5 20
f 20 6 8
f 19 17 16
f 16 9 19
f 19 9 17

