# https://github.com/mikedh/trimesh
v 0.03530968 0.05711381 0.01171502
v 0.03149196 -0.10578848 -0.00968649
v 0.03120830 0.09625086 -0.01475110
v -0.05010613 0.09221823 0.00657163
v -0.01818395 0.09606391 -0.00356526
v 0.01253361 -0.11345629 -0.00031233
v 0.07104076 0.00956588 0.00460284
v -0.03870692 -0.07902943 -0.00066532
v 0.04186819 0.08207188 -0.00624709
v -0.06229079 0.04928362 0.01421304
v 0.00847586 -0.09612447 0.01987066
v 0.06495032 -0.04724519 -0.01187178
v 0.01801957 -0.11514179 -0.00504096
v -0.02972305 0.00197881 -0.01217149
v 0.02209993 0.09295473 -0.00429018
v 0.02027978 -0.06462354 0.01837310
v -0.01709067 0.06956192 -0.01111541
v 0.06378367 0.04118034 -0.00231928
v 0.06662917 -0.02750951 -0.01758479
v 0.05974441 0.03774646 0.00927039
v -0.03136063 0.03792396 0.01980786
v 0.01365976 0.05557847 -0.02089789
v -0.03042109 -0.10654345 -0.00450743
v -0.07470140 0.07680801 0.00306631
v 0.03958571 0.07857684 0.00392601
v -0.08122379 0.03527760 0.00854071
v 0.04693721 0.02980225 0.01305284
v 0.00451556 0.10176965 -0.00532641
v 0.03107496 -0.00161903 -0.02333692
f 29 3 19
f 22 3 29
f 8 11 26
f 26 23 8
f 8 23 11
f 13 11 6
f 6 23 13
f 11 23 6
f 12 19 7
f 7 11 12
f 29 19 2
f 13 23 2
f 2 23 29
f 19 12 2
f 2 11 13
f 2 12 11
f 7 19 18
f 18 19 3
f 29 23 14
f 14 22 29
f 14 23 26
f 16 21 11
f 16 27 21
f 16 11 7
f 7 18 20
f 20 16 7
f 27 16 20
f 26 11 10
f 11 21 10
f 24 14 26
f 22 14 24
f 26 10 24
f 25 20 18
f 3 22 17
f 17 24 3
f 22 24 17
f 3 24 5
f 9 18 3
f 3 25 9
f 9 25 18
f 4 10 21
f 4 24 10
f 4 5 24
f 15 25 3
f 1 4 21
f 25 4 1
f 21 27 1
f 27 20 1
f 20 25 1
f 5 4 28
f 3 5 28
f 28 15 3
f 28 4 25
f 25 15 28

