# https://github.com/mikedh/trimesh
v 0.02582784 -0.06534730 0.00933843
v -0.02909839 -0.02840351 -0.01781947
v 0.00979949 -0.05528941 0.01558133
v 0.04727423 -0.05331234 0.00590036
v -0.04593730 0.05391481 0.00805228
v 0.04289080 0.04716339 -0.00824202
v 0.00036265 0.06232170 -0.01584161
v -0.03571370 0.04933201 0.01785057
v 0.02828772 0.05170336 -0.01433162
v -0.06255101 0.01119590 0.01500566
v 0.05726635 0.02103321 0.01201841
v 0.01290076 0.03908576 -0.01739837
v 0.07625313 -0.02155309 0.00345387
v -0.05299629 0.04162174 -0.00307125
v -0.01937103 -0.05538284 0.00423103
v -0.03239383 -0.05150507 -0.00947039
v -0.06875440 -0.02684869 -0.01763283
v -0.01285726 0.06603582 -0.00652805
v 0.08233652 -0.01495312 0.00564358
v 0.04158723 -0.05084841 0.01149218
v 0.04405999 -0.01903014 -0.01293973
v -0.05488743 0.03253945 0.02025263
v 0.04398599 -0.02835526 -0.01201286
v 0.06368793 0.01248549 0.00891883
v 0.04128286 -0.05167598 -0.00497453
f 22 3 11
f 10 3 22
f 10 14 17
f 22 14 10
f 18 14 5
f 5 14 22
f 15 10 17
f 3 10 15
f 20 4 19
f 19 11 20
f 20 11 3
f 22 11 8
f 8 5 22
f 8 11 18
f 18 5 8
f 18 11 6
f 1 20 3
f 4 20 1
f 3 15 1
f 17 12 2
f 18 6 7
f 7 12 17
f 17 14 7
f 7 14 18
f 24 11 19
f 19 6 24
f 24 6 11
f 4 1 25
f 2 23 25
f 21 6 19
f 19 23 21
f 21 2 12
f 21 23 2
f 12 7 9
f 9 7 6
f 9 21 12
f 6 21 9
f 13 23 19
f 13 25 23
f 19 4 13
f 4 25 13
f 17 2 16
f 2 25 16
f 16 15 17
f 16 1 15
f 16 25 1

