# https://github.com/mikedh/trimesh
v 0.03560252 -0.03098666 -0.00224655
v -0.04954026 -0.03238712 0.00009673
v 0.04872188 -0.03872998 0.00592459
v -0.05174621 0.02400890 -0.00430814
v -0.05337057 0.03300633 0.00121883
v 0.05610461 0.01190631 0.00397875
v 0.05505948 0.00979155 -0.00264761
v 0.02368931 -0.02745288 -0.00580818
v -0.06095995 -0.02303987 -0.00188225
v 0.01927778 0.03509492 0.00216291
v 0.03222227 -0.02928584 -0.00359451
v 0.02732427 -0.00982342 -0.00618334
v 0.02205257 0.03040134 -0.00527200
v 0.05533658 0.03511853 -0.00262108
v -0.03079722 0.01012999 0.00538585
v 0.03929074 -0.01623222 -0.00354722
v -0.05252907 0.03243686 0.00314061
f 9 4 8
f 8 4 12
f 2 17 9
f 9 8 2
f 15 3 6
f 15 2 3
f 17 2 15
f 5 4 9
f 9 17 5
f 12 4 13
f 13 14 12
f 4 5 13
f 13 5 14
f 6 14 10
f 10 15 6
f 17 15 10
f 10 5 17
f 14 5 10
f 6 3 7
f 7 14 6
f 7 8 12
f 12 14 7
f 1 7 3
f 3 2 1
f 1 2 8
f 8 7 16
f 7 1 16
f 11 1 8
f 8 16 11
f 11 16 1

