# https://github.com/mikedh/trimesh
v -0.00566253 0.02868776 -0.02054789
v -0.02068410 0.06096140 -0.01685290
v -0.08167675 0.00145038 -0.00012126
v 0.01148250 0.05807822 -0.00710012
v 0.01190760 0.05003936 -0.01425660
v -0.03876546 0.04982366 0.00004971
v 0.06552243 -0.02575493 -0.02158235
v -0.01312169 -0.06184886 0.00231574
v -0.02510700 0.06016750 -0.00785004
v -0.08081527 -0.00719549 -0.00061481
v 0.04501646 0.05307433 0.00181284
v -0.07854902 -0.01428935 -0.01326491
v -0.02854472 0.05186777 -0.00000409
v -0.07831795 -0.01861754 -0.00709739
v 0.04370754 0.02734710 0.02457210
v 0.07471996 0.01259493 0.00029807
v 0.06318442 -0.04574622 -0.01736268
v -0.06717032 0.02911674 0.00969040
v -0.06043778 -0.04698162 0.00820615
v 0.07426505 0.03483612 0.00156678
v -0.00167052 -0.05466545 0.01362416
v -0.06767709 -0.03293469 -0.00890722
v 0.04537985 0.00694526 0.02063316
v -0.07034712 -0.00648908 -0.01437616
v -0.06776407 0.01656631 0.01029959
v -0.03594628 0.03221584 0.01647058
v -0.01898598 0.06256344 -0.01438708
v 0.03664011 0.05249510 0.00817273
v 0.06894500 0.04167299 0.01635056
v -0.03628756 -0.01972995 -0.01551132
v 0.00762405 -0.04277443 0.02540941
v -0.06314374 0.02865064 -0.00017089
v -0.05231462 -0.04165315 -0.00894257
v 0.04758276 -0.03736354 0.00363463
f 23 15 31
f 21 19 8
f 31 19 21
f 8 19 33
f 1 2 7
f 34 23 31
f 31 15 26
f 15 23 29
f 29 34 16
f 23 34 29
f 7 2 5
f 8 33 17
f 17 7 16
f 16 34 17
f 17 21 8
f 31 21 17
f 17 34 31
f 22 33 19
f 12 33 22
f 19 14 22
f 22 14 12
f 10 19 3
f 10 14 19
f 3 12 10
f 12 14 10
f 24 12 2
f 2 1 24
f 7 12 24
f 24 1 7
f 2 18 9
f 20 29 16
f 7 5 20
f 16 7 20
f 30 33 12
f 30 17 33
f 30 12 7
f 7 17 30
f 3 18 32
f 32 18 2
f 32 12 3
f 2 12 32
f 3 19 25
f 25 18 3
f 25 19 31
f 31 26 25
f 26 18 25
f 2 9 27
f 9 13 28
f 28 27 9
f 28 13 26
f 28 26 15
f 15 29 28
f 11 20 5
f 27 28 11
f 29 20 11
f 11 28 29
f 6 9 18
f 6 13 9
f 6 18 26
f 26 13 6
f 4 5 2
f 4 11 5
f 2 27 4
f 27 11 4

