# https://github.com/mikedh/trimesh
v 0.04928663 -0.02728887 0.00608864
v -0.05941469 0.01885581 0.00019278
v -0.02443607 -0.02760419 -0.00457119
v 0.03147651 0.03585995 0.00420560
v -0.05029696 0.01379481 -0.00679676
v 0.01246706 0.03121221 -0.00686462
v -0.00398033 -0.03475827 -0.00326001
v -0.03097910 -0.01969752 -0.00771359
v -0.02878517 0.02225489 0.00539176
v 0.05004134 -0.00947189 -0.00177914
v -0.03968886 0.02563724 0.00141764
v -0.04685938 -0.02648705 -0.00199613
v -0.04862755 -0.03402020 0.00597482
v -0.06079369 0.00655984 -0.00116293
v 0.05777672 0.03219458 -0.00592806
v 0.01415818 0.01211773 -0.00695330
v -0.00040925 -0.03052761 -0.00531791
v -0.05795687 0.00370605 0.00342093
v 0.02343609 -0.02789066 -0.00580291
v 0.01404915 0.02876935 0.00645790
v 0.05011160 0.02108492 0.00579969
f 12 13 14
f 14 5 12
f 12 5 8
f 7 13 12
f 9 13 20
f 20 4 9
f 9 4 11
f 20 13 1
f 1 13 7
f 7 19 1
f 8 5 6
f 6 4 15
f 11 4 6
f 2 5 14
f 2 9 11
f 11 6 2
f 2 6 5
f 7 8 17
f 17 19 7
f 8 19 17
f 3 8 7
f 7 12 3
f 3 12 8
f 21 4 20
f 20 1 21
f 15 4 21
f 21 1 15
f 10 19 15
f 15 1 10
f 10 1 19
f 16 6 15
f 8 6 16
f 15 19 16
f 16 19 8
f 13 9 18
f 9 2 18
f 14 13 18
f 18 2 14

