# https://github.com/mikedh/trimesh
v 0.01187912 -0.03471875 0.01826019
v 0.06640995 -0.03535555 -0.00797799
v -0.06942806 0.00561931 -0.00770875
v 0.00436767 -0.04594483 0.01609892
v 0.04931938 0.01378258 0.01069667
v -0.01335609 0.06617185 -0.00215022
v 0.01240583 0.02969650 -0.02176413
v -0.06533789 0.02838020 0.02085796
v 0.07421831 0.01577135 -0.00586232
v 0.04644825 0.05317261 0.00214044
v 0.00199315 0.04626551 -0.01963243
v 0.05144695 0.05542733 0.00826390
v -0.02529407 -0.03087458 -0.02615683
v -0.08008227 -0.01021123 0.00232397
v -0.02663057 -0.05572591 -0.00547959
v -0.00385537 -0.06706329 0.01141832
v -0.06648527 -0.03152844 0.00291645
v 0.01792745 -0.06652067 0.01254648
v 0.05825632 -0.04044264 -0.00991260
v -0.06054322 -0.02015595 -0.00958288
v 0.07345199 -0.01097526 0.00485720
v -0.01643903 0.03293191 -0.01708898
v -0.05621604 0.04205315 0.00307656
f 19 15 13
f 17 15 16
f 17 8 14
f 16 8 17
f 13 15 17
f 5 1 21
f 20 17 14
f 13 17 20
f 14 3 20
f 20 3 13
f 4 8 16
f 4 1 8
f 9 21 2
f 18 21 1
f 18 4 16
f 1 4 18
f 18 2 21
f 19 2 18
f 16 15 18
f 15 19 18
f 8 6 23
f 14 8 23
f 23 3 14
f 6 11 23
f 23 11 3
f 7 11 9
f 9 2 7
f 7 2 19
f 7 19 13
f 13 11 7
f 13 3 22
f 22 11 13
f 3 11 22
f 12 6 8
f 8 1 12
f 12 1 5
f 12 21 9
f 5 21 12
f 10 11 6
f 6 12 10
f 9 11 10
f 10 12 9

