# https://github.com/mikedh/trimesh
v -0.05717126 -0.01930549 0.00021895
v 0.02411483 -0.02050037 -0.00296436
v -0.05741007 0.00980263 -0.00409446
v 0.03345655 0.02441313 0.00349375
v 0.05844188 -0.01995257 0.00214912
v 0.00164979 0.01557437 -0.00434988
v 0.04897409 0.00770057 -0.00471583
v -0.00916954 0.01378876 0.00454973
v -0.06146764 -0.01508712 -0.00378384
v -0.04459908 0.02564188 0.00327606
v 0.02987655 0.01340529 0.00469327
v 0.05164602 0.02349618 -0.00235983
v -0.06229017 -0.01987328 -0.00319961
v 0.05344965 -0.01845891 0.00360947
v -0.05758732 0.00117360 0.00240320
v 0.05509494 0.00302013 -0.00235059
v -0.03401551 0.02151941 0.00429368
v 0.05994129 0.01178553 0.00089142
v -0.02138884 -0.02218304 -0.00358314
v 0.03669076 0.00285980 0.00476577
v -0.04767258 -0.02086899 0.00050083
v 0.03560271 -0.02746853 -0.00055544
v -0.05999234 -0.01191241 0.00240294
v 0.02644858 -0.02288120 -0.00272483
v -0.06056790 0.00850533 -0.00256541
v 0.05922332 -0.01474606 0.00304197
f 4 20 18
f 18 20 26
f 10 6 3
f 19 22 13
f 7 3 6
f 10 23 17
f 17 4 10
f 13 22 21
f 12 6 10
f 10 4 12
f 12 7 6
f 12 4 18
f 20 23 14
f 14 26 20
f 23 21 14
f 14 21 22
f 13 23 25
f 10 3 25
f 9 19 13
f 13 25 9
f 9 25 3
f 3 7 9
f 9 7 19
f 16 12 18
f 7 12 16
f 22 19 24
f 24 7 22
f 8 23 20
f 8 17 23
f 1 23 13
f 13 21 1
f 1 21 23
f 15 23 10
f 10 25 15
f 15 25 23
f 22 7 5
f 7 16 5
f 5 14 22
f 26 14 5
f 18 26 5
f 5 16 18
f 19 7 2
f 2 24 19
f 7 24 2
f 4 17 11
f 17 8 11
f 20 4 11
f 11 8 20

