# https://github.com/mikedh/trimesh
v -0.03676952 0.05541454 -0.00952891
v 0.00930200 -0.04776901 0.01142696
v -0.02095080 -0.02661293 -0.02198388
v -0.01629162 0.04742407 -0.02236100
v 0.06868487 0.00746420 0.01993786
v -0.07581748 -0.00900553 0.01514939
v -0.07208893 -0.01157705 -0.00611530
v 0.03790535 -0.02575704 -0.02715443
v 0.05827409 0.03642664 0.01945381
v 0.06896452 0.02809015 0.00154812
v -0.06599747 -0.01431719 -0.01698412
v 0.05498315 -0.05357862 0.00690335
v -0.04542740 -0.02522800 -0.01988202
v 0.00726225 0.03322264 -0.02315131
v 0.02003394 -0.03322482 0.01462380
v 0.04838125 0.04384528 -0.01202264
v -0.03516843 0.04905420 -0.01727498
v 0.04564873 -0.06096730 -0.00808911
v -0.07284671 0.02783554 0.02816772
v -0.05848242 0.04941837 0.00978356
v 0.06627691 -0.03062841 -0.01281834
v 0.00370961 0.01945049 -0.02714714
v -0.03314857 -0.05288615 0.00161529
v 0.06953728 -0.01945783 -0.00251896
v 0.05002613 -0.05112506 -0.01564515
f 1 9 16
f 8 16 21
f 9 19 5
f 1 16 4
f 20 9 1
f 20 19 9
f 8 21 25
f 25 21 18
f 18 13 25
f 10 16 9
f 9 5 10
f 10 5 24
f 24 21 10
f 10 21 16
f 2 19 6
f 1 4 17
f 17 4 11
f 17 20 1
f 11 20 17
f 14 4 16
f 11 4 22
f 22 13 11
f 4 14 22
f 22 16 8
f 22 14 16
f 7 20 11
f 19 20 7
f 6 19 7
f 8 25 3
f 3 25 13
f 3 22 8
f 13 22 3
f 24 5 12
f 12 21 24
f 18 21 12
f 23 2 6
f 6 7 23
f 23 13 18
f 11 13 23
f 23 7 11
f 18 12 23
f 23 12 2
f 15 5 19
f 19 2 15
f 15 12 5
f 2 12 15

