# https://github.com/mikedh/trimesh
v -0.09094517 -0.00495261 0.00217858
v -0.02167848 -0.03125926 0.00646318
v 0.08258438 -0.02101850 0.00001800
v -0.06641103 -0.04088450 -0.00306864
v -0.08762795 0.00110947 -0.00666990
v 0.05321715 -0.02019317 -0.00328400
v -0.08158658 0.01457042 0.00521807
v 0.08073395 -0.03201320 0.00488023
v -0.05149570 -0.01465322 -0.00589838
v 0.09002936 0.02478745 -0.00494927
v -0.00726585 -0.03395599 -0.00373345
v -0.06486688 -0.02841443 0.00603627
v 0.08931135 0.03414562 -0.00647511
v 0.07723706 -0.02717482 0.00537461
v -0.06851477 0.03727079 0.00175832
v -0.06244681 0.03087629 -0.00488883
v 0.07065159 0.00655410 0.00665722
v 0.07355804 -0.02729195 -0.00178035
v 0.02608793 0.02871747 0.00612406
f 5 4 1
f 17 19 2
f 4 5 9
f 7 5 1
f 1 4 12
f 4 2 12
f 12 7 1
f 12 2 19
f 19 7 12
f 13 9 5
f 13 17 10
f 13 19 17
f 18 13 10
f 17 2 14
f 15 7 19
f 19 13 15
f 5 7 15
f 4 9 11
f 11 18 4
f 9 13 11
f 3 18 10
f 8 14 2
f 8 2 4
f 4 18 8
f 18 3 8
f 8 3 10
f 10 17 8
f 17 14 8
f 16 13 5
f 5 15 16
f 16 15 13
f 13 18 6
f 6 11 13
f 18 11 6

