# https://github.com/mikedh/trimesh
v 0.06624961 0.02466303 0.01378922
v -0.02033304 0.05052777 -0.02181139
v -0.09087342 -0.01762754 -0.01880167
v -0.00915530 0.06659601 0.00232821
v 0.00961006 -0.07258059 -0.00170323
v 0.10275163 0.01107674 0.00813739
v 0.03897502 -0.06097215 0.01390780
v -0.03980896 -0.06617438 0.01788489
v 0.06945190 0.05780852 -0.00130304
v 0.09905135 0.03011805 0.00884498
v 0.09630066 0.00341584 0.01475540
v 0.09595930 -0.02595143 -0.01342060
v -0.05486123 0.05762683 -0.00077529
v -0.09200786 -0.04321579 0.00125103
v 0.04716663 0.06616930 0.00983106
v 0.11476500 -0.00700149 -0.01511598
v 0.07279389 0.05038702 -0.00449005
v 0.01086176 -0.07180610 0.00826421
v -0.03830192 -0.06632553 0.00453297
v -0.02656667 -0.06598320 0.01909245
v -0.10761002 0.04278995 0.00537431
v -0.04625150 0.01566937 0.01724494
f 12 3 16
f 5 3 12
f 21 3 14
f 22 15 21
f 11 22 20
f 21 14 8
f 8 22 21
f 20 22 8
f 8 18 20
f 5 18 8
f 19 3 5
f 19 14 3
f 5 8 19
f 19 8 14
f 21 15 4
f 4 13 21
f 20 18 7
f 7 11 20
f 7 18 5
f 5 12 7
f 7 12 16
f 16 11 7
f 15 22 1
f 1 11 15
f 22 11 1
f 15 11 10
f 13 4 2
f 2 3 21
f 21 13 2
f 16 3 2
f 6 11 16
f 16 10 6
f 6 10 11
f 9 4 15
f 9 2 4
f 15 10 9
f 9 10 16
f 16 2 17
f 17 9 16
f 2 9 17

