# https://github.com/mikedh/trimesh
v 0.04476057 0.06286562 0.00060025
v 0.01304410 0.05686161 -0.02941718
v 0.06202698 -0.02629077 -0.03181447
v -0.01918506 0.08359771 0.00360300
v -0.01742547 -0.08261377 -0.00858191
v 0.06924949 0.00030030 0.00832674
v -0.05671841 0.04601593 0.03066574
v -0.03432457 -0.04925963 -0.02626725
v 0.00020536 -0.07351205 0.02028098
v 0.01344410 -0.05825976 0.02764783
v -0.04979721 -0.01274160 -0.01946426
v 0.01832783 -0.08257743 -0.00021047
v 0.01376101 -0.08029631 -0.00922845
v 0.00617343 0.06261592 -0.02469899
v -0.06762962 -0.03522153 -0.00870007
v -0.07403671 0.00876006 -0.00933729
v 0.00250008 -0.04556067 0.02896786
v 0.06640519 0.00509081 -0.00401705
v -0.00944057 -0.08935910 -0.00935990
v 0.06100308 0.03110116 0.00479848
v 0.06900942 0.03882542 0.02546580
f 8 3 19
f 19 3 13
f 15 7 16
f 16 8 15
f 11 8 16
f 6 10 12
f 12 3 6
f 12 13 3
f 19 13 12
f 5 8 19
f 5 15 8
f 2 11 16
f 3 8 2
f 8 11 2
f 3 2 1
f 21 10 6
f 19 12 9
f 9 12 10
f 9 5 19
f 15 5 9
f 7 15 9
f 16 7 4
f 7 21 4
f 4 21 1
f 17 21 7
f 10 21 17
f 7 9 17
f 17 9 10
f 6 3 18
f 18 21 6
f 14 2 16
f 16 4 14
f 14 1 2
f 14 4 1
f 1 21 20
f 21 18 20
f 3 1 20
f 20 18 3

