# https://github.com/mikedh/trimesh
v 0.01264583 -0.03220721 -0.00604520
v -0.06466230 0.02905669 0.00609534
v 0.09744709 0.02422939 0.00586978
v 0.08914932 -0.01661531 -0.00650182
v -0.06180875 -0.03298130 -0.00529550
v 0.10706722 0.02236112 -0.00118299
v -0.02670751 0.01508497 -0.00807737
v -0.09435421 -0.00932067 0.00754058
v 0.10409286 0.01510747 0.00674019
v 0.07980871 0.01045259 0.00746181
v -0.11196849 0.02431476 -0.00439758
v 0.10737828 0.00731476 0.00571549
v -0.10908563 -0.00034371 0.00757772
v -0.07883665 -0.02911655 0.00656770
v -0.04824625 0.00362655 -0.00891705
v 0.05226511 -0.00804815 -0.00737751
v 0.09100914 -0.00257367 0.00793579
v 0.07018679 -0.03260963 -0.00102741
v 0.08432426 0.03032637 -0.00602103
v 0.08078902 -0.02547998 0.00412124
v 0.08469255 0.02207790 -0.00829854
v -0.00308293 0.02497048 0.00697065
v 0.09682175 -0.01713543 -0.00420448
f 11 5 13
f 15 5 11
f 14 13 5
f 2 19 11
f 2 3 19
f 11 13 2
f 19 3 6
f 12 23 6
f 12 6 9
f 9 6 3
f 7 15 11
f 15 7 21
f 19 6 21
f 21 6 23
f 11 19 21
f 21 7 11
f 20 23 12
f 4 21 23
f 12 9 17
f 17 20 12
f 9 10 17
f 14 20 17
f 23 20 18
f 18 4 23
f 18 14 5
f 18 20 14
f 22 2 13
f 13 17 22
f 22 17 10
f 3 2 22
f 22 9 3
f 22 10 9
f 15 21 16
f 21 4 16
f 1 18 5
f 5 15 1
f 4 18 1
f 15 16 1
f 1 16 4
f 13 14 8
f 8 17 13
f 14 17 8

