# https://github.com/mikedh/trimesh
v -0.05101050 0.02232560 0.01412578
v 0.00223661 -0.05785474 0.02508710
v -0.05334135 0.00007767 0.00690556
v 0.00625818 0.08228599 -0.00854565
v -0.06817073 -0.00142400 -0.01635469
v -0.07149986 -0.01497125 -0.01947657
v 0.00748354 -0.08111319 -0.00303985
v 0.06360133 0.00835117 -0.01001586
v 0.05485044 -0.03671333 0.00533156
v 0.04642252 -0.04520298 -0.01027736
v -0.05735546 -0.02455093 -0.00471435
v -0.02326755 0.05438920 0.01049676
v 0.04202130 0.07088860 0.00577948
v -0.02265165 -0.05341793 0.01619587
v -0.02952423 -0.04788548 0.01348075
v -0.03761943 0.05066525 0.01066214
v -0.02541775 -0.06022552 0.00403720
v 0.03397311 0.07141978 -0.00840339
v 0.04574114 0.05609371 -0.00125235
v 0.01714365 0.07852733 -0.00072386
v 0.04964792 -0.01934083 -0.01646601
v 0.04300059 0.04530839 0.01289362
v 0.04647413 -0.05455682 0.00385421
v -0.04898022 0.03360468 0.01558456
v -0.03365769 -0.06136762 -0.00656116
v -0.06025820 0.02963458 0.00587285
f 6 4 21
f 22 24 2
f 8 21 18
f 18 21 4
f 13 18 4
f 13 22 8
f 5 4 6
f 6 26 5
f 5 26 4
f 10 21 8
f 7 23 2
f 7 10 23
f 7 25 6
f 6 21 7
f 21 10 7
f 4 26 16
f 16 26 24
f 24 22 12
f 22 13 12
f 12 16 24
f 8 18 19
f 19 13 8
f 18 13 19
f 24 26 1
f 2 24 1
f 14 15 25
f 14 7 2
f 2 1 14
f 14 1 15
f 9 10 8
f 23 10 9
f 8 22 9
f 9 22 2
f 2 23 9
f 4 16 20
f 16 12 20
f 20 13 4
f 20 12 13
f 3 26 6
f 3 1 26
f 15 1 3
f 25 7 17
f 17 14 25
f 7 14 17
f 11 3 6
f 15 3 11
f 6 25 11
f 25 15 11

