# https://github.com/mikedh/trimesh
v -0.05192843 -0.02938574 0.00277806
v -0.07819309 0.02071548 0.00033889
v -0.07787081 0.02007382 0.00267083
v 0.05785206 0.03630756 0.00034795
v 0.05594226 -0.02671564 -0.00131395
v -0.04453428 -0.02428913 -0.00451242
v 0.01852077 0.01508196 -0.00350540
v 0.05945269 -0.01574320 0.00499188
v 0.06039270 -0.00134708 -0.00685902
v 0.04925297 0.03401703 0.00127976
v 0.02150418 -0.01754728 -0.00648837
v 0.05412632 -0.03384380 -0.00059418
v 0.00215579 0.03182711 0.00256050
v 0.01142586 -0.00913147 0.00467891
v -0.00212950 0.00470517 -0.00417319
v -0.00146942 -0.02309209 -0.00571057
v -0.02666890 0.02752286 0.00081743
v -0.05527399 -0.02413681 -0.00074836
f 9 4 8
f 2 4 7
f 7 4 9
f 15 6 2
f 9 6 15
f 2 7 15
f 15 7 9
f 8 1 12
f 12 1 6
f 17 4 2
f 2 13 17
f 17 13 4
f 10 8 4
f 4 13 10
f 10 13 8
f 2 6 18
f 6 1 18
f 9 8 5
f 5 12 9
f 8 12 5
f 11 6 9
f 9 12 11
f 8 13 14
f 14 1 8
f 16 12 6
f 6 11 16
f 16 11 12
f 3 14 13
f 3 13 2
f 1 14 3
f 2 18 3
f 3 18 1

