# https://github.com/mikedh/trimesh
v 0.03655566 0.07003530 -0.01428607
v -0.05078825 -0.05659224 -0.01398338
v -0.00492826 0.09389461 -0.01912417
v 0.07299918 -0.05213923 0.00030575
v -0.04916304 -0.07448567 -0.00030332
v -0.00763692 -0.09986159 0.02821038
v 0.07922559 -0.02994461 -0.02298599
v -0.03098202 -0.09043824 0.01201579
v 0.09109281 0.04690553 -0.00113245
v 0.03919548 0.03065548 0.03082970
v 0.08298857 0.05461404 0.00268825
v -0.10303753 -0.03132486 -0.02035346
v -0.04562091 0.09289052 0.00348939
v -0.08003787 0.04740257 0.00113972
v -0.08134004 0.03414770 0.00415349
v -0.00375267 0.10251366 -0.00215280
v -0.09009963 -0.00977571 -0.01900653
v 0.02983904 0.07708271 0.00933815
v 0.07579852 -0.06358597 -0.00706667
v 0.08348799 -0.05841173 -0.00796846
v 0.05275248 -0.06930201 -0.01674841
v -0.10426541 -0.00926375 -0.01342894
v -0.04403703 0.01457512 0.02069672
v 0.09137809 0.01587136 0.01319197
f 24 6 4
f 22 6 15
f 10 6 24
f 12 6 22
f 21 12 7
f 2 12 21
f 14 13 22
f 22 15 14
f 14 15 13
f 23 15 6
f 6 10 23
f 13 15 23
f 23 10 13
f 13 10 18
f 18 16 13
f 17 12 22
f 8 21 6
f 6 12 8
f 6 21 19
f 7 12 3
f 12 17 3
f 13 16 3
f 22 13 3
f 3 17 22
f 11 10 24
f 24 9 11
f 11 18 10
f 16 18 11
f 11 3 16
f 9 3 11
f 2 21 5
f 21 8 5
f 5 12 2
f 5 8 12
f 20 4 6
f 6 19 20
f 24 4 20
f 20 9 24
f 7 9 20
f 20 21 7
f 20 19 21
f 1 9 7
f 7 3 1
f 1 3 9

