# https://github.com/mikedh/trimesh
v 0.04050284 -0.08898496 0.01371360
v -0.02108508 -0.06842800 0.01827263
v 0.06041107 0.07695237 0.00840902
v 0.01112747 -0.07087478 0.02168572
v -0.05442814 -0.04245787 -0.02979890
v -0.10359231 0.05240136 0.02937875
v -0.04018483 0.09288212 0.01172697
v 0.02971977 0.08144446 -0.02332910
v 0.12139371 -0.00025445 0.00115344
v -0.04870957 -0.06296705 -0.02496355
v -0.01268710 0.08694314 -0.01010944
v 0.09436464 0.06382087 -0.00320655
v -0.08008065 0.05735442 -0.00577311
v 0.09344389 0.05139068 0.02449981
v 0.09526916 -0.05716887 -0.02520462
v 0.01023806 -0.09373400 0.01735538
v -0.09014277 -0.00771741 -0.02412621
v -0.09255671 -0.06191282 0.00411873
v 0.08718853 -0.05370110 -0.00655578
v -0.06299256 -0.07024022 -0.01145076
v -0.11517565 -0.00341280 -0.01138925
v -0.08887182 -0.03452007 -0.02400502
v 0.04423363 -0.08025048 0.01433632
v -0.08209958 0.06235223 0.00441132
v -0.02154629 -0.09987278 -0.00283904
f 18 6 21
f 10 15 25
f 21 6 13
f 6 4 14
f 25 15 1
f 6 18 2
f 2 4 6
f 25 18 20
f 20 10 25
f 6 14 7
f 9 15 12
f 15 8 12
f 12 14 9
f 15 10 5
f 5 8 15
f 19 15 9
f 9 1 19
f 19 1 15
f 9 14 23
f 23 1 9
f 23 14 4
f 4 1 23
f 25 1 16
f 16 1 4
f 4 2 16
f 16 18 25
f 16 2 18
f 24 13 6
f 6 7 24
f 24 7 13
f 11 8 13
f 13 7 11
f 11 7 8
f 8 7 3
f 3 12 8
f 3 7 14
f 14 12 3
f 8 5 17
f 21 13 17
f 13 8 17
f 22 5 10
f 22 17 5
f 21 17 22
f 22 18 21
f 22 20 18
f 10 20 22

