# https://github.com/mikedh/trimesh
v -0.04747199 -0.04269438 0.00252690
v -0.00025452 0.00361809 -0.00507215
v 0.09044213 -0.03069756 0.00278643
v -0.08954947 0.03460894 -0.00462249
v -0.11470565 0.01842478 0.00205965
v 0.01560920 -0.04398949 -0.00317976
v -0.05511298 -0.02654131 -0.00230737
v -0.04532886 0.03084136 0.00452588
v -0.06637564 -0.03820954 -0.00062635
v -0.09182737 -0.03816396 0.00061053
v 0.07377631 0.04101189 0.00105136
v -0.09671862 -0.00660090 -0.00264847
v -0.11289811 0.00486260 0.00126195
v 0.01560723 0.03124273 -0.00445824
v 0.09895837 0.03359924 0.00019503
v 0.11067714 0.01098546 -0.00084769
v 0.06586154 -0.01758610 0.00498061
v 0.08490053 -0.04845425 0.00183474
v -0.07010486 -0.03521783 0.00302543
v 0.00672479 0.03816027 -0.00358997
v 0.04786046 -0.04886241 -0.00343683
v -0.08685338 -0.00497838 -0.00332536
v 0.07803333 0.00199142 0.00414933
v 0.09299909 -0.04307131 0.00077931
v -0.10274259 0.03931352 0.00430467
v 0.02002333 0.04949069 0.00108614
v 0.10554200 -0.01437529 -0.00498320
f 25 4 5
f 19 25 5
f 17 25 19
f 10 19 5
f 21 27 24
f 16 3 24
f 24 27 16
f 18 3 17
f 18 24 3
f 21 24 18
f 2 27 21
f 17 3 23
f 23 3 16
f 4 25 26
f 17 19 1
f 1 18 17
f 19 10 1
f 1 10 21
f 21 18 1
f 16 27 15
f 15 23 16
f 8 26 25
f 8 25 17
f 17 23 8
f 13 10 5
f 13 12 10
f 5 4 13
f 4 12 13
f 21 10 6
f 6 2 21
f 4 2 22
f 22 12 4
f 2 6 22
f 10 12 22
f 4 26 20
f 23 15 11
f 11 20 26
f 15 20 11
f 11 8 23
f 26 8 11
f 9 6 10
f 10 22 9
f 14 15 27
f 14 20 15
f 4 20 14
f 14 2 4
f 27 2 14
f 7 22 6
f 6 9 7
f 7 9 22

