# https://github.com/mikedh/trimesh
v -0.09813552 -0.02042264 -0.00884209
v 0.08254045 -0.02369615 -0.01036198
v 0.04326569 -0.05060152 -0.01165407
v -0.04294926 -0.04901105 0.01228427
v -0.04204572 -0.07803323 -0.00132347
v 0.01405621 0.08139654 -0.00467520
v 0.03878003 -0.07014639 -0.00053472
v 0.08021749 0.03537539 0.00955265
v 0.06422054 0.01770307 0.01369367
v -0.04175531 0.06699082 0.00265302
v 0.07663754 0.05890697 0.00015791
v 0.00463291 0.05359250 -0.01439055
v 0.09517662 0.01555561 -0.00830302
v -0.00723385 -0.04035810 0.02194839
v -0.07721003 0.02675078 0.00968778
v -0.09778117 -0.02000355 -0.00145649
v 0.05765971 -0.02043055 -0.01574379
v -0.05634253 0.05687477 0.01403833
v -0.06819600 -0.04425568 -0.01572878
v 0.05041384 -0.05826467 0.00625094
f 10 18 6
f 10 12 1
f 6 12 10
f 14 18 15
f 1 16 15
f 15 10 1
f 18 10 15
f 5 7 14
f 5 16 1
f 9 18 14
f 9 8 18
f 6 18 11
f 18 8 11
f 11 8 13
f 13 12 11
f 11 12 6
f 17 12 13
f 4 5 14
f 16 5 4
f 14 15 4
f 4 15 16
f 8 9 20
f 13 8 20
f 14 7 20
f 20 9 14
f 2 17 13
f 13 20 2
f 2 20 7
f 19 5 1
f 1 12 19
f 12 17 19
f 3 2 7
f 17 2 3
f 3 19 17
f 7 5 3
f 5 19 3

