# https://github.com/mikedh/trimesh
v 0.05379067 -0.01191461 -0.00651830
v 0.01020978 -0.01990132 -0.00668014
v -0.07800658 0.02713547 -0.00242302
v 0.11633419 0.01220119 0.00185315
v -0.00182624 0.02657436 0.00533250
v -0.10897108 -0.01079604 0.00118470
v -0.01166984 0.01113517 -0.00907288
v -0.04815789 0.02959661 0.00003122
v 0.00503539 0.02571677 -0.00422051
v 0.09493643 -0.01564265 0.00443163
v -0.02727573 -0.02390531 0.00346760
v 0.02243479 -0.01212137 0.00768394
v -0.09776957 0.00658895 -0.00334906
v -0.09253758 -0.01369092 0.00331332
v 0.10017190 -0.01283966 -0.00422571
v -0.00219794 0.02472590 0.00798494
v 0.07571103 0.02473344 0.00580170
v -0.05462921 0.00215199 -0.00887081
v -0.09855856 0.02623737 0.00843302
v -0.10620277 -0.02667234 -0.00427980
v -0.06294118 -0.02202852 0.00196259
v -0.06308856 -0.02630471 -0.00769260
v -0.07558593 0.00665855 -0.00740663
v -0.09350326 -0.01246903 -0.00671198
v -0.10813661 -0.01521330 -0.00085968
v 0.10833982 -0.02574724 0.00045488
v -0.10116138 -0.02023872 -0.00558484
v 0.04031771 -0.02566550 0.00502652
v -0.10760761 -0.00058196 0.00342062
v 0.11398218 0.01226460 0.00123153
v 0.10264336 -0.02250007 -0.00307649
v 0.11073864 0.00386112 0.00517325
v 0.06186689 0.01704823 -0.00793144
v 0.07707411 0.02168746 -0.00680529
v 0.07777022 0.00883728 0.00720880
f 7 3 34
f 7 34 33
f 33 34 15
f 28 20 26
f 26 20 22
f 8 3 19
f 19 5 8
f 4 34 17
f 17 8 5
f 34 8 17
f 4 15 30
f 30 34 4
f 15 34 30
f 25 20 6
f 6 20 14
f 14 29 6
f 19 29 14
f 14 12 19
f 23 3 7
f 1 33 15
f 7 33 1
f 1 22 7
f 2 22 1
f 2 1 31
f 31 1 15
f 31 22 2
f 31 26 22
f 31 15 4
f 4 26 31
f 28 26 10
f 10 12 28
f 35 12 10
f 9 34 3
f 3 8 9
f 9 8 34
f 16 5 19
f 16 17 5
f 35 17 16
f 19 12 16
f 16 12 35
f 11 20 28
f 28 12 11
f 12 14 11
f 7 22 18
f 18 23 7
f 24 18 22
f 23 18 24
f 35 10 32
f 4 17 32
f 32 17 35
f 32 26 4
f 32 10 26
f 21 14 20
f 20 11 21
f 21 11 14
f 22 20 27
f 27 24 22
f 3 23 13
f 23 24 13
f 24 27 13
f 20 25 13
f 13 27 20
f 19 3 13
f 13 29 19
f 6 29 13
f 13 25 6

