# https://github.com/mikedh/trimesh
v 0.03521074 -0.01400613 -0.00677027
v 0.05636018 -0.00391852 -0.00521292
v -0.03288533 -0.01161838 0.00582010
v 0.05726376 0.01818170 0.00109289
v 0.04829582 -0.01574757 -0.00375090
v 0.04398584 -0.02281926 0.00499495
v 0.05602361 0.00037789 0.00407715
v -0.03265228 -0.02712252 0.00285367
v 0.02299274 0.02326953 -0.00491852
v -0.04987022 0.01790264 0.00534880
v 0.02269636 -0.01594237 -0.00695336
v -0.04725562 0.02101770 0.00578670
v -0.01306453 0.01221064 0.00602724
v -0.00490220 -0.01519366 -0.00645836
v -0.05249700 -0.01266932 0.00264317
v 0.04760075 0.02012288 -0.00758565
v 0.03760812 0.02209590 0.00618451
v -0.01475261 -0.02566096 0.00535914
v 0.04827149 0.00609266 0.00581017
v 0.05074702 -0.01602028 0.00497278
v 0.02944507 -0.00826942 0.00579829
v -0.03815516 0.02256419 -0.00654010
v -0.04587786 -0.02298698 -0.00114518
v -0.05524083 -0.02156175 -0.00172212
v -0.05230601 0.02144394 -0.00229030
v -0.05350291 0.00428311 0.00546831
f 12 17 9
f 16 17 4
f 9 17 16
f 22 12 9
f 9 16 22
f 22 14 24
f 2 16 4
f 1 16 2
f 7 2 4
f 25 10 12
f 12 22 25
f 25 22 24
f 1 2 5
f 11 16 1
f 1 5 11
f 24 14 11
f 11 22 16
f 14 22 11
f 6 8 11
f 11 5 6
f 24 8 15
f 3 15 8
f 3 21 17
f 17 21 19
f 19 21 6
f 4 17 19
f 19 7 4
f 23 8 24
f 24 11 23
f 23 11 8
f 12 10 26
f 26 3 12
f 15 3 26
f 24 15 26
f 26 25 24
f 10 25 26
f 17 12 13
f 13 3 17
f 12 3 13
f 6 21 18
f 21 3 18
f 18 8 6
f 18 3 8
f 20 19 6
f 7 19 20
f 2 7 20
f 6 5 20
f 20 5 2

