# https://github.com/mikedh/trimesh
v -0.01281681 0.07206795 0.00568470
v -0.05801001 0.01434500 0.00415506
v -0.03089581 0.05561803 -0.00517235
v -0.02470749 0.06199534 0.00753038
v 0.02254636 -0.08895419 -0.00341567
v 0.05040852 0.07505359 0.01182864
v 0.05162972 0.01025339 -0.00496296
v -0.03550789 -0.08450168 0.00176111
v -0.04579577 0.04641805 -0.00127085
v 0.02876212 -0.00707624 -0.01800790
v 0.05817576 0.05447049 0.00194746
v 0.02797505 0.07517097 0.00311202
v 0.03646267 -0.04267709 -0.01041884
v 0.03253310 0.03433289 0.01843498
v 0.01492443 0.04390845 -0.01198876
v -0.03666494 0.04399909 0.01161339
v -0.00232269 -0.04566256 0.01447730
v -0.04319974 -0.03640592 -0.01568461
v 0.03761121 -0.00508897 0.00486740
v -0.02312636 0.07655632 0.00311151
v 0.04751285 0.07374492 0.00366942
v -0.03732797 -0.08104971 -0.00096102
v 0.04008423 -0.00455334 -0.01729141
f 18 10 5
f 5 10 23
f 5 14 17
f 19 5 11
f 11 14 19
f 19 14 5
f 11 5 7
f 7 23 11
f 15 23 10
f 10 18 15
f 15 18 3
f 3 20 15
f 20 12 15
f 8 17 2
f 5 17 8
f 2 17 16
f 16 17 14
f 9 20 3
f 9 18 2
f 3 18 9
f 2 16 9
f 9 16 20
f 5 23 13
f 13 7 5
f 23 7 13
f 6 12 20
f 6 16 14
f 6 14 11
f 11 23 21
f 23 15 21
f 21 15 12
f 21 6 11
f 12 6 21
f 2 18 22
f 22 8 2
f 22 18 5
f 5 8 22
f 20 16 4
f 16 6 4
f 1 6 20
f 20 4 1
f 1 4 6

