# https://github.com/mikedh/trimesh
v -0.03233759 0.05924862 -0.01128058
v 0.02477788 0.06649727 -0.00334779
v -0.04612761 -0.04738778 -0.00278128
v 0.03656922 0.04897444 -0.00684996
v -0.00132592 -0.06773141 0.00226330
v 0.04461820 -0.05299295 -0.01878470
v 0.01019629 0.02392055 -0.01773011
v 0.00355451 0.05524501 -0.01669431
v 0.02456517 0.05115780 -0.01218210
v 0.05861491 0.01438057 0.00707354
v 0.02749806 0.00084587 0.02158472
v 0.01489928 0.04448727 -0.01769363
v 0.00768630 0.07013284 -0.01396870
v 0.03493037 0.03623513 0.01258854
v 0.04998986 -0.04129239 -0.02121439
v -0.06199362 -0.00840476 0.00345418
v 0.00911033 -0.06178583 0.01596031
v 0.00927786 0.06991433 -0.01363804
v 0.05022300 0.02170516 0.01283980
v -0.04228994 0.01211993 0.02219515
v -0.05986006 0.01289489 0.02185225
v -0.04336027 -0.04723603 -0.01321108
v -0.06063391 0.03404290 0.00164854
v -0.04956073 -0.02843333 -0.01352265
v 0.04798010 -0.04277022 0.00342867
v 0.03802646 -0.04899498 -0.01925749
v -0.06578880 0.01412087 0.01859171
v 0.06766120 -0.01054594 0.00749452
v 0.00239424 0.06757256 0.00477119
v -0.06508220 0.02239948 0.01670275
v 0.06768330 0.00275076 0.00284937
v -0.01791928 0.05155372 -0.01506876
f 17 3 5
f 23 1 24
f 32 1 13
f 24 1 32
f 24 15 22
f 5 3 22
f 11 17 28
f 28 15 31
f 13 1 29
f 11 14 20
f 14 29 20
f 20 17 11
f 31 15 4
f 15 9 4
f 27 23 16
f 16 23 24
f 16 3 27
f 24 22 16
f 16 22 3
f 7 15 24
f 24 32 7
f 5 22 6
f 6 17 5
f 15 28 6
f 12 9 15
f 15 7 12
f 30 23 27
f 1 23 30
f 30 29 1
f 17 20 21
f 27 3 21
f 3 17 21
f 21 30 27
f 21 20 29
f 29 30 21
f 13 29 18
f 18 4 9
f 18 12 13
f 9 12 18
f 2 29 14
f 2 18 29
f 4 18 2
f 31 4 2
f 2 10 31
f 26 22 15
f 15 6 26
f 26 6 22
f 25 28 17
f 17 6 25
f 25 6 28
f 8 7 32
f 8 12 7
f 8 32 13
f 13 12 8
f 19 2 14
f 10 2 19
f 19 14 11
f 11 28 19
f 19 28 31
f 31 10 19

