# https://github.com/mikedh/trimesh
v -0.00856608 -0.02879866 -0.00818621
v -0.09694036 -0.03497818 0.00671176
v 0.08834217 0.03512463 -0.00404337
v 0.08077413 0.01141600 -0.00463219
v -0.09154988 -0.00218266 0.00629558
v 0.07795814 0.03714496 0.00154038
v -0.05847835 0.03819052 0.00680838
v -0.02448996 0.00905867 0.00772321
v -0.04978355 -0.03409642 -0.00309228
v -0.08821158 0.01135167 0.00653103
v -0.10796246 -0.01157892 -0.00101343
v -0.00786148 0.00265247 -0.00828968
v -0.05255997 0.03049876 -0.00292886
v 0.08237553 -0.02847031 0.00414266
v 0.07811158 0.04133617 -0.00105592
v 0.04968533 0.01780228 -0.00696777
v -0.09256886 -0.02222119 -0.00880095
v 0.07461827 -0.00742068 0.00532927
v 0.09448805 0.00514492 -0.00109168
v -0.05029071 -0.03607632 0.00197084
v 0.09976534 -0.03211611 -0.00218536
v -0.04500179 0.01848990 -0.00571230
f 17 2 11
f 15 7 6
f 14 2 21
f 2 17 9
f 10 7 11
f 10 2 8
f 8 7 10
f 19 14 21
f 8 2 18
f 2 14 18
f 18 7 8
f 18 6 7
f 18 19 6
f 14 19 18
f 1 16 21
f 21 9 1
f 1 9 17
f 21 2 20
f 20 9 21
f 2 9 20
f 11 2 5
f 5 10 11
f 2 10 5
f 21 16 4
f 12 1 17
f 16 1 12
f 3 4 16
f 3 19 21
f 21 4 3
f 15 6 3
f 6 19 3
f 15 3 13
f 13 7 15
f 13 17 11
f 11 7 13
f 16 12 22
f 22 3 16
f 22 13 3
f 22 12 17
f 17 13 22

