# https://github.com/mikedh/trimesh
v -0.04435071 -0.07202404 0.00636242
v -0.03802264 -0.02348732 -0.01813089
v -0.07522178 -0.04909236 -0.01104930
v 0.06902031 -0.05634230 0.00468161
v 0.03439687 0.08058063 -0.01466016
v -0.05022711 0.01126446 0.01871247
v 0.10076549 0.02907838 -0.00035769
v -0.01345456 -0.07670679 0.01468074
v 0.09935499 0.03053522 0.01769442
v 0.01859630 -0.06430822 0.01383244
v 0.10012405 -0.05591557 -0.00517345
v 0.07993089 -0.07541449 -0.00976440
v 0.00640977 -0.08525355 -0.00193342
v 0.00186296 0.08222554 -0.01981820
v -0.09780190 0.05171128 0.01316132
v 0.02443717 0.07489134 0.00586678
v 0.10111960 -0.01286760 -0.00498210
v -0.09683295 0.05450798 -0.00113469
v -0.09587106 0.04498206 0.02048144
v -0.07722639 -0.04146054 -0.01689184
v -0.09341952 -0.01926789 0.00231670
v -0.11397295 -0.02629639 -0.01271397
v 0.11292936 -0.01387936 0.00607790
f 18 14 22
f 21 19 22
f 14 12 2
f 13 12 8
f 14 18 15
f 22 19 15
f 15 18 22
f 19 9 16
f 14 15 16
f 16 15 19
f 23 9 10
f 10 9 8
f 10 4 23
f 8 12 10
f 12 4 10
f 19 8 6
f 6 9 19
f 8 9 6
f 11 17 23
f 12 17 11
f 23 4 11
f 11 4 12
f 7 9 23
f 23 17 7
f 1 13 8
f 1 21 22
f 1 8 19
f 19 21 1
f 12 13 20
f 20 2 12
f 22 14 20
f 14 2 20
f 5 16 9
f 9 7 5
f 14 16 5
f 5 7 17
f 5 12 14
f 5 17 12
f 13 1 3
f 3 20 13
f 3 1 22
f 22 20 3

