# https://github.com/mikedh/trimesh
v -0.00261204 0.04041952 -0.00435527
v -0.07723063 -0.01821136 0.00201810
v -0.05882181 -0.03419929 -0.00464257
v -0.01804650 0.01582029 0.00775683
v -0.07391291 0.04101763 0.00633594
v 0.05156440 -0.04281033 0.00432043
v 0.04310310 0.03748329 -0.00681793
v 0.06327915 -0.04117985 0.00046288
v 0.05385972 0.03246727 0.00760874
v -0.03366180 -0.03746152 0.00622244
v -0.06900164 -0.02867269 0.00670489
v -0.02393676 0.04073387 0.00624448
v -0.00350924 -0.04078307 0.00601778
v 0.00988385 -0.03458917 -0.00659338
v -0.07715538 0.03356189 -0.00729967
v 0.06397739 0.00039651 -0.00857901
v 0.06160931 -0.02875310 -0.00389347
v -0.03490307 -0.00818923 0.00858483
v -0.05888605 -0.00324080 -0.00762046
v -0.07717853 0.03301982 -0.00429717
v -0.04436220 -0.04348633 0.00308892
v 0.07399253 -0.03150220 0.00440132
v 0.02593285 -0.01605948 -0.00854349
v 0.08808256 0.00982624 -0.00751817
v 0.02648908 -0.00736349 0.00827470
v 0.08385957 0.01844118 -0.00538904
v 0.05322766 -0.03799354 -0.00366135
v -0.07085643 -0.00900094 -0.00581336
f 2 5 20
f 20 15 2
f 5 15 20
f 11 5 2
f 11 18 5
f 2 15 28
f 14 23 27
f 1 15 5
f 1 7 15
f 14 27 21
f 22 25 6
f 18 25 9
f 25 22 9
f 6 25 13
f 13 21 6
f 13 25 18
f 19 28 15
f 15 23 19
f 19 23 14
f 24 27 16
f 16 27 23
f 16 7 24
f 15 7 16
f 16 23 15
f 6 21 8
f 8 21 27
f 8 22 6
f 24 22 8
f 14 21 3
f 3 19 14
f 28 19 3
f 2 28 3
f 3 11 2
f 3 21 11
f 5 18 4
f 4 9 5
f 18 9 4
f 12 1 5
f 5 9 12
f 7 1 12
f 12 9 7
f 24 7 26
f 7 9 26
f 26 22 24
f 26 9 22
f 11 21 10
f 21 13 10
f 18 11 10
f 10 13 18
f 17 27 24
f 24 8 17
f 17 8 27

