# https://github.com/mikedh/trimesh
v 0.01212698 -0.01455582 0.00442791
v 0.06092509 -0.00588145 -0.00053690
v 0.04557834 0.00543554 0.00784677
v 0.05022259 -0.00553504 0.00732077
v 0.05891849 0.02734319 0.00295287
v -0.02308349 -0.01594392 0.00592155
v -0.06208619 0.00470432 -0.00047874
v -0.04337547 -0.02349667 0.00323122
v 0.05519697 0.00535765 -0.00724461
v 0.07275057 0.00226046 -0.00221282
v 0.05888813 0.02384606 0.00412193
v 0.03180113 0.02541653 0.00145973
v 0.05606777 -0.00329019 -0.00533006
v -0.03658271 0.01918328 -0.00112783
v 0.01635936 0.01122825 -0.00511282
v -0.06833264 -0.01579748 -0.00572949
v 0.04067436 -0.00939916 -0.00683386
v -0.00858330 0.01318096 0.00511237
v -0.03189461 0.01497307 -0.00376260
v -0.07552469 -0.00096719 0.00510977
v 0.01333508 -0.02530048 -0.00592806
f 16 8 20
f 21 8 16
f 9 16 19
f 4 2 10
f 21 2 4
f 21 16 17
f 16 9 17
f 20 3 18
f 18 14 20
f 19 16 7
f 7 14 19
f 7 16 20
f 20 14 7
f 10 9 5
f 14 18 5
f 6 3 20
f 6 4 3
f 20 8 6
f 8 4 6
f 1 8 21
f 21 4 1
f 1 4 8
f 13 9 10
f 13 17 9
f 21 17 13
f 10 2 13
f 13 2 21
f 15 9 19
f 19 14 12
f 14 5 12
f 12 15 19
f 12 5 9
f 9 15 12
f 11 18 3
f 11 5 18
f 3 4 11
f 11 4 10
f 10 5 11

