# https://github.com/mikedh/trimesh
v -0.05752228 0.01403903 0.00203733
v 0.02812488 0.00393075 -0.00533959
v 0.00098613 -0.01837277 -0.00451975
v -0.00136562 0.00617329 0.00379230
v -0.05558306 -0.00996807 -0.00037550
v 0.05578604 -0.01068720 0.00103503
v -0.02642927 -0.02861195 0.00104549
v 0.05069610 0.02653193 0.00335857
v -0.05968618 -0.00358861 0.00283159
v 0.04232700 -0.02094315 -0.00088369
v 0.03057833 -0.00261535 -0.00529579
v -0.01680470 -0.01527452 -0.00446152
v 0.03616659 -0.02394702 -0.00157666
v -0.03847305 -0.02247374 0.00261932
v 0.06001638 -0.00232906 0.00373282
v -0.02666518 -0.00747174 0.00324054
v -0.07150383 0.00430981 0.00099624
v -0.05192833 0.01753520 -0.00092053
v -0.00269097 0.02415315 -0.00009043
v 0.05871670 0.00604269 -0.00448223
v -0.06774019 0.00876189 -0.00137923
v -0.02476671 0.02165276 0.00012963
v 0.00688324 -0.01505305 0.00330445
v -0.05043638 -0.01143117 -0.00106212
v -0.05098085 0.00769245 -0.00328356
f 20 8 15
f 14 9 17
f 17 9 1
f 15 8 4
f 8 1 4
f 4 1 9
f 24 12 7
f 12 24 25
f 2 12 25
f 11 12 2
f 2 20 11
f 8 20 19
f 19 20 2
f 2 25 19
f 19 25 18
f 15 4 23
f 23 14 7
f 9 14 16
f 16 4 9
f 14 23 16
f 16 23 4
f 7 14 5
f 5 24 7
f 5 14 17
f 18 25 21
f 17 1 21
f 21 1 18
f 21 5 17
f 21 25 24
f 24 5 21
f 15 23 10
f 10 23 7
f 22 1 8
f 8 19 22
f 18 1 22
f 22 19 18
f 12 11 3
f 7 12 3
f 6 20 15
f 15 10 6
f 6 10 20
f 13 11 20
f 20 10 13
f 13 3 11
f 13 10 7
f 7 3 13

