# https://github.com/mikedh/trimesh
v -0.02877220 -0.09487734 0.00489684
v 0.00954949 -0.09342349 0.01755347
v -0.03544792 0.08055814 0.00108459
v 0.06036452 0.00858901 -0.00969041
v 0.04281195 -0.01072082 -0.01422577
v 0.05615693 -0.06526918 -0.01499261
v 0.01289752 0.10324938 -0.01240100
v -0.04664328 -0.05955741 -0.01205452
v -0.08110161 0.00704012 0.00556160
v 0.06915244 0.04833671 0.01273897
v -0.02268984 -0.08992826 -0.00543388
v -0.01928473 -0.08592314 0.01360132
v -0.07015043 0.01872604 0.01249164
v 0.03017664 -0.08615702 -0.00575245
v 0.05132537 0.08532960 -0.00815660
v -0.01261834 0.08625576 -0.01746110
v -0.08313195 0.03183346 0.00314147
v -0.07227283 -0.05053846 -0.00638907
v 0.05721782 0.06939466 0.00140002
v -0.07550105 -0.03144174 -0.01317588
v 0.04502745 0.04009406 0.01722144
v -0.05655331 0.04380917 0.01713942
v -0.07357203 -0.03143368 0.00058118
v 0.08548896 0.00199813 0.00769897
f 17 16 20
f 16 6 20
f 24 6 4
f 17 20 9
f 1 14 2
f 2 6 24
f 2 14 6
f 6 14 11
f 11 14 1
f 5 6 16
f 18 9 20
f 18 11 1
f 21 2 24
f 22 2 21
f 12 2 22
f 1 2 12
f 8 20 6
f 6 11 8
f 8 18 20
f 11 18 8
f 13 12 22
f 9 12 13
f 13 22 17
f 17 9 13
f 9 18 23
f 23 12 9
f 23 18 1
f 1 12 23
f 3 16 17
f 3 7 16
f 17 22 3
f 22 21 3
f 15 7 19
f 24 4 15
f 15 4 6
f 6 5 15
f 15 5 16
f 16 7 15
f 19 7 10
f 10 21 24
f 10 3 21
f 7 3 10
f 24 15 10
f 10 15 19

