# https://github.com/mikedh/trimesh
v 0.02362931 0.02432365 -0.00718867
v -0.04780386 -0.02253416 0.00222870
v 0.06289028 0.02515696 0.00632718
v 0.03572903 0.01498392 -0.00730234
v -0.06321401 -0.00144270 -0.00709947
v -0.05315992 -0.02782890 -0.00140232
v 0.03274684 0.01792410 -0.00709735
v -0.04347218 0.01397186 0.00302019
v 0.05827268 -0.02133022 0.00427387
v 0.02351835 0.02115006 -0.00747620
v -0.03871683 -0.03250886 -0.00147658
v -0.05037899 -0.02457299 -0.00336256
v -0.03456858 -0.03226969 0.00613994
v -0.02004072 0.01357736 -0.00860912
v 0.05708557 0.02680714 0.00523497
v -0.01093429 0.02137327 0.00559942
v -0.04342360 -0.01843115 -0.00665027
v 0.06748027 -0.00299011 0.00660941
v 0.01774658 -0.00904259 -0.00661750
v 0.01432234 -0.01961191 -0.00275240
v -0.06014836 0.02411198 -0.00833704
v -0.04975270 0.02525857 0.00100130
f 5 14 17
f 21 14 5
f 11 17 19
f 19 17 14
f 12 17 11
f 5 17 12
f 8 13 16
f 2 13 8
f 22 21 5
f 5 2 22
f 22 2 8
f 8 16 22
f 18 13 9
f 9 13 11
f 4 19 14
f 18 9 4
f 4 9 19
f 13 2 6
f 11 13 6
f 6 12 11
f 5 12 6
f 6 2 5
f 11 19 20
f 20 9 11
f 19 9 20
f 18 4 3
f 3 13 18
f 3 16 13
f 15 22 16
f 16 3 15
f 21 22 15
f 21 15 1
f 1 15 3
f 14 21 10
f 21 1 10
f 10 4 14
f 10 1 4
f 7 3 4
f 4 1 7
f 7 1 3

