# https://github.com/mikedh/trimesh
v -0.04229742 0.05782886 -0.01155281
v -0.00109166 -0.03228004 0.02598518
v -0.07528550 -0.01481500 -0.00417015
v 0.06804181 -0.04832923 0.00579322
v -0.07482813 -0.01113137 -0.02258409
v 0.06954343 0.03889981 0.01707871
v -0.06800112 0.05604339 0.02114351
v 0.00958551 0.06411904 -0.01828444
v 0.03488569 -0.00977084 -0.02057433
v 0.02926503 0.07088244 0.00787377
v -0.00936735 -0.07471449 0.00314295
v 0.07853714 -0.02318293 -0.01236131
v 0.04617925 0.06029436 -0.00483872
v -0.00137709 0.06408315 -0.01232391
v -0.07847664 -0.03420518 -0.01534745
v 0.07912513 -0.00738036 -0.01728207
v 0.06308069 -0.03505622 -0.02076437
v -0.06237688 -0.04375595 -0.02015671
v -0.02740132 -0.07195764 0.01284329
v 0.03913747 0.02656627 0.02660165
v 0.04344951 -0.06307359 -0.01521712
f 18 21 11
f 1 7 10
f 13 8 10
f 10 6 13
f 16 8 13
f 13 6 16
f 11 21 4
f 3 7 15
f 15 7 5
f 7 1 5
f 5 18 15
f 5 1 8
f 8 9 5
f 10 8 14
f 14 1 10
f 8 1 14
f 12 4 21
f 16 6 12
f 6 4 12
f 21 18 17
f 18 5 17
f 17 5 9
f 16 12 17
f 17 12 21
f 17 8 16
f 17 9 8
f 20 4 6
f 20 2 4
f 7 2 20
f 10 7 20
f 20 6 10
f 11 4 19
f 4 2 19
f 19 2 7
f 15 18 19
f 19 18 11
f 19 3 15
f 7 3 19

