# https://github.com/mikedh/trimesh
v 0.07749848 -0.02252540 -0.00181993
v 0.09454626 0.00565230 -0.00524933
v 0.05911405 0.01123065 0.00489222
v 0.08752813 -0.01666829 0.00231320
v 0.03586800 -0.02610309 -0.00267735
v 0.01606860 -0.01912226 -0.00510142
v -0.08550463 -0.00135963 0.00544202
v 0.07057781 -0.01790094 -0.00305244
v 0.03119043 0.00809691 -0.00553905
v 0.09334473 -0.01030183 0.00405842
v 0.07708091 0.00407411 0.00373347
v -0.05629148 -0.02042614 0.00568711
v -0.09210258 0.02126385 0.00046947
v 0.09516328 0.01982526 -0.00510830
v -0.02592586 0.01032297 0.00710597
v -0.07029279 -0.02030336 0.00502277
v -0.00278609 0.02296699 0.00639649
v -0.03722586 0.01684899 -0.00508795
v -0.05543109 -0.02062510 -0.00388745
v -0.10397364 -0.00559066 -0.00396892
v 0.01833834 0.00294114 0.00630592
v -0.07710347 0.01942857 -0.00425466
v 0.03726495 0.00226685 -0.00555272
v 0.05953984 -0.02472855 0.00253983
v 0.03399092 0.02275222 -0.00486506
v -0.05878420 0.02105437 0.00314288
f 20 6 19
f 19 6 5
f 19 16 20
f 5 16 19
f 14 10 2
f 15 17 7
f 20 16 7
f 7 13 20
f 15 7 12
f 12 7 16
f 12 24 10
f 12 16 5
f 5 24 12
f 20 13 22
f 14 2 9
f 25 17 14
f 13 17 25
f 25 22 13
f 11 10 14
f 21 17 15
f 15 12 21
f 21 12 10
f 26 17 13
f 13 7 26
f 26 7 17
f 1 24 5
f 5 6 1
f 23 2 6
f 23 9 2
f 22 25 18
f 20 22 18
f 9 23 18
f 14 9 18
f 18 25 14
f 18 6 20
f 18 23 6
f 3 21 10
f 17 21 3
f 10 11 3
f 14 17 3
f 3 11 14
f 6 2 8
f 8 1 6
f 2 1 8
f 10 24 4
f 24 1 4
f 4 2 10
f 4 1 2

