# https://github.com/mikedh/trimesh
v 0.00569959 -0.06814263 0.02548278
v -0.07179160 0.02675050 0.00862746
v 0.01927121 -0.11140650 0.00038876
v 0.03588783 -0.10164700 -0.01259270
v -0.07248231 -0.03580689 -0.02081174
v 0.09091285 0.02733524 0.00669094
v 0.08317581 0.00049518 0.01100542
v -0.01426526 0.05385907 -0.03189163
v -0.07437671 0.10083706 0.02495669
v 0.07540847 0.04751351 0.00643512
v -0.06486480 -0.06208731 -0.00503230
v 0.06493753 -0.04548577 -0.02181831
v -0.04251753 0.09965752 -0.00255315
v 0.06872598 0.06190799 0.01119335
v 0.05608829 -0.09140195 -0.01857943
v -0.04737895 -0.06463494 -0.02791168
v 0.05637711 0.03917286 0.02801560
f 12 8 6
f 7 1 3
f 9 5 2
f 3 1 11
f 11 2 5
f 11 1 9
f 9 2 11
f 9 14 13
f 13 14 8
f 13 5 9
f 8 5 13
f 6 8 10
f 10 14 6
f 8 14 10
f 16 5 8
f 8 12 16
f 3 11 16
f 16 11 5
f 15 7 3
f 15 16 12
f 15 12 6
f 6 7 15
f 1 7 17
f 9 1 17
f 17 14 9
f 6 14 17
f 17 7 6
f 3 16 4
f 4 15 3
f 16 15 4

