# https://github.com/mikedh/trimesh
v 0.09495340 -0.04403036 -0.00392088
v 0.00461758 -0.08501352 0.01248756
v 0.05766376 -0.00176063 -0.01249519
v 0.08312107 -0.00391042 -0.00905998
v -0.01549941 0.08411932 -0.01591919
v -0.07367017 -0.05715445 -0.01587737
v 0.05807159 -0.07294276 0.00333916
v -0.08668895 -0.00695960 0.00793119
v 0.09219168 0.05188957 0.01323643
v 0.04457364 0.06658384 -0.00612379
v 0.03239719 -0.08058935 0.00697151
v -0.08967440 0.03641853 0.00057689
v 0.08848205 0.00038704 -0.00590222
v -0.07539234 0.03119513 0.01095576
v -0.06282369 0.06933025 0.00836886
v 0.08804933 0.00906832 0.00769209
v -0.03670811 -0.01084707 -0.01708817
v 0.02717036 -0.07817293 -0.00272502
v 0.09773307 -0.04459901 -0.00968253
v 0.05146818 0.02349016 0.02007985
v -0.03947244 0.08523732 -0.00834896
v -0.10873005 -0.01720737 0.00359595
v -0.00304635 -0.05995309 0.01430339
f 6 2 22
f 21 15 9
f 9 15 20
f 21 9 5
f 18 6 19
f 2 6 18
f 22 15 12
f 12 15 21
f 12 6 22
f 21 5 12
f 12 5 6
f 23 2 20
f 22 2 23
f 23 8 22
f 20 15 14
f 14 23 20
f 8 23 14
f 14 15 22
f 22 8 14
f 19 6 17
f 6 5 17
f 10 5 9
f 2 18 11
f 7 9 20
f 7 16 9
f 20 2 7
f 2 11 7
f 7 18 19
f 7 11 18
f 19 17 3
f 3 17 5
f 13 9 19
f 13 10 9
f 1 7 19
f 16 7 1
f 19 9 1
f 9 16 1
f 10 13 4
f 5 10 4
f 4 3 5
f 19 3 4
f 4 13 19

