# https://github.com/mikedh/trimesh
v -0.00767259 -0.02890231 -0.00350992
v -0.05729801 -0.03214355 -0.00131799
v 0.00162844 0.03317671 -0.00194685
v -0.06619005 -0.03211475 0.00040024
v -0.09180350 -0.02449162 -0.00336134
v -0.08584397 -0.02657351 0.00192861
v 0.08046692 0.02214834 -0.00249345
v -0.09509251 -0.02751314 -0.00222698
v -0.08313619 0.03401790 0.00067457
v -0.10107413 -0.01088086 0.00022995
v 0.08447642 -0.01549213 -0.00341609
v 0.09458281 0.00531136 -0.00344781
v 0.10124033 -0.01406784 0.00221991
v 0.09432259 0.01861663 0.00286329
v 0.09229425 0.02023713 0.00034105
v 0.03220438 -0.00333474 0.00349281
v -0.05725295 0.03034856 -0.00395191
v 0.05582644 -0.02628334 0.00282741
v -0.06406152 0.03605873 0.00394150
v 0.08658249 0.01838542 -0.00214770
v 0.08293541 0.02773732 0.00112458
v 0.09564402 -0.03213700 0.00283225
v 0.04910437 0.01520715 -0.00356295
v -0.07541750 0.01366786 0.00352068
f 14 21 19
f 14 22 13
f 19 21 3
f 3 9 19
f 17 9 3
f 21 14 15
f 8 6 10
f 10 6 24
f 24 9 10
f 19 9 24
f 7 3 21
f 21 15 7
f 17 3 7
f 4 22 6
f 6 8 4
f 17 1 5
f 1 8 5
f 5 9 17
f 5 8 10
f 10 9 5
f 19 24 16
f 16 24 22
f 16 14 19
f 22 14 16
f 6 22 18
f 18 24 6
f 22 24 18
f 11 1 17
f 11 22 1
f 2 8 1
f 2 4 8
f 1 22 2
f 22 4 2
f 17 7 23
f 12 23 7
f 12 14 13
f 12 15 14
f 13 22 12
f 22 11 12
f 12 11 17
f 17 23 12
f 20 7 15
f 15 12 20
f 20 12 7

