# https://github.com/mikedh/trimesh
v -0.06013727 -0.00730414 0.00475242
v -0.07506018 0.02765255 0.00343392
v -0.07778635 -0.01953721 -0.00095775
v 0.02915571 0.03277274 -0.00501346
v 0.06295035 -0.03195038 -0.00218500
v 0.06865479 0.01444602 0.00425258
v 0.05510359 0.02676629 0.00499567
v 0.05138322 -0.01944067 0.00200699
v 0.07296158 -0.01596032 -0.00406389
v 0.02716915 0.03048713 0.00591551
v -0.07163505 -0.01147424 -0.00437292
v -0.00953771 -0.03108940 -0.00462290
v -0.07576728 -0.00563057 -0.00457027
v 0.06034518 0.01847347 -0.00447340
v 0.01092586 0.03410126 -0.00294424
v -0.08158176 -0.00172875 -0.00058511
v -0.02308088 -0.02722230 0.00442182
v -0.06400797 0.00042922 -0.00477030
v 0.00036947 0.02797445 -0.00487170
v 0.05437324 -0.03337397 0.00056623
v -0.04503679 0.02250994 0.00457226
v 0.07895204 -0.03276967 -0.00039160
f 10 17 6
f 4 12 18
f 9 12 4
f 9 6 22
f 3 12 17
f 22 17 20
f 17 12 20
f 15 10 4
f 10 15 2
f 4 10 7
f 10 6 7
f 8 17 22
f 22 6 8
f 8 6 17
f 5 9 22
f 12 9 5
f 22 20 5
f 5 20 12
f 14 9 4
f 6 9 14
f 4 7 14
f 14 7 6
f 12 3 11
f 1 17 10
f 1 3 17
f 16 3 1
f 1 2 16
f 4 18 19
f 18 2 19
f 19 15 4
f 19 2 15
f 13 18 12
f 12 11 13
f 16 2 13
f 13 2 18
f 13 3 16
f 13 11 3
f 10 2 21
f 21 1 10
f 2 1 21

