# https://github.com/mikedh/trimesh
v -0.03747015 0.04341073 0.01344243
v -0.03329817 -0.07171245 0.00384348
v -0.05234968 0.02139271 0.01765714
v 0.08066248 0.02776869 0.01964050
v 0.01768958 -0.03203174 0.01737935
v 0.07980030 0.04966050 0.00619713
v -0.04769437 0.05836846 -0.00848940
v -0.08607987 -0.03397961 -0.02101140
v -0.06038188 0.06403767 0.00768504
v 0.04612952 0.05380444 -0.00446993
v 0.02541536 -0.04919739 0.01129010
v -0.03050296 -0.00888723 -0.01881843
v -0.03322509 -0.07141048 0.00508789
v 0.11012169 -0.01133051 -0.00200244
v 0.07403455 -0.02592870 -0.01788733
v 0.10220606 0.02326777 0.01930581
v -0.01571930 -0.07488533 0.00408653
v -0.09942186 0.00943361 0.01177012
v 0.08285398 -0.02907135 -0.01255194
v 0.01493572 0.05834543 -0.00158669
v -0.06140922 0.04613106 0.01142087
v -0.00524747 -0.06111189 0.01198820
v 0.09167404 -0.01483427 -0.01485461
v 0.01141431 0.05793840 -0.01174841
v -0.00024783 0.02406806 -0.01540875
v -0.08769267 -0.02973020 -0.01527422
v -0.08929243 -0.01065319 -0.01480847
v -0.03887266 -0.06926621 -0.00941119
f 14 17 19
f 7 24 8
f 11 17 14
f 14 16 11
f 6 16 14
f 18 8 26
f 26 13 18
f 8 13 26
f 28 19 17
f 15 28 8
f 19 28 15
f 27 8 18
f 27 7 8
f 22 13 17
f 17 11 22
f 18 13 22
f 24 7 9
f 9 27 18
f 7 27 9
f 2 13 8
f 8 28 2
f 17 13 2
f 2 28 17
f 8 24 12
f 12 15 8
f 23 15 24
f 23 6 14
f 14 19 23
f 19 15 23
f 18 22 3
f 5 11 16
f 5 22 11
f 5 3 22
f 24 9 20
f 20 9 6
f 16 6 4
f 6 9 4
f 4 5 16
f 3 5 4
f 24 15 25
f 25 12 24
f 15 12 25
f 10 23 24
f 6 23 10
f 24 20 10
f 10 20 6
f 21 9 18
f 18 3 21
f 21 3 9
f 9 3 1
f 1 4 9
f 3 4 1

