# https://github.com/mikedh/trimesh
v -0.05103580 0.02673692 0.00345645
v -0.00997827 -0.00401909 -0.00486945
v -0.00273248 0.02743962 -0.00557217
v 0.04027432 -0.01456822 0.00377916
v 0.04340131 0.02865686 0.00401024
v -0.00407208 0.03220740 0.00479990
v 0.02586690 0.04272981 -0.00474409
v 0.01581611 -0.03744554 -0.00382515
v 0.05865374 0.01668478 -0.00028037
v 0.03118783 -0.03916016 -0.00076699
v -0.00463611 -0.03689331 0.00284850
v 0.00131940 -0.04407590 0.00190010
v -0.02543734 0.00687097 -0.00467427
v -0.02372777 0.03564907 -0.00421630
v -0.03108127 -0.01967188 0.00378361
v 0.04150655 0.01862803 -0.00353344
v -0.03550137 0.02169621 -0.00433268
v 0.01668538 -0.03696046 0.00193039
v -0.00204256 -0.04441944 0.00118647
v -0.03558667 0.03610711 0.00116236
v -0.03743219 -0.04267078 0.00126345
v 0.00975983 -0.04163365 -0.00133429
v -0.03544004 -0.03786736 -0.00417368
v 0.04846967 -0.01981922 0.00235522
v 0.04077160 -0.00244602 -0.00386213
v -0.04682454 0.01456671 0.00425348
v -0.03564371 -0.04542136 -0.00278193
v -0.03870592 0.03417030 0.00249210
v -0.04634009 -0.03836252 0.00231158
v 0.03270949 0.02632465 0.00441864
v -0.00788689 -0.00276989 0.00432855
v -0.00890678 0.04244658 0.00407086
v 0.05130644 -0.00629758 -0.00080598
v -0.05138807 0.02557945 0.00440122
f 9 7 5
f 5 7 32
f 27 29 23
f 32 7 14
f 3 17 14
f 14 7 3
f 4 5 30
f 13 17 3
f 3 23 13
f 13 23 17
f 2 23 3
f 1 29 34
f 1 23 29
f 17 23 1
f 1 14 17
f 3 7 25
f 33 10 25
f 9 33 25
f 27 23 8
f 23 2 8
f 8 25 10
f 8 2 3
f 3 25 8
f 24 10 33
f 24 33 9
f 9 5 24
f 24 5 4
f 31 15 4
f 6 5 32
f 6 30 5
f 6 32 34
f 34 31 6
f 4 30 6
f 6 31 4
f 32 14 20
f 14 1 20
f 16 7 9
f 9 25 16
f 16 25 7
f 21 29 27
f 21 12 29
f 27 8 22
f 22 8 10
f 4 15 11
f 11 12 4
f 11 15 29
f 29 12 11
f 18 12 10
f 10 24 18
f 4 12 18
f 18 24 4
f 26 31 34
f 15 31 26
f 34 29 26
f 29 15 26
f 28 1 34
f 28 20 1
f 34 32 28
f 32 20 28
f 10 12 19
f 19 22 10
f 27 22 19
f 19 21 27
f 12 21 19

