# https://github.com/mikedh/trimesh
v 0.02146126 0.04025200 -0.02377331
v 0.03255629 0.00926118 0.03300038
v 0.04253641 0.05655339 -0.00566357
v -0.02139352 0.00979513 0.02640792
v -0.01089915 0.05648741 -0.02386827
v 0.04987159 0.04192813 0.01433383
v -0.00452536 0.06000412 -0.01616082
v 0.03965903 -0.05743144 0.00419532
v -0.02026452 0.06111888 -0.00914463
v 0.05950236 0.01050974 0.00074953
v 0.03066005 -0.02953607 -0.02174232
v -0.03734551 0.04241867 -0.00335279
v -0.01911958 0.03591216 0.01832258
v -0.05873512 -0.00695740 -0.00497819
v -0.05629818 -0.01667666 -0.02822989
v -0.01472714 -0.06729934 0.00020789
v 0.00883427 -0.04226931 0.03290302
v 0.03017986 0.05945018 -0.00687499
v -0.05301493 -0.04083444 -0.02048505
v 0.04573894 0.04483109 -0.01237039
v 0.01874223 0.06518015 0.00442018
v -0.05246950 0.02052523 0.02056266
v -0.05511848 0.00794680 0.02098480
f 6 2 10
f 6 21 2
f 10 2 8
f 2 17 8
f 8 11 10
f 8 17 16
f 16 11 8
f 2 21 13
f 13 22 2
f 21 22 13
f 4 17 2
f 2 22 4
f 9 22 21
f 19 11 16
f 15 11 19
f 14 15 19
f 17 4 23
f 23 4 22
f 16 17 23
f 23 19 16
f 23 22 14
f 14 19 23
f 12 9 15
f 22 9 12
f 12 15 14
f 14 22 12
f 15 9 5
f 7 9 21
f 7 5 9
f 18 7 21
f 5 7 18
f 1 11 15
f 15 5 1
f 10 11 20
f 11 1 20
f 3 6 10
f 10 20 3
f 21 6 3
f 3 18 21
f 5 18 3
f 3 1 5
f 3 20 1

