# https://github.com/mikedh/trimesh
v 0.06972559 -0.02938639 -0.01675284
v 0.05724268 -0.06509519 -0.00591243
v -0.06427833 -0.05421085 -0.02376530
v -0.04757642 0.08648055 -0.01151628
v -0.00794103 -0.08588800 0.00831229
v 0.10043063 -0.03742705 -0.00774084
v -0.06936667 0.05402283 -0.00535209
v 0.04310759 -0.07526073 -0.00336110
v 0.00006672 0.07224796 -0.01478759
v 0.02395210 -0.07957921 0.00799520
v 0.08434352 0.02421291 0.01261070
v -0.10216591 0.00703754 0.01843111
v 0.09387689 0.03484832 0.00331003
v -0.08522923 -0.03303898 -0.01215610
v -0.06030729 0.03979154 0.03062112
v -0.09561399 0.04338703 0.01354326
v -0.03721584 0.08623393 0.00067431
v -0.05068678 -0.06729329 -0.01357998
v 0.10847745 0.00314047 0.01337058
v 0.04342625 -0.07362694 0.01704829
v -0.04929821 0.07744815 0.01865217
v 0.11490544 -0.01665528 -0.01191553
v 0.01363937 -0.08255784 -0.00080989
v 0.04957468 0.05686300 -0.01743029
v -0.09200880 0.00037958 -0.00166335
v 0.05837945 -0.01990019 -0.02235969
v -0.06884890 -0.03059509 -0.02897942
f 12 25 14
f 14 25 27
f 11 21 15
f 4 27 7
f 27 25 7
f 24 26 27
f 22 26 24
f 3 14 27
f 27 26 3
f 16 21 4
f 4 7 16
f 12 15 16
f 16 15 21
f 16 25 12
f 16 7 25
f 6 26 22
f 9 27 4
f 9 24 27
f 13 21 11
f 22 24 13
f 23 3 8
f 23 10 5
f 8 10 23
f 8 3 2
f 2 3 26
f 2 6 8
f 5 10 20
f 20 10 8
f 8 6 20
f 12 5 20
f 20 15 12
f 21 13 17
f 17 13 24
f 24 9 17
f 4 21 17
f 17 9 4
f 18 23 5
f 3 23 18
f 14 3 18
f 18 5 12
f 12 14 18
f 26 6 1
f 1 2 26
f 6 2 1
f 11 15 19
f 15 20 19
f 19 20 6
f 19 6 22
f 22 13 19
f 19 13 11

