# https://github.com/mikedh/trimesh
v 0.02905726 0.03168365 -0.00451112
v -0.07797675 -0.03217151 0.00380333
v -0.05444810 0.01674686 0.00437654
v 0.07710543 0.03373622 -0.00177326
v 0.02976961 0.04206856 -0.00071550
v 0.00521739 0.04283365 0.00206748
v -0.05505181 -0.01130142 -0.00478022
v 0.07615621 0.01045782 -0.00229640
v 0.01107141 -0.02925559 -0.00352626
v 0.00209989 0.01274352 0.00479086
v 0.05027150 -0.03845599 0.00445725
v 0.06180911 0.00016517 -0.00414524
v -0.04402484 -0.03291411 -0.00067931
v 0.06101164 -0.03229353 -0.00162765
v -0.06978416 -0.02725324 -0.00250940
v -0.05637939 -0.03367477 0.00100305
v -0.08551039 -0.02812219 -0.00049078
v -0.03551816 0.02017689 -0.00463317
v 0.06510140 -0.02449337 -0.00298535
v -0.07966728 -0.01584299 -0.00373447
v -0.03950249 0.03678208 -0.00283962
v 0.05349968 0.01253191 -0.00409594
v 0.06248665 0.03308214 0.00312559
v 0.03315743 -0.01611454 -0.00430930
v 0.06552179 -0.01469554 -0.00346314
v 0.00161038 -0.02678608 -0.00405629
v 0.06937671 -0.02843317 -0.00050302
v 0.01383691 0.03256421 -0.00505243
v -0.08436395 0.01223018 -0.00204359
v 0.07211576 -0.03814450 0.00341006
v -0.07982737 0.01289299 -0.00321525
v 0.07692153 0.01464817 -0.00172096
f 6 21 3
f 6 3 23
f 4 23 30
f 30 23 11
f 5 21 6
f 5 23 4
f 6 23 5
f 28 5 4
f 21 5 28
f 11 23 10
f 10 23 3
f 10 2 11
f 3 2 10
f 14 30 13
f 13 30 11
f 29 3 21
f 29 20 17
f 17 2 29
f 29 2 3
f 4 30 32
f 32 8 4
f 30 8 32
f 19 8 27
f 27 8 30
f 27 14 19
f 27 30 14
f 4 8 12
f 17 20 15
f 15 13 17
f 11 2 16
f 16 13 11
f 16 2 17
f 17 13 16
f 21 28 18
f 28 7 18
f 25 8 19
f 25 12 8
f 24 7 28
f 28 12 24
f 12 25 24
f 24 25 19
f 1 28 4
f 1 12 28
f 31 7 20
f 31 18 7
f 20 29 31
f 31 29 21
f 21 18 31
f 26 24 19
f 7 24 26
f 20 7 26
f 26 15 20
f 4 12 22
f 22 1 4
f 12 1 22
f 19 14 9
f 9 26 19
f 14 13 9
f 13 15 9
f 15 26 9

