# https://github.com/mikedh/trimesh
v -0.02865551 -0.00177040 0.00382362
v -0.06810700 0.01387906 -0.00229997
v -0.05475253 -0.02402284 0.00061940
v 0.02527942 -0.03124238 0.00344246
v -0.06914233 0.00583142 0.00010237
v -0.04662454 -0.01301545 -0.00398305
v -0.07498028 -0.00591647 -0.00128849
v 0.02088574 -0.02443977 -0.00380917
v 0.05802688 0.03048454 -0.00337221
v 0.01022094 -0.03240142 -0.00283626
v -0.05264162 0.02798508 0.00089175
v 0.00959248 -0.03114145 -0.00296259
v -0.06882124 -0.00293967 0.00344607
v -0.01732586 0.02540744 -0.00319459
v 0.05644232 -0.02981652 0.00463169
v 0.03307741 0.02863172 0.00337633
v -0.07356737 -0.01320679 0.00091405
v 0.03679180 -0.02286355 0.00496421
v 0.05874378 0.02653204 -0.00145264
v -0.06604232 0.00394664 -0.00281654
v 0.04569605 -0.00611353 0.00430225
v 0.06851537 0.00286041 -0.00382444
f 7 6 3
f 3 6 10
f 21 16 18
f 8 6 22
f 4 3 10
f 7 3 17
f 10 6 12
f 12 8 10
f 6 8 12
f 22 6 9
f 6 14 9
f 9 19 22
f 16 19 9
f 16 9 11
f 11 9 14
f 18 4 15
f 15 21 18
f 15 4 10
f 22 19 15
f 15 8 22
f 10 8 15
f 16 21 15
f 15 19 16
f 13 17 3
f 13 4 18
f 3 4 13
f 16 11 13
f 7 17 13
f 2 11 14
f 18 16 1
f 1 13 18
f 16 13 1
f 20 14 6
f 20 2 14
f 20 6 7
f 7 2 20
f 5 13 11
f 11 2 5
f 7 13 5
f 5 2 7

