# https://github.com/mikedh/trimesh
v -0.06219376 0.03005041 -0.00060808
v 0.03171150 0.01490438 -0.00603141
v -0.08122423 -0.04360938 0.00074082
v 0.03178084 -0.00409752 0.00678084
v 0.05665658 -0.03285857 -0.00178377
v 0.03699884 0.03029169 0.00616600
v -0.03471136 0.04161413 0.00520602
v -0.04330081 0.03977043 0.00601684
v -0.03684269 0.04467341 -0.00373954
v 0.05800601 -0.01027512 0.00516718
v 0.04852672 -0.03801902 0.00502023
v -0.05604433 0.00765683 -0.00645306
v -0.07189704 0.02879087 0.00226809
v 0.06608104 -0.02844976 -0.00048176
v 0.07729255 0.02566041 0.00277433
v -0.01514372 0.02171436 -0.00662141
v 0.09211624 0.00977516 -0.00099055
v -0.06399983 0.01100195 -0.00349450
v -0.04060821 -0.04186499 -0.00718635
v 0.06954871 0.04333092 0.00466361
v 0.03663374 -0.04506276 -0.00280906
v 0.05918454 0.02639892 -0.00358448
v 0.00846261 0.00985721 -0.00727975
v -0.07342254 0.03375337 0.00541249
v -0.04988991 0.04505373 -0.00105332
v 0.04226944 0.03253347 -0.00405309
v 0.05132527 -0.04568822 0.00107712
v 0.03263297 -0.02582805 -0.00649777
v -0.07691358 -0.00564038 0.00095220
f 3 4 24
f 3 19 21
f 3 24 29
f 29 18 3
f 13 24 25
f 13 29 24
f 18 29 13
f 3 18 12
f 12 23 19
f 12 19 3
f 11 4 3
f 23 26 2
f 19 23 28
f 28 21 19
f 23 2 28
f 25 24 8
f 8 24 4
f 1 13 25
f 18 13 1
f 25 12 1
f 1 12 18
f 20 15 17
f 9 12 25
f 25 20 9
f 9 20 26
f 3 21 27
f 27 11 3
f 25 8 7
f 7 20 25
f 8 20 7
f 6 8 4
f 4 20 6
f 6 20 8
f 22 20 17
f 26 20 22
f 22 2 26
f 17 28 22
f 22 28 2
f 15 20 10
f 10 11 17
f 17 15 10
f 4 11 10
f 10 20 4
f 23 12 16
f 12 9 16
f 16 26 23
f 16 9 26
f 5 27 21
f 5 28 17
f 21 28 5
f 17 11 14
f 11 27 14
f 14 5 17
f 27 5 14

