# https://github.com/mikedh/trimesh
v 0.07974108 0.00134562 -0.00365576
v 0.03680490 -0.01216780 0.00496118
v 0.10005028 0.00021185 -0.00295999
v -0.03626284 0.02317297 0.00196847
v 0.06948663 -0.01286121 -0.00119065
v -0.09346208 0.00108921 -0.00523563
v 0.07687052 0.00068387 0.00585703
v -0.07601323 0.01911493 -0.00227038
v -0.08397546 -0.01223529 -0.00238369
v -0.09860376 0.01805477 0.00159423
v 0.03456775 0.01393000 0.00527281
v -0.00746526 -0.00232895 -0.00482548
v 0.08686725 -0.01308297 0.00398404
v -0.03708826 -0.00698471 0.00301763
v 0.09767828 -0.00599150 0.00520157
v 0.10500895 0.01583092 0.00441515
v 0.00293831 0.02078815 0.00187464
v -0.03330660 -0.02855778 0.00015706
v -0.00245848 0.01910817 0.00008734
v 0.10099750 0.01049284 -0.00251805
v -0.01432534 -0.02495895 -0.00529817
v -0.09595219 -0.00449065 -0.00472975
f 9 18 10
f 9 21 18
f 11 4 10
f 16 4 11
f 10 18 14
f 18 2 14
f 14 11 10
f 2 11 14
f 18 21 13
f 13 2 18
f 16 20 17
f 17 4 16
f 20 4 17
f 22 9 10
f 10 6 22
f 21 9 22
f 22 6 21
f 20 6 8
f 10 4 8
f 8 6 10
f 16 11 7
f 7 11 2
f 12 6 20
f 20 1 12
f 21 6 12
f 12 1 21
f 3 1 20
f 3 20 16
f 21 1 3
f 19 4 20
f 20 8 19
f 19 8 4
f 2 13 15
f 15 7 2
f 16 7 15
f 15 3 16
f 13 3 15
f 5 13 21
f 21 3 5
f 5 3 13

