# https://github.com/mikedh/trimesh
v -0.02698064 -0.01534921 0.00473283
v -0.02853550 0.02631269 0.00480847
v 0.02242008 -0.03677485 0.00272601
v 0.02868436 0.01238653 0.00547399
v -0.04541321 0.02183666 -0.00454181
v -0.08457465 0.01562605 -0.00443939
v 0.10356961 -0.01374880 -0.00318548
v 0.10618692 -0.01286017 -0.00045619
v -0.05008647 -0.02586920 -0.00460204
v 0.02199784 0.02528017 0.00502160
v 0.11085991 0.02523892 0.00264808
v 0.04697005 -0.02877506 0.00460217
v 0.07221524 -0.02592939 -0.00463519
v 0.03379970 0.03117537 0.00459380
v -0.08272631 0.00045990 0.00481518
v -0.04354103 -0.02161644 0.00406096
v -0.06152486 0.03624213 -0.00141061
v -0.03333206 0.02678799 -0.00372975
v -0.10471212 0.03336063 0.00127547
v 0.11232247 0.02672984 -0.00039159
v -0.04366940 -0.03733728 0.00244925
v -0.04913751 -0.03805012 -0.00436458
v 0.08379788 0.02854925 0.00094519
v 0.03116699 -0.02969342 0.00454790
v -0.05216754 0.01534153 0.00561685
v 0.00612749 -0.00067661 -0.00497550
v 0.07370346 -0.03155945 -0.00375016
v 0.09047103 0.00293556 0.00537761
v 0.05472219 0.03078435 -0.00311707
v 0.07647154 0.02412367 -0.00258658
v -0.09964222 -0.02505436 -0.00363958
v 0.09448359 -0.01678246 -0.00413904
f 15 25 19
f 19 14 17
f 31 15 19
f 19 25 2
f 2 14 19
f 25 14 2
f 20 14 11
f 25 12 28
f 28 11 14
f 24 12 25
f 29 17 14
f 13 27 22
f 6 31 19
f 19 17 6
f 6 17 5
f 10 14 25
f 10 28 14
f 11 28 8
f 20 11 8
f 12 27 8
f 8 28 12
f 15 31 21
f 21 31 22
f 5 17 18
f 18 29 5
f 17 29 18
f 23 14 20
f 20 29 23
f 23 29 14
f 26 6 5
f 5 29 26
f 20 8 7
f 7 8 27
f 25 28 4
f 4 10 25
f 28 10 4
f 15 21 16
f 16 21 24
f 12 24 3
f 24 21 3
f 3 27 12
f 3 21 22
f 22 27 3
f 9 13 22
f 9 26 13
f 6 26 9
f 22 31 9
f 31 6 9
f 32 26 29
f 13 26 32
f 20 7 32
f 27 13 32
f 32 7 27
f 15 16 1
f 1 16 24
f 25 15 1
f 1 24 25
f 30 29 20
f 20 32 30
f 30 32 29

