# https://github.com/mikedh/trimesh
v 0.07391094 -0.03979254 0.00567298
v -0.01971632 -0.01477880 -0.00803084
v 0.05536617 0.03911599 -0.00240133
v -0.02719628 0.00447773 -0.00789727
v 0.05892290 -0.02786115 0.00782898
v 0.06296614 0.00623751 0.00274015
v -0.06296332 0.04104360 -0.00186552
v -0.02354994 0.01942727 -0.00718572
v -0.01942461 0.04511688 -0.00176761
v 0.08003220 -0.04437936 0.00162072
v 0.07608462 0.02016084 -0.00748804
v 0.02894911 0.03873633 0.00632852
v -0.00429133 -0.03213164 0.00692418
v -0.07551179 0.02774342 0.00149556
v 0.04612939 0.04048240 -0.00557739
v -0.08233569 0.04312680 0.00712588
v 0.08531055 -0.03609770 -0.00345081
v -0.07158657 -0.03677163 -0.00110424
v 0.07199436 -0.03810136 -0.00776768
v 0.03519041 0.02575399 0.00683992
v -0.06285007 -0.03480216 -0.00558024
v 0.07597510 -0.04304953 -0.00183390
v -0.07159102 -0.03573098 0.00483146
v -0.01887010 0.03375083 0.00764541
v 0.05850023 -0.04365828 0.00409221
v -0.07897329 -0.00186498 0.00459713
v -0.04141847 0.04062193 -0.00420641
f 12 9 16
f 16 9 7
f 19 21 2
f 26 23 16
f 16 7 14
f 7 21 14
f 14 26 16
f 16 23 13
f 13 5 16
f 24 12 16
f 16 5 24
f 21 19 22
f 22 19 17
f 10 22 17
f 9 12 3
f 3 15 9
f 12 6 3
f 12 24 20
f 20 24 5
f 20 6 12
f 5 6 20
f 5 13 1
f 1 6 5
f 1 13 23
f 1 10 17
f 21 22 18
f 22 10 18
f 23 26 18
f 18 14 21
f 26 14 18
f 11 3 6
f 11 1 17
f 6 1 11
f 15 3 11
f 17 19 11
f 11 19 2
f 11 8 15
f 15 8 27
f 27 7 9
f 9 15 27
f 25 1 23
f 10 1 25
f 23 18 25
f 25 18 10
f 4 11 2
f 8 11 4
f 2 21 4
f 4 21 7
f 7 27 4
f 4 27 8

