# https://github.com/mikedh/trimesh
v -0.08533372 0.03189417 -0.00043206
v -0.04292862 -0.03816434 -0.00988314
v -0.01368509 -0.05702253 0.00288565
v -0.00507700 -0.02178713 0.02458599
v -0.04557031 0.04911991 -0.01168544
v -0.08254070 0.03366056 0.01625534
v 0.01789348 0.05656745 -0.01391487
v 0.02323980 -0.06358675 0.00650980
v -0.01960780 -0.05967934 0.02398662
v 0.05844510 -0.03775783 0.00047474
v 0.06156071 -0.03495797 -0.02916102
v -0.09252084 0.01212255 0.00731043
v 0.05500061 -0.03978137 -0.02581059
v 0.09662675 -0.00869855 -0.01583464
v 0.10532300 0.00411387 -0.00152123
v -0.09947028 -0.02251265 0.00152475
v 0.07619603 0.04189279 0.02236975
v 0.07423710 0.02533554 0.02584105
v 0.01312109 0.05628269 -0.01899885
v -0.08175196 -0.01666132 -0.01428600
v -0.07617039 -0.04510287 0.00191423
v 0.02583548 -0.00797203 -0.03096783
v 0.08679501 0.00293718 -0.01890797
v -0.04763906 -0.01059380 -0.02478464
v -0.00920676 0.06539854 -0.00947707
v -0.06084717 -0.02750451 -0.01437963
v 0.05923518 -0.03871390 -0.00260011
v -0.01912175 0.06092096 -0.00262168
v 0.01324869 -0.06257802 0.00671730
v 0.01383421 0.03899388 -0.02264847
f 15 18 8
f 17 18 15
f 17 6 18
f 19 23 22
f 15 23 19
f 19 17 15
f 15 8 10
f 22 23 11
f 11 24 22
f 16 6 12
f 9 8 18
f 9 6 16
f 16 21 9
f 25 6 28
f 28 17 25
f 6 17 28
f 25 19 5
f 5 19 24
f 22 24 30
f 30 19 22
f 24 19 30
f 25 17 7
f 7 19 25
f 17 19 7
f 27 10 8
f 15 10 27
f 14 23 15
f 14 11 23
f 15 27 14
f 14 27 11
f 20 21 16
f 20 5 24
f 3 9 21
f 18 6 4
f 4 9 18
f 6 9 4
f 1 12 6
f 1 6 25
f 25 5 1
f 5 20 1
f 16 12 1
f 1 20 16
f 2 21 26
f 21 20 26
f 26 20 24
f 8 9 29
f 29 3 8
f 9 3 29
f 13 21 2
f 13 3 21
f 2 26 13
f 8 3 13
f 24 11 13
f 13 26 24
f 13 27 8
f 11 27 13

