# https://github.com/mikedh/trimesh
v 0.08167149 -0.01088162 -0.00538648
v 0.06222168 0.01074230 -0.00743216
v -0.03900762 0.01277552 -0.00654653
v -0.04392372 0.00124572 0.00694218
v 0.09014971 0.02218218 -0.00701699
v 0.09059629 0.01005803 -0.00603702
v -0.08408861 0.01665990 0.00661799
v 0.08919597 -0.01706492 0.00707462
v 0.06386372 0.02659901 0.00553097
v -0.05403489 0.02535472 -0.00274694
v -0.08842287 -0.03216716 -0.00399944
v -0.02231710 0.02633113 0.00780510
v -0.00359553 -0.02812577 -0.00360595
v -0.00261775 -0.01102843 -0.00600054
v 0.01592961 -0.02076470 0.00405589
v 0.03596424 -0.02341279 -0.00573067
v -0.08710075 0.01250209 -0.00021944
v 0.08634769 0.02471164 0.00224400
f 8 9 12
f 12 9 10
f 9 8 18
f 4 8 12
f 13 8 11
f 11 16 13
f 13 16 8
f 6 8 1
f 8 16 1
f 2 1 16
f 5 10 9
f 9 18 5
f 5 3 10
f 5 2 3
f 6 1 5
f 1 2 5
f 5 8 6
f 5 18 8
f 11 8 15
f 15 4 11
f 8 4 15
f 12 10 7
f 7 4 12
f 11 4 7
f 14 16 11
f 11 3 14
f 14 2 16
f 3 2 14
f 11 7 17
f 17 7 10
f 17 3 11
f 10 3 17

