# https://github.com/mikedh/trimesh
v 0.02779844 0.02405852 0.00773543
v -0.03820163 -0.03610031 -0.00053076
v 0.05257941 0.00370788 -0.00501904
v 0.04256847 -0.03378311 -0.00593338
v -0.05246203 0.02970057 0.00620360
v -0.05853019 0.02468455 0.00510786
v 0.04902900 0.03570842 -0.00477801
v 0.00639477 0.04075588 0.00197633
v -0.06054408 0.03340096 -0.00271907
v -0.03133421 -0.02416423 0.00609436
v -0.01757464 0.03041971 -0.00503284
v 0.03885392 0.01094740 -0.00651759
v -0.04948242 -0.01821692 -0.00619468
v -0.00016340 -0.04477291 -0.00270926
v -0.03270996 0.02172104 -0.00615312
v 0.01053325 0.01865596 0.00812496
v 0.03629040 -0.04853783 0.00129131
v -0.01777222 0.03854135 0.00637878
v -0.00298438 -0.02871714 0.00507702
v -0.04781871 -0.03201538 -0.00398660
v 0.04583907 -0.03374708 0.00239282
v 0.05692297 0.02723329 0.00637338
f 19 10 17
f 9 7 11
f 12 7 3
f 3 7 22
f 17 10 2
f 9 5 18
f 6 5 9
f 10 5 6
f 22 18 1
f 12 13 15
f 15 7 12
f 15 11 7
f 15 13 9
f 9 11 15
f 4 13 12
f 12 3 4
f 22 7 8
f 8 18 22
f 8 7 9
f 9 18 8
f 10 19 16
f 19 1 16
f 16 5 10
f 16 18 5
f 16 1 18
f 17 2 14
f 14 4 17
f 21 3 22
f 21 4 3
f 17 4 21
f 22 1 21
f 21 19 17
f 21 1 19
f 13 4 20
f 4 14 20
f 20 14 2
f 9 13 20
f 20 6 9
f 20 2 10
f 10 6 20

