# https://github.com/mikedh/trimesh
v -0.09161736 -0.04303463 -0.00414621
v 0.07966576 -0.02651341 -0.00440241
v -0.09533757 -0.01628397 -0.00611883
v -0.06004957 0.01809830 0.00671254
v 0.10213229 -0.03668405 -0.00223632
v -0.02500098 0.04897014 -0.00011520
v -0.06812100 -0.02257158 -0.00622711
v 0.08992661 0.02558161 0.00280475
v -0.07558073 -0.00988060 0.00753397
v 0.01088165 -0.04092044 0.00542342
v -0.09952944 -0.00660412 -0.00323320
v 0.05603994 0.03940360 -0.00422682
v -0.02833280 0.00452796 -0.00582198
v 0.06687044 0.03988150 0.00305161
v 0.06634461 0.03595681 0.00376454
v 0.09907046 0.01350978 -0.00312729
v -0.03387056 0.03551969 0.00487971
v 0.05372557 -0.03662897 0.00604344
v 0.07583228 0.00735972 -0.00431403
v -0.08383966 -0.04297059 -0.00523160
v 0.05307563 -0.03702455 -0.00560175
v -0.07615782 0.04729564 0.00405963
v 0.00351167 0.04940853 0.00033207
v -0.02116928 0.03981002 -0.00410455
f 1 9 11
f 11 9 22
f 9 1 10
f 3 1 11
f 11 22 3
f 23 12 6
f 6 22 23
f 16 8 5
f 12 8 16
f 14 12 23
f 14 8 12
f 23 22 14
f 9 10 18
f 5 8 18
f 18 10 5
f 1 3 20
f 5 10 20
f 20 10 1
f 24 3 22
f 22 6 24
f 24 6 12
f 5 20 21
f 9 18 4
f 4 22 9
f 4 17 22
f 8 14 15
f 15 18 8
f 15 4 18
f 17 4 15
f 15 14 22
f 22 17 15
f 12 21 13
f 13 24 12
f 3 24 13
f 12 16 19
f 19 21 12
f 2 16 5
f 5 21 2
f 2 19 16
f 21 19 2
f 7 20 3
f 7 21 20
f 3 13 7
f 7 13 21

