# https://github.com/mikedh/trimesh
v 0.00989851 -0.06326828 0.02577762
v -0.03311974 -0.10668116 -0.00489776
v -0.05115758 0.09547195 -0.00751655
v 0.00622203 0.10625725 0.00113821
v -0.06698495 0.05646093 0.00464511
v 0.08445838 0.05779014 0.03150453
v 0.05785519 0.10933973 0.01181884
v -0.03625329 0.10058777 0.00887161
v -0.08924129 -0.01813654 -0.02825185
v -0.05806560 -0.08505148 0.02038068
v 0.00670868 -0.10320028 0.02006132
v 0.08647445 0.03053290 0.03552059
v -0.10255136 -0.05156313 0.00740961
v 0.09943151 0.03962385 -0.00645548
v -0.10885816 -0.06586987 -0.02816634
v 0.05197780 0.05301799 0.03510114
v -0.00215955 0.10447301 -0.01655620
v 0.08419470 -0.05541598 -0.01404655
v -0.05046030 -0.01569576 -0.03520111
v 0.06111854 -0.08832497 0.01318049
v 0.05604397 -0.03050913 -0.02345079
v -0.03673134 0.10431239 -0.02470442
f 14 12 18
f 12 20 18
f 17 7 14
f 14 22 17
f 17 22 7
f 11 20 12
f 21 22 14
f 14 18 21
f 21 18 15
f 1 11 12
f 10 11 1
f 2 18 20
f 20 11 2
f 15 18 2
f 2 10 15
f 2 11 10
f 3 8 22
f 15 10 13
f 7 22 4
f 4 8 7
f 22 8 4
f 7 8 16
f 16 1 12
f 10 1 16
f 16 13 10
f 8 13 16
f 19 21 15
f 22 21 19
f 8 3 5
f 5 13 8
f 5 3 15
f 15 13 5
f 7 16 6
f 6 16 12
f 14 7 6
f 6 12 14
f 9 19 15
f 22 19 9
f 15 3 9
f 9 3 22

