# https://github.com/mikedh/trimesh
v -0.00215248 0.02527415 0.00365683
v 0.07057808 -0.00153506 0.00273264
v 0.01134780 0.02327294 -0.00403050
v 0.07940404 0.01356818 -0.00094282
v -0.05776115 -0.02474635 -0.00475340
v 0.07232918 0.01603038 0.00320312
v 0.05102596 0.01416358 -0.00409522
v -0.06073880 -0.03009602 -0.00264081
v -0.04609385 -0.01265271 -0.00469972
v 0.05137550 0.00624534 0.00411189
v 0.05858744 -0.02350745 0.00329952
v 0.06690837 -0.01104205 -0.00259618
v -0.05812260 -0.02981604 0.00488027
v 0.03172423 0.02846109 -0.00376769
v 0.00918687 -0.02610831 -0.00424578
v 0.04033778 0.02831280 -0.00039239
v -0.05399814 0.03125342 -0.00039032
v -0.06510099 -0.03503473 -0.00002639
v -0.03405851 0.00114115 0.00505320
v 0.07819957 0.01636188 -0.00190279
v 0.06058987 -0.01961504 -0.00087388
v 0.06625595 -0.02201978 0.00227054
v -0.01103578 0.01760501 0.00448933
v -0.05264775 0.03718612 -0.00298865
v -0.01280864 0.00444958 0.00531086
v -0.03082498 -0.03433688 -0.00266426
v -0.02535064 -0.03362750 -0.00088538
v -0.05768803 0.02736916 -0.00105881
v -0.04363956 0.02217267 0.00470591
v -0.06545745 -0.01663468 0.00245952
f 30 29 28
f 24 5 28
f 30 28 18
f 18 28 5
f 5 7 15
f 17 29 24
f 24 28 17
f 17 28 29
f 24 29 1
f 1 16 24
f 30 18 13
f 13 29 30
f 13 19 29
f 2 22 4
f 29 19 25
f 19 13 25
f 9 7 5
f 9 3 7
f 9 5 24
f 24 3 9
f 24 16 14
f 14 3 24
f 7 3 14
f 5 15 26
f 26 15 22
f 4 22 12
f 12 15 7
f 29 25 23
f 16 1 6
f 6 2 4
f 6 25 10
f 6 23 25
f 6 1 29
f 29 23 6
f 11 26 22
f 22 2 11
f 10 25 11
f 11 25 13
f 11 6 10
f 2 6 11
f 7 14 20
f 4 12 20
f 20 12 7
f 20 14 16
f 20 6 4
f 16 6 20
f 8 18 5
f 5 26 8
f 8 26 18
f 22 15 21
f 21 12 22
f 15 12 21
f 18 26 27
f 26 11 27
f 27 13 18
f 27 11 13

