# https://github.com/mikedh/trimesh
v 0.06003296 0.02202353 0.00207259
v 0.07520175 0.01534993 -0.00105901
v -0.05087758 -0.02748598 0.00450764
v 0.07532100 0.01552313 0.00414251
v -0.01702394 -0.01540221 -0.00633954
v -0.07077777 0.01884896 -0.00456550
v 0.02504725 0.02886725 0.00224257
v 0.03461045 -0.02092533 0.00551033
v -0.01390342 -0.03000521 -0.00259593
v -0.05740222 0.01841728 0.00287552
v -0.02220559 -0.02633371 0.00562277
v -0.00050813 0.02598975 0.00521936
v 0.03598201 0.02661891 0.00507010
v 0.01959517 0.00808064 0.00597709
v 0.06820300 0.02375234 -0.00377905
v 0.04267656 -0.01966470 0.00403949
v 0.03778044 0.01043003 -0.00596199
v 0.06222411 -0.00788654 -0.00204412
v 0.05136855 -0.02218618 -0.00127949
v -0.02854936 -0.02828543 0.00524747
v 0.06950193 0.00117397 0.00296527
v 0.04193410 -0.02677405 -0.00291973
v -0.05610249 -0.02508785 -0.00436227
v 0.00717139 0.02757789 -0.00106160
v -0.07171812 0.00928158 0.00333663
v 0.03182277 -0.02213945 -0.00407077
v -0.07195742 0.00552874 -0.00376617
f 9 3 23
f 23 22 9
f 5 22 23
f 18 22 15
f 20 3 9
f 9 22 20
f 15 22 17
f 15 17 6
f 6 17 5
f 6 23 27
f 5 23 6
f 15 7 13
f 13 14 4
f 2 15 4
f 2 18 15
f 21 2 4
f 18 2 21
f 8 20 22
f 4 14 8
f 8 21 4
f 16 21 8
f 26 22 5
f 5 17 26
f 26 17 22
f 24 7 15
f 15 6 24
f 4 15 1
f 1 13 4
f 15 13 1
f 14 13 12
f 12 13 7
f 7 24 12
f 12 24 6
f 22 18 19
f 18 21 19
f 19 21 16
f 19 8 22
f 16 8 19
f 11 8 14
f 20 8 11
f 14 12 11
f 3 20 11
f 25 11 12
f 25 23 3
f 3 11 25
f 27 23 25
f 25 6 27
f 10 12 6
f 6 25 10
f 10 25 12

