# https://github.com/mikedh/trimesh
v -0.06812845 0.02445658 0.00400133
v -0.08838773 -0.03374101 0.00245810
v 0.03104318 0.05656512 0.00887135
v 0.06213798 0.03971741 0.01183532
v -0.00416515 -0.03339437 0.02071501
v -0.04646095 0.02439081 0.01540866
v 0.07708632 0.00958613 -0.00488181
v -0.05716103 0.03686751 0.01277712
v 0.02327083 0.07007203 0.00180245
v 0.00177731 0.06511445 -0.01212345
v 0.08490416 0.00296698 0.00487721
v 0.07440109 -0.04282144 -0.01027439
v 0.03019937 -0.04799628 0.00447823
v -0.05302923 0.04261630 0.00316364
v 0.08326776 -0.01257037 -0.00288186
v 0.08001232 -0.00159665 0.00991409
v 0.07685057 -0.00802524 -0.01132597
v -0.08640207 -0.02325120 -0.01586671
v -0.01822109 -0.06888173 0.00114064
v -0.07137773 -0.04610028 -0.01364436
v -0.00657538 -0.04749595 0.01590528
v 0.00649384 0.07679071 -0.01018061
v 0.07357153 0.04392056 0.00615568
v -0.03850694 0.04072029 0.01385001
v -0.04999887 -0.05417943 0.00348937
v -0.05186249 -0.05839240 -0.00286870
v 0.05307712 0.06060293 -0.00102430
f 24 5 4
f 1 18 2
f 17 12 18
f 2 5 6
f 6 5 24
f 16 4 5
f 22 18 14
f 18 1 14
f 18 12 20
f 12 19 20
f 2 18 20
f 13 19 12
f 12 16 13
f 15 17 11
f 12 17 15
f 11 16 15
f 15 16 12
f 11 17 7
f 10 18 22
f 22 17 10
f 10 17 18
f 8 6 24
f 8 14 1
f 8 1 2
f 2 6 8
f 22 14 8
f 8 9 22
f 24 9 8
f 22 9 27
f 27 17 22
f 27 7 17
f 24 4 3
f 3 9 24
f 26 20 19
f 19 25 26
f 2 20 26
f 26 25 2
f 19 13 21
f 21 25 19
f 21 16 5
f 21 13 16
f 21 5 2
f 2 25 21
f 23 27 9
f 23 3 4
f 9 3 23
f 23 16 11
f 4 16 23
f 11 7 23
f 7 27 23

