# https://github.com/mikedh/trimesh
v -0.08931850 -0.00227109 -0.00361781
v 0.04229417 0.03354176 -0.00620661
v -0.07725331 -0.02440225 -0.00220025
v 0.07094099 0.03564766 0.00325952
v -0.06660249 -0.01692768 -0.00474630
v -0.01996703 -0.00114666 0.00544664
v 0.08080632 -0.03628297 0.00385215
v -0.05114847 0.03473534 -0.00161807
v -0.02710525 -0.01663070 -0.00536626
v 0.07951350 -0.04370356 -0.00278545
v 0.00599753 0.00810385 0.00527460
v -0.07812193 0.00612174 -0.00370657
v -0.00139941 -0.03087782 -0.00510695
v -0.03151999 -0.03040337 -0.00413509
v -0.08875808 -0.00380322 0.00040682
v -0.07492958 0.02494227 0.00408721
v -0.06956859 0.03871421 0.00420792
v -0.08524646 -0.03499570 0.00443512
v 0.04968582 -0.04698126 -0.00323043
v -0.03464429 0.04035930 0.00343879
v 0.03434518 0.05260667 -0.00260640
v -0.04235461 0.02154311 -0.00455560
v 0.07670313 0.00556503 -0.00466343
f 7 6 18
f 17 18 6
f 7 10 23
f 19 10 7
f 7 18 19
f 18 14 19
f 1 17 8
f 8 17 21
f 1 18 15
f 15 17 1
f 22 8 21
f 3 18 1
f 3 14 18
f 1 22 5
f 5 3 1
f 14 3 5
f 18 17 16
f 16 15 18
f 17 15 16
f 7 23 4
f 4 23 21
f 1 8 12
f 12 22 1
f 8 22 12
f 2 5 22
f 21 23 2
f 2 22 21
f 14 5 13
f 13 19 14
f 13 2 23
f 13 23 10
f 10 19 13
f 11 17 6
f 11 4 17
f 11 6 7
f 7 4 11
f 21 17 20
f 20 4 21
f 17 4 20
f 5 2 9
f 9 13 5
f 2 13 9

