# https://github.com/mikedh/trimesh
v -0.10259589 0.01413182 0.00933592
v -0.09176820 -0.01289903 -0.02366492
v 0.02513818 -0.03104516 0.02166154
v 0.00422547 -0.03301406 0.02350141
v -0.01957879 -0.07522508 -0.00890859
v 0.09542864 0.03552357 0.01435467
v -0.01702948 -0.06705521 0.01178884
v 0.07324224 0.05287616 0.01519167
v 0.02113081 -0.03777872 0.01957016
v -0.05936167 0.06080738 -0.00484750
v 0.05064488 -0.07342898 -0.00652833
v 0.06537138 0.06508478 -0.01192940
v 0.10821953 0.01644771 0.01703495
v 0.10091553 0.00231187 -0.01536620
v -0.02026799 0.02972695 0.02312328
v -0.03519750 0.06587470 0.00131021
v -0.10324543 0.02762739 0.02636302
v -0.04901166 -0.06421630 -0.00484050
v 0.02600129 -0.05619492 0.01124078
v 0.08225472 -0.01470849 -0.02231789
v -0.10622203 -0.01397986 0.00781258
v 0.04466929 0.05798157 -0.01679783
v -0.04876798 -0.04658740 -0.02271650
f 2 20 23
f 21 2 18
f 18 23 5
f 2 23 18
f 12 10 16
f 5 23 11
f 11 23 20
f 16 10 17
f 8 12 16
f 16 17 8
f 14 12 13
f 20 12 14
f 13 11 14
f 14 11 20
f 22 20 2
f 22 12 20
f 2 10 22
f 10 12 22
f 5 11 7
f 7 18 5
f 21 18 7
f 7 17 21
f 4 17 7
f 13 4 3
f 1 2 21
f 21 17 1
f 1 10 2
f 1 17 10
f 13 12 6
f 6 8 13
f 12 8 6
f 13 8 15
f 15 8 17
f 15 4 13
f 15 17 4
f 19 7 11
f 19 11 13
f 13 3 19
f 9 3 4
f 9 19 3
f 4 7 9
f 7 19 9

