# https://github.com/mikedh/trimesh
v 0.02898947 -0.08768285 0.00906215
v 0.01610348 0.08691001 -0.01697481
v 0.05685677 -0.00030832 0.01942730
v -0.03053550 -0.03119949 -0.02046374
v -0.06745432 -0.03932672 -0.01019844
v 0.04498226 -0.03254018 -0.02183952
v 0.05648812 0.03342942 0.00126309
v -0.06048637 0.03458396 -0.00154158
v 0.04327368 -0.07988154 -0.00090308
v 0.05604346 0.06232313 0.02309578
v -0.02850644 0.00077837 0.02546919
v -0.06847184 -0.00383957 -0.00606119
v -0.02463537 -0.09112020 0.00641337
v -0.05029071 0.04402653 0.02191934
v -0.03753737 -0.06765911 0.00785937
v 0.03652965 -0.07892554 -0.01152965
v 0.05775573 -0.04124119 -0.01604539
v -0.03473568 0.06159296 0.01015766
v 0.02105314 -0.08205377 0.01554893
v -0.04630736 0.02243382 0.02487654
v -0.03247072 0.08753009 -0.01125953
v 0.00775522 0.09480564 -0.01316156
v 0.04097769 -0.04367708 -0.02034024
v -0.04528698 -0.00667401 0.01873064
v -0.02539120 0.00834434 0.02530234
v 0.06388502 -0.04742082 -0.01351384
v -0.05925457 -0.04585161 -0.01634940
v -0.06228973 -0.03867485 0.00077670
v -0.06165124 -0.04908763 -0.00732655
v -0.03586386 -0.02535867 -0.02143417
v -0.01632361 0.08115016 -0.02485773
f 7 10 26
f 26 10 3
f 3 10 11
f 21 10 22
f 31 21 22
f 12 21 31
f 11 10 25
f 12 14 8
f 8 21 12
f 14 21 8
f 18 14 10
f 10 21 18
f 18 21 14
f 2 31 22
f 2 7 26
f 22 10 2
f 10 7 2
f 30 31 6
f 31 2 6
f 12 31 27
f 27 31 30
f 28 14 12
f 17 2 26
f 26 6 17
f 17 6 2
f 12 27 5
f 5 27 29
f 5 28 12
f 29 28 5
f 4 27 30
f 29 27 13
f 13 28 29
f 14 28 20
f 11 25 20
f 10 14 20
f 20 25 10
f 16 13 27
f 19 3 11
f 11 13 19
f 28 13 15
f 15 13 11
f 11 20 15
f 23 6 26
f 26 16 23
f 30 6 23
f 23 4 30
f 27 4 23
f 23 16 27
f 13 16 1
f 1 19 13
f 3 19 1
f 24 20 28
f 28 15 24
f 24 15 20
f 9 16 26
f 9 1 16
f 26 3 9
f 3 1 9

