# https://github.com/mikedh/trimesh
v -0.06875367 0.03761925 0.00120905
v 0.05530315 -0.03833435 0.00491320
v -0.02971741 -0.03006396 -0.00618774
v 0.00660691 -0.03456426 -0.00620402
v -0.03044607 0.04311261 -0.00594146
v -0.03326947 -0.01075714 0.00760692
v -0.06798422 -0.01544805 0.00426081
v 0.07188889 -0.03409020 0.00181207
v 0.04576945 -0.03853719 -0.00281746
v -0.03726824 -0.04247781 0.00637629
v 0.07548975 0.00589353 0.00045512
v -0.00372418 -0.02508983 -0.00668331
v -0.06562403 -0.02326060 -0.00494789
v -0.06366950 -0.03951775 0.00565055
v 0.02113136 0.03892554 0.00698207
v 0.02966674 -0.04043358 0.00597524
v 0.05513299 0.00392566 0.00403076
v -0.05671783 -0.00869299 -0.00536223
v -0.06966942 -0.03779336 -0.00378362
v 0.06614746 0.04021832 -0.00517399
v 0.02158384 0.02950659 -0.00662501
v -0.07123187 0.03167259 -0.00032648
v -0.04074841 0.03960611 0.00277297
v 0.04962873 -0.02993162 -0.00543164
f 20 15 11
f 8 20 11
f 15 20 5
f 20 21 5
f 5 21 12
f 14 19 10
f 10 6 14
f 11 15 17
f 20 8 24
f 12 21 24
f 24 21 20
f 15 6 16
f 16 6 10
f 1 5 22
f 1 6 15
f 13 19 22
f 22 19 7
f 19 14 7
f 7 1 22
f 7 14 6
f 6 1 7
f 12 24 4
f 9 24 8
f 9 4 24
f 9 16 10
f 10 19 9
f 19 4 9
f 2 8 11
f 11 17 2
f 2 9 8
f 16 9 2
f 2 17 15
f 15 16 2
f 15 5 23
f 23 1 15
f 5 1 23
f 22 5 18
f 18 13 22
f 12 4 3
f 3 4 19
f 19 13 3
f 13 18 3
f 3 5 12
f 3 18 5

