# https://github.com/mikedh/trimesh
v 0.05712036 -0.02883672 -0.00504678
v -0.03915136 -0.03249796 0.00597237
v 0.04259337 -0.03274933 -0.00026914
v -0.03987456 0.02344198 -0.00595801
v -0.03174104 -0.02504425 -0.00631485
v -0.03687167 -0.02708092 -0.00371195
v -0.00309034 0.02073873 -0.00666143
v 0.06134770 -0.03250305 0.00571834
v 0.01692012 0.02137644 0.00689568
v -0.05142149 0.01640309 -0.00286835
v -0.03611505 -0.03205742 0.00239691
v 0.03221826 0.03426110 -0.00251585
v -0.00259085 -0.03572705 0.00128610
v 0.06370394 0.01572751 -0.00380177
v -0.06030860 0.03376295 0.00110171
v -0.03036022 0.02789241 0.00630854
v -0.01797770 0.03989858 -0.00648192
v -0.04997617 -0.02510425 -0.00425441
v -0.05846699 -0.02701823 0.00602483
f 12 9 14
f 14 9 8
f 17 12 14
f 15 19 16
f 16 19 9
f 9 12 16
f 16 17 15
f 12 17 16
f 3 8 13
f 9 19 2
f 2 8 9
f 13 8 2
f 2 11 13
f 19 11 2
f 7 17 14
f 5 17 7
f 15 17 4
f 4 17 5
f 18 11 19
f 18 19 15
f 13 11 18
f 18 4 5
f 13 5 1
f 1 3 13
f 8 3 1
f 1 7 14
f 5 7 1
f 14 8 1
f 6 5 13
f 13 18 6
f 6 18 5
f 15 4 10
f 10 18 15
f 4 18 10

