# https://github.com/mikedh/trimesh
v -0.06455712 -0.02481268 0.00099431
v -0.08663344 0.01537488 0.00103399
v -0.08364238 0.00267996 0.00436106
v 0.07660996 -0.00674543 -0.00205866
v -0.07373736 -0.00512341 -0.00256638
v -0.07528442 -0.01559046 -0.00186106
v 0.07962175 -0.02065735 -0.00151200
v 0.08424730 0.02025292 0.00150997
v -0.01386104 -0.02757624 -0.00107483
v -0.02793302 -0.01275146 -0.00485986
v -0.08448032 0.01532832 0.00352421
v -0.07016917 0.01778793 -0.00338122
v -0.07042958 0.01370875 -0.00376888
v -0.01323309 0.01288880 -0.00395172
v -0.09147102 0.00839279 0.00365111
v 0.06376798 0.02527204 0.00299670
v 0.06929747 -0.01267182 0.00222782
v -0.02180885 0.02513408 -0.00265266
v 0.01922666 -0.02348079 0.00266369
v -0.01608868 -0.01325056 0.00326940
v 0.02787607 0.00206334 -0.00451809
v -0.00022094 0.02618547 0.00239432
v 0.05497563 -0.02427673 -0.00291606
f 6 10 9
f 9 10 23
f 23 19 9
f 21 23 10
f 10 6 5
f 8 16 17
f 17 16 19
f 2 6 15
f 2 5 6
f 8 21 18
f 18 16 8
f 22 16 18
f 12 2 18
f 13 21 10
f 10 5 13
f 13 2 12
f 5 2 13
f 1 6 9
f 9 19 1
f 15 6 1
f 1 3 15
f 19 3 1
f 4 21 8
f 23 21 4
f 19 23 7
f 7 17 19
f 23 4 7
f 8 17 7
f 7 4 8
f 12 18 14
f 14 13 12
f 14 18 21
f 21 13 14
f 19 16 20
f 20 3 19
f 16 3 20
f 11 16 22
f 11 3 16
f 15 3 11
f 11 2 15
f 22 18 11
f 11 18 2

