# https://github.com/mikedh/trimesh
v -0.04417669 0.03886282 0.01887368
v -0.06013134 0.05993376 0.00498759
v 0.07977600 -0.00735815 -0.00341719
v 0.04510401 0.02922536 0.01348292
v 0.01900779 -0.08665986 0.01827425
v 0.00010882 0.09374587 -0.01594209
v 0.02913983 0.08821293 -0.01014069
v -0.00970370 -0.07619859 0.01702881
v -0.07346809 0.01920303 0.00374204
v -0.01731533 0.08985502 -0.00350033
v 0.03808134 -0.04879724 -0.01655099
v -0.02664582 -0.06226717 -0.01000568
v 0.00254491 0.07369648 -0.01795706
v -0.06561103 0.03494684 0.01813497
v -0.02668407 -0.01271354 -0.01753015
v -0.05129389 0.07758525 0.00983844
v 0.01210059 -0.08970275 -0.00015435
v -0.03720638 -0.08091048 0.00036319
v 0.07645827 -0.00853519 0.00807221
v 0.06214609 -0.05734299 -0.01301130
v -0.07547811 -0.00128414 0.00452967
v -0.04287015 0.08514556 -0.00595693
v -0.06783618 -0.02575461 -0.01584847
v 0.06254691 -0.01756587 -0.01489311
v 0.03630180 0.06075942 0.01378593
v 0.04101727 -0.08544903 -0.00492199
v 0.05974428 -0.07147637 -0.00044324
f 21 23 18
f 1 16 14
f 14 5 1
f 6 23 22
f 19 4 5
f 25 16 1
f 1 5 25
f 5 4 25
f 25 19 3
f 4 19 25
f 13 23 6
f 13 24 11
f 3 19 27
f 27 19 5
f 23 11 12
f 12 18 23
f 21 14 9
f 9 23 21
f 9 22 23
f 8 18 5
f 5 14 8
f 21 18 8
f 8 14 21
f 16 25 10
f 6 22 10
f 10 22 16
f 7 25 3
f 3 24 7
f 6 10 7
f 7 10 25
f 7 13 6
f 24 13 7
f 15 11 23
f 23 13 15
f 15 13 11
f 20 24 3
f 3 27 20
f 11 24 20
f 16 22 2
f 22 9 2
f 2 14 16
f 2 9 14
f 18 12 17
f 5 18 17
f 11 20 26
f 26 12 11
f 26 17 12
f 26 20 27
f 26 27 5
f 5 17 26

