# https://github.com/mikedh/trimesh
v 0.09698476 -0.00654652 0.01311059
v 0.05016484 -0.05447031 0.01020251
v -0.04084127 0.02260797 0.02737964
v -0.08899784 -0.02564616 -0.00466950
v -0.06132712 0.05463922 -0.01276937
v -0.10260474 0.03178016 0.02539749
v 0.00927635 -0.06552480 0.02022584
v 0.08426481 -0.04446739 -0.01779339
v 0.04645428 0.05593762 -0.01070817
v -0.09280605 -0.00419933 0.01339559
v 0.08051928 0.04212407 0.02062185
v -0.07416050 -0.05760715 -0.00884630
v -0.06249352 -0.05628753 -0.01943668
v 0.05530351 -0.06798744 -0.01770841
v 0.08502312 -0.02650181 -0.01777670
v 0.00352618 0.07451551 -0.02377955
v 0.02629651 0.06796944 -0.02246954
v 0.04925796 0.05933933 0.01750428
v -0.00003406 0.02066422 -0.02421255
v 0.06582212 0.05701953 0.00714601
v -0.03655221 -0.02153382 -0.02553005
f 18 16 6
f 6 16 5
f 14 13 21
f 21 5 16
f 13 5 21
f 1 7 2
f 2 7 14
f 12 13 14
f 14 7 12
f 16 18 20
f 1 15 20
f 6 7 3
f 3 18 6
f 19 21 16
f 10 7 6
f 10 12 7
f 6 5 4
f 4 10 6
f 12 10 4
f 4 5 13
f 13 12 4
f 1 20 11
f 11 20 18
f 18 3 11
f 11 7 1
f 11 3 7
f 16 20 17
f 17 19 16
f 21 19 8
f 14 21 8
f 8 17 15
f 19 17 8
f 8 15 1
f 1 2 8
f 8 2 14
f 9 20 15
f 15 17 9
f 9 17 20

