# https://github.com/mikedh/trimesh
v -0.06742715 -0.02683806 0.00138090
v 0.06456138 -0.01766019 0.00455040
v 0.07655906 -0.02845045 0.00169418
v -0.02056181 -0.02970216 0.00330308
v 0.01545901 -0.02561350 0.00367828
v 0.05773240 -0.01896280 -0.00641749
v 0.01617574 0.03404730 0.00694904
v -0.06208344 0.01314196 -0.00511590
v -0.07567671 0.02500143 -0.00282294
v 0.00073758 0.02959530 -0.00647404
v 0.03866079 0.03662595 0.00374075
v -0.06382187 0.02973275 0.00078763
v -0.03819579 -0.01622939 0.00418166
v -0.06992205 -0.02304658 0.00337064
v 0.07619365 0.01060207 0.00489045
v 0.00728607 0.00046998 0.00577137
v 0.07959988 -0.00473187 -0.00176074
v -0.01638062 0.00639182 0.00565295
v -0.07362614 0.02779099 0.00283911
v -0.06693478 -0.02866221 -0.00432354
v -0.06672843 0.02458826 0.00356210
v 0.03600170 -0.03787618 -0.00123124
v -0.05522969 0.03282521 -0.00520976
f 3 6 17
f 22 6 3
f 9 14 19
f 20 14 9
f 20 6 22
f 17 6 10
f 10 11 17
f 6 20 10
f 17 11 15
f 15 3 17
f 15 11 7
f 7 19 21
f 21 19 14
f 9 19 23
f 11 10 23
f 7 11 23
f 3 15 2
f 2 15 7
f 14 20 1
f 1 20 22
f 8 10 20
f 8 23 10
f 8 20 9
f 9 23 8
f 12 19 7
f 7 23 12
f 12 23 19
f 22 3 4
f 4 1 22
f 14 1 4
f 16 2 7
f 16 4 2
f 3 2 5
f 5 4 3
f 2 4 5
f 18 16 7
f 14 16 18
f 7 21 18
f 18 21 14
f 14 4 13
f 13 16 14
f 4 16 13

