# https://github.com/mikedh/trimesh
v 0.06443196 0.03265298 0.00404603
v -0.08682037 -0.00749954 0.00284698
v -0.02016381 0.03904821 -0.00582325
v 0.00260875 -0.04642794 -0.00089679
v 0.07042976 0.04143010 0.00052084
v -0.06634436 -0.03201134 0.00394081
v -0.05272133 0.01837093 0.00496120
v -0.03428927 0.03921913 0.00495437
v -0.01278131 0.02584526 0.00540632
v -0.05506781 0.04758388 -0.00575602
v 0.07084839 -0.02136609 -0.00497140
v -0.06358998 -0.04352268 0.00206271
v 0.07825920 0.02505823 0.00419440
v 0.01603976 -0.04642618 0.00517033
v 0.05131311 -0.03712816 -0.00214586
v 0.08069695 -0.03218169 -0.00058276
v 0.06389422 0.01282549 -0.00318477
v -0.03293533 0.04294086 0.00469284
v -0.06792086 -0.01153376 -0.00717701
v 0.07654771 -0.00551128 -0.00048290
v -0.02855133 -0.02844756 0.00585092
f 2 10 19
f 2 19 12
f 18 10 2
f 13 14 16
f 10 18 5
f 5 18 1
f 1 13 5
f 5 13 16
f 4 12 19
f 19 11 4
f 4 14 12
f 2 12 6
f 12 14 6
f 9 13 1
f 10 5 3
f 3 19 10
f 3 11 19
f 16 11 20
f 20 5 16
f 11 5 20
f 15 11 16
f 15 4 11
f 16 14 15
f 14 4 15
f 14 13 21
f 13 9 21
f 21 6 14
f 17 5 11
f 11 3 17
f 17 3 5
f 7 21 9
f 7 18 2
f 2 6 7
f 6 21 7
f 18 7 8
f 8 7 9
f 1 18 8
f 8 9 1

