# https://github.com/mikedh/trimesh
v 0.04517980 -0.05736278 -0.01981514
v 0.05856085 -0.04292255 0.00376103
v -0.04083489 -0.03739870 -0.02757460
v 0.02404325 0.08073072 -0.02624046
v 0.06913680 0.00165669 0.00480808
v 0.04644869 0.01689817 0.01817220
v -0.07408890 -0.02592307 -0.00587417
v 0.06045078 -0.03604474 -0.00227914
v -0.02394574 0.07722068 0.00001327
v 0.05668412 0.00275283 0.01781711
v 0.00567199 0.08717204 -0.00782961
v 0.06795312 0.03716016 0.00920464
v -0.02273437 -0.07309821 -0.01082934
v -0.04739165 0.06994278 0.02292740
v 0.04379428 0.07516303 0.00933279
v 0.00793035 -0.08738320 0.03060039
v 0.05950765 0.01963617 -0.00361159
v -0.06523349 -0.05649849 -0.02869258
v 0.04850799 -0.05393825 -0.01569666
f 11 14 15
f 9 18 7
f 7 14 9
f 9 14 11
f 16 14 7
f 7 18 16
f 4 9 11
f 18 9 4
f 11 15 4
f 15 12 4
f 6 15 14
f 14 16 6
f 18 1 13
f 13 16 18
f 13 1 16
f 3 1 18
f 18 4 3
f 3 4 1
f 17 12 5
f 17 4 12
f 5 1 17
f 1 4 17
f 10 6 16
f 5 12 10
f 10 12 15
f 15 6 10
f 10 2 5
f 16 2 10
f 8 1 5
f 5 2 8
f 16 1 19
f 19 2 16
f 1 8 19
f 19 8 2

