# https://github.com/mikedh/trimesh
v -0.02502863 -0.04416827 -0.01649245
v 0.05709434 0.01837019 0.01375122
v -0.09140358 -0.00485714 -0.01079946
v -0.05971988 0.05384970 0.01493446
v -0.08561922 -0.02122907 -0.00718836
v 0.03400880 -0.07726966 0.00997458
v -0.00809909 -0.05481215 0.02338121
v 0.08141444 0.01772629 -0.00063678
v -0.03009853 0.04891835 0.02108605
v 0.02528357 0.08426499 -0.01693183
v 0.05037007 0.03901772 0.01145661
v 0.01954253 0.09613307 -0.00768500
v -0.05439056 -0.03677124 -0.01193537
v -0.06870240 -0.03231046 0.00969012
v 0.05134003 -0.08853663 -0.00422623
v -0.02400955 0.01995504 0.02283107
v -0.03611407 0.07490581 -0.00619120
v -0.07332003 -0.04233120 0.00108451
v -0.03489625 -0.07199778 -0.00460231
v 0.00544457 0.07864621 -0.02484619
v 0.07992365 -0.04561712 0.00448394
f 8 15 20
f 21 15 8
f 17 20 3
f 8 20 10
f 1 20 15
f 15 19 1
f 3 20 1
f 15 21 6
f 6 21 7
f 6 19 15
f 7 19 6
f 7 21 2
f 2 21 8
f 5 14 3
f 18 19 7
f 7 14 18
f 18 5 19
f 14 5 18
f 4 17 3
f 3 14 4
f 20 17 12
f 12 10 20
f 17 4 12
f 12 4 9
f 8 10 12
f 7 2 16
f 16 2 9
f 9 4 16
f 16 14 7
f 16 4 14
f 13 1 19
f 19 5 13
f 3 1 13
f 13 5 3
f 9 2 11
f 11 12 9
f 11 2 8
f 8 12 11

