# https://github.com/mikedh/trimesh
v 0.08007737 0.01836174 -0.00023962
v -0.04435829 -0.02282342 0.00422826
v -0.06905087 -0.00536151 0.00598795
v 0.05947433 -0.02221141 0.00058237
v -0.04469284 0.01531802 0.00772051
v 0.07230087 0.02042072 -0.00308587
v -0.04112698 -0.02657586 0.00077952
v 0.04331804 -0.00567767 -0.00574252
v -0.05828230 -0.01685635 -0.00575914
v 0.08482797 0.00238829 -0.00486381
v 0.04818547 -0.01447157 -0.00341557
v -0.08100586 -0.00450450 0.00110825
v -0.05830015 0.01506463 -0.00814908
v -0.07631518 0.01141426 0.00754783
v 0.02105774 0.02068110 0.00648067
v -0.00362616 -0.00023355 -0.00863907
v 0.06581022 -0.00427876 0.00627209
v 0.07522404 -0.01783036 0.00258008
v 0.03134425 0.01265019 0.00724854
v -0.08806592 0.02065567 -0.00254091
f 20 15 6
f 10 16 6
f 1 18 10
f 10 6 1
f 1 6 15
f 5 15 20
f 20 14 5
f 13 9 20
f 16 9 13
f 20 6 13
f 13 6 16
f 12 9 7
f 12 14 20
f 20 9 12
f 7 9 4
f 10 18 4
f 14 12 3
f 17 5 14
f 14 3 17
f 18 1 17
f 11 9 16
f 11 4 9
f 10 4 11
f 2 12 7
f 2 3 12
f 2 17 3
f 7 4 2
f 2 4 18
f 18 17 2
f 15 5 19
f 5 17 19
f 19 1 15
f 19 17 1
f 8 16 10
f 10 11 8
f 8 11 16

