# https://github.com/mikedh/trimesh
v -0.01395919 -0.03317379 -0.00540218
v 0.06977475 0.02984921 -0.00274615
v -0.06561808 0.01031640 0.00420263
v 0.10249230 0.00600803 0.00396959
v 0.01772669 0.02700638 -0.00399984
v 0.01592071 -0.03257672 0.00468324
v -0.02380620 0.03108433 0.00425504
v -0.07709940 0.03500964 -0.00347251
v 0.01346100 -0.03326992 -0.00204731
v -0.07159179 -0.03074689 0.00237592
v -0.08407728 0.01743869 0.00039255
v 0.02830650 0.02780997 0.00361956
v 0.09680676 -0.01393569 -0.00240571
v -0.07022898 -0.01980657 0.00443663
v 0.04982608 -0.02907666 -0.00287392
v 0.00831922 0.03351848 -0.00362862
v 0.05233666 -0.03028416 0.00366035
v 0.00807901 -0.01782268 0.00572642
v 0.08924805 -0.00096999 0.00434781
v -0.09143087 -0.03061877 0.00094993
v -0.09337903 -0.01044181 0.00340160
v 0.09174914 0.02422342 -0.00271483
v -0.07846497 -0.02603916 -0.00350828
v 0.02228891 -0.00662272 -0.00480720
v 0.03812159 0.03135041 -0.00331166
f 8 1 23
f 13 22 4
f 5 1 8
f 11 8 21
f 11 7 8
f 4 22 12
f 12 7 4
f 4 7 18
f 1 6 20
f 20 23 1
f 21 8 20
f 8 23 20
f 1 13 15
f 1 5 24
f 24 5 22
f 24 13 1
f 22 13 24
f 3 11 21
f 7 11 3
f 3 18 7
f 16 5 8
f 8 7 16
f 6 18 14
f 21 20 14
f 14 3 21
f 18 3 14
f 4 18 19
f 19 18 6
f 9 6 1
f 1 15 9
f 17 19 6
f 6 9 17
f 17 9 15
f 17 15 13
f 4 19 17
f 17 13 4
f 2 12 22
f 7 12 2
f 2 16 7
f 10 20 6
f 6 14 10
f 10 14 20
f 22 5 25
f 25 2 22
f 5 16 25
f 16 2 25

