# https://github.com/mikedh/trimesh
v -0.02769438 0.00035902 -0.00496803
v -0.07835098 -0.02363204 0.00226989
v -0.03864842 -0.02344981 0.00439183
v 0.01212603 0.01693738 0.00549521
v -0.01794937 0.02779329 -0.00166460
v -0.06111662 0.02475191 0.00219308
v 0.06832403 -0.01580868 -0.00165185
v 0.08310365 0.02338401 -0.00381631
v -0.05429026 -0.02399528 -0.00507157
v 0.05365856 -0.00814853 0.00546526
v 0.06304606 -0.02633231 0.00308148
v 0.01301822 0.02802375 0.00307961
v 0.03158775 -0.01990736 0.00480321
v -0.06618163 0.01189564 0.00522676
v -0.05469031 0.02367984 -0.00433430
v -0.08562618 -0.02250079 -0.00367055
v -0.07706093 -0.02543520 -0.00273137
v -0.00663485 0.02048173 0.00525735
v 0.08344798 0.00069525 -0.00325177
v -0.01760887 -0.01965760 0.00604118
v 0.03945459 -0.01916830 -0.00516941
v -0.08058789 0.00612338 0.00378193
v 0.07760318 0.02190679 -0.00414109
v 0.07847309 -0.01082024 0.00105074
v 0.03049040 -0.02125274 -0.00393324
v -0.05871989 -0.02215768 0.00460609
v 0.08823412 0.01182959 -0.00171151
v 0.08748440 0.01398555 -0.00254821
f 16 15 9
f 22 15 16
f 23 19 21
f 25 21 11
f 11 9 25
f 25 9 21
f 24 19 27
f 27 10 24
f 24 10 11
f 11 21 7
f 21 19 7
f 7 24 11
f 19 24 7
f 1 9 15
f 21 9 1
f 15 23 1
f 1 23 21
f 17 9 11
f 16 9 17
f 11 10 13
f 2 22 16
f 26 22 2
f 16 17 2
f 2 17 11
f 15 22 6
f 12 5 6
f 6 5 15
f 14 22 26
f 14 6 22
f 15 5 8
f 8 23 15
f 8 5 12
f 8 12 27
f 19 23 8
f 3 2 11
f 26 2 3
f 20 14 26
f 26 3 20
f 20 13 10
f 11 13 20
f 20 3 11
f 4 20 10
f 14 20 4
f 27 12 4
f 4 10 27
f 27 19 28
f 28 8 27
f 19 8 28
f 14 4 18
f 6 14 18
f 18 4 12
f 12 6 18

