# https://github.com/mikedh/trimesh
v 0.02628451 0.08062150 -0.02237182
v 0.05921940 -0.04412933 -0.00069745
v 0.04720873 0.03120859 0.01611899
v 0.04703441 0.02028775 0.01799181
v 0.06865713 -0.01925108 -0.00311664
v 0.00109750 -0.09559928 0.03149787
v 0.02237827 -0.01726290 -0.02818129
v 0.06730281 0.03809625 -0.01050256
v -0.00004004 0.09056395 0.00294557
v -0.00145459 0.06129235 -0.02881491
v -0.04057065 0.08148080 0.01087534
v 0.05673278 -0.03494867 -0.02083374
v -0.05829235 0.04114328 0.03005230
v -0.02383235 -0.08504629 0.00159173
v -0.05731353 0.02563306 0.00649434
v 0.00255624 -0.07539530 -0.00696056
v -0.00980490 -0.07663741 -0.00644950
v -0.05409866 -0.06400768 -0.00083524
v -0.05650509 -0.05316687 -0.03197381
v 0.00286135 -0.03399572 0.02807393
v 0.07026262 0.02588526 0.01252955
v -0.03765936 0.08273558 0.00576736
v 0.02137860 0.08589196 -0.00777449
v 0.00882535 -0.08613250 0.02090908
v 0.02017707 0.07385290 0.00840747
v -0.01317940 0.07358002 -0.02327471
v -0.01232509 0.06061241 -0.02621411
f 4 6 21
f 18 6 13
f 13 19 18
f 13 4 3
f 3 4 21
f 13 6 20
f 20 4 13
f 6 4 20
f 6 18 14
f 14 18 19
f 21 6 2
f 8 12 1
f 7 12 19
f 1 12 7
f 1 9 23
f 21 8 23
f 23 8 1
f 24 2 6
f 19 12 16
f 12 2 16
f 2 24 16
f 6 14 16
f 16 24 6
f 5 8 21
f 12 8 5
f 21 2 5
f 5 2 12
f 21 23 25
f 25 23 9
f 25 3 21
f 13 3 25
f 15 19 13
f 15 22 19
f 9 22 11
f 13 25 11
f 11 25 9
f 11 15 13
f 22 15 11
f 26 9 1
f 26 22 9
f 19 22 26
f 26 27 19
f 17 14 19
f 19 16 17
f 17 16 14
f 10 7 19
f 19 27 10
f 1 7 10
f 10 26 1
f 27 26 10

