# https://github.com/mikedh/trimesh
v -0.00529036 -0.10037325 0.00810773
v 0.03081416 0.07944413 -0.01331908
v 0.09418902 0.05899431 0.01670823
v -0.06664212 -0.09411850 0.00864434
v -0.09383048 -0.07521504 -0.00561659
v 0.06275918 0.09648485 0.00405612
v -0.10155392 -0.03187686 -0.00875945
v 0.05298803 0.10029400 0.00329967
v 0.00242270 -0.09922125 0.01040296
v -0.03197041 0.09145828 -0.00952421
v -0.01969661 0.09147318 -0.01227055
v -0.00302632 0.05145486 -0.01662319
v 0.10362294 -0.05140526 -0.01386744
v -0.05737468 0.08529700 0.00480940
v 0.04550329 0.07518687 0.01146803
v -0.09610355 0.04645136 0.00709454
v 0.07571840 -0.06293557 -0.00113753
v 0.01754402 0.09039258 -0.01224488
v -0.08960223 -0.00096413 0.00891624
v -0.09741958 -0.02680473 0.00445885
v 0.04195018 -0.08755016 -0.00407769
v -0.09978495 -0.00660285 0.00620710
f 7 13 5
f 3 17 13
f 7 16 10
f 10 11 7
f 8 11 10
f 21 5 13
f 1 5 21
f 13 17 21
f 4 5 1
f 15 3 8
f 6 3 13
f 8 3 6
f 13 2 6
f 18 11 8
f 8 6 18
f 18 6 2
f 12 2 13
f 12 13 7
f 7 11 12
f 11 18 12
f 12 18 2
f 8 10 14
f 14 10 16
f 14 15 8
f 16 3 14
f 3 15 14
f 22 16 7
f 9 4 1
f 3 4 9
f 17 3 9
f 1 21 9
f 9 21 17
f 19 3 16
f 19 4 3
f 16 22 19
f 19 22 4
f 5 4 20
f 4 22 20
f 7 5 20
f 20 22 7

