# https://github.com/mikedh/trimesh
v 0.08614904 0.02007767 -0.00519362
v 0.03892255 -0.08001012 0.01145284
v 0.02688797 -0.09935348 0.00236134
v 0.04476129 0.00940548 0.02251920
v 0.01190940 0.08030564 -0.02279004
v -0.00470892 0.08014340 -0.01952968
v 0.04044565 -0.07570377 -0.01224095
v 0.02695987 -0.09511074 0.01042252
v -0.04650529 0.08393105 -0.00642878
v 0.00246658 0.04445320 -0.02611065
v 0.03364452 0.08665800 -0.00988358
v 0.05801721 0.06610345 0.00613428
v -0.09377217 -0.03803851 0.00449455
v -0.06203933 0.04891659 0.02690771
v 0.07525605 -0.04976823 -0.01195725
v -0.03312493 -0.07586680 0.00315030
v 0.07673643 0.00378742 0.01765449
v -0.03130808 -0.03538893 -0.02779253
v 0.09551581 -0.03341187 -0.00157607
v 0.07444379 -0.02793755 -0.01489347
v -0.00930312 0.09998643 -0.00455994
v -0.09842010 -0.01601014 -0.00739341
v 0.00535094 -0.06970859 0.02233651
v -0.03443465 -0.07387149 -0.00851858
v 0.00369910 0.08429027 -0.01904258
f 21 14 12
f 22 14 9
f 9 14 21
f 22 18 24
f 19 20 1
f 1 20 5
f 25 9 21
f 21 5 25
f 22 24 13
f 13 14 22
f 13 23 14
f 4 12 14
f 14 23 4
f 10 20 18
f 5 20 10
f 7 24 18
f 12 1 11
f 11 1 5
f 21 12 11
f 11 5 21
f 9 25 6
f 6 25 5
f 5 10 6
f 22 9 6
f 6 18 22
f 6 10 18
f 23 13 16
f 16 13 24
f 12 4 17
f 19 1 17
f 17 1 12
f 17 2 19
f 23 2 17
f 17 4 23
f 18 20 15
f 15 7 18
f 15 20 19
f 24 7 3
f 3 16 24
f 7 15 3
f 3 15 19
f 23 16 8
f 16 3 8
f 8 2 23
f 19 2 8
f 8 3 19

