# https://github.com/mikedh/trimesh
v -0.06375805 0.05731144 0.01482122
v 0.01024781 0.11328408 -0.01050915
v 0.00279315 -0.09862801 0.01376945
v -0.03502901 0.06676867 0.01871347
v 0.04163249 -0.11466385 -0.00320180
v 0.07369876 0.08073728 0.00614043
v 0.03549208 -0.01557279 -0.02230264
v -0.08389409 -0.05772646 -0.00250787
v -0.01827058 -0.07593770 0.01354482
v -0.07824620 0.07328302 0.01203920
v -0.09283094 0.01058922 0.00750934
v 0.07923161 0.02259678 -0.01021565
v 0.09578516 0.02490351 -0.00319681
v -0.08299211 0.00973627 -0.01902895
v -0.03353708 -0.09461453 -0.00836246
v -0.09289847 0.05174110 0.00924901
v -0.07092447 -0.01779377 -0.02063137
v -0.01997385 0.09368161 -0.00999792
v 0.04487854 0.07913036 0.01084154
v 0.09752406 0.01119299 0.00452392
v 0.05152853 0.03769117 0.01942628
v 0.05631061 -0.09396740 0.01358836
v -0.10019504 -0.00475770 0.00347304
v 0.08409705 -0.04923139 0.00249992
v 0.05159758 -0.09158839 -0.00325843
f 15 7 5
f 5 3 15
f 5 7 25
f 14 2 7
f 7 2 12
f 22 3 5
f 8 15 3
f 23 14 8
f 16 14 23
f 23 11 16
f 13 6 20
f 13 12 2
f 2 6 13
f 5 25 24
f 24 22 5
f 20 22 24
f 24 13 20
f 12 13 24
f 24 25 7
f 7 12 24
f 15 8 17
f 17 8 14
f 7 15 17
f 17 14 7
f 2 14 18
f 9 11 23
f 23 8 9
f 9 8 3
f 21 22 20
f 20 6 21
f 3 22 21
f 4 9 3
f 3 21 4
f 1 16 11
f 11 9 1
f 9 4 1
f 16 1 10
f 10 1 4
f 10 4 2
f 14 16 10
f 10 18 14
f 2 18 10
f 19 21 6
f 19 4 21
f 19 6 2
f 2 4 19

