# https://github.com/mikedh/trimesh
v 0.05020411 0.02515919 0.01753222
v -0.06798880 -0.00729023 -0.02602667
v -0.09109833 0.01978599 0.00422576
v -0.09076267 -0.03311210 -0.00631030
v 0.09577308 0.01118403 -0.01297156
v -0.04248088 -0.06937975 0.01426788
v 0.01243438 0.09080778 0.00280849
v 0.05921568 0.06937444 0.00135708
v -0.03536319 -0.07555862 -0.00827478
v -0.00785487 0.07531679 -0.02023206
v 0.01864638 -0.08115609 0.02494882
v -0.08220453 0.04600064 0.02199545
v -0.07176084 -0.03865944 -0.02577150
v 0.09246973 -0.03179830 0.00235789
v 0.07860505 0.04195649 0.00966032
v 0.08189093 -0.03407024 -0.01965951
v -0.01687498 0.07305770 -0.01199075
v -0.03857204 0.04008793 0.02348937
v 0.06207955 0.05052327 0.01523091
v -0.09143953 0.00259603 -0.01135475
v 0.04371982 -0.06202742 -0.01117386
f 2 13 20
f 2 16 13
f 7 19 8
f 11 19 1
f 7 12 18
f 18 19 7
f 18 1 19
f 18 12 11
f 11 1 18
f 11 12 6
f 11 6 9
f 10 8 5
f 7 8 10
f 5 16 10
f 16 2 10
f 10 2 20
f 20 3 10
f 10 3 12
f 14 16 5
f 5 8 15
f 15 8 19
f 15 14 5
f 15 19 11
f 11 14 15
f 20 13 4
f 4 3 20
f 13 9 4
f 4 9 6
f 12 3 4
f 4 6 12
f 13 16 21
f 21 9 13
f 11 9 21
f 21 14 11
f 16 14 21
f 17 12 7
f 7 10 17
f 17 10 12

