# https://github.com/mikedh/trimesh
v 0.04061812 -0.01507547 0.00697435
v 0.04945538 -0.03002131 -0.00570252
v 0.06031745 0.01541856 -0.00492055
v 0.04721613 -0.02458816 0.00534029
v 0.02891210 -0.03540153 0.00196394
v -0.06345642 -0.02125500 0.00511238
v -0.01672718 -0.02839997 0.00438623
v 0.02915862 -0.01993492 -0.00562235
v 0.06294850 -0.01477634 0.00706686
v -0.08963621 -0.01390212 0.00121182
v -0.08817556 -0.01750917 -0.00331756
v 0.07410573 -0.03421586 0.00160712
v 0.02276100 0.01748478 0.00587600
v -0.09046705 -0.03232545 -0.00214378
v 0.08358149 -0.00033224 0.00122056
v 0.07627139 0.03863947 0.00214510
v 0.06587838 0.03618079 -0.00447394
v 0.01982857 0.02680832 -0.00504984
v -0.07171339 -0.03367774 -0.00226461
v -0.05570265 -0.00636838 -0.00457723
v 0.04118556 -0.03804580 -0.00587311
v 0.08220081 -0.02224575 -0.00483702
v 0.08548939 0.03430824 -0.00094027
v -0.03291914 0.01527419 -0.00455458
v -0.07457761 0.00361558 0.00468969
v 0.08467006 0.03390969 0.00032227
v -0.06816418 0.02383155 0.00518597
v -0.08687230 0.02665654 -0.00204460
v -0.07496737 0.03365161 0.00147178
v 0.07783768 -0.00614426 0.00578369
v -0.07783699 -0.02904655 -0.00379132
f 14 21 19
f 19 5 14
f 21 5 19
f 30 16 9
f 23 22 17
f 17 16 23
f 18 28 17
f 12 30 9
f 12 5 21
f 21 22 12
f 14 6 10
f 10 28 14
f 27 28 10
f 27 6 1
f 9 16 13
f 13 16 27
f 13 1 9
f 27 1 13
f 8 18 21
f 20 8 21
f 18 8 20
f 27 16 29
f 29 28 27
f 16 17 29
f 29 17 28
f 15 22 23
f 15 12 22
f 30 12 15
f 23 16 26
f 16 30 26
f 26 15 23
f 30 15 26
f 2 22 21
f 21 18 2
f 4 12 9
f 5 12 4
f 9 1 4
f 25 6 27
f 27 10 25
f 25 10 6
f 14 28 11
f 28 20 11
f 24 28 18
f 18 20 24
f 24 20 28
f 3 17 22
f 22 2 3
f 18 17 3
f 3 2 18
f 7 1 6
f 7 4 1
f 5 4 7
f 14 5 7
f 7 6 14
f 31 20 21
f 31 11 20
f 31 21 14
f 14 11 31

