# https://github.com/mikedh/trimesh
v -0.07266908 0.02409984 -0.01073601
v -0.02174728 -0.04942415 0.00354850
v 0.06402718 0.05317117 0.00218936
v 0.02540006 -0.06995721 -0.00478835
v -0.03354816 -0.01237632 -0.02844358
v -0.05900093 0.01632355 0.01939083
v 0.06213826 -0.01033664 0.00177181
v 0.06571723 0.02231061 0.00644694
v 0.02442047 -0.07157028 0.02139809
v 0.05425404 -0.05257249 -0.00203532
v -0.00061693 0.06644771 -0.00381082
v 0.04002737 0.00035797 -0.02006890
v 0.05732537 0.05222402 0.00686699
v -0.01361615 0.07689234 0.00186740
v -0.06742226 0.00383482 -0.02225385
v 0.05851034 0.05720746 -0.00512024
v -0.04900312 -0.05004373 -0.03132938
v 0.01904905 -0.06439408 0.02767352
v 0.03691351 0.06166983 0.00374698
v -0.07319153 -0.00388820 0.00602632
v 0.05712131 0.03444656 0.02119336
v 0.03513546 -0.06776656 0.01357492
v -0.03924468 0.03014395 0.02127562
v 0.05993311 -0.03448395 -0.00755438
v 0.01633298 0.04656135 -0.01114514
f 20 17 2
f 7 24 8
f 8 21 7
f 9 17 4
f 17 24 4
f 12 24 17
f 15 17 20
f 20 1 15
f 6 1 20
f 23 21 14
f 11 15 14
f 14 15 1
f 14 6 23
f 1 6 14
f 18 21 23
f 23 6 18
f 18 6 20
f 20 2 18
f 18 17 9
f 18 2 17
f 3 21 8
f 8 24 3
f 10 4 24
f 24 7 10
f 10 7 21
f 5 12 17
f 17 15 5
f 11 14 16
f 24 12 16
f 16 3 24
f 21 3 13
f 22 10 21
f 22 18 9
f 21 18 22
f 9 4 22
f 4 10 22
f 11 16 25
f 25 15 11
f 25 5 15
f 12 5 25
f 25 16 12
f 19 13 3
f 19 16 14
f 3 16 19
f 19 14 21
f 21 13 19

