# https://github.com/mikedh/trimesh
v -0.07999987 -0.06780507 -0.01553941
v -0.02378746 0.08571207 -0.01461186
v 0.10327990 0.03937605 0.02025722
v 0.10562985 -0.00304201 0.00019272
v -0.06247583 0.07827796 -0.00987492
v 0.08806603 -0.02351370 0.00546293
v -0.09629497 -0.04404314 -0.00279807
v -0.02831918 -0.03702062 -0.02050367
v 0.09892251 -0.01907983 -0.01093053
v 0.04133091 0.07477096 -0.02064010
v -0.07660537 0.04694560 0.02211063
v 0.01315410 -0.07196302 0.01835076
v 0.01144874 0.06196663 -0.01966438
v -0.01042512 -0.09266755 0.00060562
v -0.09184332 0.00539502 0.01649117
v 0.05547842 -0.04317901 -0.01767570
v -0.08135032 -0.00647989 -0.00855926
v 0.01739983 -0.09552583 0.00709464
f 5 11 2
f 7 12 15
f 15 12 11
f 15 5 7
f 11 5 15
f 7 5 17
f 14 12 7
f 9 10 4
f 16 10 9
f 2 10 13
f 1 14 7
f 16 14 1
f 7 17 1
f 1 17 5
f 1 5 2
f 6 9 4
f 2 11 3
f 3 10 2
f 11 12 3
f 4 10 3
f 12 6 3
f 3 6 4
f 8 10 16
f 16 1 8
f 8 13 10
f 2 13 8
f 8 1 2
f 9 6 18
f 18 14 16
f 16 9 18
f 12 14 18
f 18 6 12

