# https://github.com/mikedh/trimesh
v -0.10661299 0.02575706 0.02221530
v 0.06238099 0.04597636 0.02152046
v 0.07219767 -0.04469827 0.00497562
v -0.06273424 -0.04026605 -0.01825837
v -0.11302205 0.01188235 -0.00335912
v -0.10737424 0.01699714 0.01436962
v 0.04488773 -0.06899765 0.00498571
v -0.07868053 0.04764950 0.01699994
v -0.01535526 -0.05769911 -0.00552044
v 0.04667503 0.05856181 -0.00154600
v 0.11550804 0.00917520 0.00265366
v -0.09654589 -0.03328032 0.00155174
v 0.08475776 -0.00241630 -0.02002972
v 0.09147982 -0.04452772 -0.03105093
v -0.02623527 0.07214585 -0.01728323
v -0.09853667 -0.02136311 -0.02257135
v -0.02359475 -0.06751617 0.02488961
v -0.07884689 0.01988965 0.02500600
v 0.11576967 0.00767374 -0.00313850
v 0.05995249 0.06366993 0.00907478
v 0.07213278 -0.04585426 0.00298992
v 0.06938391 0.01397813 0.02680947
v -0.07628491 -0.02609579 -0.02446296
v -0.08851771 0.04457072 -0.00398984
v 0.08947951 -0.04856044 -0.03378731
v -0.01039007 0.04018635 -0.02663907
v 0.06525592 0.02896003 0.03305226
f 7 3 22
f 22 17 7
f 27 17 22
f 11 22 3
f 27 22 11
f 19 20 11
f 11 20 27
f 7 25 21
f 21 3 7
f 25 3 21
f 27 8 1
f 1 12 17
f 10 20 19
f 2 8 27
f 27 20 2
f 2 20 8
f 16 12 5
f 24 16 5
f 5 1 24
f 24 1 8
f 14 3 25
f 14 11 3
f 14 25 19
f 19 11 14
f 18 17 27
f 27 1 18
f 18 1 17
f 5 12 6
f 6 1 5
f 12 1 6
f 20 10 15
f 8 20 15
f 15 24 8
f 16 24 15
f 17 12 4
f 12 16 4
f 16 15 26
f 7 17 9
f 17 4 9
f 9 25 7
f 9 4 25
f 23 26 25
f 16 26 23
f 25 4 23
f 23 4 16
f 25 26 13
f 19 25 13
f 13 10 19
f 13 15 10
f 13 26 15

