# https://github.com/mikedh/trimesh
v 0.08378251 -0.01767119 -0.01792031
v 0.03792486 -0.06912551 0.01398840
v 0.12296488 0.00777608 -0.00183621
v -0.10826889 0.01603285 0.01396653
v 0.08545554 0.00835550 0.01389678
v -0.11008678 -0.00045724 -0.01111222
v -0.07810052 -0.04823453 -0.00687813
v 0.08107533 0.06169839 -0.00280405
v -0.09054137 -0.01311699 -0.01513097
v -0.00755599 -0.04823351 0.01526948
v -0.08733484 0.02452443 -0.00202995
v -0.04805493 -0.07079196 0.00570172
v 0.01562772 0.08042012 -0.00829090
v 0.06962238 -0.04658085 0.00858891
v 0.08854539 0.02402958 0.01519677
v 0.01505530 0.06187669 -0.01469173
v -0.09030263 -0.00374295 -0.01407189
v -0.08272748 -0.04938151 0.00638679
v 0.00000306 -0.03210799 0.01644557
v 0.00538820 0.08438396 0.00249098
v -0.07044236 -0.02593912 -0.01698631
v -0.12166539 -0.01383740 -0.00211537
v -0.03696970 -0.07637629 -0.00371136
v 0.01658512 -0.06705113 -0.00016557
v -0.09135637 -0.04888104 -0.00244506
f 20 4 15
f 15 4 19
f 11 4 20
f 8 15 3
f 20 15 8
f 2 15 19
f 1 8 3
f 16 8 1
f 20 8 13
f 13 8 16
f 13 11 20
f 3 15 5
f 15 2 5
f 19 4 10
f 10 2 19
f 14 1 3
f 2 1 14
f 3 5 14
f 14 5 2
f 24 2 23
f 23 1 24
f 24 1 2
f 16 1 21
f 21 1 23
f 23 7 21
f 11 13 6
f 16 17 6
f 6 13 16
f 22 4 6
f 4 11 6
f 23 2 12
f 2 10 12
f 9 6 17
f 9 17 16
f 16 21 9
f 9 21 7
f 22 6 9
f 18 4 22
f 18 10 4
f 18 12 10
f 23 12 25
f 12 18 25
f 25 7 23
f 25 18 22
f 22 9 25
f 25 9 7

