# https://github.com/mikedh/trimesh
v -0.04654313 -0.03098262 -0.01814876
v -0.03139948 -0.06085689 -0.00357214
v -0.03704362 -0.04106949 0.00586872
v 0.00255751 -0.05564863 -0.00681057
v -0.08448533 0.00305779 0.00529371
v -0.06045578 0.03709643 0.01697833
v 0.00851325 -0.06858053 0.00891823
v 0.01313311 0.06027970 -0.00373876
v 0.07375467 0.00398117 -0.00462339
v 0.06476080 -0.03972505 -0.01757450
v -0.05978240 0.00035619 0.01234232
v -0.00076366 0.02514534 -0.02018210
v -0.08499056 -0.00641345 -0.01391084
v -0.06926002 -0.04998988 -0.01068393
v 0.08839408 0.03772496 0.02763604
v -0.02930683 0.05453114 0.00191271
v 0.01259886 0.04937807 -0.01910278
v -0.08286457 0.00573523 0.01030235
v -0.03210200 0.04583636 -0.01017358
v -0.00854741 0.06073341 -0.02023907
v -0.00426814 0.06110782 -0.01925552
f 15 7 10
f 6 7 15
f 1 14 13
f 10 14 1
f 15 10 9
f 20 1 13
f 15 21 8
f 7 14 2
f 2 14 10
f 17 9 10
f 17 20 21
f 10 20 17
f 17 21 15
f 15 9 17
f 13 6 19
f 19 20 13
f 6 20 19
f 10 1 12
f 12 20 10
f 1 20 12
f 16 20 6
f 16 6 15
f 15 8 16
f 21 20 16
f 16 8 21
f 4 10 7
f 7 2 4
f 4 2 10
f 7 6 11
f 11 18 7
f 6 18 11
f 3 14 7
f 7 18 3
f 3 18 14
f 5 6 13
f 5 18 6
f 13 14 5
f 14 18 5

