# https://github.com/mikedh/trimesh
v 0.04394476 -0.02243594 -0.01260705
v -0.02808088 0.07766410 -0.00690200
v -0.06078505 0.03013952 -0.00616561
v 0.03462783 0.03751016 0.01588851
v -0.06450242 0.01105149 -0.01104834
v 0.01659423 0.06445566 -0.01302149
v -0.04144064 -0.07262008 -0.01153800
v -0.05236978 -0.02320617 0.00092518
v -0.03444031 -0.05223882 -0.01301716
v -0.02290514 -0.07094750 0.01009129
v -0.03150634 0.04997695 0.01381131
v 0.01653817 0.07543172 -0.00710149
v 0.05584223 0.04911735 -0.00368252
v 0.03602591 -0.05653630 -0.01256168
v 0.04978529 0.07121676 0.00656031
v -0.01819656 -0.08365946 -0.00520091
v -0.00975158 -0.09677625 0.00766581
v -0.04794286 0.00460611 0.00675918
v 0.05330712 0.01892186 0.01159643
v -0.04715769 -0.04750504 0.00275019
v 0.04333921 0.07547343 0.01143140
v 0.00415714 -0.09228983 0.01266630
v 0.03680803 -0.03951676 0.00127496
v 0.06862358 0.02427729 -0.00217024
v 0.00728902 -0.08149621 0.01381904
v -0.00085178 -0.05025736 0.01741412
v -0.04122523 0.02945226 0.00891211
f 17 14 22
f 21 2 11
f 23 14 24
f 24 22 23
f 23 22 14
f 3 2 5
f 11 2 3
f 5 2 6
f 4 11 26
f 4 21 11
f 26 11 10
f 11 18 10
f 17 22 10
f 10 22 26
f 16 14 17
f 17 7 16
f 16 7 14
f 27 18 11
f 11 3 27
f 27 3 18
f 24 14 1
f 24 1 13
f 13 1 6
f 2 21 12
f 12 6 2
f 12 13 6
f 14 7 9
f 9 1 14
f 6 1 9
f 9 7 5
f 5 6 9
f 26 22 25
f 24 21 19
f 21 4 19
f 19 22 24
f 19 25 22
f 19 4 26
f 26 25 19
f 20 7 17
f 17 10 20
f 5 7 20
f 20 10 18
f 15 12 21
f 13 12 15
f 15 21 24
f 24 13 15
f 5 20 8
f 8 20 18
f 8 3 5
f 18 3 8

