# https://github.com/mikedh/trimesh
v -0.01070572 -0.07153036 0.01324090
v 0.06501155 -0.01661045 -0.00039569
v -0.06424345 0.02626541 0.01168577
v -0.04475492 0.01927806 0.01670394
v 0.01592312 0.05714405 -0.01857685
v 0.04289487 0.05179405 0.00377210
v 0.05931474 0.00195039 0.00921407
v -0.03339884 -0.00951701 -0.01545611
v 0.05174610 -0.02506792 -0.01727246
v 0.05041565 -0.03845868 -0.00402381
v 0.03179358 0.04920738 0.00839444
v -0.00551888 -0.05956014 0.01513956
v -0.06777039 0.04230831 0.00540197
v -0.04977561 0.02829504 0.01468582
v -0.06680045 -0.01448497 -0.00076052
v -0.02185805 -0.01959564 -0.01884035
v 0.03854472 -0.04880101 -0.00589770
v 0.04784541 0.01950302 0.01484835
v -0.02876458 -0.06094433 -0.00004171
v 0.03244356 0.01214068 0.01580315
v 0.06088569 0.04372453 0.00249745
f 7 1 2
f 11 4 18
f 8 15 13
f 16 15 8
f 13 5 8
f 8 5 16
f 1 15 19
f 19 15 16
f 19 17 1
f 18 4 20
f 3 15 1
f 1 4 3
f 13 15 3
f 1 7 12
f 12 7 18
f 18 20 12
f 12 4 1
f 12 20 4
f 14 11 13
f 4 11 14
f 13 3 14
f 14 3 4
f 21 7 2
f 18 7 21
f 21 11 18
f 2 1 10
f 1 17 10
f 6 21 5
f 11 21 6
f 6 5 13
f 13 11 6
f 9 10 17
f 2 10 9
f 9 19 16
f 17 19 9
f 16 5 9
f 9 21 2
f 5 21 9

