# https://github.com/mikedh/trimesh
v 0.05714295 -0.03576216 0.00111585
v -0.05551504 -0.03527451 0.00385697
v -0.00889741 -0.04965106 -0.00178704
v 0.07907685 -0.02618799 0.00389907
v -0.03384333 0.04394011 0.00397429
v -0.07756329 0.01817054 0.00257275
v 0.05075524 -0.03832032 -0.00210910
v 0.09287193 -0.00503042 0.00136062
v 0.08163625 0.02911036 -0.00349710
v -0.06384490 -0.04169980 -0.00401892
v 0.00869357 0.00156347 0.00520961
v 0.08633985 0.03716782 0.00182393
v -0.08378795 -0.04264664 0.00271337
v 0.08669164 -0.01217261 -0.00202666
v 0.00016701 0.04374981 0.00222474
v -0.02711766 0.04638915 -0.00428093
v 0.03509181 0.01618773 -0.00482472
v -0.07048051 0.04236215 0.00281923
v -0.08368296 -0.00722837 -0.00229810
v -0.03443113 0.04566693 -0.00244811
v 0.02398557 -0.03416873 -0.00433314
f 10 3 13
f 13 3 4
f 3 1 4
f 12 9 16
f 8 9 12
f 12 4 8
f 14 9 8
f 8 4 14
f 17 10 16
f 16 9 17
f 11 12 5
f 4 12 11
f 20 5 16
f 16 18 20
f 20 18 5
f 13 18 6
f 16 10 19
f 19 18 16
f 19 6 18
f 19 10 13
f 13 6 19
f 16 5 15
f 15 12 16
f 5 12 15
f 7 1 3
f 7 4 1
f 7 14 4
f 13 4 2
f 4 11 2
f 2 11 5
f 2 18 13
f 5 18 2
f 3 10 21
f 21 7 3
f 10 17 21
f 14 7 21
f 9 14 21
f 21 17 9

