# https://github.com/mikedh/trimesh
v -0.02609791 0.05810929 -0.00035136
v 0.06063546 -0.03355260 -0.00197129
v -0.06932275 -0.00211034 0.00146230
v -0.05053194 0.05364209 0.01477372
v -0.06579810 -0.01668323 -0.01191286
v 0.01861758 0.01150958 0.02295310
v 0.06928667 -0.01654872 -0.00966091
v -0.01137682 -0.05367413 0.01135258
v -0.03385934 0.04575956 -0.01390445
v 0.04614187 -0.03991306 -0.01532002
v 0.02007572 0.05610442 -0.00262846
v 0.05504476 0.04775379 0.00265852
v 0.00189596 -0.05520314 0.00896076
v 0.03421323 0.01546909 0.02202241
v -0.00701996 -0.06594818 -0.00096861
v 0.06188338 0.00729838 0.01621063
v 0.00102439 0.03248234 -0.01552520
v -0.05186289 0.04143580 -0.00035228
v -0.05677466 -0.00062268 0.01015362
v -0.04297591 0.05772463 0.00373382
v 0.05888573 -0.04070189 -0.00258925
v -0.02953164 -0.06178492 -0.00442649
v 0.05311421 -0.00566681 -0.01592360
v -0.03790756 -0.05386180 0.00041669
v -0.01891326 0.02367202 -0.01729973
v -0.05862280 -0.03540917 -0.01510148
v -0.06758411 -0.00966985 -0.00548772
v 0.06298728 0.03111276 0.01392829
v 0.02254171 -0.01176095 -0.01889146
f 3 4 18
f 23 12 7
f 25 26 9
f 19 4 3
f 6 4 19
f 15 21 13
f 29 26 25
f 12 23 17
f 25 9 17
f 17 29 25
f 23 29 17
f 20 18 4
f 20 9 18
f 1 9 20
f 5 9 26
f 18 9 5
f 3 26 24
f 24 19 3
f 2 21 7
f 28 12 4
f 7 12 28
f 6 19 8
f 19 24 8
f 15 13 8
f 6 8 14
f 14 4 6
f 14 28 4
f 16 13 21
f 21 2 16
f 28 14 16
f 16 8 13
f 16 14 8
f 16 2 7
f 7 28 16
f 26 29 10
f 10 21 15
f 7 21 10
f 10 23 7
f 10 29 23
f 12 17 11
f 11 17 9
f 11 9 1
f 4 12 11
f 1 20 11
f 11 20 4
f 27 26 3
f 27 5 26
f 3 18 27
f 18 5 27
f 22 24 26
f 22 10 15
f 26 10 22
f 15 8 22
f 22 8 24

