# https://github.com/mikedh/trimesh
v 0.04472270 0.03598652 0.01289892
v -0.04867623 -0.06120695 0.00018027
v 0.03342837 -0.07067133 0.00525919
v 0.03552004 -0.06871213 -0.00873754
v -0.03791038 0.07084965 -0.00647099
v 0.06022041 -0.05257393 -0.00763331
v -0.04304532 0.05681939 0.00648583
v -0.01131791 -0.04845467 0.01234920
v -0.05457725 -0.04057404 -0.00463990
v 0.06653699 -0.02303105 0.00857070
v 0.06508438 0.03644118 0.00039495
v 0.03056239 0.03121850 0.01438456
v -0.00130941 -0.04160340 0.01302827
v 0.02361884 0.06352331 -0.00998757
v 0.01070750 0.06067279 0.00208521
v 0.06324185 -0.04595524 -0.01575123
v -0.07561377 0.04565433 0.00661151
v -0.09099458 0.03746541 0.00208536
v 0.08170662 -0.00764237 -0.00780364
v -0.04384271 -0.00043156 0.01093680
f 16 14 19
f 19 14 11
f 11 10 19
f 3 8 2
f 14 16 5
f 13 10 12
f 13 8 3
f 3 10 13
f 15 11 14
f 14 5 15
f 15 5 7
f 17 5 18
f 7 5 17
f 12 7 17
f 3 2 4
f 18 5 9
f 9 5 16
f 9 2 18
f 16 4 9
f 9 4 2
f 6 10 3
f 19 10 6
f 3 4 6
f 6 4 16
f 6 16 19
f 11 15 1
f 12 10 1
f 10 11 1
f 1 7 12
f 1 15 7
f 20 13 12
f 12 17 20
f 8 13 20
f 20 17 18
f 18 2 20
f 20 2 8

