# https://github.com/mikedh/trimesh
v -0.03958698 0.07854667 -0.00370444
v -0.08474090 -0.01516468 -0.01228756
v -0.03727378 -0.05179133 -0.01930541
v 0.05565083 0.08751733 0.02687894
v -0.03970161 -0.01353310 -0.03234750
v 0.03882434 0.08447083 -0.01705703
v -0.07241943 0.03492094 -0.00565975
v -0.08028958 0.00080629 -0.00297639
v 0.04591830 -0.07588688 -0.00130487
v 0.00773139 0.06744448 -0.02474900
v 0.06331289 0.04391197 -0.00619368
v -0.05824057 -0.06704740 -0.00682189
v -0.01703194 -0.05755010 0.02129534
v 0.03824723 -0.07401000 -0.01506816
v 0.01132307 -0.10183322 0.01638830
v 0.02302814 -0.08135394 -0.00918562
v -0.03099269 -0.07095272 -0.01150429
v -0.06903104 0.01534226 0.01737428
v 0.03899634 0.02989610 0.02761701
v -0.01018071 0.08502579 0.00055763
v -0.05371402 -0.08732853 0.00484607
v -0.05264265 0.07621857 0.01057786
v -0.04781177 -0.07727219 -0.00389355
v 0.07831439 -0.01643849 0.01116753
v 0.07516632 0.00635219 -0.01412418
v 0.05067702 -0.02329232 -0.03082408
f 25 4 24
f 21 18 2
f 13 21 15
f 18 21 13
f 22 18 4
f 24 15 9
f 9 25 24
f 4 18 19
f 18 13 19
f 19 13 15
f 24 4 19
f 19 15 24
f 18 22 7
f 4 25 11
f 11 6 4
f 25 6 11
f 20 22 4
f 4 6 20
f 10 7 1
f 1 7 22
f 22 20 1
f 1 6 10
f 1 20 6
f 2 18 8
f 8 7 2
f 18 7 8
f 12 21 2
f 10 6 26
f 26 6 25
f 17 12 3
f 23 17 21
f 21 12 23
f 23 12 17
f 25 9 14
f 14 26 25
f 17 3 14
f 14 9 15
f 10 26 5
f 26 14 5
f 5 14 3
f 2 7 5
f 5 7 10
f 5 12 2
f 5 3 12
f 15 21 16
f 16 14 15
f 21 17 16
f 17 14 16

