# https://github.com/mikedh/trimesh
v -0.09837055 -0.02612368 -0.00820918
v 0.03411416 -0.09495502 0.00214341
v 0.03778164 0.09652198 -0.00459768
v 0.05975969 0.07925435 -0.00220724
v -0.04485349 0.10297151 0.00540437
v -0.05164543 -0.08454690 0.01146373
v 0.00531426 0.09486814 -0.00808585
v 0.07405324 0.05795152 -0.00275951
v 0.05278926 0.00272415 -0.01472611
v 0.07857768 0.04467784 0.01611787
v 0.06459883 -0.08567769 -0.00878624
v -0.05454078 -0.08795511 0.00875027
v -0.07760174 -0.06538092 0.00640765
v 0.08378580 -0.06514153 -0.00860822
v 0.00707060 -0.04644551 0.01907877
v -0.06027482 0.02535384 0.01295137
v -0.06445328 0.09419628 -0.00222250
v -0.05432954 -0.01502630 -0.01907464
v -0.09978864 -0.05091915 -0.01341746
v -0.08678426 0.07554369 -0.00326087
v 0.10402793 -0.01400590 -0.00518477
v 0.05214335 -0.08836909 -0.00700699
v 0.10592562 -0.04467908 0.00139808
v 0.09690097 0.02264052 0.00936350
v -0.00157594 -0.08365456 0.01447497
v -0.04193256 -0.08098774 -0.00003328
v 0.09121695 0.03513019 0.01145147
f 10 15 23
f 16 10 5
f 15 10 16
f 15 16 6
f 23 15 25
f 25 2 23
f 15 6 25
f 23 2 11
f 5 10 3
f 3 7 5
f 9 7 3
f 3 8 9
f 24 10 23
f 9 8 21
f 21 24 23
f 8 24 21
f 2 25 12
f 12 25 6
f 13 6 16
f 19 12 13
f 13 12 6
f 18 7 9
f 9 11 18
f 18 11 19
f 19 11 22
f 22 11 2
f 4 3 10
f 8 3 4
f 14 11 9
f 9 21 14
f 23 11 14
f 14 21 23
f 19 13 1
f 20 16 5
f 7 18 20
f 20 18 19
f 19 1 20
f 20 13 16
f 20 1 13
f 2 12 26
f 26 22 2
f 26 12 19
f 19 22 26
f 27 24 8
f 8 4 27
f 10 24 27
f 27 4 10
f 5 7 17
f 17 20 5
f 7 20 17

